<svg width="41" height="60" viewBox="0 0 41 60" fill="none" xmlns="http://www.w3.org/2000/svg">
<path d="M16.4815 13.3333V5.03923C16.4815 5.02289 16.463 5.01345 16.4497 5.02304L5.55752 12.9287C5.28245 13.1283 5.28245 13.5383 5.55752 13.738L16.4497 21.6436C16.463 21.6532 16.4815 21.6438 16.4815 21.6274V13.3333Z" fill="#CC3E82"/>
<path d="M16.4815 50.5C13.9962 50.5 11.9815 52.5147 11.9815 55C11.9815 57.4853 13.9962 59.5 16.4815 59.5V50.5ZM16.4497 21.6436L13.8065 25.2855L13.8066 25.2855L16.4497 21.6436ZM5.55752 13.738L8.2008 10.0961L8.20079 10.0961L5.55752 13.738ZM5.55752 12.9287L8.20079 16.5705L8.2008 16.5705L5.55752 12.9287ZM16.4497 5.02304L19.093 8.66489L19.0931 8.66483L16.4497 5.02304ZM16.4815 55C16.4815 59.5 16.4839 59.5 16.4863 59.5C16.4872 59.5 16.4897 59.5 16.4916 59.5C16.4953 59.5 16.4993 59.5 16.5036 59.5C16.5122 59.4999 16.5221 59.4999 16.5332 59.4998C16.5554 59.4996 16.5825 59.4993 16.6144 59.4987C16.6783 59.4977 16.7613 59.4957 16.8622 59.4922C17.064 59.4852 17.3383 59.4719 17.6748 59.4469C18.3462 59.3969 19.2746 59.2994 20.3762 59.1082C22.5589 58.7292 25.5339 57.9632 28.5602 56.3869C31.6078 54.7996 34.7652 52.3578 37.1467 48.6367C39.5406 44.8961 40.9815 40.1257 40.9815 34.1667H31.9815C31.9815 38.6243 30.9223 41.6664 29.5663 43.7852C28.1978 45.9234 26.3551 47.3879 24.4028 48.4047C22.4291 49.4327 20.4041 49.9687 18.8367 50.2408C18.0633 50.3751 17.4293 50.4403 17.007 50.4717C16.7966 50.4874 16.6411 50.4945 16.5499 50.4976C16.5044 50.4992 16.4751 50.4998 16.4633 50.5C16.4573 50.5001 16.4558 50.5001 16.4588 50.5001C16.4603 50.5001 16.4629 50.5 16.4667 50.5C16.4686 50.5 16.4707 50.5 16.4732 50.5C16.4744 50.5 16.4765 50.5 16.4771 50.5C16.4793 50.5 16.4815 50.5 16.4815 55ZM40.9815 34.1667C40.9815 28.2076 39.5406 23.4372 37.1467 19.6967C34.7652 15.9755 31.6078 13.5337 28.5602 11.9464C25.5339 10.3702 22.5589 9.60412 20.3762 9.22518C19.2746 9.03393 18.3462 8.93639 17.6748 8.88643C17.3382 8.86139 17.064 8.84814 16.8622 8.84113C16.7613 8.83762 16.6783 8.83568 16.6144 8.8346C16.5825 8.83407 16.5554 8.83375 16.5332 8.83357C16.5221 8.83347 16.5122 8.83342 16.5036 8.83338C16.4993 8.83336 16.4953 8.83335 16.4916 8.83334C16.4897 8.83334 16.4872 8.83334 16.4863 8.83334C16.4839 8.83333 16.4815 8.83333 16.4815 13.3333C16.4815 17.8333 16.4793 17.8333 16.4771 17.8333C16.4765 17.8333 16.4744 17.8333 16.4732 17.8333C16.4707 17.8333 16.4686 17.8333 16.4667 17.8333C16.4629 17.8333 16.4603 17.8333 16.4588 17.8333C16.4558 17.8332 16.4573 17.8332 16.4633 17.8333C16.4751 17.8335 16.5044 17.8341 16.5499 17.8357C16.6411 17.8389 16.7966 17.846 17.007 17.8616C17.4293 17.893 18.0633 17.9583 18.8367 18.0925C20.4041 18.3646 22.4291 18.9007 24.4028 19.9286C26.3551 20.9455 28.1978 22.4099 29.5663 24.5481C30.9223 26.667 31.9815 29.7091 31.9815 34.1667H40.9815ZM11.9815 5.03923V13.3333H20.9815V5.03923H11.9815ZM11.9815 13.3333V21.6274H20.9815V13.3333H11.9815ZM19.093 18.0018L8.2008 10.0961L2.91424 17.3798L13.8065 25.2855L19.093 18.0018ZM8.2008 16.5705L19.093 8.66489L13.8065 1.38119L2.91424 9.28683L8.2008 16.5705ZM8.20079 10.0961C10.4014 11.6933 10.4014 14.9734 8.20079 16.5705L2.91424 9.28683C0.163542 11.2833 0.163537 15.3834 2.91424 17.3798L8.20079 10.0961ZM11.9815 21.6274C11.9815 17.9678 16.1315 15.8524 19.0929 18.0017L13.8066 25.2855C16.7945 27.4541 20.9815 25.3197 20.9815 21.6274H11.9815ZM20.9815 5.03923C20.9815 1.34742 16.7947 -0.787824 13.8064 1.38126L19.0931 8.66483C16.1312 10.8147 11.9815 8.69837 11.9815 5.03923H20.9815Z" fill="black"/>
<path d="M16.4815 13.3333V5.03923C16.4815 5.02289 16.463 5.01345 16.4497 5.02304L5.55752 12.9287C5.28245 13.1283 5.28245 13.5383 5.55752 13.738L16.4497 21.6436C16.463 21.6532 16.4815 21.6438 16.4815 21.6274V13.3333Z" fill="#CC3E82"/>
<path d="M16.4815 52.5C15.1008 52.5 13.9815 53.6193 13.9815 55C13.9815 56.3807 15.1008 57.5 16.4815 57.5V52.5ZM16.4497 21.6436L14.9812 23.6669L14.9813 23.6669L16.4497 21.6436ZM5.55752 13.738L7.02601 11.7147L7.026 11.7147L5.55752 13.738ZM5.55752 12.9287L7.026 14.9519L7.02601 14.9519L5.55752 12.9287ZM16.4497 5.02304L17.9182 7.04629L17.9183 7.04626L16.4497 5.02304ZM16.4815 55C16.4815 57.5 16.4828 57.5 16.4843 57.5C16.4848 57.5 16.4863 57.5 16.4875 57.5C16.4898 57.5 16.4924 57.5 16.4954 57.5C16.5012 57.4999 16.5083 57.4999 16.5166 57.4998C16.5333 57.4997 16.5547 57.4995 16.5809 57.499C16.6331 57.4981 16.7042 57.4965 16.7928 57.4934C16.97 57.4873 17.2179 57.4754 17.5264 57.4524C18.1424 57.4066 19.0054 57.3162 20.0341 57.1376C22.0801 56.7824 24.8439 56.0675 27.6363 54.6131C30.4406 53.1526 33.3057 50.928 35.4622 47.5586C37.6255 44.1784 38.9815 39.7921 38.9815 34.1667H33.9815C33.9815 38.9579 32.8375 42.3841 31.2508 44.8633C29.6572 47.3533 27.5224 49.0349 25.3266 50.1785C23.119 51.3283 20.8829 51.9155 19.1788 52.2113C18.3325 52.3583 17.633 52.4307 17.1554 52.4662C16.917 52.4839 16.7351 52.4924 16.6193 52.4964C16.5615 52.4984 16.5203 52.4993 16.4969 52.4997C16.4852 52.4999 16.4779 52.5 16.4753 52.5C16.474 52.5 16.4738 52.5 16.4749 52.5C16.4754 52.5 16.4762 52.5 16.4773 52.5C16.4778 52.5 16.4789 52.5 16.4792 52.5C16.4803 52.5 16.4815 52.5 16.4815 55ZM38.9815 34.1667C38.9815 28.5413 37.6255 24.1549 35.4622 20.7748C33.3057 17.4054 30.4406 15.1808 27.6363 13.7202C24.8439 12.2658 22.0801 11.5509 20.0341 11.1957C19.0054 11.0171 18.1424 10.9268 17.5264 10.8809C17.2179 10.858 16.97 10.8461 16.7928 10.8399C16.7042 10.8368 16.6331 10.8352 16.5809 10.8343C16.5547 10.8339 16.5333 10.8336 16.5166 10.8335C16.5083 10.8334 16.5012 10.8334 16.4954 10.8334C16.4924 10.8334 16.4898 10.8333 16.4875 10.8333C16.4863 10.8333 16.4848 10.8333 16.4843 10.8333C16.4828 10.8333 16.4815 10.8333 16.4815 13.3333C16.4815 15.8333 16.4803 15.8333 16.4792 15.8333C16.4789 15.8333 16.4778 15.8333 16.4773 15.8333C16.4762 15.8333 16.4754 15.8333 16.4749 15.8333C16.4738 15.8333 16.474 15.8333 16.4753 15.8333C16.4779 15.8333 16.4852 15.8334 16.4969 15.8336C16.5203 15.834 16.5615 15.8349 16.6193 15.8369C16.7351 15.8409 16.917 15.8494 17.1554 15.8671C17.633 15.9027 18.3325 15.9751 19.1788 16.122C20.8829 16.4179 23.119 17.005 25.3266 18.1548C27.5224 19.2984 29.6572 20.98 31.2508 23.47C32.8375 25.9492 33.9815 29.3754 33.9815 34.1667H38.9815ZM13.9815 5.03923V13.3333H18.9815V5.03923H13.9815ZM13.9815 13.3333V21.6274H18.9815V13.3333H13.9815ZM17.9182 19.6204L7.02601 11.7147L4.08903 15.7612L14.9812 23.6669L17.9182 19.6204ZM7.02601 14.9519L17.9182 7.04629L14.9812 2.99979L4.08903 10.9054L7.02601 14.9519ZM7.026 11.7147C8.12629 12.5133 8.12628 14.1533 7.026 14.9519L4.08903 10.9054C2.43861 12.1033 2.43861 14.5633 4.08903 15.7612L7.026 11.7147ZM13.9815 21.6274C13.9815 19.6016 16.2788 18.4305 17.9182 19.6203L14.9813 23.6669C16.6471 24.8759 18.9815 23.686 18.9815 21.6274H13.9815ZM18.9815 5.03923C18.9815 2.98096 16.6473 1.79052 14.9812 2.99983L17.9183 7.04626C16.2786 8.23637 13.9815 7.06482 13.9815 5.03923H18.9815Z" fill="#CC3E82"/>
</svg>
