<svg width="1728" height="1170" viewBox="0 0 1728 1170" fill="none" xmlns="http://www.w3.org/2000/svg">
<path d="M0 297H1728V535C1728 535 1501.74 820.262 1304.5 932C966.093 1123.71 645.814 828.914 313.5 1031C173.135 1116.36 0 1311.5 0 1311.5V297Z" fill="#e5b7ff"/>
<path d="M0 220H1728V458C1728 458 1501.74 743.262 1304.5 855C966.093 1046.71 645.814 751.914 313.5 954C173.135 1039.36 0 1234.5 0 1234.5V220Z" fill="white"/>
<path d="M0 155H1728V393C1728 393 1501.74 678.262 1304.5 790C966.093 981.708 645.814 686.914 313.5 889C173.135 974.358 0 1169.5 0 1169.5V155Z" fill="#e5b7ff"/>
<path d="M0 78H1728V316C1728 316 1501.74 601.262 1304.5 713C966.093 904.708 645.814 609.914 313.5 812C173.135 897.358 0 1092.5 0 1092.5V78Z" fill="white"/>
<path d="M0 0H1728V238C1728 238 1501.74 523.262 1304.5 635C966.093 826.708 645.814 531.914 313.5 734C173.135 819.358 0 1014.5 0 1014.5V0Z" fill="#e5b7ff"/>
</svg>
