<svg width="95" height="101" viewBox="0 0 95 101" fill="none" xmlns="http://www.w3.org/2000/svg">
<path d="M53.881 1.10238L50.5737 3.03162L50.2981 5.23648L50.5737 6.61451L51.5383 9.37058L50.5737 10.6108L48.92 15.1583L50.9871 18.19L50.1603 21.7729L49.4712 26.7338L49.3334 31.4191L51.1249 34.7264L52.3651 35.8288L49.7469 41.7544L49.3334 47.6799L49.7469 53.0543L52.0895 56.0859L49.609 58.7042L50.0225 61.5981L50.5737 63.6651L49.0578 68.3504L48.7822 71.7955L49.3334 75.2406L50.1603 79.0991L49.0578 80.4771L48.7822 82.682L49.8847 88.1941V90.6746L49.4712 93.5685L50.4359 96.0489L52.7785 97.5648L54.2944 98.805L57.7394 99.494L62.1492 98.2538L65.3186 95.6355L67.7991 93.2929H69.8661L74.9649 93.5685L78.5478 91.777L80.8904 87.7807L81.166 84.8868L82.2685 84.6112L85.4379 83.0954L87.3672 80.8905L89.0208 77.7211L89.4342 74.6894L88.4696 71.2443L88.883 66.559L90.6745 65.0432L93.2927 62.0115V58.153L90.3989 54.1567L93.0171 51.814L92.4659 47.4043L89.9855 44.2348L89.7098 39.6873L87.505 37.6203L86.9538 36.6557L88.0562 33.4862L87.7806 27.8362L84.8867 23.8399L82.2685 21.6351L81.9929 16.812L80.8904 13.9181L78.1344 13.3669L76.4807 12.5401L76.8941 10.6108V8.13035L74.2759 4.68526L71.6576 3.44503L68.2125 3.99625L65.8699 5.78769L64.6296 3.99625L60.4955 2.34261L58.5663 1.79139L56.637 0.688965L53.881 1.10238Z" fill="#FC7272" stroke="#FC7272" stroke-linecap="round"/>
<path d="M40.5733 0.965256L43.9318 2.8972L44.2117 5.10513L43.9318 6.48508L42.9522 9.24499L43.9318 10.487L45.611 15.0408L43.512 18.0767L44.3516 21.6646L45.0513 26.6324L45.1912 31.3243L43.3721 34.6362L42.1126 35.7402L44.7714 41.674L45.1912 47.6078L44.7714 52.9896L42.3925 56.0255L44.9114 58.6474L44.4915 61.5453L43.9318 63.6153L45.4711 68.3071L45.751 71.757L45.1912 75.2069L44.3516 79.0708L45.4711 80.4507L45.751 82.6587L44.6315 88.1785V90.6624L45.0513 93.5603L44.0717 96.0442L41.6928 97.5622L40.1535 98.8042L36.6551 99.4941L32.1771 98.2522L28.9586 95.6303L26.4397 93.2843H24.3407L19.163 93.5603L15.5247 91.7664L13.1457 87.7645L12.8659 84.8666L11.7464 84.5906L8.52784 83.0727L6.56873 80.8647L4.88949 77.6908L4.46968 74.6549L5.44924 71.205L5.02943 66.5132L3.21025 64.9952L0.551456 61.9593V58.0954L3.49012 54.0936L0.831329 51.7477L1.39108 47.3318L3.90993 44.1579L4.18981 39.604L6.42879 37.5341L6.98854 36.5681L5.86905 33.3942L6.14892 27.7364L9.08759 23.7345L11.7464 21.5266L12.0263 16.6968L13.1457 13.7989L15.9445 13.2469L17.6237 12.4189L17.2039 10.487V8.00303L19.8627 4.55314L22.5215 3.31118L26.0199 3.86316L28.3988 5.65711L29.6583 3.86316L33.8564 2.20722L35.8155 1.65523L37.7746 0.55127L40.5733 0.965256Z" fill="#FC7272" stroke="#FC7272" stroke-linecap="round"/>
<path d="M54.2463 0.039999C54.0958 0.0734339 53.9203 0.148662 53.8534 0.198815C53.7949 0.248967 53.5525 0.349272 53.3185 0.416142C53.0844 0.49137 52.8671 0.583316 52.842 0.62511C52.8086 0.675262 52.5913 0.809001 52.3572 0.934382C51.6551 1.28545 50.6019 2.02937 50.3929 2.32193C50.2843 2.47239 50.0669 2.86525 49.9081 3.1996C49.6239 3.80142 49.6239 3.80978 49.5403 5.54004C49.4484 7.42075 49.4818 7.78018 49.8329 8.5241C50.3762 9.66089 50.4514 9.88657 50.3344 9.98688C50.2174 10.0872 49.649 11.0484 49.5236 11.3493C49.4902 11.4329 49.3481 11.6586 49.2144 11.8509C49.089 12.0431 48.7713 12.5864 48.5289 13.0629L48.0776 13.9322L48.0525 14.8349C48.0274 15.6039 48.0441 15.7962 48.1946 16.1305C48.3534 16.49 49.0388 17.3843 49.2729 17.5348C49.3314 17.5682 49.5069 17.7939 49.6574 18.028C49.8162 18.262 50.0502 18.5211 50.1672 18.5964L50.3929 18.7468L49.9248 19.0979C49.2979 19.5743 48.9887 20.2012 48.9134 21.1625C48.88 21.5804 48.8967 21.9064 48.9469 22.0067C48.997 22.0987 49.2227 22.2491 49.4651 22.3494C49.8329 22.5082 49.8831 22.5584 49.8413 22.7172C49.8078 22.8175 49.7242 23.2187 49.6574 23.6116C49.5821 24.0045 49.4484 24.5478 49.3648 24.8236C48.9887 25.9855 48.9636 26.2279 48.9469 29.2119L48.9385 32.0957L49.1809 32.848C49.4735 33.7173 49.858 34.4529 50.2843 34.946C50.4514 35.1299 50.7273 35.4643 50.9112 35.6816C51.0867 35.8989 51.3208 36.1162 51.4294 36.1664C51.6885 36.2918 51.6802 36.3419 51.3458 36.8518C51.187 37.0858 51.0031 37.4704 50.9362 37.7044C50.8694 37.9384 50.7189 38.3146 50.6019 38.5403C50.4849 38.766 50.3511 39.1087 50.301 39.2926C50.2508 39.4848 50.0586 39.9612 49.8747 40.3541C49.6992 40.747 49.4317 41.516 49.2896 42.0593L49.0305 43.0456L48.9469 47.0578C48.8967 49.2645 48.8716 51.5381 48.8884 52.1148L48.9218 53.1597L49.3147 53.8033C49.532 54.1627 49.7075 54.472 49.7075 54.4971C49.7075 54.5974 50.1672 55.1741 50.4347 55.4165L50.7189 55.6673L50.3093 56.127C50.0837 56.3778 49.858 56.7205 49.7995 56.8793C49.7493 57.0381 49.6156 57.3056 49.5153 57.4644C49.3147 57.7737 49.0639 58.3839 48.8382 59.1111C48.7546 59.3869 48.7045 59.855 48.7045 60.4318C48.7045 61.4432 48.8299 61.8109 49.4651 62.6385L49.8078 63.0898L49.6741 63.374C49.5989 63.5328 49.5403 63.7418 49.5403 63.8505C49.5403 63.9591 49.4233 64.2684 49.2896 64.5275C49.0221 65.0291 48.7045 66.1073 48.7045 66.4918C48.7045 66.6089 48.5874 67.0268 48.4454 67.4196L48.1862 68.1218L48.111 70.922C48.0274 73.9645 48.0608 74.3992 48.4286 75.3521C48.5457 75.653 48.7295 76.1211 48.8382 76.3969C48.9385 76.6728 49.1224 77.0823 49.2394 77.308C49.3648 77.5337 49.4568 77.8179 49.4568 77.9266C49.4568 78.0436 49.1809 78.6287 48.8466 79.2305C48.5122 79.8324 48.1862 80.4509 48.1194 80.6014C48.0441 80.7936 48.0107 81.3118 48.0023 82.2313C47.994 83.8445 48.1194 84.5968 48.5874 85.8841C48.7881 86.4357 49.0639 87.932 49.2478 89.4365C49.3397 90.264 49.3397 90.2724 49.1558 90.4563C48.8884 90.707 48.88 90.7572 48.6961 93.1729C48.6042 94.3849 48.6125 94.4016 48.8215 95.0118C49.3314 96.4996 50.0837 97.394 51.4127 98.0878C52.2486 98.5308 52.6331 98.6395 52.8504 98.5225C52.9674 98.4556 53.0761 98.5225 53.3937 98.8735C53.9454 99.4837 54.7562 99.8515 55.7258 99.9351C56.7205 100.027 58.2251 100.019 59.0944 99.9267C59.646 99.8682 59.9553 99.7846 60.3482 99.5924C60.6324 99.4419 61.1339 99.2497 61.4515 99.1577C61.7775 99.0741 62.2038 98.8986 62.4128 98.7899C62.6217 98.6729 63.0062 98.489 63.2737 98.3804C64.2601 97.9708 65.5055 96.9761 65.6142 96.4913C65.6476 96.3659 66.1157 95.8644 66.8178 95.204C67.4531 94.6106 68.0215 94.0422 68.0883 93.9419C68.197 93.7747 68.2555 93.758 68.8406 93.7914C69.1917 93.8165 69.7434 93.9001 70.061 93.992C70.387 94.0756 70.9888 94.201 71.3984 94.2595C72.2343 94.3849 74.8088 94.4016 75.327 94.2929C75.7784 94.1926 77.517 93.432 77.8513 93.1896C77.9934 93.0809 78.169 92.989 78.2442 92.989C78.8795 92.989 79.941 91.9609 80.5178 90.7906C80.7184 90.3643 80.8855 89.9464 80.8855 89.8545C80.8855 89.7625 81.0527 89.4031 81.2617 89.0604C81.5125 88.6424 81.6378 88.3332 81.6378 88.1409C81.6378 87.9821 81.6963 87.6645 81.7632 87.4388C81.8301 87.2131 81.8886 86.8537 81.8886 86.6447C81.8886 86.4357 81.9555 86.0763 82.039 85.8423C82.1811 85.4327 82.1979 85.4243 82.5907 85.3658C82.8164 85.3324 83.1926 85.2321 83.4266 85.1401C83.6606 85.0482 84.1622 84.8727 84.5299 84.7556C85.207 84.5467 85.2237 84.5383 86.2268 83.5353C87.0794 82.691 87.3218 82.3734 87.8233 81.5375C88.1493 80.9859 88.5087 80.4342 88.609 80.3088C88.9266 79.9243 89.5619 78.7457 89.6204 78.4197C89.6538 78.2526 89.7625 78.0185 89.8712 77.8931C89.9715 77.7761 90.0885 77.4836 90.1303 77.2411C90.239 76.6142 90.1804 74.2989 90.0467 73.8057C89.9297 73.3794 89.8377 72.8863 89.7792 72.3011C89.7374 71.8665 89.6789 71.691 89.4449 71.3315L89.261 71.0306L89.5452 70.2951C89.8294 69.5846 89.8377 69.5344 89.7959 68.7153C89.7709 68.2555 89.7291 67.6788 89.704 67.4531L89.6455 67.0351L90.7906 65.9485C92.2283 64.5777 93.5574 63.0648 93.6326 62.7053C93.666 62.5549 93.7413 62.3626 93.7914 62.2707C93.9753 61.9698 94.0756 61.5017 94.2679 59.9386C94.3431 59.3117 94.3431 59.1529 94.2261 58.852C94.1508 58.6597 94.0923 58.3922 94.0923 58.2501C94.0923 57.9576 93.8666 57.2554 93.6995 57.0047C93.641 56.9127 93.4989 56.5282 93.3818 56.1521C93.2063 55.5837 93.0726 55.3413 92.546 54.6726L91.9191 53.8702L92.1865 53.6194C92.337 53.4857 92.5209 53.3686 92.6045 53.3686C92.8218 53.3686 93.7329 52.6331 93.8165 52.3907C94.0756 51.6802 94.1258 51.3458 94.1174 50.5434C94.1007 49.6072 94.0004 49.0388 93.7329 48.437C93.6326 48.228 93.5323 47.8435 93.4989 47.576C93.4571 47.2584 93.3484 46.9408 93.1561 46.6148C92.9973 46.3473 92.8218 46.013 92.7716 45.8625C92.7215 45.7037 92.4373 45.3108 92.1447 44.9848C91.8522 44.6505 91.5931 44.3245 91.5596 44.2409C91.5346 44.1657 91.3757 44.057 91.2169 43.9985L90.916 43.8898L90.9745 42.2933C91.033 40.5631 91.0163 40.4628 90.5315 39.326C90.4312 39.0752 90.3225 38.7743 90.2975 38.6573C90.2306 38.3564 89.2108 37.1862 88.9601 37.1193C88.8347 37.0942 88.7427 37.0357 88.7427 36.9939C88.7427 36.9521 88.6174 36.8351 88.4585 36.7431L88.1743 36.5676L88.2914 36.2249C88.3582 36.041 88.4418 35.6565 88.4836 35.364C88.5254 35.0714 88.6006 34.7538 88.6424 34.6702C88.8932 34.2021 89.0019 33.291 89.052 31.3016C89.0938 29.5546 89.0771 29.1869 88.9601 28.8024C88.8848 28.5516 88.8263 28.2256 88.8263 28.0919C88.8263 27.9498 88.7511 27.699 88.6592 27.5402C88.5672 27.3814 88.4502 27.1557 88.4 27.0387C87.9905 26.1443 87.7564 25.7013 87.3301 25.0577C86.7952 24.2552 86.3939 23.8373 85.8172 23.5029C85.6082 23.3859 85.09 22.9596 84.6553 22.5668C84.229 22.1739 83.8445 21.8563 83.8027 21.8563C83.7609 21.8563 83.7275 21.7978 83.7275 21.7309C83.7275 21.6557 83.6356 21.4216 83.5269 21.2043C83.2093 20.5607 83.0087 19.3988 82.8415 17.1336C82.808 16.6571 82.7161 16.189 82.5824 15.838C82.4653 15.5371 82.2982 15.0355 82.2062 14.7096C82.014 14.0492 81.6462 13.5393 81.0778 13.1632C80.4091 12.7118 80.2754 12.67 79.2472 12.6199C78.7039 12.5948 78.1773 12.553 78.0854 12.5363C77.9934 12.5112 77.8346 12.3357 77.7259 12.1351L77.5337 11.7673L77.7009 11.2741C77.96 10.5218 78.0436 9.88657 78.0436 8.78322V7.78018L77.6925 7.19506C77.0823 6.18366 76.4554 5.4063 75.2016 4.13577C74.5496 3.48379 74.2905 3.27482 73.7639 3.03242C72.8779 2.60613 72.6689 2.56433 71.1811 2.49746C70.0359 2.44731 69.8353 2.46403 69.5929 2.58941C69.4341 2.66464 69.083 2.76494 68.8156 2.79838C68.4896 2.84853 68.2054 2.95719 67.9797 3.11601C67.7874 3.24975 67.4698 3.39185 67.2608 3.42528C66.8011 3.50051 66.6506 3.57574 66.1909 3.94352L65.8315 4.23608L65.4804 3.91845C65.2882 3.74291 64.9455 3.41692 64.7114 3.19124C64.3186 2.81509 63.2069 2.22998 62.1286 1.82877C61.5184 1.60308 60.4652 1.36904 59.9302 1.34396C59.4454 1.31888 59.3786 1.29381 59.0693 0.976176C58.8269 0.742132 58.526 0.55824 58.0662 0.382707C57.4728 0.157021 57.2805 0.123586 56.127 0.0817927C55.4249 0.0567165 54.7729 0.0149229 54.681 0.00656416C54.589 -0.0101533 54.3884 0.00656416 54.2463 0.039999ZM56.5867 0.959458C57.0548 1.05976 57.6399 1.2353 57.8823 1.36068C59.0526 1.93743 59.9804 3.76799 60.1058 5.74065C60.1643 6.62667 60.2479 6.844 60.5488 6.99446C61.0252 7.22014 60.9834 7.97243 60.4652 8.74979C60.0807 9.31818 59.3033 9.48535 58.1749 9.23459C57.6817 9.12593 57.6567 9.13429 57.4143 9.32654C57.1468 9.53551 57.0716 9.72776 57.2554 9.74447C57.4477 9.75283 57.7737 9.81134 58.1916 9.91165C58.8938 10.0788 60.6658 10.1039 61.0169 9.95344C61.4348 9.78627 62.0533 9.25967 62.1537 8.99219C62.1954 8.87517 62.254 8.35693 62.2874 7.83869C62.3292 6.99446 62.3208 6.87743 62.1537 6.52637C61.9781 6.13351 61.8026 5.96633 61.3512 5.71557C61.1422 5.59855 61.0921 5.5066 61.0001 5.00508C60.8664 4.22772 60.3482 2.68971 60.1476 2.43059C59.9219 2.1464 59.9386 2.12132 60.3482 2.17983C61.2342 2.30521 63.0146 3.04914 63.6415 3.55066C63.7836 3.66768 64.0009 3.8265 64.118 3.91009C64.235 3.99367 64.4105 4.211 64.5025 4.38653C64.5944 4.57043 64.7365 4.75432 64.8284 4.79611C65.0625 4.92149 65.4804 5.63198 65.5557 6.01649C65.5891 6.20038 65.6643 6.46786 65.7312 6.61831C65.8816 6.97774 65.8733 7.97243 65.7145 8.34021C65.6392 8.5241 65.5891 8.9086 65.5891 9.2931C65.5891 9.65253 65.5557 10.0621 65.5139 10.1958C65.4052 10.5803 65.33 11.6837 65.3968 11.7924C65.4386 11.8509 65.681 11.9177 65.9485 11.9512L66.425 12.0097V10.7726C66.425 10.037 66.4751 9.23459 66.5503 8.81666C66.6172 8.4238 66.6757 7.91391 66.6757 7.67151V7.23686L67.7038 7.25358C68.6735 7.27029 68.7403 7.26193 69.0162 7.06133C69.175 6.9443 69.3254 6.844 69.3505 6.82728C69.501 6.72698 68.9827 6.57652 68.3224 6.52637C66.7259 6.40934 66.6757 6.40099 66.6757 6.14187C66.6757 6.01649 66.5838 5.74065 66.4668 5.52332C66.216 5.04687 66.2076 4.97164 66.425 4.97164C66.5253 4.97164 66.6924 4.87134 66.8011 4.75432C67.0017 4.53699 67.9713 4.06054 68.6484 3.84322C68.8406 3.78471 69.1165 3.66768 69.2586 3.59246C69.409 3.51723 69.9356 3.42528 70.4789 3.36677C71.3065 3.29154 71.5405 3.2999 72.1925 3.42528C73.0701 3.59246 74.0732 4.11906 74.4828 4.61222C74.6249 4.77939 74.8589 5.03016 75.0094 5.1639C75.1598 5.30599 75.4022 5.60691 75.5527 5.84095C75.7031 6.075 75.9372 6.4177 76.0876 6.6016C76.2381 6.78549 76.4136 7.06968 76.4889 7.2285C76.5641 7.38732 76.6811 7.613 76.7396 7.73002C77.0907 8.36529 77.2161 8.86681 77.1576 9.49371C77.1325 9.83642 77.074 10.1875 77.0405 10.2794C76.7981 10.8311 76.7062 11.1237 76.7062 11.3661C76.7062 11.6419 76.4889 12.1601 76.3718 12.1601C76.3384 12.1601 76.2632 12.1016 76.2047 12.0348C76.0876 11.8927 74.9592 11.3243 74.8004 11.3243C74.7502 11.3243 74.5246 11.2073 74.3072 11.0735C74.0899 10.9314 73.8642 10.8227 73.8057 10.8227C73.7388 10.8227 73.4964 10.7224 73.254 10.5971C72.7943 10.363 71.691 10.129 71.4569 10.2126C71.1142 10.3379 71.1058 10.689 71.4402 10.8645C71.5739 10.9314 71.9083 11.0401 72.1841 11.1069C72.46 11.1738 72.8863 11.341 73.137 11.4831C73.3878 11.6252 73.6469 11.7422 73.7138 11.7422C73.7806 11.7422 74.0063 11.8509 74.2236 11.993L74.6165 12.2437V12.8121C74.6165 13.1298 74.675 13.5644 74.7502 13.7817C74.8589 14.0994 74.9425 14.1997 75.1933 14.3C75.6196 14.4839 75.8118 14.4672 76.1462 14.2164L76.4303 13.9991L76.6142 14.4755C76.8734 15.1442 76.9653 15.6374 77.0238 16.7742C77.0573 17.3091 77.099 17.7688 77.1241 17.7856C77.1492 17.8106 77.2662 17.8524 77.3916 17.8859C77.5671 17.9277 77.6424 17.9026 77.751 17.7271C77.868 17.5515 77.8848 17.3258 77.8597 16.2225C77.843 15.3281 77.8012 14.8934 77.7343 14.8182C77.6758 14.7681 77.6256 14.626 77.6256 14.5089C77.6256 14.3836 77.5337 14.091 77.4167 13.8486C77.2997 13.5978 77.2328 13.3638 77.2579 13.3136C77.3164 13.2301 77.8931 13.2719 78.7123 13.4223C80.5094 13.765 81.0862 14.1913 81.5125 15.5204C81.6211 15.8547 81.7716 16.2977 81.8468 16.5067C82.0307 16.9831 82.1979 20.5021 82.0558 20.7696C81.9889 20.895 81.8802 20.9368 81.6378 20.9368C81.2199 20.9368 81.0527 21.1123 81.0527 21.5303C81.0527 21.873 80.9023 22.2408 80.6264 22.6002C80.4425 22.8342 80.4258 23.0766 80.5846 23.1351C80.6849 23.1769 81.3369 23.0683 82.039 22.9011C82.1394 22.876 82.365 22.7256 82.5406 22.5751C82.8331 22.3076 82.8666 22.2993 83.1006 22.3996C83.3514 22.4999 85.1151 24.0045 86.1348 24.9741C86.6029 25.4254 87.5307 27.1139 87.7063 27.8327C87.7397 27.9665 87.8233 28.1922 87.8902 28.3343C88.1911 28.9277 88.2747 31.0843 88.074 32.8814C87.9737 33.7674 87.7898 34.4529 87.3385 35.6899C86.9707 36.693 86.9373 36.7682 86.7199 37.0357C86.6113 37.1694 86.4775 37.3784 86.4274 37.4954C86.3772 37.6208 86.1683 37.8298 85.976 37.9552C85.5079 38.2728 85.4243 38.4232 85.5497 38.6907C85.6918 39.0167 86.0262 38.9749 86.5695 38.5737C86.8119 38.3898 87.0794 38.139 87.1546 38.0137C87.2298 37.8799 87.3803 37.7128 87.4722 37.6208C87.6394 37.4787 87.6645 37.4704 87.9319 37.6041C88.0908 37.671 88.3164 37.8716 88.4418 38.0304C88.5672 38.1892 88.7177 38.3229 88.7762 38.3229C88.935 38.3229 89.4867 39.2926 89.6789 39.9111C90.0551 41.1649 90.0969 41.8838 89.8628 43.0456C89.6204 44.2158 89.2359 44.9013 88.4669 45.5198L88.0406 45.8541L87.9319 45.4947C87.8651 45.2941 87.7397 44.8427 87.6477 44.4833C87.5642 44.1239 87.3803 43.614 87.2382 43.3549C87.1044 43.0958 86.9874 42.8366 86.9874 42.7865C86.9874 42.6193 86.1432 41.4575 85.6751 40.981C85.0816 40.3792 84.8894 40.2956 84.4046 40.4377C84.1956 40.4962 84.0201 40.5798 84.0033 40.6299C83.9866 40.6801 84.1789 40.8807 84.438 41.0813C85.3324 41.7667 86.1348 42.9871 86.5946 44.3412C87.28 46.3724 87.2298 47.4841 86.3856 49.1809C85.9091 50.1338 85.8005 50.2592 84.672 51.2288C84.2457 51.5966 83.878 51.9477 83.8612 52.0062C83.786 52.1901 83.9616 52.4408 84.1789 52.4993C84.3043 52.5244 84.5968 52.4575 84.9562 52.3238C85.441 52.1232 85.5915 52.0145 85.9844 51.5464C86.2351 51.2455 86.511 50.8777 86.6029 50.744C86.6865 50.6019 86.9038 50.3261 87.0794 50.1338C87.2632 49.9332 87.4053 49.7326 87.4053 49.6741C87.4053 49.6239 87.4806 49.4233 87.5725 49.2394C87.8567 48.646 88.074 47.9188 88.074 47.5593C88.074 47.2417 88.0991 47.2083 88.3666 47.108C88.7344 46.9742 89.7207 46.0046 90.1219 45.3777L90.4145 44.918L90.6485 45.0851C91.4092 45.6535 91.9943 46.3975 92.2868 47.1915C92.3955 47.4841 92.6045 48.0191 92.7466 48.3785C93.2982 49.7326 93.2899 50.6186 92.7299 51.4712C92.1197 52.374 91.476 52.9423 90.4981 53.4271C90.0133 53.6696 89.261 54.0039 88.8347 54.1794L88.0406 54.4887L86.9038 54.38C85.3575 54.2463 85.1485 54.3383 85.1485 55.1574C85.1485 55.5837 85.0315 55.801 83.9198 57.4978C82.4821 59.6795 81.7799 60.1559 79.1302 60.7745C77.751 61.0921 77.5003 61.2593 77.7677 61.6438C77.8931 61.8277 77.9266 61.8277 78.9129 61.7775C80.0831 61.7106 80.593 61.5853 81.4623 61.1423C82.783 60.4819 83.0672 60.1977 84.8977 57.6817C85.0565 57.4561 85.2739 57.1635 85.3825 57.0214C85.4912 56.8793 85.9008 56.4029 86.302 55.9766L87.0292 55.1908L87.6895 55.241C88.3917 55.2995 88.5421 55.2661 90.4563 54.6392C90.8241 54.5138 91.1501 54.4135 91.1835 54.4135C91.3507 54.4135 92.5376 56.3778 92.6713 56.8793C92.7215 57.0883 92.8636 57.5564 92.9806 57.9241C93.1729 58.5093 93.2063 58.7349 93.2063 59.7213C93.2147 60.7327 93.1896 60.9249 92.9806 61.5602C92.8552 61.953 92.663 62.4211 92.546 62.605C92.4373 62.7889 92.2701 63.0731 92.1865 63.2319C91.9859 63.583 90.8909 64.7198 90.2222 65.2547C89.9548 65.4721 89.5452 65.7061 89.3028 65.7813C88.2329 66.124 88.2161 66.1408 88.3415 66.9599C88.3833 67.2776 88.4335 67.6286 88.4502 67.7373C88.4669 67.8459 88.5171 67.9713 88.5672 68.0215C88.7177 68.1719 88.6759 69.1917 88.492 69.7685C88.2496 70.5709 87.6728 71.2897 86.9038 71.7662C86.5444 71.9919 85.9008 72.1089 84.7891 72.1758C84.204 72.2008 83.6857 72.2677 83.6439 72.3095C83.5938 72.3597 83.6774 72.485 83.878 72.6355L84.1872 72.8863H85.4828C86.862 72.8779 87.4137 72.7943 88.1075 72.46C88.3332 72.3513 88.5254 72.2677 88.5421 72.2844C88.5505 72.2928 88.6341 72.485 88.726 72.7191C88.9935 73.3961 89.144 74.0063 89.2526 74.8506C89.3529 75.6363 89.3446 75.6697 89.0771 76.7731C88.7678 78.0687 88.5839 78.5117 87.7481 79.9494C86.5695 81.9638 85.8423 82.8248 84.7556 83.4684C83.5185 84.1956 82.2647 84.5049 80.5094 84.5049C79.0048 84.5049 78.0352 84.3544 77.3582 84.0201C77.0656 83.878 76.8148 83.761 76.7898 83.7526C76.7647 83.7526 76.5056 83.5938 76.213 83.4182C75.4273 82.9251 74.8171 82.4152 74.0398 81.6044C73.3209 80.8438 73.137 80.7518 72.8194 80.9859C72.6689 81.0945 72.6606 81.128 72.7692 81.4289C72.903 81.7799 73.8141 82.8164 74.324 83.1926C74.5078 83.3263 74.8923 83.6774 75.1849 83.9783C75.4691 84.2792 75.8536 84.5885 76.0291 84.6721C76.33 84.8058 76.3551 84.8476 76.3886 85.207C76.4638 85.9927 75.9706 86.8955 75.2016 87.3886C74.5246 87.8233 74.1819 87.8985 72.6355 87.957C71.3148 88.0155 71.1727 88.0323 71.0139 88.1911C70.6712 88.5421 70.9052 88.7511 71.9835 89.0855C72.6689 89.2944 72.7859 89.3111 73.4881 89.2276C74.6667 89.0938 74.9007 89.0353 75.1682 88.8347C75.3103 88.7344 75.5109 88.6424 75.6196 88.6424C75.887 88.6424 76.8232 87.6478 77.0907 87.0877C77.2662 86.7116 77.2997 86.5193 77.2997 85.8506L77.308 85.0649L77.8179 85.1819C78.1021 85.2488 78.4448 85.3408 78.5785 85.3825C78.7123 85.4327 79.3475 85.4661 79.9828 85.4661H81.1447L81.0862 85.65C81.0527 85.7587 80.9441 86.3104 80.8354 86.8871C80.6013 88.2078 80.384 88.8263 79.824 89.7876C79.5816 90.2139 79.381 90.59 79.381 90.6318C79.381 90.799 78.4448 91.8104 78.077 92.0528C77.6173 92.3454 75.862 93.0809 75.2852 93.223C74.3156 93.4571 74.0648 93.4905 73.2624 93.4905C71.7495 93.4821 70.3954 93.2314 68.1301 92.5209C67.2023 92.2367 66.45 91.8188 65.6727 91.1584L65.3801 90.916L65.6309 90.8575C65.8984 90.7906 66.6674 90.3811 67.0101 90.1303C67.2692 89.9297 67.963 88.9768 68.1886 88.5003C68.2722 88.3081 68.4394 87.7481 68.5564 87.2465C68.8824 85.8256 69.058 85.3324 69.2418 85.3742C69.3254 85.3909 69.827 85.4243 70.3619 85.4411C71.5154 85.4828 71.7077 85.416 72.1507 84.8142C72.6188 84.1705 72.5519 84.0702 71.7327 84.2458C71.0891 84.3795 70.4873 84.321 69.4341 84.0368C68.8741 83.8863 68.0215 83.4433 67.9462 83.2761C67.9295 83.2427 67.6286 83.0087 67.2692 82.7579C66.7677 82.3985 66.5754 82.3065 66.4166 82.3483C65.9485 82.4653 65.9652 82.9334 66.4751 83.6774C66.6841 83.9783 66.8763 84.2959 66.9014 84.3711C66.9265 84.4464 67.0686 84.6721 67.219 84.881C67.3611 85.09 67.5032 85.3157 67.5283 85.3909C67.5534 85.4661 67.5534 86.0178 67.5116 86.6196C67.4531 87.5809 67.4196 87.7564 67.2107 88.1409C66.893 88.7177 66.45 89.1105 65.4386 89.6789L64.586 90.1637L64.3604 89.9798C64.235 89.8879 63.9508 89.6371 63.7335 89.4282L63.3406 89.0604L63.466 88.492C63.5412 88.1827 63.6582 87.7982 63.7251 87.6394C64.0009 87.0125 63.9341 85.6417 63.6081 85.3658C63.3991 85.1903 63.2069 85.5664 62.9561 86.6698C62.6301 88.1493 62.5047 88.5421 62.2456 89.052C61.719 90.0885 60.9834 90.682 59.4036 91.359C58.2 91.8773 57.8823 92.0862 57.9576 92.3119C58.0412 92.5293 58.1582 92.571 58.8102 92.571C59.3702 92.571 59.5123 92.5376 60.2729 92.1865C61.2426 91.7435 62.0868 91.2002 62.279 90.8993C62.3543 90.7823 62.488 90.6067 62.5716 90.4981L62.7388 90.3058L63.1233 90.5984C63.3322 90.7572 63.7418 91.008 64.026 91.1417C64.3186 91.2838 64.7198 91.5429 64.9287 91.7185C65.7312 92.4206 66.7008 93.0976 67.1104 93.2481C67.3528 93.3317 67.5617 93.4069 67.5701 93.4069C67.5868 93.4069 67.5952 93.4404 67.5952 93.4821C67.5952 93.5239 67.52 93.5908 67.4196 93.6159C67.2358 93.6744 66.4333 94.4016 64.6529 96.1319C63.3991 97.3522 62.9477 97.6364 61.3429 98.2215C60.6407 98.4723 60.1476 98.5977 58.526 98.9237C58.0997 99.0073 56.6787 98.8902 56.0184 98.7147C55.7425 98.6395 55.241 98.4472 54.9066 98.2801C54.2045 97.9373 53.8618 97.5612 53.5275 96.7588C53.4021 96.4662 53.2433 96.1569 53.1847 96.065C53.0761 95.9062 53.0677 95.9145 52.8922 96.1569C52.7752 96.3241 52.6916 96.5999 52.6498 97.0095L52.5913 97.6114L52.1733 97.277C51.9477 97.1015 51.6217 96.8758 51.4628 96.7755C51.304 96.6752 51.0366 96.4495 50.8694 96.274C50.092 95.4632 49.766 94.7192 49.6156 93.432C49.5487 92.8469 49.5654 92.6212 49.7075 91.9692C49.7995 91.5429 49.9583 90.9996 50.0502 90.7572C50.1589 90.4981 50.209 90.2306 50.1756 90.0885C50.1505 89.9631 50.1589 89.6371 50.1923 89.3697L50.2508 88.8765L51.0282 89.4532C52.0898 90.239 52.4575 90.4563 52.8253 90.5232C53.0009 90.5566 53.3436 90.6903 53.5776 90.8241C54.0457 91.0832 54.2965 91.125 54.4553 90.9662C54.6057 90.8157 54.5723 90.5984 54.3717 90.3643C54.2045 90.1804 52.8504 89.378 51.8724 88.8848C51.7053 88.8013 51.2288 88.4168 50.8192 88.0323C50.4013 87.6394 49.9834 87.28 49.8831 87.2298C49.766 87.163 49.7075 87.0543 49.7075 86.8871C49.7075 86.7617 49.6657 86.4608 49.6072 86.2268C49.5571 85.9927 49.532 85.7754 49.5654 85.7503C49.5905 85.7253 49.741 85.7754 49.8914 85.8673C50.209 86.0596 50.9697 86.302 51.9226 86.5193C52.9758 86.7534 55.6088 86.6865 57.2053 86.3772C58.5343 86.1181 60.298 84.5968 60.833 83.2511C60.9416 82.9752 61.1005 82.6492 61.1924 82.5239C61.2843 82.3901 61.3679 82.0976 61.393 81.8301C61.4264 81.4539 61.4599 81.3704 61.5602 81.4121C61.9948 81.5793 62.5131 81.6378 63.1818 81.6044L63.9341 81.5542L64.4607 81.036C65.0123 80.4927 65.238 80.1333 65.5473 79.3141C65.8649 78.4782 65.9234 77.9934 65.8566 76.9152C65.8231 76.3802 65.8148 75.9455 65.8398 75.9623C66.0488 76.0709 67.0351 76.7145 67.3695 76.957C68.0048 77.425 69.175 77.7761 70.27 77.8346C71.3817 77.8848 73.8308 77.7427 75.2434 77.5421C76.9486 77.2913 78.4866 76.748 79.4395 76.0542C79.7989 75.7867 80.4258 74.9509 80.8772 74.1401C81.6713 72.694 81.7966 72.4516 81.9973 71.925C82.1059 71.6241 82.4152 70.9303 82.6743 70.3703C82.9334 69.8186 83.1424 69.3254 83.1424 69.2753C83.1424 69.2251 83.2176 68.9493 83.3179 68.6567C83.4767 68.1803 83.4851 67.988 83.4517 66.8596C83.4182 65.9819 83.3681 65.5055 83.2761 65.2882C83.2009 65.1126 83.1424 64.9371 83.1424 64.8953C83.1424 64.8535 83.343 64.8201 83.5854 64.8201C84.3628 64.8201 85.9927 63.9006 86.8286 62.9979C87.4722 62.3125 88.1576 60.8163 88.1576 60.1225C88.1576 60.0138 88.2245 59.972 88.3917 59.972C88.5171 59.972 89.0854 59.9302 89.6538 59.8884C90.799 59.7965 91.1501 59.6628 91.3841 59.203C91.5011 58.9773 91.5011 58.877 91.4175 58.4591C91.359 58.1916 91.242 57.9158 91.1668 57.8406C91.0247 57.7152 90.9662 57.7319 90.3142 58.083C89.7792 58.3755 89.5201 58.4675 89.2359 58.4675C88.6341 58.4675 88.0239 58.0244 87.6979 57.3641C87.3886 56.7205 86.9205 56.2106 86.6447 56.2106C86.2602 56.2106 86.1432 56.4614 86.21 57.2053C86.2769 57.991 86.628 58.8938 87.0292 59.3033L87.3218 59.6042L87.1462 60.2228C86.9122 61.0754 86.4775 61.8193 85.859 62.4379C85.2655 63.0397 84.8476 63.2486 83.2427 63.792C82.6158 64.0093 82.0558 64.235 81.9973 64.3102C81.8468 64.5108 81.8719 64.7031 82.0641 64.8284C82.1979 64.9204 82.2647 65.1294 82.3901 65.9569C82.5322 66.868 82.5322 67.0519 82.4319 67.754C82.365 68.1887 82.1895 68.9159 82.0307 69.3756C81.0527 72.2176 80.0246 74.1484 79.055 74.9676C77.7594 76.0626 75.5443 76.7313 72.5268 76.9486C70.5291 77.0907 69.4508 76.8734 67.5868 75.9288C66.542 75.4106 66.2327 75.1682 65.1544 74.0732C64.2099 73.1036 64.1681 73.0785 63.9842 73.1955C63.5997 73.4546 63.6081 73.5299 64.1096 74.3574C64.9538 75.7617 65.121 77.3749 64.5693 78.846C64.352 79.4395 63.9759 79.824 63.4994 79.9494C63.0731 80.0664 60.8163 80.2921 60.716 80.2252C60.6742 80.2001 60.5571 80.267 60.4401 80.3757C60.2646 80.5345 60.2395 80.6348 60.2395 81.128C60.2395 81.4456 60.181 81.8802 60.1058 82.0976C59.3953 84.1956 58.1247 85.1485 55.4667 85.5999C53.9537 85.8506 51.9978 85.6667 51.0616 85.1819C50.7942 85.0482 49.858 84.112 49.206 83.3347L48.8549 82.9167L48.8967 81.9555C48.9218 81.4289 48.9803 80.8939 49.0305 80.7685C49.0723 80.6431 49.3063 80.3506 49.5403 80.1165C49.8914 79.7488 49.9666 79.707 50.0084 79.8407C50.2759 80.6599 50.7942 81.3704 51.1201 81.3704C51.5632 81.3704 51.5632 80.8521 51.1285 79.8156C50.9446 79.381 50.7691 78.9045 50.7356 78.7541C50.7106 78.612 50.4097 77.8095 50.0753 76.982C48.972 74.232 48.8215 73.5215 48.9051 71.2145C48.9636 69.2502 49.0806 68.3725 49.3815 67.4531C49.5153 67.0351 49.6824 66.3999 49.7493 66.0321C49.8413 65.5807 50.0419 65.0207 50.3762 64.3102C50.6521 63.7251 50.8777 63.2319 50.8777 63.1985C50.8777 63.023 51.8056 61.8193 52.2569 61.4264C52.8588 60.8915 52.8671 60.7912 52.282 60.6324C52.0229 60.5655 51.8724 60.5739 51.5464 60.6825C51.187 60.7995 51.0951 60.8831 50.8025 61.3512C50.6186 61.6438 50.4347 61.9029 50.3929 61.928C50.3511 61.953 50.1923 61.6103 50.0419 61.159C49.8162 60.4652 49.7744 60.2646 49.8078 59.7631C49.8747 58.8185 50.4598 57.5898 51.1954 56.8375L51.5548 56.4697L52.073 56.7456C52.3572 56.896 52.9674 57.2304 53.4271 57.4895C53.8952 57.7486 54.4386 57.9994 54.6475 58.0412C54.8565 58.0913 55.2326 58.2251 55.4834 58.3421C55.7342 58.4507 56.0351 58.551 56.1605 58.551C56.2858 58.551 56.7205 58.7182 57.1217 58.9272C57.8322 59.295 58.3337 59.4036 58.4424 59.2114C58.6764 58.8436 57.7402 58.1665 56.244 57.6316C54.5974 57.0298 53.4271 56.4697 52.6164 55.893C51.1619 54.8565 50.4013 53.8869 49.9666 52.5328L49.7075 51.747V49.649C49.7159 46.8823 49.8413 43.8898 49.9917 42.9787C50.1422 42.076 50.3929 41.2903 50.7524 40.5798C50.9028 40.2789 51.1201 39.7356 51.2372 39.3678C51.5046 38.5403 52.1232 37.2196 52.6247 36.4255C53.5943 34.9042 53.8367 34.4445 53.7699 34.269C53.7364 34.1687 53.6696 34.1519 53.5358 34.1937C53.2015 34.294 52.4492 34.829 52.3572 35.038C52.3154 35.1383 52.2319 35.2302 52.1901 35.2302C52.1483 35.2302 51.8724 35.0212 51.5882 34.7705C50.6353 33.9346 49.9499 32.4969 49.7493 30.9255C49.7242 30.6914 49.741 29.5463 49.7827 28.3761C49.858 26.4201 49.8831 26.1944 50.0753 25.6428C50.2007 25.3084 50.2926 24.9741 50.2926 24.8988C50.2926 24.8236 50.3762 24.6564 50.4682 24.5143C50.7691 24.088 50.9028 22.0318 50.6771 21.338C50.3679 20.4102 50.3595 20.2765 50.535 19.9003C50.8025 19.3654 52.0062 18.588 53.4271 18.0447C53.703 17.9444 54.0958 17.7772 54.3048 17.6853C55.0655 17.3509 56.1939 17.1587 57.1468 17.2005C58.3254 17.259 59.9302 17.6267 60.8246 18.0363C61.3094 18.262 62.1119 18.4292 62.7555 18.4292C63.1985 18.4292 63.2737 18.379 63.1651 18.1784C63.0397 17.9444 62.4964 17.6602 61.8695 17.5097C61.5518 17.4261 61.1005 17.284 60.8664 17.1921C59.9637 16.8243 58.2585 16.4983 56.9712 16.4482L55.7509 16.398L54.6308 16.7156C54.0123 16.8912 53.4104 17.1085 53.2767 17.1921C53.1513 17.284 52.817 17.4429 52.5328 17.5599C52.2569 17.6685 51.9393 17.8106 51.839 17.8775C51.6718 17.9862 51.5966 17.9862 51.2204 17.8692C50.8359 17.7438 50.744 17.6602 50.2341 16.9748C48.763 14.977 48.7797 13.8319 50.301 11.784C50.4682 11.55 50.6771 11.2323 50.7524 11.0735C51.279 10.0454 53.0259 8.53246 54.6141 7.73838C54.8147 7.63808 55.032 7.46254 55.1073 7.34552C55.3162 7.03625 55.3998 6.47621 55.2661 6.29232C55.1741 6.15022 55.1407 6.15858 54.7813 6.40934C54.5723 6.5598 53.9788 6.9861 53.4522 7.34552C52.934 7.71331 52.1984 8.27334 51.8139 8.58261C51.3709 8.95876 51.1118 9.12593 51.0867 9.0507C51.07 8.99219 50.9362 8.54918 50.7942 8.06437C50.4514 6.88579 50.4013 6.20038 50.5852 5.17225C50.7858 4.03547 51.0282 3.40021 51.4712 2.7733C51.7888 2.33865 51.9894 2.16311 52.5495 1.84548C52.9256 1.62816 53.4271 1.37739 53.6612 1.29381C53.9036 1.21022 54.2129 1.10992 54.3466 1.05976C55.1825 0.767208 55.5335 0.75049 56.5867 0.959458Z" fill="black"/>
<path d="M65.7142 13.3301C65.6807 13.3802 65.7142 13.4889 65.7894 13.5725C65.8646 13.6561 65.9231 13.7564 65.9231 13.8065C65.9231 13.8901 66.1739 14.1241 66.7674 14.5755C67.1769 14.8931 67.4779 15.3696 67.6785 16.0216C68.2636 17.9524 68.1466 18.9889 67.2355 19.8248C66.7674 20.2594 66.6503 20.318 65.1792 20.8529L63.9839 21.2876L63.6328 20.9616C63.1146 20.4684 62.4459 19.9335 62.3372 19.9335C62.1951 19.9335 62.0614 20.2511 62.145 20.4099C62.1868 20.4935 62.2035 20.6022 62.1868 20.6523C62.1701 20.7025 62.3372 20.9532 62.5629 21.1956C63.1564 21.856 63.2985 22.0984 63.5743 22.8423C64.0842 24.2215 64.4604 24.723 64.7947 24.4472C65.0288 24.2549 64.895 22.9677 64.5774 22.3491L64.4269 22.0399L64.686 21.9897C64.8281 21.9646 65.1792 21.9395 65.4801 21.9395C65.781 21.9395 66.1488 21.881 66.3244 21.8058C66.4915 21.7306 66.7841 21.6303 66.968 21.5718C67.4946 21.4046 67.9877 21.0535 68.3054 20.6105C68.5979 20.2093 68.5979 20.2093 68.949 20.2762C69.5675 20.3932 70.8297 20.3597 71.2727 20.2176C71.8328 20.0338 72.0752 19.783 72.234 19.2313C72.4429 18.5208 72.3176 18.454 71.465 18.7967C70.9802 18.9973 70.7294 19.0474 69.601 19.1394L69.0577 19.1812L69.0409 17.6599L69.0242 16.1386L68.6815 15.4532C68.3054 14.6842 67.854 14.2161 67.1937 13.8817C66.9596 13.7647 66.7506 13.631 66.7172 13.5808C66.6921 13.539 66.5166 13.4638 66.3327 13.4137C66.1488 13.3635 65.9482 13.305 65.8813 13.2799C65.8228 13.2548 65.7476 13.2799 65.7142 13.3301Z" fill="black"/>
<path d="M55.8344 19.8499C55.567 19.9585 55.592 20.2176 55.9013 20.7693C56.3778 21.5968 56.4279 21.7222 56.5282 22.2488L56.6285 22.7754H55.7174C54.706 22.7754 54.1794 22.9175 54.0875 23.2184C53.9872 23.5361 54.2546 23.6364 55.0571 23.5695C57.0632 23.4023 59.2281 23.7283 60.3565 24.3636C61.2676 24.8902 62.5799 26.3613 62.9143 27.2557C62.9644 27.3894 63.2486 27.916 63.5495 28.4259C63.8421 28.9358 64.0845 29.429 64.0845 29.5125C64.0845 29.6045 64.2935 29.9388 64.5442 30.2565C64.795 30.5741 65.004 30.8834 65.004 30.9419C65.004 30.992 65.3634 31.3682 65.8064 31.7778C66.2661 32.2041 66.6841 32.6721 66.8011 32.8895C66.9097 33.0984 67.0686 33.3408 67.1522 33.4328C67.2775 33.5665 67.311 33.7337 67.311 34.2687C67.3193 34.6364 67.336 35.046 67.3528 35.1881C67.4363 35.7983 67.0017 37.0103 66.4249 37.7793C65.7897 38.6236 65.798 38.6068 65.9652 39.0582C66.0488 39.2755 66.2494 39.6099 66.4166 39.7938C66.9683 40.429 67.0853 41.29 66.7426 42.1426C66.4584 42.8447 66.0822 43.2626 65.3968 43.6304C64.5609 44.0818 63.7919 44.274 62.722 44.2824L61.8109 44.2991L61.4849 43.7558C61.0837 43.0787 60.7076 42.6775 60.2813 42.4602C60.0974 42.3683 59.855 42.2262 59.7463 42.1426C59.4872 41.9587 59.2197 41.9587 58.9773 42.1593C58.7934 42.3097 58.7934 42.3265 58.9188 42.5187C58.994 42.6357 59.3785 43.0202 59.763 43.3713C60.3983 43.9481 60.507 44.0902 60.741 44.6585C61.0419 45.3941 61.1255 46.0127 61.0336 47.0408L60.9751 47.7596L60.4485 47.7095C59.9971 47.6677 59.8633 47.6928 59.4538 47.8767C58.9522 48.1023 58.0495 48.9048 57.8489 49.2893C57.782 49.4147 57.7319 49.5902 57.7319 49.6821C57.7319 49.7741 57.6984 49.8744 57.6483 49.8995C57.5731 49.9413 56.9545 49.7323 56.1019 49.3729C55.8512 49.2642 55.5168 49.2308 54.6809 49.2308C53.6027 49.2308 53.5943 49.2308 52.959 49.54C52.2987 49.8577 51.7387 50.3926 51.421 51.0279C51.2121 51.4291 51.1536 52.2984 51.3207 52.4322C51.6133 52.6746 52.399 52.0644 52.8002 51.2787C53.1262 50.6434 53.6695 50.2589 54.4803 50.1084C55.1657 49.9747 56.1772 50.2756 56.7706 50.7855C56.8626 50.8607 57.0297 50.9527 57.1468 50.9861C57.2638 51.0195 57.4059 51.1198 57.4644 51.2118C57.548 51.3204 57.6316 51.3539 57.7569 51.3121C58.0244 51.2369 58.7349 50.5264 58.877 50.2004C59.0024 49.9078 59.4287 49.3144 59.6544 49.1221C59.8466 48.9633 60.4986 48.6373 60.7661 48.5704C61.0503 48.5036 61.8778 48.6875 62.7304 49.0218C63.9006 49.4732 65.0708 50.8189 65.6977 52.4489C66.0655 53.4018 66.1073 53.6776 66.0572 54.4968C65.9485 56.0598 65.6476 57.2802 65.1879 58.0409C64.9872 58.3752 64.7532 58.86 64.7532 58.9269C64.7532 58.9436 64.8702 58.9938 65.0123 59.0439C65.4386 59.1944 65.7897 59.1609 65.9903 58.9436C66.216 58.7096 66.5002 58.0659 66.5085 57.7985C66.5085 57.6898 66.5587 57.4474 66.6256 57.2551C66.7844 56.8038 66.9265 55.8174 66.9265 55.2073C66.9265 54.8729 66.9599 54.689 67.0351 54.6723C67.6788 54.4884 68.8406 54.2544 69.3087 54.2209C69.7851 54.1958 70.061 54.2293 70.8133 54.4382C71.8498 54.7308 72.8946 55.1822 73.2958 55.5249C73.9311 56.0515 74.1317 56.1518 74.3574 56.0766C74.5998 55.993 74.9425 55.4246 75.1682 54.7475C75.4691 53.8531 76.0375 53.0841 76.7062 52.6578C77.1157 52.3987 77.9934 52.1396 78.5869 52.0894C79.1469 52.0477 79.9661 51.8053 79.9661 51.6799C79.9661 51.5294 79.3726 51.3622 78.8042 51.3622C77.6089 51.3622 76.2715 51.7551 75.4942 52.3486C74.8672 52.8167 74.2403 53.7946 73.9812 54.689C73.9561 54.7642 73.8057 54.7224 73.4463 54.5386C72.2928 53.9534 70.9303 53.5857 69.4842 53.4519C68.7403 53.3851 68.5899 53.3934 67.8794 53.5857C67.4447 53.6943 67.0602 53.7863 67.0268 53.7863C66.9933 53.7863 66.985 53.594 66.9933 53.3683C67.0351 52.8585 66.8345 52.1981 66.5169 51.7384C66.3831 51.5545 66.2578 51.3204 66.2243 51.2285C66.1324 50.9192 65.2129 49.7072 64.8368 49.3812C64.0427 48.7042 63.3573 48.2612 62.8391 48.1023C62.5465 48.0104 62.2456 47.9352 62.162 47.9352C61.7942 47.9352 61.7357 47.8599 61.8694 47.5423C61.9614 47.3333 61.9948 46.9321 61.9948 46.2216V45.2019L63.1483 45.2102C64.0511 45.2186 64.4105 45.1851 64.8368 45.0598C65.6476 44.8174 66.4751 44.3326 67.1438 43.6973C67.662 43.2041 67.7623 43.0537 67.9212 42.5856C68.1719 41.7999 68.2471 40.4708 68.0633 40.0362C67.8626 39.5681 67.5283 39.0749 67.1939 38.7824L66.9097 38.5316L67.2441 38.1805C67.8376 37.5536 68.3725 36.233 68.4561 35.1881C68.5063 34.5445 68.4143 33.8758 68.2722 33.8256C67.9629 33.7253 68.3224 33.6501 69.292 33.6167C72.1841 33.508 73.346 33.1737 74.1484 32.1957C74.5747 31.6775 74.6165 31.3515 74.3239 30.8081C74.1902 30.5741 74.0565 30.3819 74.0147 30.3819C73.9812 30.3819 73.8475 30.4989 73.7221 30.6493C73.5884 30.7914 73.3627 31.0589 73.2039 31.2344C72.7358 31.7694 71.3482 32.3545 70.0025 32.5886L69.2753 32.7139L68.4561 32.3294C68.0131 32.1205 67.4363 31.8112 67.1772 31.6357C66.6757 31.293 65.7646 30.3819 65.5891 30.0475C65.5306 29.9305 65.2464 29.4791 64.9538 29.0445C64.6696 28.6098 64.2015 27.8157 63.909 27.2891C63.3489 26.2526 62.7304 25.2914 62.3208 24.8317C61.928 24.3803 60.8664 23.6029 60.3398 23.3772C59.8466 23.1683 59.0191 22.976 58.225 22.8924L57.7653 22.8423L57.7987 22.3909C57.8322 21.973 57.8155 21.9145 57.3557 21.1705C57.0883 20.7442 56.7038 20.2511 56.5031 20.0755C56.1019 19.7412 56.1103 19.7412 55.8344 19.8499Z" fill="black"/>
<path d="M74.056 20.5357C73.7635 20.9704 73.7551 21.5137 74.031 22.2326C74.5409 23.5783 74.4656 25.1748 73.8471 26.4119C73.5462 27.0054 73.3456 27.6741 73.4041 27.8663C73.4291 27.9499 73.5712 28.0669 73.7217 28.1255C73.9975 28.2258 74.3152 28.3762 74.8668 28.6688C75.4102 28.9613 76.5052 29.9727 77.0986 30.7501C77.4079 31.1513 77.8593 31.7364 78.1017 32.0373C78.3357 32.3382 78.7787 33.0655 79.0796 33.6589C80.0242 35.4895 80.4421 36.9857 80.5173 38.8664C80.5675 39.9614 80.5508 40.1202 80.3084 41.2737C80.0242 42.6195 79.7734 43.2213 79.0211 44.333C77.8342 46.0967 76.4634 47.3421 75.0758 47.9189C73.2703 48.6795 73.0864 48.8049 73.3121 49.1476C73.4793 49.4068 73.7384 49.4151 74.5158 49.1978C75.1343 49.0223 75.8866 48.6712 76.6138 48.2115C77.1153 47.8855 78.6868 46.3391 79.0211 45.8292C79.297 45.428 79.3973 45.3946 79.8319 45.6203C81.0941 46.2555 81.3281 46.3976 81.512 46.6149C81.629 46.7487 81.721 46.9075 81.721 46.9576C81.721 47.0078 81.9885 47.3923 82.3061 47.8186C82.8996 48.6043 83.2005 48.8049 83.4429 48.596C83.6101 48.4622 83.585 48.1529 83.3927 47.7684C83.3008 47.5846 83.2256 47.3589 83.2256 47.2669C83.2256 46.6233 81.8464 45.4364 80.5341 44.9516L79.9657 44.7426L80.1245 44.5169C80.4338 44.0739 80.8183 43.2213 80.9269 42.7198C80.9854 42.4439 81.1192 41.9257 81.2278 41.583C81.4117 41.0146 81.4284 40.8223 81.4117 39.4515C81.4034 38.624 81.3532 37.7296 81.2947 37.4621L81.1944 36.9773L82.1055 36.0997C82.607 35.6232 83.1671 35.1468 83.3509 35.0548C84.0029 34.7288 84.6465 34.5533 85.0143 34.6035C85.1982 34.6369 85.449 34.6202 85.566 34.57C85.8418 34.453 86.2849 34.0852 86.218 34.0183C86.0926 33.893 85.1314 33.7342 84.5128 33.7258C83.8859 33.7258 83.794 33.7509 83.1336 34.0769C82.0971 34.6035 81.4535 35.0715 81.2529 35.4477C81.161 35.6316 81.0523 35.7653 81.0105 35.757C80.9604 35.7486 80.7932 35.3557 80.6344 34.8793C80.4672 34.4028 80.2666 33.918 80.1913 33.8094C80.1161 33.6924 80.0493 33.5419 80.0493 33.4583C80.0493 33.2911 79.4725 32.4302 78.7035 31.4606L78.1351 30.7417L78.5447 30.3154C78.7704 30.0814 79.0295 29.747 79.1131 29.5715C79.1967 29.396 79.414 29.0115 79.5895 28.7106C79.7985 28.3428 79.9239 28.0168 79.9573 27.7075L80.0075 27.2478L80.7597 27.1809C81.1777 27.1391 81.629 27.114 81.7628 27.114C82.0971 27.1224 83.1002 27.5821 83.5265 27.9248C84.0614 28.3511 84.237 28.3679 84.5546 27.9834C84.6967 27.8162 84.8137 27.5989 84.8137 27.5153C84.8137 27.2812 84.4376 26.9552 84.1701 26.9552C84.0364 26.9552 83.8525 26.9051 83.7605 26.8382C83.6686 26.7713 83.3677 26.6543 83.0835 26.5874C82.8076 26.5122 82.4482 26.3952 82.2727 26.3283C82.0721 26.2447 81.6541 26.1946 81.0105 26.1862C80.4839 26.1779 80.0493 26.1528 80.0493 26.1277C79.9657 24.481 79.8737 23.5867 79.7483 23.3443C79.5979 23.0433 78.319 21.7645 77.9178 21.5137C77.6001 21.3131 77.0401 21.2964 77.0401 21.4886C77.0401 21.5639 77.3243 21.8982 77.667 22.2409C78.6032 23.1437 78.9375 24.0715 79.0211 25.9522C79.0629 26.8716 79.0546 26.9469 78.7954 27.7326C78.5447 28.4682 78.2688 28.9613 77.5667 29.8724C77.5584 29.8891 77.3828 29.722 77.1906 29.4963C76.99 29.279 76.5637 28.8025 76.2377 28.4431C75.92 28.0837 75.4937 27.532 75.3099 27.2144L74.9588 26.6376L75.126 26.3116C75.2848 26.0191 75.2931 25.8853 75.2597 24.5312C75.2179 23.2858 75.1761 22.9096 74.9588 21.9818C74.6746 20.7865 74.474 20.1847 74.357 20.1847C74.3152 20.1847 74.1814 20.3435 74.056 20.5357Z" fill="black"/>
<path d="M55.8087 28.1505C55.4577 28.326 55.5496 28.5517 56.1013 28.8944C56.3771 29.0616 56.6697 29.2037 56.7533 29.2037C56.8285 29.2121 56.9622 29.3207 57.0458 29.4461C57.1211 29.5798 57.5056 30.0479 57.8984 30.4909C58.2913 30.9423 58.6006 31.3268 58.5922 31.3519C58.5922 31.377 58.3999 31.6862 58.1659 32.0373C57.3969 33.241 57.3133 33.5419 57.2214 35.3891C57.1294 37.2113 57.1963 37.6711 57.656 38.2478C57.7898 38.415 57.8984 38.5822 57.8984 38.6073C57.8984 38.6323 57.5306 38.6574 57.0876 38.6574C55.6165 38.6574 54.8558 38.95 53.6271 39.9614C52.925 40.5465 52.6074 40.9728 52.6491 41.2653C52.7077 41.7083 53.2259 41.4994 54.4296 40.5381C54.7472 40.2874 55.3323 39.9196 55.7252 39.719L56.4356 39.3679L57.4387 39.3763C58.0405 39.3763 58.6758 39.4348 59.0269 39.5184C59.7959 39.6939 60.4896 39.6939 60.4896 39.5267C60.4896 39.2843 60.1051 39.0085 59.6872 38.95C58.7761 38.8246 58.7844 38.8246 58.7176 38.2729C58.6841 38.0054 58.542 37.4537 58.4083 37.0525C58.099 36.1581 58.074 35.573 58.3164 34.3861C58.517 33.4165 58.7594 32.8314 59.194 32.2546C59.5785 31.7531 59.6454 31.7113 59.846 31.82C59.9463 31.8701 60.3057 31.8785 60.7989 31.845C61.8437 31.7615 61.9942 31.6444 62.0861 30.842C62.1279 30.5244 62.1279 30.2402 62.0945 30.2067C62.0611 30.1733 61.827 30.1984 61.5763 30.2652C60.5063 30.5578 59.6955 30.282 57.9987 29.0532C57.422 28.6353 56.7951 28.2508 56.561 28.1756C56.0762 28.0168 56.0762 28.0168 55.8087 28.1505Z" fill="black"/>
<path d="M61.2506 59.4373C61.0834 59.5626 61.0667 59.6128 61.1168 60.0056C61.1503 60.2397 61.2506 60.5155 61.3258 60.6242C61.7521 61.1591 61.7019 62.1455 61.2171 63.0817C60.841 63.8172 60.841 63.8172 59.863 63.6751C58.6761 63.5079 58.0826 63.5497 57.6898 63.8507C57.5142 63.9844 57.3554 64.1599 57.3387 64.2435C57.2551 64.5444 56.67 64.8119 55.458 65.1128C54.3045 65.397 54.0537 65.514 54.0537 65.7982C54.0537 66.0574 54.6973 66.1493 55.3493 65.9821C55.5332 65.932 55.9093 65.84 56.1852 65.7815C56.7536 65.6478 57.5059 65.3552 58.3334 64.9373L58.9101 64.6447L59.3448 64.7785C59.5872 64.8453 59.9968 65.0209 60.2642 65.163L60.749 65.4221L62.1867 65.3803C64.0675 65.3218 65.7643 65.1881 66.1571 65.0627C66.6587 64.9039 67.1017 64.6531 67.5781 64.2686C67.8205 64.0763 68.0964 63.8841 68.205 63.8507C68.5059 63.7587 69.0743 63.2488 69.2164 62.9479C69.3669 62.6303 69.4003 61.7693 69.2666 61.6857C69.1245 61.5938 68.6731 61.9365 67.9961 62.6386C67.2271 63.4411 66.6921 63.7169 65.2711 64.0763C64.2597 64.3355 62.3874 64.5611 62.1199 64.4525C61.9778 64.4023 61.9945 64.3689 62.2285 64.1265C62.5796 63.7671 62.7384 63.1903 62.7468 62.2709C62.7551 60.9418 62.6966 60.5155 62.4459 60.0558C62.0614 59.3453 61.6685 59.1447 61.2506 59.4373Z" fill="black"/>
<path d="M74.6996 61.0671C74.6328 61.1925 74.6328 61.343 74.6996 61.6272C74.7581 61.8445 74.8919 62.438 75.0006 62.9562C75.1092 63.4661 75.268 64.1097 75.36 64.3772C75.6358 65.188 75.7863 65.8734 75.7863 66.2579C75.7863 67.6705 74.6662 68.7405 73.0028 68.916C72.3258 68.9912 72.309 68.9912 71.189 68.6067C70.4033 68.3392 70.0104 68.1637 69.9101 68.0216C69.8265 67.9213 69.7095 67.8294 69.651 67.8294C69.6008 67.8294 69.3501 68.0383 69.0993 68.2974C67.6783 69.7435 65.5301 70.5459 62.6213 70.7131C61.4845 70.78 60.6486 70.6462 59.3447 70.1865C57.7231 69.6014 57.1212 69.2587 56.1015 68.3309C55.1653 67.4866 54.9396 67.3696 54.6889 67.6287C54.5133 67.8043 54.5133 67.8377 54.7975 68.3977C55.1152 69.0247 55.5414 69.3757 56.8705 70.0695C57.8485 70.5794 57.9404 70.6462 57.907 70.8385C57.8986 70.9555 57.9237 71.3149 57.9822 71.6409C58.0741 72.1592 58.0658 72.2929 57.9404 72.6691C57.7816 73.1539 57.6813 73.2458 56.486 73.9814C55.4746 74.5999 55.3074 74.742 55.3074 74.9426C55.3074 75.2268 55.6167 75.2937 56.5779 75.2435C57.7231 75.1767 58.024 75.0346 58.467 74.3659C58.6425 74.09 58.8348 73.7473 58.8849 73.5969C59.002 73.2709 59.0103 71.9418 58.91 71.4821C58.8181 71.106 58.8933 71.0893 59.5118 71.3567C59.9298 71.5406 60.0468 71.549 62.1198 71.549C63.5742 71.549 64.502 71.5156 64.9199 71.4403C65.6471 71.3066 68.1798 70.4874 68.5811 70.245C68.7315 70.1614 68.907 70.0862 68.9656 70.0862C69.0241 70.0862 69.2748 69.9274 69.5089 69.7435L69.9435 69.3924L70.1358 69.5763C70.3698 69.7937 71.072 70.0695 71.6571 70.1698C72.3258 70.2785 73.9056 70.1447 74.4489 69.9274C75.3098 69.5763 75.4937 69.4593 75.9785 68.9661C76.7224 68.2055 76.7308 68.1637 76.6807 66.7929C76.6472 65.8818 76.5803 65.422 76.4132 64.7784C76.2878 64.3187 76.1708 63.8255 76.1457 63.6918C75.9869 62.5466 75.7278 61.8194 75.2179 61.1591C74.9838 60.8498 74.825 60.8164 74.6996 61.0671Z" fill="black"/>
<path d="M38.4231 0.0483852C37.7544 0.0818201 37.0941 0.131972 36.9436 0.157049C36.3669 0.240636 35.6397 0.574985 35.2468 0.93441C34.8623 1.27712 34.7955 1.31055 34.3023 1.33563C33.5249 1.37742 32.4717 1.66162 31.5272 2.07955C30.3737 2.58944 29.7969 2.92379 29.5127 3.24142C29.3372 3.43367 29.0196 3.72622 28.8106 3.8934L28.4261 4.19431L27.9329 3.83489C27.5735 3.58412 27.3144 3.45874 27.0218 3.42531C26.7794 3.38352 26.4785 3.26649 26.2696 3.11604C26.0355 2.94886 25.7597 2.84856 25.4086 2.7984C25.1328 2.76497 24.7984 2.66467 24.673 2.58108C24.4724 2.44734 24.322 2.43898 22.9344 2.51421L21.4131 2.5978L20.5856 2.99901C19.8501 3.35008 19.6745 3.48382 18.9808 4.20267C18.5461 4.64568 18.195 5.03018 18.195 5.07198C18.195 5.10541 18.0028 5.34781 17.7604 5.59858C17.518 5.8577 17.2672 6.15025 17.2003 6.25892C17.1251 6.36758 16.9914 6.55983 16.9078 6.69357C16.8158 6.82731 16.632 7.10315 16.4982 7.31211L16.2558 7.68826L16.2892 9.15103C16.3227 10.4216 16.3561 10.689 16.5233 11.1738C16.7155 11.7255 16.7155 11.7339 16.5651 12.0766C16.3645 12.5196 16.2391 12.5781 15.5453 12.5781C14.4085 12.5865 13.8819 12.7035 13.3219 13.0713C12.6699 13.4892 12.2436 14.0576 12.0681 14.7096C11.9929 14.9854 11.8257 15.5287 11.6836 15.9216C11.483 16.5067 11.4245 16.8661 11.3492 17.9277C11.2489 19.4072 11.0233 20.6694 10.7641 21.1709C10.6638 21.3631 10.5886 21.5721 10.5886 21.639C10.5886 21.7058 10.4716 21.8479 10.3211 21.9482C10.179 22.0569 9.76944 22.3996 9.42674 22.7172C9.07567 23.0349 8.60758 23.4194 8.37354 23.5698C7.63797 24.0546 7.05286 24.7568 6.36744 25.9939C6.20863 26.2697 6.02474 26.6626 5.95787 26.8548C5.891 27.0471 5.75726 27.3062 5.65695 27.4316C5.55665 27.5737 5.4647 27.8579 5.43963 28.1253C5.40619 28.3761 5.33932 28.7355 5.28081 28.9194C5.20558 29.1618 5.18886 29.7804 5.21394 31.2181C5.24737 33.1406 5.33096 33.8594 5.6068 34.6869C5.67367 34.8708 5.77397 35.2804 5.82413 35.6064C5.88264 35.924 5.97458 36.2834 6.02474 36.3921C6.09161 36.5509 6.09161 36.6011 5.99966 36.6345C5.94115 36.6512 5.77397 36.7766 5.63188 36.902C5.48142 37.0274 5.28081 37.1527 5.1805 37.1862C5.07184 37.2196 4.87959 37.4035 4.74585 37.5958C4.61211 37.788 4.40314 38.0388 4.28612 38.1474C4.16074 38.2645 4.01028 38.5403 3.94341 38.766C3.87654 38.9917 3.7846 39.2257 3.75116 39.2759C3.70937 39.326 3.57563 39.6854 3.45025 40.0699C3.22456 40.7554 3.21621 40.8055 3.27472 42.076C3.29979 42.7949 3.34159 43.4803 3.36666 43.614C3.40846 43.8146 3.38338 43.8564 3.15769 43.9317C2.89857 44.0236 1.47759 45.687 1.47759 45.9043C1.47759 45.9628 1.37729 46.1718 1.26026 46.3641C0.950992 46.8489 0.800535 47.2417 0.725307 47.7265C0.691872 47.9522 0.549774 48.4287 0.424393 48.7714C0.123479 49.5989 0.056609 50.8276 0.265577 51.7722C0.399317 52.3656 0.432751 52.4325 0.875764 52.8421C1.13488 53.0845 1.45252 53.3018 1.5779 53.3269C1.70328 53.3603 1.83702 53.4188 1.86209 53.469C1.88717 53.5108 2.02091 53.6194 2.15465 53.6947L2.39705 53.8451L2.08778 54.238C1.91224 54.4637 1.64477 54.798 1.48595 54.9819C1.18504 55.358 0.950992 55.8345 0.850687 56.2942C0.817253 56.453 0.683513 56.7874 0.549774 57.0298C0.424393 57.2722 0.299012 57.6483 0.265577 57.8657C0.240501 58.083 0.156914 58.4508 0.0900439 58.6848C-0.135642 59.3953 0.0900439 61.5101 0.466186 62.2373C0.566491 62.4212 0.641719 62.6385 0.641719 62.7221C0.641719 62.8893 1.58625 64.0595 2.28839 64.7783C2.51407 65.004 3.14098 65.6309 3.67594 66.1575C4.76257 67.2107 4.6957 67.0603 4.47001 68.0048C4.30284 68.7069 4.60375 70.4205 4.9799 70.8718C5.07184 70.9805 5.05512 71.0474 4.87959 71.2731C4.59539 71.6576 4.50345 71.9585 4.44494 72.6773C4.4115 73.02 4.31956 73.5466 4.22761 73.8392C4.10223 74.2571 4.0688 74.6082 4.07715 75.5945C4.08551 77.1074 4.15238 77.634 4.37807 77.8764C4.47837 77.9851 4.60375 78.2359 4.65391 78.4448C4.77093 78.8628 5.25573 79.7488 5.77397 80.4676C5.96622 80.7268 6.30057 81.2617 6.52626 81.6546C6.75194 82.0558 6.96927 82.3985 7.01106 82.4236C7.0445 82.4487 7.26183 82.6827 7.47915 82.9418C7.69648 83.2009 8.13113 83.6607 8.43205 83.9532C8.97536 84.4631 9.03388 84.4965 10.271 84.9312C10.9731 85.182 11.6585 85.3826 11.809 85.3826C12.0514 85.3826 12.0848 85.416 12.252 85.8757C12.3439 86.1432 12.4275 86.5612 12.4275 86.8119C12.4275 87.0627 12.486 87.4472 12.5529 87.6729C12.6198 87.8985 12.6783 88.1744 12.6783 88.283C12.6783 88.4001 12.8287 88.7428 13.0126 89.0604C13.1965 89.378 13.3721 89.7625 13.4055 89.913C13.4306 90.0635 13.6228 90.5232 13.8234 90.9244C14.2999 91.8689 15.1107 92.7299 15.6874 92.8971C15.8964 92.9556 16.1555 93.0559 16.2725 93.1227C16.3895 93.1813 16.7657 93.3735 17.1084 93.5323C17.4511 93.6911 17.8356 93.8834 17.9526 93.9503C18.4959 94.2512 19.4238 94.41 20.6358 94.41C21.2961 94.41 22.0735 94.3682 22.3744 94.318C22.6753 94.2763 23.1518 94.201 23.436 94.1676C23.7201 94.1258 24.1297 94.0338 24.3554 93.967C24.9238 93.7914 26.1358 93.7079 26.1358 93.8583C26.1358 93.9168 26.4451 94.2595 26.8296 94.619C28.5097 96.2155 28.6351 96.3492 28.6852 96.5833C28.7437 96.8675 29.2536 97.3523 29.9474 97.7953C30.5994 98.2132 32.2293 98.9822 32.8646 99.1745C33.1404 99.258 33.6169 99.4419 33.9261 99.5924C34.6701 99.9435 35.6564 100.044 37.6291 99.9769L39.1336 99.9267L39.819 99.6008C40.5045 99.2664 40.6215 99.1828 41.0394 98.6813C41.2317 98.4556 41.2902 98.4222 41.3905 98.5058C41.5744 98.6562 41.9338 98.5559 42.8031 98.1213C43.6306 97.7033 44.6755 96.7839 44.8677 96.2991C44.9262 96.157 45.0182 95.9814 45.0767 95.9146C45.1352 95.8477 45.2856 95.5133 45.4027 95.1706C45.62 94.5855 45.6284 94.5103 45.5782 93.3317C45.4946 91.2002 45.3943 90.5984 45.0683 90.4229C44.9764 90.3644 44.968 90.2139 45.0182 89.5619C45.1268 88.3332 45.5113 86.2101 45.6952 85.8757C45.7872 85.7086 45.8624 85.4829 45.8624 85.3742C45.8708 85.2656 45.9293 85.0231 45.9961 84.8393C46.063 84.6554 46.1633 84.2374 46.2135 83.9198C46.3388 83.1675 46.2971 81.0193 46.155 80.6265C46.0964 80.4593 45.7621 79.8157 45.411 79.1971C45.06 78.5786 44.7758 78.0102 44.7758 77.9433C44.7758 77.8764 44.9011 77.5505 45.06 77.2328C45.4779 76.3969 45.946 75.21 46.063 74.7252C46.1215 74.4494 46.1466 73.3126 46.1382 71.2981L46.1215 68.289L45.829 67.4197C45.6618 66.9349 45.528 66.425 45.528 66.2913C45.528 65.9235 45.2522 65.0124 45.0015 64.5694C44.8844 64.3604 44.7674 64.0428 44.734 63.8589C44.7005 63.6833 44.6253 63.4242 44.5501 63.2905C44.4331 63.0564 44.4414 63.0313 44.6671 62.7806C45.0265 62.3961 45.3358 61.9029 45.4946 61.4766C45.5949 61.1841 45.62 60.925 45.5782 60.2897C45.5113 59.2031 45.3609 58.6681 44.8594 57.6901C44.6337 57.2388 44.4414 56.8208 44.4414 56.7623C44.4414 56.6954 44.2408 56.4363 43.9984 56.1688L43.547 55.6924L43.99 55.2494C44.2324 54.9986 44.5417 54.564 44.6838 54.2881C44.8259 54.0039 45.0265 53.6612 45.1352 53.5191L45.3191 53.2684L45.3024 48.2698L45.2856 43.263L44.9931 42.1345C44.8343 41.5076 44.5501 40.6801 44.3662 40.2956C44.1907 39.9028 44.0151 39.4598 43.9817 39.3093C43.9483 39.1588 43.8145 38.8245 43.6891 38.5737C43.5554 38.3146 43.4133 37.9552 43.3631 37.7713C43.313 37.5874 43.1207 37.1862 42.9368 36.8853C42.5691 36.2667 42.5523 36.2333 42.7112 36.2333C42.8282 36.2333 43.3799 35.6733 43.9566 34.9795C44.5668 34.2272 44.9179 33.5 45.2522 32.3047C45.3525 31.9118 45.3692 31.402 45.3191 28.9612C45.2689 26.0858 45.2606 26.0774 45.0098 25.1998C44.8008 24.4642 44.4414 22.8092 44.4414 22.5835C44.4414 22.5501 44.6002 22.4498 44.8008 22.3662C45.3525 22.1321 45.386 22.0402 45.3442 21.2043C45.2856 20.1845 45.0683 19.7165 44.3913 19.1397C43.9399 18.7552 43.8814 18.68 44.0235 18.6382C44.1154 18.6131 44.3495 18.3874 44.5417 18.1367C44.7423 17.8859 45.1519 17.376 45.4695 16.9999C46.1884 16.1306 46.3138 15.7377 46.2302 14.6594C46.18 13.9573 46.1382 13.8319 45.7203 13.0044C45.4612 12.5196 45.1519 11.9679 45.0182 11.7924C44.8844 11.6085 44.7758 11.4246 44.7758 11.3828C44.7758 11.2825 44.199 10.3213 43.9984 10.0956C43.8312 9.91168 43.8396 9.90332 44.0235 9.42687C44.1321 9.15939 44.2659 8.86684 44.3244 8.77489C44.6337 8.28173 44.7758 7.56288 44.7674 6.58491C44.759 4.84629 44.6504 3.66771 44.4749 3.40859C44.3913 3.28321 44.2742 3.05753 44.2241 2.91543C44.0653 2.4557 43.6891 2.06284 42.9118 1.53624C42.5022 1.2604 42.0759 1.00128 41.9756 0.959486C41.8753 0.926051 41.6162 0.775594 41.3905 0.633496C41.1648 0.491397 40.914 0.374375 40.8388 0.374375C40.7552 0.374375 40.563 0.307506 40.4125 0.21556C40.028 -0.00176708 39.8023 -0.0184845 38.4231 0.0483852ZM39.5516 0.951127C40.0782 1.05979 41.0394 1.45265 41.8251 1.8873C42.2681 2.12971 42.5106 2.33032 42.6694 2.57272C42.7864 2.76497 42.9703 3.02409 43.0706 3.14947C43.2712 3.40023 43.5721 4.42 43.7393 5.4732C43.873 6.25892 43.8145 6.85238 43.5052 7.93902C43.4133 8.25665 43.313 8.64951 43.2712 8.79997C43.2294 8.95878 43.1876 9.09252 43.1709 9.10924C43.1542 9.12596 42.8449 8.89191 42.4771 8.591C42.1093 8.29008 41.449 7.79692 41.0143 7.49601C40.5797 7.19509 39.9779 6.7688 39.6853 6.54311C38.9832 6.01651 38.8578 6.11682 38.9999 7.07807C39.025 7.23689 39.4847 7.67154 39.794 7.822C40.1032 7.98081 40.3122 8.11455 41.3821 8.80833C41.9087 9.15939 42.8867 10.1123 43.2043 10.5887C43.3631 10.8311 43.7058 11.3494 43.9566 11.7422C44.734 12.9125 44.9346 13.3053 45.0767 13.9155C45.1937 14.4337 45.1937 14.5424 45.0767 14.9938C44.9095 15.6541 44.642 16.1556 44.0736 16.9163C43.8145 17.259 43.6055 17.5683 43.6055 17.6017C43.6055 17.6351 43.3882 17.7354 43.1207 17.8274C42.6526 17.9862 42.6276 17.9862 42.3434 17.8441C41.658 17.4847 40.4543 16.9246 40.3707 16.9246C40.3206 16.9246 39.9193 16.8076 39.468 16.6739C38.2058 16.281 36.8099 16.3312 34.6617 16.8243C34.085 16.9581 33.4664 17.142 33.2825 17.2339C33.0986 17.3259 32.7225 17.4512 32.4467 17.5098C31.7027 17.6602 31.0675 18.0364 31.0675 18.3206C31.0675 18.588 32.7476 18.3707 33.5584 18.0029C34.411 17.6184 36.0409 17.2506 37.1275 17.2005C38.4984 17.142 39.5599 17.4345 41.9338 18.5295C42.8115 18.9391 43.5805 19.5326 43.7644 19.9421C43.9232 20.2849 43.8897 20.569 43.6139 21.2294C43.3799 21.7894 43.5136 24.2051 43.7978 24.5144C43.873 24.5896 43.9483 24.7651 43.9817 24.9072C44.0151 25.041 44.1071 25.3837 44.199 25.6595C44.5166 26.6709 44.6504 30.3237 44.408 31.5691C44.1656 32.848 43.4718 34.1269 42.661 34.8123C42.3935 35.0463 42.1344 35.2302 42.101 35.2302C42.0675 35.2302 41.9756 35.1383 41.9004 35.0213C41.8251 34.9043 41.566 34.6869 41.3236 34.5281C40.3373 33.8845 40.2203 34.0767 40.889 35.2135C41.1564 35.6565 41.5326 36.2667 41.7332 36.5676C41.9254 36.8685 42.1261 37.2029 42.1678 37.3199C42.218 37.4369 42.4019 37.8465 42.5858 38.2394C42.7697 38.6322 42.9536 39.0669 42.987 39.2006C43.0789 39.5935 43.4551 40.5213 43.6139 40.747C43.8479 41.0897 44.2659 42.6444 44.3662 43.5472C44.4581 44.358 44.5835 49.0305 44.5668 50.9028C44.5584 51.7053 44.525 51.9226 44.291 52.5997C43.8145 53.9872 42.9034 55.0738 41.3905 56.0685C40.563 56.6119 39.7355 57.0047 38.2142 57.5564C36.5675 58.1582 35.5561 58.8436 35.8403 59.1863C36.0075 59.3869 36.3669 59.3201 37.1359 58.9272C37.5455 58.7182 37.9885 58.5511 38.1139 58.5511C38.2392 58.5511 38.5234 58.4591 38.7408 58.3505C38.9581 58.2418 39.3426 58.1081 39.5934 58.0496C39.8441 57.9994 40.2621 57.8239 40.5128 57.6734C40.7636 57.523 41.3153 57.222 41.7248 57.0047C42.1428 56.7874 42.5273 56.5701 42.5858 56.5199C42.753 56.3862 43.5136 57.2471 43.9232 58.0245C44.316 58.7768 44.5668 59.7547 44.4916 60.2061C44.4163 60.6408 43.99 61.9781 43.9315 61.9781C43.8981 61.9781 43.7226 61.7274 43.5303 61.4265C43.1207 60.7745 42.6526 60.507 42.101 60.599C41.4574 60.7076 41.3738 60.9835 41.8753 61.3011C42.0257 61.393 42.2431 61.5686 42.3601 61.7023C42.6777 62.0367 43.2963 62.9728 43.4384 63.3155C43.4969 63.4744 43.7309 63.9675 43.9483 64.4105C44.1907 64.9037 44.3996 65.4637 44.4749 65.8733C44.5501 66.2327 44.7423 66.9599 44.9095 67.4782C45.2188 68.4812 45.3191 69.4091 45.3692 71.7161C45.411 73.5633 45.1853 74.5915 44.2157 76.9235C43.9148 77.6424 43.6223 78.4198 43.5638 78.6538C43.5052 78.8795 43.3046 79.4562 43.1124 79.916C42.9201 80.3841 42.7697 80.8187 42.7697 80.8939C42.7697 80.9608 42.8449 81.1029 42.9285 81.2116C43.0789 81.4038 43.0957 81.4038 43.3715 81.2701C43.6473 81.1447 43.9483 80.6683 44.2324 79.9327L44.316 79.7154L44.5668 79.941C45.2439 80.5512 45.4612 81.245 45.3776 82.4737L45.3442 83.0338L44.4331 84.0285C43.5303 85.0148 43.221 85.2405 42.5189 85.4578C41.3905 85.8005 39.3426 85.7921 37.9718 85.4327C36.7263 85.1067 35.8821 84.6637 35.2719 84.0117C34.5113 83.2009 33.9596 81.9137 34.0014 81.0277C34.0264 80.6014 33.759 80.1417 33.55 80.2252C33.4246 80.2754 31.2597 80.0831 30.8585 79.9912C30.4071 79.8825 30.0644 79.6067 29.8554 79.1888C29.4041 78.3027 29.2871 77.1827 29.5295 75.9289C29.6716 75.1849 29.7886 74.8924 30.265 74.1902C30.6245 73.6636 30.6412 73.4212 30.3486 73.229L30.1396 73.0869L28.9945 74.1986C28.0332 75.1264 27.7156 75.3855 27.0469 75.7533C25.8934 76.3802 24.6647 76.8149 23.7118 76.9319C22.901 77.0406 21.2042 76.9653 19.9504 76.7647C19.2649 76.6644 17.6183 76.2465 17.0582 76.0375C16.4313 75.8035 15.4534 75.2016 14.9936 74.7754C13.8987 73.7556 12.0848 69.7016 11.834 67.729C11.7003 66.6758 11.9344 64.9037 12.2185 64.7867C12.369 64.7282 12.3857 64.3687 12.2436 64.2517C12.1851 64.2099 11.5749 63.9759 10.8895 63.7418C9.30135 63.1985 8.95029 62.9979 8.28995 62.3041C7.70484 61.6772 7.24511 60.8246 7.07793 60.0556L6.97763 59.5959L7.27019 59.2866C7.78007 58.7433 8.22308 57.197 8.04755 56.5199C7.99739 56.3026 7.59618 56.0936 7.429 56.2023C7.2869 56.2859 6.57641 57.2388 6.57641 57.3391C6.57641 57.5313 6.14176 58.0161 5.75726 58.2334C5.17215 58.5761 4.81272 58.5511 3.93506 58.083C3.13262 57.665 3.09082 57.665 2.90693 58.2084C2.73976 58.7266 2.78991 59.1613 3.04903 59.4037C3.17441 59.5207 3.3583 59.6628 3.46697 59.7129C3.6425 59.8049 5.15543 59.9637 5.87428 59.9721C6.12504 59.9721 6.1334 59.9888 6.18355 60.4234C6.25042 61.1172 6.77702 62.2289 7.34541 62.8809C8.16457 63.8338 9.69421 64.7282 10.6304 64.8201C10.9062 64.8452 11.1236 64.8953 11.1152 64.9455C11.1068 64.9873 11.04 65.1795 10.9731 65.3718C10.8895 65.5891 10.8394 66.1324 10.8226 66.9599C10.7976 68.2472 10.7892 68.197 11.2155 69.4592C11.274 69.6431 11.5749 70.3536 11.8842 71.0474C13.4974 74.6834 14.2915 75.8369 15.6456 76.539C16.5149 76.9821 17.6768 77.3331 18.8219 77.4836C19.3318 77.5505 19.9169 77.6508 20.1259 77.7009C20.3349 77.7427 21.48 77.7929 22.6753 77.8012C24.5309 77.8179 24.8904 77.8012 25.2164 77.6758C25.4253 77.6006 25.7513 77.4919 25.9436 77.4418C26.1358 77.3916 26.5705 77.1743 26.9048 76.957C27.2392 76.7313 27.724 76.422 27.9747 76.2548L28.4345 75.9623V77.2663C28.4345 78.6622 28.5097 78.9965 29.0363 80.0497C29.3288 80.6348 30.0979 81.4289 30.4656 81.5376C30.9086 81.6546 31.9786 81.6379 32.4299 81.5041L32.8144 81.3871L32.8646 81.78C32.9147 82.131 33.0318 82.4737 33.2324 82.7914C33.2742 82.8582 33.3828 83.1006 33.4664 83.318C33.7757 84.1371 35.2301 85.6918 35.8988 85.9175C36.0242 85.9593 36.2164 86.0596 36.3335 86.1349C36.7347 86.4107 37.5873 86.5361 39.7605 86.628C41.2066 86.6949 41.3738 86.6865 42.3267 86.5026C43.3046 86.3104 43.8229 86.1516 44.4247 85.8423C44.5752 85.7671 44.7173 85.7169 44.7423 85.7336C44.759 85.7587 44.7423 85.9593 44.6922 86.185C44.6504 86.4107 44.5919 86.7367 44.5668 86.9039C44.5334 87.1045 44.4749 87.2215 44.3996 87.2215C44.3328 87.2215 43.9232 87.5475 43.5052 87.9571C42.9368 88.492 42.4855 88.818 41.8502 89.1774C39.9946 90.2139 39.8692 90.2975 39.7605 90.5733C39.6602 90.8074 39.6602 90.8492 39.8023 90.9495C40.028 91.1167 40.12 91.0999 40.68 90.8157C40.9558 90.6736 41.24 90.565 41.3236 90.565C41.5995 90.5566 42.1344 90.2557 43.0706 89.5787L44.0068 88.91L44.0736 89.378C44.1071 89.6455 44.1321 89.9715 44.1154 90.122C44.1071 90.2724 44.1907 90.6653 44.3077 91.008C45.0265 93.0893 44.6671 95.0536 43.3213 96.3325C43.1124 96.5331 42.87 96.7421 42.7864 96.7839C42.7112 96.8257 42.4353 97.0263 42.1762 97.2185L41.7081 97.5779L41.658 97.0764C41.6162 96.5916 41.3654 95.948 41.2149 95.9647C41.1732 95.9647 40.9725 96.3074 40.7636 96.7337C40.5546 97.1517 40.2871 97.6114 40.1618 97.7451C39.6602 98.2968 38.281 98.8067 36.9604 98.9237C36.1997 98.9906 36.0158 98.9739 34.8874 98.7482C34.202 98.6144 33.5416 98.4473 33.4246 98.3887C33.2992 98.3302 32.9398 98.1965 32.6138 98.0962C31.4269 97.7284 30.8836 97.3439 29.0697 95.5886C28.1586 94.6942 27.2475 93.8667 27.0636 93.7497C26.8797 93.6326 26.7209 93.5072 26.7209 93.4738C26.7209 93.4487 26.8965 93.3568 27.1221 93.2732C27.4983 93.1395 28.5264 92.4206 29.4375 91.6683C29.6632 91.4761 30.0561 91.2253 30.3152 91.0999C30.5659 90.9829 30.9504 90.7572 31.1594 90.6068L31.5439 90.3309L31.895 90.7823C32.0872 91.0331 32.2795 91.2337 32.3213 91.2337C32.3631 91.2337 32.5219 91.3423 32.6723 91.4677C32.8228 91.6015 33.341 91.894 33.8258 92.1113C34.6199 92.4791 34.7704 92.5209 35.4224 92.5544C35.9991 92.5794 36.1579 92.5544 36.2499 92.4457C36.4588 92.1949 36.2332 91.9609 35.4474 91.6098C33.3076 90.682 32.8897 90.3978 32.2795 89.4783C31.895 88.9016 31.6275 88.0992 31.3099 86.6531C31.126 85.8339 30.9086 85.299 30.7498 85.299C30.591 85.299 30.4573 85.7921 30.4155 86.4943C30.382 87.1045 30.4071 87.2884 30.5576 87.6311C30.6495 87.8651 30.7331 88.1326 30.7415 88.2413C30.7415 88.3499 30.7916 88.5672 30.8418 88.7261L30.9504 89.0186L30.3653 89.5619C30.0477 89.8628 29.7635 90.1136 29.7301 90.1303C29.5963 90.1805 27.9329 89.1774 27.5902 88.8347C26.9633 88.2329 26.8212 87.8317 26.7544 86.5444L26.7042 85.4244L27.0051 84.973C27.1723 84.7306 27.306 84.5049 27.306 84.4631C27.306 84.4297 27.515 84.087 27.7658 83.7025C28.3091 82.9 28.3509 82.5824 27.9497 82.3901C27.724 82.2815 27.6822 82.2982 27.2726 82.5657C27.0386 82.7245 26.6624 83.0087 26.4534 83.1926C25.5173 84.0034 23.7285 84.4882 22.5917 84.2458C22.3075 84.1873 22.04 84.1371 21.9899 84.1288C21.806 84.1288 21.7809 84.4046 21.9397 84.5801C22.0233 84.6804 22.1571 84.8643 22.2407 84.9897C22.4831 85.3826 22.8508 85.4829 23.9542 85.4494C24.4891 85.4327 24.9823 85.3909 25.0575 85.3491C25.1662 85.299 25.2331 85.4411 25.442 86.1934C25.5841 86.6865 25.7848 87.4305 25.8767 87.8484C25.977 88.258 26.1275 88.6759 26.211 88.7679C26.2863 88.8598 26.5036 89.1524 26.6791 89.4282C26.863 89.6957 27.1472 90.0217 27.306 90.147C27.5819 90.3644 28.3091 90.7405 28.6769 90.8575C28.8273 90.8993 28.8273 90.916 28.6351 91.1167C28.5264 91.2337 28.1336 91.5346 27.7574 91.777C27.2392 92.1197 26.8463 92.2952 26.0021 92.5544C23.67 93.2816 22.575 93.4905 20.9534 93.4905C20.2596 93.4905 19.8835 93.4404 19.1563 93.2481C18.1365 92.989 16.749 92.4206 16.2224 92.0612C15.6373 91.66 15.0689 90.9578 14.5088 89.9297C13.907 88.8264 13.581 87.9069 13.3888 86.72C13.3135 86.2853 13.2383 85.8256 13.2132 85.7002L13.1631 85.4745L14.442 85.4411C15.3865 85.416 15.888 85.3575 16.3143 85.2321L16.8994 85.0649L16.9496 85.9175C16.983 86.6029 17.0332 86.837 17.2087 87.1797C17.4595 87.6645 18.4374 88.6425 18.6798 88.6425C18.7718 88.6425 18.9473 88.7261 19.0727 88.8264C19.3151 89.0186 19.6327 89.0938 20.7528 89.2192C21.4382 89.3028 21.597 89.2777 22.4998 89.0186C23.1601 88.8264 23.3774 88.6843 23.3774 88.4335C23.3774 88.0908 23.018 87.9738 21.9397 87.9738C20.1092 87.9654 19.4656 87.7815 18.6548 87.0376C18.1365 86.5612 17.8607 85.9593 17.8607 85.299C17.8607 84.9061 17.8774 84.8727 18.17 84.7222C18.3455 84.6303 18.7718 84.2792 19.1145 83.9449C19.4572 83.6022 19.8584 83.2427 20.0089 83.1424C20.502 82.7914 21.3296 81.8719 21.4717 81.4958C21.6054 81.1614 21.6054 81.1113 21.4884 80.9942C21.1875 80.7017 20.9618 80.8271 19.9922 81.8134C19.3569 82.457 18.8303 82.9084 18.2953 83.2511C17.8607 83.5269 17.4845 83.7526 17.4595 83.7526C17.426 83.761 17.2672 83.8446 17.1084 83.9449C16.5985 84.2709 15.771 84.438 14.2664 84.5133C12.5362 84.6136 10.7976 84.2291 9.50196 83.4601C8.41533 82.8248 7.64633 81.9053 6.46775 79.8575C5.69039 78.5033 5.49814 78.0603 5.23066 76.9235C4.96318 75.8035 4.92974 75.1599 5.10528 74.2404C5.23066 73.5968 5.59844 72.4516 5.71546 72.3346C5.7489 72.3012 5.96622 72.3597 6.19191 72.4683C6.87733 72.7943 7.37049 72.8779 8.74968 72.8863C9.99513 72.8863 10.0536 72.8779 10.3546 72.6773C10.5301 72.5603 10.6722 72.4266 10.6722 72.3764C10.6722 72.251 10.1957 72.1758 9.38494 72.1758C8.67445 72.1758 7.80514 72.0003 7.3287 71.7579C6.96927 71.574 6.35073 70.922 6.05817 70.4205C5.66531 69.7434 5.48978 68.4645 5.72382 67.9714C5.84084 67.7039 5.9913 66.9516 5.9913 66.5838C5.9913 66.1993 5.84084 66.0488 5.27245 65.8817C5.03841 65.8148 4.72078 65.6894 4.56196 65.6142C4.21089 65.4303 3.22456 64.5861 2.71468 64.026C2.22988 63.4911 1.50267 62.3125 1.38565 61.8611C1.33549 61.6689 1.23519 61.3512 1.15996 61.1423C1.05966 60.8664 1.03458 60.507 1.04294 59.7882C1.05966 58.7768 1.07637 58.6848 1.4358 57.4226C1.72835 56.428 1.81194 56.2357 2.46392 55.2494C2.76483 54.7896 3.0156 54.4051 3.02395 54.3968C3.02395 54.3884 3.29143 54.472 3.60907 54.5807C5.47306 55.2159 5.84084 55.2995 6.58477 55.241L7.2869 55.1909L7.8135 55.7843C8.10606 56.1103 8.44041 56.4865 8.56579 56.6202C8.69117 56.7456 8.95029 57.0799 9.1509 57.3474C11.2071 60.1727 11.1653 60.1309 12.0848 60.7327C13.1464 61.4265 13.7816 61.6438 15.0689 61.7525C16.2892 61.8444 16.6069 61.7943 16.6069 61.4766C16.6069 61.2091 16.2642 61.0587 14.8766 60.716C14.1494 60.5321 13.3303 60.2813 13.0544 60.1476C12.0681 59.6879 11.274 58.9356 10.5552 57.7988C10.3713 57.4979 10.0286 56.9713 9.79452 56.6286C9.24284 55.8178 9.08403 55.4667 9.08403 55.0571C9.08403 54.3048 8.94193 54.2463 7.37885 54.3801L6.20027 54.4804L5.3226 54.121C3.3583 53.3269 2.65617 52.8755 1.9206 51.9728C1.21847 51.1118 1.11817 50.8193 1.15996 49.9082C1.19339 49.2729 1.25191 49.0221 1.51103 48.3952C1.68656 47.9773 1.89553 47.4507 1.97911 47.2083C2.28003 46.3641 3.45025 44.9598 3.80132 45.0267C3.87654 45.0434 4.07715 45.2607 4.24433 45.5115C4.65391 46.13 5.65695 47.0662 5.98294 47.1414C6.2337 47.1916 6.24206 47.2166 6.24206 47.6346C6.24206 48.086 6.38416 48.6126 6.66836 49.1559C6.75194 49.3314 6.82717 49.5237 6.82717 49.5822C6.82717 49.649 6.96927 49.8496 7.1448 50.0503C7.32034 50.2425 7.52931 50.51 7.62125 50.6521C7.91381 51.1369 8.85834 52.1984 8.99208 52.1984C9.06731 52.2068 9.27628 52.2737 9.46017 52.3656C9.86975 52.5662 9.99513 52.5662 10.2375 52.3991C10.5468 52.1817 10.4549 51.9895 9.7778 51.3876C8.53235 50.301 8.30667 50.0252 7.8553 49.1057C7.27019 47.9021 7.11973 47.1832 7.24511 46.1634C7.35377 45.2356 7.82186 43.7561 8.2398 43.0122C8.63266 42.3184 9.27628 41.5494 9.84467 41.0897C10.0871 40.8891 10.3044 40.6885 10.3211 40.6551C10.3378 40.6216 10.1456 40.5297 9.89482 40.4544C9.46017 40.3291 9.42674 40.3291 9.1509 40.4962C8.67445 40.7721 7.24511 42.5776 7.24511 42.8952C7.24511 42.9621 7.15316 43.1794 7.03614 43.3716C6.91912 43.5722 6.75194 44.0236 6.66 44.3914C6.56805 44.7508 6.45103 45.1771 6.39252 45.3443C6.34237 45.5031 6.29221 45.687 6.2755 45.7455C6.22534 45.9294 5.29753 45.127 5.01333 44.6589C4.2694 43.4385 4.06044 41.6665 4.49509 40.2956C4.57868 40.0114 4.65391 39.7356 4.65391 39.6687C4.65391 39.4848 5.35604 38.3313 5.4647 38.323C5.51485 38.323 5.66531 38.1976 5.79905 38.0388C5.92443 37.8883 6.16683 37.6961 6.32565 37.6125L6.6182 37.462L7.03614 37.9301C7.83022 38.8161 8.52399 39.1254 8.74132 38.7075C8.88342 38.4567 8.79147 38.2812 8.36518 37.9886C8.18964 37.8716 7.9556 37.6459 7.8553 37.4871C7.75499 37.3283 7.58782 37.0942 7.49587 36.9605C7.39557 36.8351 7.1866 36.3837 7.03614 35.9491C6.88568 35.5228 6.72687 35.0965 6.67672 35.0129C6.31729 34.3275 6.02474 31.8617 6.10832 30.215C6.18355 28.8275 6.39252 28 6.96927 26.8297C7.62125 25.5341 7.9556 25.0744 8.79147 24.3806C9.06731 24.1549 9.6357 23.6534 10.0453 23.2773C10.4632 22.8928 10.948 22.5166 11.1319 22.433L11.4663 22.2826L11.7588 22.5668C12.0012 22.8008 12.1768 22.8761 12.7953 23.0182C13.8652 23.2522 14.0073 23.1435 13.5476 22.433C13.3303 22.0903 13.2634 21.8981 13.2634 21.5972C13.2634 21.1374 13.1464 21.0037 12.6532 20.9452C12.4192 20.9118 12.2771 20.8365 12.2185 20.7195C12.16 20.6025 12.16 19.9505 12.2185 18.6298C12.2938 16.9999 12.3356 16.6572 12.4777 16.3395C12.5696 16.1306 12.7368 15.6876 12.8371 15.3448C12.9876 14.8517 13.1046 14.6427 13.4389 14.2916C13.8234 13.8821 13.8987 13.8403 14.676 13.6313C15.5453 13.3973 16.8075 13.205 16.9997 13.2802C17.0833 13.3137 17.0666 13.414 16.9078 13.765C16.5149 14.626 16.4397 15.0606 16.4397 16.4064C16.4397 17.4429 16.4648 17.6853 16.5734 17.794C16.7323 17.9528 16.866 17.9611 17.0499 17.819C17.1586 17.7438 17.192 17.5265 17.2171 16.8411C17.2589 15.8631 17.426 14.9938 17.6935 14.392L17.869 13.9907L18.1198 14.2081C18.4291 14.4588 18.8052 14.4755 19.1646 14.2582C19.4739 14.0743 19.6327 13.6062 19.6662 12.8038C19.6912 12.1852 19.7414 12.1017 20.2429 11.8927C20.3767 11.8342 20.7695 11.6419 21.1122 11.4664C21.4549 11.2992 21.7976 11.1571 21.8729 11.1571C22.132 11.1571 23.0264 10.8144 23.0765 10.689C23.1434 10.5135 23.0431 10.3129 22.8341 10.2377C22.5416 10.129 21.4382 10.3463 21.0036 10.6055C20.803 10.7225 20.5606 10.8228 20.477 10.8228C20.3934 10.8228 20.1593 10.9398 19.9504 11.0735C19.7414 11.2073 19.5408 11.3243 19.5074 11.3243C19.3402 11.3243 18.2201 11.8593 18.0529 12.0181C17.9443 12.11 17.8523 12.1769 17.844 12.1518C17.6684 11.8676 17.6099 11.7004 17.6099 11.4748C17.6099 11.3243 17.5096 10.9732 17.3926 10.6974C17.075 9.96183 17.0248 8.98386 17.2756 8.34024C17.3759 8.07276 17.4929 7.79692 17.5347 7.73005C17.5765 7.66318 17.6852 7.44585 17.7771 7.2536C17.9861 6.78551 18.6213 5.94128 19.4488 5.00511C20.3265 4.02714 20.9868 3.62592 22.0986 3.42531C22.7673 3.29993 23.0097 3.29993 23.8455 3.37516C24.3721 3.42531 24.8904 3.52561 24.9907 3.58412C25.091 3.65099 25.325 3.74294 25.5089 3.80145C25.6928 3.85996 26.0689 4.01042 26.3531 4.14416C26.629 4.26954 26.955 4.40328 27.072 4.42836C27.189 4.46179 27.3645 4.59553 27.4649 4.72927C27.5652 4.86301 27.7156 4.97167 27.7992 4.97167C28.0583 4.97167 28.0583 5.06362 27.7992 5.54007C27.6655 5.79083 27.5568 6.08338 27.5568 6.18369C27.5568 6.39265 27.4231 6.42609 25.9519 6.52639C25.5006 6.55983 25.0743 6.6267 24.999 6.67685C24.8904 6.76044 24.9322 6.81895 25.2999 7.05299L25.7346 7.33719L26.6373 7.27868L27.5317 7.22017L27.5902 7.87215C27.6237 8.23157 27.6905 8.6913 27.7407 8.90027C27.7908 9.10924 27.8326 9.87824 27.841 10.6138L27.8494 11.9512L28.3091 11.9261C28.8273 11.9011 29.0112 11.7506 28.9443 11.4079C28.9193 11.2909 28.8608 10.8228 28.8106 10.363C28.7103 9.41851 28.61 8.64951 28.4679 7.72169C28.376 7.13658 28.3843 7.03628 28.5348 6.59326C28.6351 6.31743 28.7521 5.94128 28.8022 5.74903C28.8608 5.54007 29.0614 5.22243 29.2954 4.95495C29.5127 4.71255 29.7969 4.35313 29.9223 4.15252C30.0477 3.96027 30.1982 3.80145 30.2483 3.80145C30.2985 3.80145 30.4238 3.72622 30.5241 3.63428C30.6997 3.47546 31.1845 3.19126 31.9451 2.81512C32.5052 2.53928 33.4413 2.23837 33.9429 2.17986L34.3441 2.12971L34.1435 2.40554C33.8593 2.77333 33.1571 5.07198 33.1571 5.61529C33.1571 5.63201 33.015 5.69888 32.8395 5.77411C32.4801 5.91621 32.2042 6.2422 32.0371 6.71029C31.9535 6.94433 31.9451 7.26196 31.9953 8.02261L32.0705 9.02565L32.547 9.46866C32.8061 9.71107 33.1571 9.94511 33.316 9.99526C33.6921 10.1039 35.5477 10.0454 36.1245 9.90332C36.3585 9.85317 36.6511 9.79465 36.7765 9.7863C37.1526 9.75286 37.1944 9.62748 36.9186 9.36L36.6678 9.1176L36.0994 9.22626C35.1131 9.41851 34.9041 9.41851 34.411 9.2179C34.0014 9.04237 33.9345 8.9755 33.6837 8.49905C33.2658 7.69662 33.316 7.09479 33.8175 6.93597C34.0432 6.8691 34.085 6.71029 34.1351 5.84934C34.2187 4.48687 34.7202 3.06588 35.4725 2.09627C35.8821 1.56131 36.626 1.17681 37.6291 0.959486C38.3897 0.792311 38.7993 0.792311 39.5516 0.951127Z" fill="black"/>
<path d="M27.9742 13.4057C27.0799 13.7568 26.1019 14.5007 25.7843 15.0691C25.2995 15.93 25.2995 15.9384 25.2159 17.3092C25.1741 18.0364 25.1574 18.7553 25.1824 18.9058L25.2326 19.1732L24.4552 19.1231C23.9119 19.098 23.4522 19.0061 22.9507 18.8389C22.5494 18.7051 22.1649 18.5965 22.0897 18.5965C21.9309 18.5965 21.9142 18.8222 22.0479 19.307C22.1733 19.7583 22.399 19.984 22.9507 20.193C23.3602 20.3435 23.5441 20.3602 24.4218 20.3267C24.9735 20.31 25.4833 20.2682 25.5502 20.2431C25.6338 20.2014 25.7675 20.3184 25.9682 20.5942C26.3192 21.0874 26.57 21.2629 27.3891 21.614C27.899 21.8229 28.1832 21.8898 28.8686 21.9316C29.3367 21.965 29.7463 22.0152 29.7714 22.0403C29.8048 22.0654 29.7547 22.2325 29.6627 22.4164C29.4454 22.8594 29.2698 24.1216 29.3869 24.3556C29.4955 24.5479 29.5457 24.5646 29.8299 24.4559C30.0221 24.3807 30.3481 23.7789 30.7493 22.734C31.0001 22.0654 31.2592 21.6474 31.6939 21.1877C32.1035 20.7614 32.2623 20.2097 32.0366 20.0258C31.9697 19.9673 31.8611 19.9506 31.8025 19.984C31.5518 20.1428 30.4066 21.1208 30.3816 21.2044C30.3398 21.3131 28.4423 20.6611 27.6399 20.2599C26.2189 19.5577 25.8929 18.1284 26.6452 15.8548C26.8458 15.2363 27.2387 14.7348 27.8238 14.3335C28.0578 14.1747 28.2752 13.9825 28.3086 13.9156C28.342 13.8487 28.4089 13.7066 28.4674 13.598C28.5594 13.4141 28.5343 13.2385 28.4089 13.2469C28.3755 13.2553 28.1832 13.3221 27.9742 13.4057Z" fill="black"/>
<path d="M37.9467 19.9335C37.604 20.1508 37.3198 20.4852 36.8685 21.2291C36.5007 21.8226 36.4589 21.948 36.4589 22.3659L36.4672 22.8424L36.0827 22.8841C34.4946 23.0764 33.7172 23.3606 32.8395 24.0627C31.8198 24.8735 31.3266 25.5255 30.2567 27.4564C29.2369 29.3036 28.7271 30.0392 27.8912 30.8918C27.1556 31.6441 27.0219 31.736 26.0439 32.2125L24.9907 32.7307L24.1381 32.5552C22.6921 32.2626 21.6054 31.7862 21.0538 31.2011C20.8699 31.0005 20.6191 30.733 20.5104 30.5992C20.268 30.2983 20.1594 30.3485 19.9086 30.9002C19.6662 31.4268 19.7247 31.736 20.1928 32.2961C20.9284 33.1737 22.0819 33.4997 24.9071 33.6084C25.534 33.6335 26.0523 33.6836 26.0523 33.717C26.0523 33.7505 26.0105 33.8174 25.9603 33.8675C25.9102 33.9177 25.8517 34.3105 25.8266 34.7452C25.7848 35.4139 25.8099 35.6145 25.9687 36.1076C26.2612 37.0271 26.6792 37.8379 27.0386 38.1806L27.3646 38.5066L26.9717 38.8995C26.746 39.1251 26.4618 39.5096 26.3365 39.752C26.1275 40.1616 26.1108 40.2786 26.1275 40.9975C26.1609 42.4436 26.3783 43.0119 27.1891 43.7392C27.933 44.4079 28.6184 44.8091 29.3958 45.0348C29.914 45.1852 30.2149 45.2186 31.1678 45.2103L32.3129 45.2019L32.3464 46.3805C32.3631 47.0241 32.3965 47.6343 32.4133 47.7179C32.4383 47.86 32.3715 47.8934 31.895 47.9854C31.2012 48.1108 30.8502 48.2863 30.0645 48.8714C29.1951 49.5234 28.5515 50.2506 28.167 51.028C28.0834 51.1868 27.9246 51.471 27.7992 51.6549C27.4147 52.2316 27.3061 52.591 27.3061 53.2597C27.3061 53.6024 27.2726 53.8616 27.2392 53.8365C27.1974 53.8114 26.8046 53.7027 26.3615 53.5857C25.6427 53.3935 25.4839 53.3851 24.7817 53.452C23.3273 53.5857 22.132 53.9117 20.9451 54.4968C20.6107 54.6556 20.3349 54.781 20.3265 54.7727C20.3182 54.7559 20.243 54.547 20.1677 54.3046C19.8334 53.3015 18.9808 52.357 17.9945 51.9056C16.8995 51.4125 15.1692 51.1951 14.6008 51.4877C14.3417 51.6214 14.2748 51.7635 14.4587 51.8137C14.5089 51.8304 14.7596 51.9056 15.0104 51.9809C15.2528 52.0561 15.6206 52.1146 15.8128 52.1146C16.3227 52.1146 17.192 52.4071 17.6685 52.7331C18.1867 53.0926 18.7217 53.7445 18.9056 54.2544C19.1981 55.0485 19.5575 55.7841 19.7498 55.968C19.9922 56.202 20.2012 56.1435 20.7445 55.7088C21.6639 54.9733 23.7118 54.2043 24.7567 54.2043C25.0325 54.2043 25.6343 54.2962 26.0941 54.4132C26.5538 54.5303 27.0135 54.6222 27.1138 54.6222C27.3144 54.6222 27.3395 54.7309 27.4315 56.085C27.4649 56.4946 27.5568 57.0379 27.6488 57.2886C27.7324 57.5478 27.8076 57.8403 27.8076 57.9406C27.8076 58.2165 28.1921 58.9437 28.3844 59.0523C28.5933 59.161 28.8859 59.161 29.2202 59.044C29.4543 58.9604 29.4877 58.9186 29.4375 58.7263C29.4041 58.6093 29.2787 58.3418 29.145 58.1329C28.6268 57.3221 28.3593 56.2689 28.2423 54.6473C28.1754 53.6442 28.2088 53.4186 28.585 52.4406C28.9862 51.4041 29.3958 50.7688 30.123 50.0416C30.917 49.2559 31.3935 48.9884 32.5971 48.6875C33.2993 48.5203 33.3494 48.512 33.7423 48.6457C34.4193 48.8714 35.1131 49.5317 35.4057 50.2422C35.5311 50.5599 36.2248 51.2369 36.484 51.3038C36.6177 51.3372 36.7347 51.2954 36.8434 51.1868C36.927 51.1032 37.0356 51.028 37.0691 51.028C37.1109 51.028 37.2947 50.9193 37.4786 50.7856C37.9718 50.4261 38.4065 50.2255 38.9163 50.1169C39.9194 49.9079 40.9893 50.3927 41.4741 51.2871C41.7165 51.7385 42.3351 52.3654 42.6276 52.474C42.9369 52.5827 43.0205 52.4573 43.0205 51.8973C43.0205 51.2369 42.8366 50.8441 42.2515 50.2255C41.9422 49.8912 41.6747 49.7156 41.1398 49.49C40.4961 49.2141 40.3791 49.189 39.5934 49.189C38.7241 49.189 38.3981 49.2643 37.1944 49.7407C36.9102 49.8494 36.6678 49.9413 36.6428 49.9413C36.6177 49.9413 36.5592 49.7742 36.509 49.5735C36.3836 49.0637 35.5645 48.2445 34.8456 47.9102C34.3776 47.6928 34.2522 47.6678 33.7924 47.7095L33.2742 47.7597L33.2408 47.1161C33.1655 45.787 33.1906 45.5028 33.4915 44.7589C33.7339 44.1654 33.8593 43.9732 34.2772 43.572C34.5614 43.3045 34.8122 43.0872 34.8456 43.0872C34.8707 43.0872 35.0212 42.9367 35.1633 42.7528C35.6815 42.1008 35.1967 41.7999 34.3525 42.2513C33.6587 42.6191 33.2826 42.9451 33.0151 43.4048C32.8897 43.6221 32.6974 43.923 32.5804 44.0819L32.3631 44.3661L31.4436 44.3159C29.9558 44.224 28.6936 43.7475 28.05 43.0203C27.7073 42.6191 27.398 41.917 27.3312 41.3653C27.2726 40.8888 27.5067 40.2118 27.8912 39.7437C28.1921 39.3759 28.3927 38.9412 28.3927 38.6487C28.3927 38.5651 28.2005 38.2391 27.9664 37.9298C27.1807 36.8934 26.721 35.5643 26.9467 34.9709C27.0135 34.812 27.0302 34.5028 26.9968 34.1768C26.955 33.7588 26.9717 33.6084 27.0804 33.4914C27.1473 33.4161 27.3312 33.1319 27.49 32.8728C27.6571 32.5803 28.0082 32.1958 28.4094 31.8531C28.7689 31.5438 29.1199 31.176 29.1951 31.0255C29.2704 30.8834 29.5128 30.524 29.7385 30.2398C29.9641 29.9556 30.1648 29.6213 30.1982 29.4875C30.2316 29.3622 30.4991 28.8356 30.7917 28.3257C31.0759 27.8158 31.3183 27.3561 31.3183 27.3143C31.3183 27.2641 31.5439 26.8796 31.8198 26.4617C32.4216 25.5506 33.224 24.7398 33.9178 24.372C35.1466 23.7117 37.2947 23.3857 39.2173 23.5612C39.7522 23.6114 39.9194 23.603 40.0531 23.5027C40.1869 23.4024 40.1952 23.3439 40.12 23.1767C39.9946 22.8925 39.5265 22.7755 38.5068 22.7755H37.6542L37.7127 22.3826C37.7796 21.9313 37.9718 21.4047 38.1724 21.1037C38.465 20.6774 38.6823 20.1676 38.6321 20.0255C38.5653 19.8081 38.2226 19.7663 37.9467 19.9335Z" fill="black"/>
<path d="M19.8247 20.2597C19.6993 20.4687 19.507 21.1541 19.2813 22.1655C19.0557 23.1602 19.0306 23.4277 19.0306 24.6982C19.0306 25.8183 19.0557 26.1694 19.1643 26.395C19.2897 26.6625 19.2897 26.6792 18.9971 27.1808C18.7631 27.582 17.7935 28.7355 16.8155 29.7803C16.6734 29.9391 15.8961 28.8525 15.6035 28.0835C15.1187 26.8297 15.0853 26.0105 15.428 24.4307C15.6787 23.3274 15.8626 22.9763 16.5648 22.2825C17.292 21.5637 17.3588 21.3547 16.8657 21.3547C16.5731 21.3547 16.4477 21.43 15.8793 21.9231C15.0518 22.6336 14.6339 23.0933 14.4751 23.4611C14.3999 23.645 14.333 24.2134 14.2995 24.9657L14.241 26.1694L13.3299 26.1861C12.3687 26.1944 12.1096 26.2529 10.3375 26.8798C10.2205 26.9133 10.0282 26.9718 9.90286 26.9969C9.69389 27.0387 9.41805 27.3897 9.41805 27.6071C9.41805 27.7157 9.9948 28.2925 10.0951 28.2925C10.2205 28.2925 10.513 28.1253 10.7053 27.9414C10.9895 27.6739 12.2266 27.1139 12.5275 27.1139C12.678 27.1139 13.1293 27.139 13.5305 27.1724L14.2578 27.2226L14.3079 27.5318C14.333 27.699 14.3748 27.9247 14.3915 28.0417C14.4082 28.1587 14.5503 28.4764 14.7175 28.7522C14.8763 29.028 15.0769 29.4042 15.1689 29.5881C15.2524 29.772 15.5032 30.098 15.7205 30.3153L16.1134 30.7165L15.8793 31.0425C15.754 31.218 15.3695 31.7363 15.0268 32.1793C14.684 32.6306 14.3497 33.1489 14.2912 33.3411C14.2243 33.525 14.0989 33.7925 14.0153 33.9346C13.9318 34.0683 13.7395 34.5532 13.5891 34.9962C13.4386 35.4475 13.2965 35.8153 13.2714 35.8153C13.2463 35.8153 13.1377 35.6649 13.029 35.481C12.7866 35.0547 12.1346 34.5699 11.1567 34.1018C10.4629 33.7591 10.3375 33.7256 9.77748 33.7256C9.13386 33.7256 7.99707 33.9346 7.99707 34.06C7.99707 34.0934 8.18932 34.2439 8.41501 34.3943C8.79115 34.6367 8.88309 34.6618 9.21744 34.6117C9.49328 34.5782 9.73568 34.6117 10.1035 34.737C10.9393 35.0129 11.2235 35.1968 12.0093 35.9574C12.4188 36.3503 12.8284 36.7181 12.912 36.7849C13.0625 36.8852 13.0625 36.927 12.9538 37.6292C12.8702 38.139 12.8451 38.8161 12.8618 39.8275C12.8953 41.1064 12.9204 41.3488 13.0875 41.75C13.1962 42.0008 13.3132 42.4271 13.355 42.7029C13.4386 43.2044 13.9067 44.2493 14.1992 44.5585L14.3581 44.7341L13.8315 44.918C13.2547 45.1186 13.1293 45.1854 12.586 45.5449C11.6248 46.1801 11.0062 46.8739 11.0062 47.342C10.9979 47.4674 10.9477 47.6513 10.8808 47.7683C10.722 48.0525 10.722 48.5707 10.8808 48.6376C10.9477 48.6627 11.0898 48.6543 11.1985 48.6125C11.4659 48.5122 12.3018 47.4841 12.5359 46.9659C12.7197 46.573 13.0039 46.3473 13.9819 45.8458L14.8679 45.3861L15.1689 45.7622C15.8125 46.5563 17.1749 47.8853 17.6932 48.2197C18.6795 48.8549 19.9417 49.3564 20.5686 49.3564C20.8779 49.3564 21.0701 49.1642 21.0116 48.9218C20.9614 48.7463 20.7525 48.6209 19.6826 48.1361C18.9888 47.8184 18.1696 47.3838 17.8604 47.1748C17.1749 46.69 16.0131 45.4446 15.336 44.4582C14.5085 43.2462 14.2243 42.5608 13.9234 41.0813C13.6643 39.7941 13.6643 39.7774 13.7562 38.6155C13.9736 35.9909 14.7844 33.9262 16.5313 31.5774C17.4006 30.4156 18.5458 29.2203 19.1392 28.8609C19.3148 28.7522 19.5906 28.585 19.7494 28.4847C19.9082 28.3761 20.1423 28.2674 20.2677 28.2423C20.3931 28.2089 20.5853 28.1253 20.694 28.0584C20.9364 27.8913 20.9113 27.5653 20.5769 26.7879C20.4516 26.487 20.2342 25.9437 20.1089 25.5759C19.8748 24.9406 19.8665 24.857 19.9166 23.9877C19.95 23.2856 20.0253 22.8927 20.2175 22.3243C20.5184 21.43 20.5101 20.8783 20.2008 20.452C19.9918 20.1762 19.9082 20.1344 19.8247 20.2597Z" fill="black"/>
<path d="M37.6704 28.1837C37.4614 28.2589 36.8596 28.6267 36.333 29.0112C35.8064 29.4041 35.0875 29.8554 34.7448 30.031C34.1597 30.3152 34.0678 30.3402 33.4074 30.3319C33.0146 30.3235 32.5883 30.2734 32.4545 30.2232C32.3208 30.1731 32.2038 30.1396 32.1871 30.1563C32.1704 30.1731 32.1787 30.4823 32.2121 30.8334C32.2623 31.4436 32.279 31.4937 32.5131 31.6358C32.839 31.8364 34.143 31.9451 34.4188 31.803C34.5944 31.7027 34.6362 31.7278 34.9287 32.0621C35.5724 32.8061 35.8983 33.7004 36.0906 35.2384L36.1909 36.0409L35.8733 37.0356C35.6894 37.5789 35.5473 38.1891 35.5473 38.3897C35.5389 38.7825 35.5891 38.7575 34.4774 38.9832C34.1347 39.0584 33.9675 39.142 33.8672 39.2924C33.7919 39.4011 33.7585 39.5348 33.7836 39.5683C33.8505 39.6769 34.5442 39.6602 35.121 39.5348C35.9067 39.3593 37.0686 39.3008 37.6035 39.4011C38.4227 39.5515 38.8323 39.7856 40.6628 41.1397C41.1643 41.5158 41.4318 41.5827 41.599 41.3737C41.7745 41.1648 41.5488 40.7886 40.8551 40.1534C40.1195 39.4763 39.2836 38.9581 38.7069 38.816C38.4812 38.7575 37.8543 38.6906 37.311 38.6655L36.333 38.6154L36.5838 38.3061C37.0435 37.7544 37.1104 37.3198 37.0602 35.5059C37.0184 34.1351 36.9766 33.8258 36.8262 33.458C36.7342 33.2156 36.6172 32.9314 36.5754 32.8228C36.5336 32.7141 36.3079 32.338 36.0822 31.9953C35.7228 31.4519 35.681 31.3349 35.773 31.2263C35.8315 31.151 36.1407 30.7916 36.4667 30.4238C36.7844 30.056 37.1187 29.6465 37.1939 29.5211C37.2775 29.3957 37.4447 29.2536 37.5617 29.2034C37.988 29.0446 38.6734 28.5849 38.6734 28.4595C38.6651 28.1001 38.2639 27.9914 37.6704 28.1837Z" fill="black"/>
<path d="M32.1624 59.5961C31.6107 60.2314 31.5438 60.4738 31.5355 61.853C31.5355 63.2907 31.6608 63.8423 32.0871 64.1934L32.3295 64.394L32.1122 64.4525C31.6943 64.5528 30.056 64.3522 28.8941 64.0597C27.5484 63.7086 26.9382 63.3826 26.2277 62.5969C25.7178 62.0452 25.2413 61.644 25.0825 61.644C24.9404 61.644 24.8568 62.087 24.9154 62.5217C24.9906 62.9814 25.5005 63.5832 26.0605 63.8507C26.2778 63.9594 26.6373 64.1934 26.8629 64.3773C27.5734 64.9624 28.1167 65.1379 29.5294 65.2466C30.2148 65.3051 31.3934 65.3636 32.154 65.3803L33.5332 65.4138L33.9929 65.1714C34.2437 65.0376 34.6449 64.8621 34.879 64.7869L35.3052 64.6448L36.325 65.1129C37.8045 65.7899 39.7103 66.2496 40.0614 66.0072C40.2369 65.8902 40.2536 65.6729 40.0948 65.5308C40.0028 65.4472 39.4261 65.2633 38.8076 65.1129C37.5955 64.8287 37.1024 64.5779 36.885 64.1683C36.8182 64.0429 36.6176 63.859 36.4337 63.7504C36.0492 63.5331 35.5644 63.5163 34.344 63.6835L33.5583 63.7838L33.3577 63.5414C33.0568 63.1904 32.9147 62.8727 32.7475 62.2291C32.6137 61.7192 32.6054 61.6022 32.7057 61.2177C32.7726 60.9753 32.8729 60.7245 32.9397 60.6493C33.0066 60.5741 33.0985 60.315 33.1403 60.0642C33.2156 59.6713 33.1989 59.5961 33.0651 59.4624C32.806 59.2032 32.4633 59.2618 32.1624 59.5961Z" fill="black"/>
<path d="M19.072 61.159C18.6708 61.6354 18.2779 62.5215 18.2278 63.0899C18.2027 63.3741 18.0689 64.001 17.9436 64.4858C17.5507 65.9485 17.417 67.3194 17.6009 67.9546C17.7012 68.3141 18.3197 69.1165 18.6791 69.3673C18.8547 69.4843 19.2726 69.6932 19.6153 69.8353C20.1336 70.0527 20.4094 70.1112 21.2369 70.1697C21.7802 70.2031 22.3653 70.2198 22.5325 70.1948C22.9588 70.1363 23.9117 69.7685 24.1708 69.5679L24.3798 69.4007L24.6723 69.6598C25.0736 70.0109 26.0264 70.4372 27.4725 70.9136C29.2278 71.4987 29.5873 71.5489 32.1534 71.5489H34.3685L34.87 71.3232C35.1458 71.2062 35.3799 71.1059 35.3882 71.1142C35.3882 71.1226 35.3631 71.5656 35.3297 72.0922C35.2461 73.1872 35.3046 73.6051 35.639 74.1234C36.2157 75.0261 36.5083 75.1766 37.8039 75.2434C38.6983 75.2936 38.7317 75.2852 38.8654 75.1013C38.9323 75.001 38.9741 74.8589 38.949 74.8004C38.924 74.7336 38.4893 74.4243 37.9711 74.1066C36.4498 73.1538 36.4581 73.1621 36.3328 72.7275C36.2575 72.46 36.2492 72.1758 36.291 71.8164C36.3244 71.5322 36.3578 71.1393 36.3662 70.9387L36.3745 70.5876L37.2689 70.1363C38.8153 69.3505 39.5007 68.732 39.6512 67.9797C39.7097 67.6955 39.5341 67.4949 39.2416 67.4949C39.158 67.4949 38.6648 67.8794 38.155 68.3475C37.3609 69.0663 37.085 69.2586 36.3745 69.5846C35.4133 70.036 33.9505 70.5291 33.123 70.6712C32.7469 70.7381 32.2453 70.7548 31.6602 70.7214C28.6929 70.5291 26.7035 69.7852 25.1822 68.289L24.5971 67.7289L24.3881 67.9797C24.2544 68.1385 23.9869 68.289 23.6693 68.3976C23.3935 68.4896 22.9086 68.6568 22.5827 68.7738C22.0477 68.966 21.939 68.9744 21.3038 68.9159C20.1503 68.7989 19.1639 68.2388 18.7794 67.4865C18.3782 66.7092 18.3866 65.89 18.8212 64.6529C19.0135 64.1096 19.0887 63.8003 19.3228 62.6886C19.3896 62.3626 19.4983 61.9196 19.5652 61.6856C19.6571 61.3262 19.6571 61.2426 19.5484 61.0838C19.3896 60.833 19.3395 60.8414 19.072 61.159Z" fill="black"/>
</svg>
