<svg width="673" height="703" viewBox="0 0 673 703" fill="none" xmlns="http://www.w3.org/2000/svg">
<path d="M424 658.5V699.5C424 700.605 424.895 701.5 426 701.5H669.5C670.605 701.5 671.5 700.605 671.5 699.5V435C671.5 433.895 670.605 433 669.5 433H621.5C620.395 433 619.5 433.895 619.5 435V493C619.5 494.105 618.605 495 617.5 495H570.5C569.395 495 568.5 495.895 568.5 497V544.5C568.5 545.605 567.605 546.5 566.5 546.5H526C524.895 546.5 524 547.395 524 548.5V601C524 602.105 523.105 603 522 603H478C476.895 603 476 603.895 476 605V654.5C476 655.605 475.105 656.5 474 656.5H426C424.895 656.5 424 657.395 424 658.5Z" fill="#FEC5FF" stroke="black" stroke-width="3" stroke-linecap="round"/>
<path d="M63 200H4C2.89543 200 2 199.105 2 198V4C2 2.89543 2.89543 2 4 2H198C199.105 2 200 2.89543 200 4V67C200 68.1046 199.105 69 198 69H131C129.895 69 129 69.8954 129 71V136C129 137.105 128.105 138 127 138H67C65.8954 138 65 138.895 65 140V198C65 199.105 64.1046 200 63 200Z" fill="#FEC5FF" stroke="black" stroke-width="3" stroke-linecap="round"/>
<path d="M172 614.328L172 646.5C172 647.605 172.895 648.5 174 648.5L206.172 648.5C207.953 648.5 208.846 646.346 207.586 645.086L175.414 612.914C174.154 611.654 172 612.547 172 614.328Z" fill="#820017" stroke="black" stroke-width="3" stroke-linecap="round"/>
<path d="M133 614.828L133 647C133 648.105 133.895 649 135 649L167.172 649C168.953 649 169.846 646.846 168.586 645.586L136.414 613.414C135.154 612.154 133 613.047 133 614.828Z" fill="#820017" stroke="black" stroke-width="3" stroke-linecap="round"/>
<path d="M94 614.828L94 647C94 648.105 94.8954 649 96 649L128.172 649C129.953 649 130.846 646.846 129.586 645.586L97.4142 613.414C96.1543 612.154 94 613.047 94 614.828Z" fill="#820017" stroke="black" stroke-width="3" stroke-linecap="round"/>
<path d="M55 614.828L55 647C55 648.105 55.8954 649 57 649L89.1716 649C90.9534 649 91.8457 646.846 90.5858 645.586L58.4142 613.414C57.1543 612.154 55 613.047 55 614.828Z" fill="#820017" stroke="black" stroke-width="3" stroke-linecap="round"/>
<path d="M172 571.828L172 604C172 605.105 172.895 606 174 606L206.172 606C207.953 606 208.846 603.846 207.586 602.586L175.414 570.414C174.154 569.154 172 570.047 172 571.828Z" fill="#820017" stroke="black" stroke-width="3" stroke-linecap="round"/>
<path d="M133 572.328L133 604.5C133 605.605 133.895 606.5 135 606.5L167.172 606.5C168.953 606.5 169.846 604.346 168.586 603.086L136.414 570.914C135.154 569.654 133 570.547 133 572.328Z" fill="#820017" stroke="black" stroke-width="3" stroke-linecap="round"/>
<path d="M94 572.328L94 604.5C94 605.605 94.8954 606.5 96 606.5L128.172 606.5C129.953 606.5 130.846 604.346 129.586 603.086L97.4142 570.914C96.1543 569.654 94 570.547 94 572.328Z" fill="#820017" stroke="black" stroke-width="3" stroke-linecap="round"/>
<path d="M55 572.328L55 604.5C55 605.605 55.8954 606.5 57 606.5L89.1716 606.5C90.9534 606.5 91.8457 604.346 90.5858 603.086L58.4142 570.914C57.1543 569.654 55 570.547 55 572.328Z" fill="#820017" stroke="black" stroke-width="3" stroke-linecap="round"/>
</svg>
