<svg width="673" height="703" viewBox="0 0 673 703" fill="none" xmlns="http://www.w3.org/2000/svg">
<path d="M424 658.5V699.5C424 700.605 424.895 701.5 426 701.5H669.5C670.605 701.5 671.5 700.605 671.5 699.5V435C671.5 433.895 670.605 433 669.5 433H621.5C620.395 433 619.5 433.895 619.5 435V493C619.5 494.105 618.605 495 617.5 495H570.5C569.395 495 568.5 495.895 568.5 497V544.5C568.5 545.605 567.605 546.5 566.5 546.5H526C524.895 546.5 524 547.395 524 548.5V601C524 602.105 523.105 603 522 603H478C476.895 603 476 603.895 476 605V654.5C476 655.605 475.105 656.5 474 656.5H426C424.895 656.5 424 657.395 424 658.5Z" fill="#CDFFC5" stroke="black" stroke-width="3" stroke-linecap="round"/>
<path d="M63 200H4C2.89543 200 2 199.105 2 198V4C2 2.89543 2.89543 2 4 2H198C199.105 2 200 2.89543 200 4V67C200 68.1046 199.105 69 198 69H131C129.895 69 129 69.8954 129 71V136C129 137.105 128.105 138 127 138H67C65.8954 138 65 138.895 65 140V198C65 199.105 64.1046 200 63 200Z" fill="#CDFFC5" stroke="black" stroke-width="3" stroke-linecap="round"/>
<path d="M512 65.6716V33.5C512 32.3954 511.105 31.5 510 31.5H477.828C476.047 31.5 475.154 33.6543 476.414 34.9142L508.586 67.0858C509.846 68.3457 512 67.4534 512 65.6716Z" fill="#128200" stroke="black" stroke-width="3" stroke-linecap="round"/>
<path d="M551 65.1716V33C551 31.8954 550.105 31 549 31H516.828C515.047 31 514.154 33.1543 515.414 34.4142L547.586 66.5858C548.846 67.8457 551 66.9534 551 65.1716Z" fill="#128200" stroke="black" stroke-width="3" stroke-linecap="round"/>
<path d="M590 65.1716V33C590 31.8954 589.105 31 588 31H555.828C554.047 31 553.154 33.1543 554.414 34.4142L586.586 66.5858C587.846 67.8457 590 66.9534 590 65.1716Z" fill="#128200" stroke="black" stroke-width="3" stroke-linecap="round"/>
<path d="M629 65.1716V33C629 31.8954 628.105 31 627 31H594.828C593.047 31 592.154 33.1543 593.414 34.4142L625.586 66.5858C626.846 67.8457 629 66.9534 629 65.1716Z" fill="#128200" stroke="black" stroke-width="3" stroke-linecap="round"/>
<path d="M512 108.172V76C512 74.8954 511.105 74 510 74H477.828C476.047 74 475.154 76.1543 476.414 77.4142L508.586 109.586C509.846 110.846 512 109.953 512 108.172Z" fill="#128200" stroke="black" stroke-width="3" stroke-linecap="round"/>
<path d="M551 107.672V75.5C551 74.3954 550.105 73.5 549 73.5H516.828C515.047 73.5 514.154 75.6543 515.414 76.9142L547.586 109.086C548.846 110.346 551 109.453 551 107.672Z" fill="#128200" stroke="black" stroke-width="3" stroke-linecap="round"/>
<path d="M590 107.672V75.5C590 74.3954 589.105 73.5 588 73.5H555.828C554.047 73.5 553.154 75.6543 554.414 76.9142L586.586 109.086C587.846 110.346 590 109.453 590 107.672Z" fill="#128200" stroke="black" stroke-width="3" stroke-linecap="round"/>
<path d="M629 107.672V75.5C629 74.3954 628.105 73.5 627 73.5H594.828C593.047 73.5 592.154 75.6543 593.414 76.9142L625.586 109.086C626.846 110.346 629 109.453 629 107.672Z" fill="#128200" stroke="black" stroke-width="3" stroke-linecap="round"/>
</svg>
