<svg width="32" height="32" viewBox="0 0 32 32" fill="none" xmlns="http://www.w3.org/2000/svg">
<circle cx="15.75" cy="15.8905" r="15" stroke="#128200"/>
<path d="M25.75 15.8905C25.75 20.0841 24.5976 23.8585 22.7607 26.5702C20.9218 29.2848 18.434 30.8905 15.75 30.8905C13.066 30.8905 10.5782 29.2848 8.73934 26.5702C6.90236 23.8585 5.75 20.0841 5.75 15.8905C5.75 11.6969 6.90236 7.92251 8.73934 5.21077C10.5782 2.49624 13.066 0.890503 15.75 0.890503C18.434 0.890503 20.9218 2.49624 22.7607 5.21077C24.5976 7.92251 25.75 11.6969 25.75 15.8905Z" stroke="#128200"/>
<path d="M15.75 5.8905C19.9436 5.8905 23.718 7.04286 26.4297 8.87984C29.1443 10.7187 30.75 13.2065 30.75 15.8905C30.75 18.5745 29.1443 21.0623 26.4297 22.9012C23.718 24.7381 19.9436 25.8905 15.75 25.8905C11.5564 25.8905 7.782 24.7381 5.07027 22.9012C2.35574 21.0623 0.75 18.5745 0.75 15.8905C0.75 13.2065 2.35574 10.7187 5.07027 8.87984C7.782 7.04286 11.5564 5.8905 15.75 5.8905Z" stroke="#128200"/>
<path d="M20.75 15.8905C20.75 20.1292 20.1396 23.9451 19.1679 26.6835C18.6812 28.0549 18.1134 29.1292 17.5078 29.8511C16.9 30.5755 16.3038 30.8905 15.75 30.8905C15.1962 30.8905 14.6 30.5755 13.9922 29.8511C13.3866 29.1292 12.8188 28.0549 12.3321 26.6835C11.3604 23.9451 10.75 20.1292 10.75 15.8905C10.75 11.6518 11.3604 7.83595 12.3321 5.09755C12.8188 3.72613 13.3866 2.65179 13.9922 1.92993C14.6 1.20548 15.1962 0.890503 15.75 0.890503C16.3038 0.890503 16.9 1.20548 17.5078 1.92993C18.1134 2.65179 18.6812 3.72613 19.1679 5.09755C20.1396 7.83595 20.75 11.6518 20.75 15.8905Z" stroke="#128200"/>
<path d="M15.75 10.8905C19.9887 10.8905 23.8046 11.5009 26.5429 12.4726C27.9144 12.9593 28.9887 13.5271 29.7106 14.1327C30.435 14.7405 30.75 15.3367 30.75 15.8905C30.75 16.4443 30.435 17.0405 29.7106 17.6483C28.9887 18.2539 27.9144 18.8217 26.5429 19.3084C23.8046 20.2801 19.9887 20.8905 15.75 20.8905C11.5113 20.8905 7.69545 20.2801 4.95705 19.3084C3.58563 18.8217 2.51129 18.2539 1.78942 17.6483C1.06497 17.0405 0.75 16.4443 0.75 15.8905C0.75 15.3367 1.06497 14.7405 1.78942 14.1327C2.51129 13.5271 3.58563 12.9593 4.95705 12.4726C7.69545 11.5009 11.5113 10.8905 15.75 10.8905Z" stroke="#128200"/>
</svg>
