<svg width="25" height="25" viewBox="0 0 25 25" fill="none" xmlns="http://www.w3.org/2000/svg">
<path d="M20.3269 9.73987L21 10.9934L15.978 13.7943C15.1208 13.5462 15.4602 12.212 15.6155 12.149L15.3739 10.3079L14.9597 8.54509H15.3739L17.2723 7.70287L18.0489 6.42975L19.3432 8.05543L20.3269 9.73987Z" fill="#E32951"/>
<path d="M15.6155 12.1492C15.7709 12.0862 19.4928 10.2428 20.3269 9.74004L19.3432 8.0556L15.3739 10.3081L15.6155 12.1492Z" fill="#CA3055"/>
<path d="M20.3269 9.73987L21 10.9934L15.9779 13.7943C15.1208 13.5462 15.4602 12.212 15.6155 12.149C15.7709 12.0861 19.4928 10.2426 20.3269 9.73987Z" fill="#E42A53"/>
<path d="M9.31638 16.5561L11.2493 21.4919L8.09107 18.0642L3.29337 11.5223L8.09107 13.8335L9.31638 16.5561Z" fill="#8F5BA8"/>
<path d="M9.3164 16.5561L11.2493 21.4919L8.09109 18.0643L9.3164 16.5561Z" fill="#6F51AB"/>
<path d="M15.1496 10.3863L15.8571 13.6964H10.3864M15.1496 10.3863L10.3864 13.6964M15.1496 10.3863L15.0633 9.52452M10.3864 13.6964C10.3864 13.6964 8.9559 13.6964 8.03931 13.6964M15.0633 9.52452C15.0633 9.52452 10.7823 12.0672 8.03931 13.6964M15.0633 9.52452L14.8734 8.44727M8.03931 13.6964C8.23476 12.9774 8.53979 11.8553 8.53979 11.8553M8.53979 11.8553L14.8734 8.44727M8.53979 11.8553V11.1698M14.8734 8.44727H13.5446M13.5446 8.44727L8.53979 11.1698M13.5446 8.44727L9.09204 8.52561L8.53979 11.1698" stroke="#9F61B4"/>
<path d="M8.53979 11.1698L13.5446 8.44727L9.09204 8.52561L8.53979 11.1698Z" fill="#BFA2F2"/>
<path d="M14.8734 8.44727L8.53979 11.8553V11.1698L13.5446 8.44727H14.8734Z" fill="#BFA2F2"/>
<path d="M8.03931 13.6964L15.0633 9.52452L14.8734 8.44727L8.53979 11.8553L8.03931 13.6964Z" fill="#BFA2F2"/>
<path d="M10.3864 13.6963L15.1496 10.3862L15.0633 9.52441L8.03931 13.6963H10.3864Z" fill="#BFA2F2"/>
<path d="M15.1496 10.3863L15.8571 13.6964H10.3864L15.1496 10.3863Z" fill="#BFA2F2" stroke="#BFA2F2"/>
<path d="M9.74784 17.2611L14.1141 13.951H12.9751L9.54074 16.6148L9.74784 17.2611Z" fill="#AA88D2"/>
<path d="M9.74784 17.2611L14.1141 13.951H15.8917L11.8878 22.8237L9.74784 17.2611Z" fill="#9F60B5"/>
<path d="M9.54075 16.6148L12.9751 13.951H12.1812L9.33366 16.1055L9.54075 16.6148Z" fill="#AA88D2"/>
<path d="M12.1812 13.951L9.33365 16.1056L9.00575 15.3809L10.6107 13.9119L12.1812 13.951Z" fill="#AA88D2"/>
<path d="M9.00575 15.3809L10.6107 13.9119L8.53979 14.2057L9.00575 15.3809Z" fill="#AA88D2"/>
<path d="M15.7881 14.0293L12.1985 22.1969L20.7411 11.2872L15.7881 14.0293Z" fill="#694FA7"/>
<path d="M8.4535 11.8357L8.28092 13.7356L6.17546 12.8542L4.88111 12.1099L3 11.0327L3.6558 10.5038L5.88207 6.58655L8.28092 8.40809H8.79866V10.0534L8.4535 11.8357Z" fill="#FF6194"/>
<path d="M6.17545 12.8543L8.4535 11.8358L8.79866 10.0534L4.88111 12.11L6.17545 12.8543Z" fill="#FE6097"/>
<path d="M4.88111 12.11L8.79866 10.0534V8.40814H8.28092L3.6558 10.5039L3 11.0327L4.88111 12.11Z" fill="#FE6097"/>
<path d="M8.28092 8.40809L3.6558 10.5038L5.88207 6.58655L8.28092 8.40809Z" fill="#F84A79"/>
<path d="M14.2694 6.39072C14.6836 5.96765 14.7641 5.47016 14.7526 5.27429L10.7661 7.56591L12.6817 7.54661L13.8207 6.8608L14.2694 6.39072Z" fill="#ED1F4D"/>
<path d="M16.9099 6.29279C16.9237 5.76004 16.0988 5.39181 15.6846 5.27429H17.2378L18.0316 6.29279L17.3586 7.70302C16.7948 8.0164 15.3739 8.63925 14.2004 8.62358C13.0269 8.60792 9.66156 8.49954 8.12561 8.44731C7.51007 8.17309 6.24449 7.46015 6.10643 6.80204C5.96837 6.14393 6.86578 5.50933 7.33174 5.27429C8.40173 5.98594 10.6176 7.42881 10.9214 7.50715C11.0957 7.55213 11.8524 7.55579 12.6817 7.54661C12.8641 7.54459 13.05 7.54195 13.2339 7.53899C14.035 7.52609 14.7997 7.50715 15.0805 7.50715C15.7191 7.50715 16.8926 6.95873 16.9099 6.29279Z" fill="#EB204F"/>
<path d="M16.9099 6.29279C16.9237 5.76004 16.0988 5.39181 15.6846 5.27429H14.977C15.1266 5.53545 15.336 6.14393 14.977 6.48866C14.618 6.83338 13.6654 7.33251 13.2339 7.53899C14.035 7.52609 14.7997 7.50715 15.0805 7.50715C15.7191 7.50715 16.8926 6.95873 16.9099 6.29279Z" fill="#EA3659"/>
<path d="M14.977 6.48866C15.336 6.14393 15.1266 5.53545 14.977 5.27429H14.7526C14.7641 5.47016 14.6836 5.96765 14.2694 6.39072C14.1351 6.5279 13.9585 6.67566 13.7689 6.81985C13.3739 7.12037 12.9227 7.40536 12.6817 7.54661C12.8641 7.54459 13.05 7.54195 13.2339 7.53899C13.6654 7.33251 14.618 6.83338 14.977 6.48866Z" fill="#ED4167"/>
<path d="M14.4247 5.92047L11.3701 7.54272L12.6817 7.54643C12.9227 7.40519 13.3739 7.1202 13.7689 6.81968C14.164 6.51916 14.1542 6.50283 14.3039 6.21427C14.3605 6.10516 14.4247 5.92047 14.4247 5.92047Z" fill="#E42A52"/>
<path d="M9.7651 6.48866L13.2857 5.27429H7.57335L9.7651 6.48866Z" fill="#E42A52"/>
<path d="M7.33173 5.27429C8.40172 5.98594 10.6176 7.42881 10.9214 7.50715L14.7526 5.27429H13.2857L9.7651 6.48866L7.57334 5.27429H7.33173Z" fill="#E42A52"/>
<path d="M11.8706 23L20.9482 11.1306M11.8706 23L3.03452 11.1306M11.8706 23L15.8917 13.951M11.8706 23L8.21189 13.951M20.9482 11.1306L15.8917 13.951M20.9482 11.1306C20.2976 9.75495 19.0621 7.45331 17.9281 6.09573M3.03452 11.1306L8.21189 13.951M3.03452 11.1306C3.7393 9.75495 5.05303 7.45331 6.19869 6.09573M15.8917 13.951H8.21189M15.8917 13.951L14.9252 8.52557M8.21189 13.951L9.05752 8.52557M17.9281 6.09573C17.3775 5.43659 16.8508 5 16.4266 5C14.8044 5 9.14381 5 7.65963 5C7.27156 5 6.75494 5.43659 6.19869 6.09573M17.9281 6.09573C18.1007 6.90568 17.1687 8.52557 14.9252 8.52557M14.9252 8.52557C12.6817 8.52557 10.8869 8.52557 9.05752 8.52557M9.05752 8.52557C7.22819 8.52557 5.69223 6.86072 6.19869 6.09573" stroke="#3E000D"/>
</svg>
