<svg width="1672" height="19" viewBox="0 0 1672 19" fill="none" xmlns="http://www.w3.org/2000/svg">
<path d="M5.33 2.21H8.45V13.99L9.91 14.57V15H3.87V14.57L5.33 13.99V2.21ZM12.09 2.78H1.44L2.71 2.44L0.94 5.63L0.32 5.5L0.75 0.84H1.11L2.83 1.81L1.67 1.57H11.86L11.05 1.81L12.77 0.84H13.13L13.56 5.5L12.95 5.63L11.18 2.44L12.09 2.78ZM21.5828 1.3C22.6161 1.3 23.5561 1.46667 24.4028 1.8C25.2561 2.12667 25.9861 2.59667 26.5928 3.21C27.2061 3.82333 27.6795 4.55667 28.0128 5.41C28.3461 6.26333 28.5128 7.21333 28.5128 8.26C28.5128 9.29333 28.3361 10.24 27.9828 11.1C27.6295 11.9533 27.1295 12.6933 26.4828 13.32C25.8428 13.94 25.0828 14.42 24.2028 14.76C23.3295 15.0933 22.3628 15.26 21.3028 15.26C20.2695 15.26 19.3295 15.0967 18.4828 14.77C17.6361 14.4367 16.9061 13.9667 16.2928 13.36C15.6795 12.7467 15.2061 12.0133 14.8728 11.16C14.5461 10.3 14.3828 9.35 14.3828 8.31C14.3828 7.27 14.5561 6.32333 14.9028 5.47C15.2561 4.61 15.7528 3.87 16.3928 3.25C17.0395 2.63 17.7995 2.15 18.6728 1.81C19.5528 1.47 20.5228 1.3 21.5828 1.3ZM21.5428 13.96C22.2695 13.96 22.9095 13.7733 23.4628 13.4C24.0228 13.0267 24.4595 12.4633 24.7728 11.71C25.0928 10.9567 25.2528 10.01 25.2528 8.87C25.2528 7.48333 25.0861 6.32667 24.7528 5.4C24.4195 4.47333 23.9595 3.77667 23.3728 3.31C22.7861 2.83667 22.1095 2.6 21.3428 2.6C20.6228 2.6 19.9828 2.78667 19.4228 3.16C18.8695 3.53333 18.4328 4.09667 18.1128 4.85C17.7995 5.60333 17.6428 6.55333 17.6428 7.7C17.6428 9.08 17.8061 10.2367 18.1328 11.17C18.4661 12.0967 18.9261 12.7933 19.5128 13.26C20.1061 13.7267 20.7828 13.96 21.5428 13.96ZM40.6125 8.11C40.6125 6.27 40.1625 4.92333 39.2625 4.07C38.3692 3.21 37.1425 2.78 35.5825 2.78H32.8325L32.5725 1.57H36.0625C37.8092 1.57 39.2592 1.8 40.4125 2.26C41.5725 2.72 42.4392 3.42 43.0125 4.36C43.5925 5.29333 43.8825 6.47 43.8825 7.89C43.8825 9.39 43.5425 10.67 42.8625 11.73C42.1825 12.79 41.2525 13.6 40.0725 14.16C38.8925 14.72 37.5625 15 36.0825 15H32.5725L32.8325 13.79H35.7625C36.7358 13.79 37.5858 13.5967 38.3125 13.21C39.0392 12.8233 39.6025 12.2133 40.0025 11.38C40.4092 10.54 40.6125 9.45 40.6125 8.11ZM29.7425 15V14.57L31.1925 13.99V2.58L29.7425 2V1.57H34.3225V15H29.7425ZM47.0233 10.54V9.37H53.8133V10.54H47.0233ZM57.4433 13.96L58.9233 14.57V15H52.4333V14.57L54.0933 13.98L49.8433 3.93L50.2733 3.92L46.2633 13.98L47.8233 14.57V15H43.3733V14.57L44.9033 13.98L50.0633 1.5H52.0333L57.4433 13.96ZM57.8111 2.61L56.3911 2V1.57H63.1211V2L61.4811 2.59L65.5611 8.42L64.8111 8.39L68.1911 2.59L66.6311 2V1.57H71.0311V2L69.6211 2.59L65.6411 9.04V13.99L67.1011 14.57V15H61.0611V14.57L62.5211 13.99V9.07L57.8111 2.61ZM80.0369 2.1L78.4569 1.84L79.7269 0.86H80.0769L80.8669 5.56L80.2569 5.7L78.0969 2.48L78.7969 3.28C78.4435 3.02 78.0702 2.82333 77.6769 2.69C77.2902 2.55667 76.8935 2.49 76.4869 2.49C75.6602 2.49 75.0569 2.65 74.6769 2.97C74.3035 3.28333 74.1169 3.70667 74.1169 4.24C74.1169 4.60667 74.2135 4.91667 74.4069 5.17C74.6002 5.41667 74.8602 5.63 75.1869 5.81C75.5202 5.99 75.8935 6.15333 76.3069 6.3C76.7202 6.44 77.1502 6.58667 77.5969 6.74C78.0435 6.9 78.4902 7.08333 78.9369 7.29C79.3835 7.49667 79.7902 7.75333 80.1569 8.06C80.5302 8.36 80.8269 8.74 81.0469 9.2C81.2735 9.65333 81.3869 10.2033 81.3869 10.85C81.3869 11.8167 81.1435 12.6267 80.6569 13.28C80.1769 13.9333 79.5235 14.4267 78.6969 14.76C77.8702 15.0933 76.9335 15.26 75.8869 15.26C75.1735 15.26 74.5302 15.2167 73.9569 15.13C73.3902 15.0433 72.7935 14.8867 72.1669 14.66L71.2969 10.79H71.9169L74.9069 14.66L72.6269 13.23C73.1602 13.51 73.6369 13.71 74.0569 13.83C74.4835 13.95 74.9335 14.01 75.4069 14.01C76.1335 14.01 76.7269 13.93 77.1869 13.77C77.6535 13.61 78.0002 13.3733 78.2269 13.06C78.4535 12.74 78.5669 12.35 78.5669 11.89C78.5669 11.45 78.4502 11.0867 78.2169 10.8C77.9835 10.5067 77.6769 10.2633 77.2969 10.07C76.9235 9.87667 76.5102 9.71 76.0569 9.57C75.6102 9.42333 75.1735 9.27 74.7469 9.11C74.3202 8.95 73.9102 8.77 73.5169 8.57C73.1302 8.36333 72.7835 8.11667 72.4769 7.83C72.1769 7.53667 71.9402 7.18 71.7669 6.76C71.5935 6.34 71.5069 5.83333 71.5069 5.24C71.5069 4.44 71.7135 3.74667 72.1269 3.16C72.5402 2.57333 73.1269 2.11667 73.8869 1.79C74.6469 1.46333 75.5435 1.3 76.5769 1.3C77.2169 1.3 77.8102 1.36333 78.3569 1.49C78.9035 1.61 79.4635 1.81333 80.0369 2.1ZM91.51 13.99L92.96 14.57V15H86.93V14.57L88.38 13.99V2.58L86.93 2V1.57H92.96V2L91.51 2.58V13.99ZM100.72 13.99L102.18 14.57V15H96.14V14.57L97.6 13.99V2.58L96.14 2V1.57H102.18V2L100.72 2.58V13.99ZM89.78 8.74V7.53H99.32V8.74H89.78ZM112.452 5.31L112.432 7.95L112.452 10.59H111.492L111.232 8.56L106.532 8.55V7.35L111.232 7.34L111.492 5.31H112.452ZM115.222 5.47L114.652 5.61L112.472 2.32L113.322 2.78H106.492V1.57H112.872L114.112 0.899999H114.412L115.222 5.47ZM112.812 14.24L115.152 10.68L115.652 10.81L114.792 15.73H114.462L113.122 15H106.492V13.79H113.472L112.812 14.24ZM103.532 15V14.57L104.982 13.99V2.58L103.532 2V1.57H108.112V15H103.532ZM119.328 10.54V9.37H126.118V10.54H119.328ZM129.748 13.96L131.228 14.57V15H124.738V14.57L126.398 13.98L122.148 3.93L122.578 3.92L118.568 13.98L120.128 14.57V15H115.678V14.57L117.208 13.98L122.368 1.5H124.338L129.748 13.96ZM142.507 8.11C142.507 6.27 142.057 4.92333 141.157 4.07C140.264 3.21 139.037 2.78 137.477 2.78H134.727L134.467 1.57H137.957C139.704 1.57 141.154 1.8 142.307 2.26C143.467 2.72 144.334 3.42 144.907 4.36C145.487 5.29333 145.777 6.47 145.777 7.89C145.777 9.39 145.437 10.67 144.757 11.73C144.077 12.79 143.147 13.6 141.967 14.16C140.787 14.72 139.457 15 137.977 15H134.467L134.727 13.79H137.657C138.63 13.79 139.48 13.5967 140.207 13.21C140.934 12.8233 141.497 12.2133 141.897 11.38C142.304 10.54 142.507 9.45 142.507 8.11ZM131.637 15V14.57L133.087 13.99V2.58L131.637 2V1.57H136.217V15H131.637ZM157.828 15.8H157.428L155.988 15H149.968V13.79H156.598L155.678 14.21L158.258 10.4L158.818 10.54L157.828 15.8ZM151.588 2.58V15H147.008V14.57L148.458 13.99V2.58L147.008 2V1.57H153.038V2L151.588 2.58ZM165.733 14.57V15H159.703V14.57L161.153 13.99V2.58L159.703 2V1.57H165.733V2L164.283 2.58V13.99L165.733 14.57ZM168.576 13.99V2.77L166.926 1.95V1.57H171.956L179.216 11.77L178.416 12.27V2.58L176.806 2V1.57H181.036V2L179.586 2.58V15.07H177.676L169.256 3.01L169.736 2.66V13.99L171.346 14.57V15H167.116V14.57L168.576 13.99ZM191.182 5.31L191.162 7.95L191.182 10.59H190.222L189.962 8.56L185.262 8.55V7.35L189.962 7.34L190.222 5.31H191.182ZM193.952 5.47L193.382 5.61L191.202 2.32L192.052 2.78H185.222V1.57H191.602L192.842 0.899999H193.142L193.952 5.47ZM191.542 14.24L193.882 10.68L194.382 10.81L193.522 15.73H193.192L191.852 15H185.222V13.79H192.202L191.542 14.24ZM182.262 15V14.57L183.712 13.99V2.58L182.262 2V1.57H186.842V15H182.262ZM197.484 11.93C197.971 11.93 198.371 12.09 198.684 12.41C198.998 12.73 199.154 13.1167 199.154 13.57C199.154 14.0233 198.998 14.41 198.684 14.73C198.371 15.05 197.971 15.21 197.484 15.21C196.998 15.21 196.594 15.05 196.274 14.73C195.961 14.41 195.804 14.0233 195.804 13.57C195.804 13.1167 195.961 12.73 196.274 12.41C196.594 12.09 196.998 11.93 197.484 11.93ZM197.484 6.1C197.971 6.1 198.371 6.26 198.684 6.58C198.998 6.89333 199.154 7.27667 199.154 7.73C199.154 8.18333 198.998 8.57 198.684 8.89C198.371 9.21 197.971 9.37 197.484 9.37C196.998 9.37 196.594 9.21 196.274 8.89C195.961 8.57 195.804 8.18333 195.804 7.73C195.804 7.27667 195.961 6.89333 196.274 6.58C196.594 6.26 196.998 6.1 197.484 6.1ZM212.778 14.32C213.304 14.32 213.808 14.2767 214.288 14.19C214.768 14.1033 215.254 13.9633 215.748 13.77L215.288 14.14L216.688 11.45H217.208L216.858 14.43C216.404 14.65 215.808 14.8333 215.068 14.98C214.328 15.1267 213.538 15.2 212.698 15.2C211.584 15.2 210.568 15.0467 209.648 14.74C208.734 14.4333 207.944 13.9867 207.278 13.4C206.611 12.8133 206.098 12.1 205.738 11.26C205.378 10.4133 205.198 9.45667 205.198 8.39C205.198 6.97 205.508 5.73333 206.128 4.68C206.754 3.62667 207.654 2.81333 208.828 2.24C210.001 1.66 211.408 1.37 213.048 1.37C213.461 1.37 213.874 1.39667 214.288 1.45C214.701 1.49667 215.191 1.58667 215.758 1.72L215.218 1.82L216.458 0.99H216.638L217.228 5.58L216.778 5.67L215.148 2.66L215.548 3.06C214.981 2.76 214.471 2.55333 214.018 2.44C213.571 2.32667 213.091 2.27 212.578 2.27C211.644 2.27 210.824 2.39667 210.118 2.65C209.418 2.89667 208.831 3.25667 208.358 3.73C207.884 4.19667 207.528 4.77 207.288 5.45C207.048 6.12333 206.928 6.88667 206.928 7.74C206.928 8.79333 207.074 9.73 207.368 10.55C207.661 11.3633 208.071 12.05 208.598 12.61C209.124 13.17 209.741 13.5967 210.448 13.89C211.161 14.1767 211.938 14.32 212.778 14.32ZM225.706 1.37C226.686 1.37 227.583 1.54 228.396 1.88C229.216 2.21333 229.926 2.68667 230.526 3.3C231.133 3.90667 231.599 4.63333 231.926 5.48C232.259 6.32 232.426 7.24667 232.426 8.26C232.426 9.28 232.263 10.2133 231.936 11.06C231.609 11.9 231.143 12.6333 230.536 13.26C229.936 13.88 229.229 14.36 228.416 14.7C227.609 15.0333 226.716 15.2 225.736 15.2C224.763 15.2 223.866 15.0333 223.046 14.7C222.233 14.36 221.523 13.8833 220.916 13.27C220.316 12.6567 219.849 11.93 219.516 11.09C219.189 10.2433 219.026 9.31333 219.026 8.3C219.026 7.28667 219.189 6.35667 219.516 5.51C219.843 4.66333 220.306 3.93 220.906 3.31C221.513 2.69 222.223 2.21333 223.036 1.88C223.849 1.54 224.739 1.37 225.706 1.37ZM225.806 14.3C226.806 14.3 227.669 14.0667 228.396 13.6C229.123 13.1333 229.683 12.4733 230.076 11.62C230.469 10.76 230.666 9.74667 230.666 8.58C230.666 7.24 230.449 6.10333 230.016 5.17C229.589 4.23 228.996 3.51333 228.236 3.02C227.483 2.52 226.616 2.27 225.636 2.27C224.636 2.27 223.773 2.50333 223.046 2.97C222.319 3.43667 221.759 4.09667 221.366 4.95C220.973 5.80333 220.776 6.81333 220.776 7.98C220.776 9.31333 220.989 10.4533 221.416 11.4C221.849 12.34 222.446 13.06 223.206 13.56C223.966 14.0533 224.833 14.3 225.806 14.3ZM235.595 14.1V2.63L233.955 1.95V1.57H237.125L245.395 12.5L244.925 13.46V2.47L243.205 1.95V1.57H247.465V1.95L245.875 2.47V15.19H245.445L236.215 3.01L236.545 2.65V14.1L238.265 14.61V15H234.015V14.61L235.595 14.1ZM249.444 2.49L247.964 1.95V1.57H252.894V1.95L251.154 2.47L255.744 13.52H255.084L259.144 2.47L257.504 1.95V1.57H261.644V1.95L260.114 2.47L255.264 15.2H254.794L249.444 2.49ZM270.403 5.32L270.383 7.95L270.403 10.58H269.673L269.423 8.42L264.573 8.41V7.5L269.423 7.49L269.673 5.32H270.403ZM272.953 5.35L272.483 5.44L270.823 2.28L271.413 2.49H264.573V1.57H271.013L272.143 1.07H272.303L272.953 5.35ZM271.003 14.33L272.833 11.18L273.243 11.29L272.503 15.59H272.353L271.193 15H264.573V14.07H271.493L271.003 14.33ZM262.383 15V14.61L263.973 14.1V2.47L262.383 1.95V1.57H265.593V15H262.383ZM276.395 14.1V2.63L274.755 1.95V1.57H277.925L286.195 12.5L285.725 13.46V2.47L284.005 1.95V1.57H288.265V1.95L286.675 2.47V15.19H286.245L277.015 3.01L277.345 2.65V14.1L279.065 14.61V15H274.815V14.61L276.395 14.1ZM294.675 2.17H296.295V14.1L297.875 14.61V15H293.085V14.61L294.675 14.1V2.17ZM300.665 2.49H290.295L291.225 2.3L289.845 5.21L289.395 5.12L289.805 0.879999H289.985L291.395 1.73L290.525 1.57H300.435L299.565 1.73L300.985 0.879999H301.165L301.565 5.12L301.115 5.21L299.745 2.3L300.665 2.49ZM309.319 1.37C310.299 1.37 311.196 1.54 312.009 1.88C312.829 2.21333 313.539 2.68667 314.139 3.3C314.746 3.90667 315.213 4.63333 315.539 5.48C315.873 6.32 316.039 7.24667 316.039 8.26C316.039 9.28 315.876 10.2133 315.549 11.06C315.223 11.9 314.756 12.6333 314.149 13.26C313.549 13.88 312.843 14.36 312.029 14.7C311.223 15.0333 310.329 15.2 309.349 15.2C308.376 15.2 307.479 15.0333 306.659 14.7C305.846 14.36 305.136 13.8833 304.529 13.27C303.929 12.6567 303.463 11.93 303.129 11.09C302.803 10.2433 302.639 9.31333 302.639 8.3C302.639 7.28667 302.803 6.35667 303.129 5.51C303.456 4.66333 303.919 3.93 304.519 3.31C305.126 2.69 305.836 2.21333 306.649 1.88C307.463 1.54 308.353 1.37 309.319 1.37ZM309.419 14.3C310.419 14.3 311.283 14.0667 312.009 13.6C312.736 13.1333 313.296 12.4733 313.689 11.62C314.083 10.76 314.279 9.74667 314.279 8.58C314.279 7.24 314.063 6.10333 313.629 5.17C313.203 4.23 312.609 3.51333 311.849 3.02C311.096 2.52 310.229 2.27 309.249 2.27C308.249 2.27 307.386 2.50333 306.659 2.97C305.933 3.43667 305.373 4.09667 304.979 4.95C304.586 5.80333 304.389 6.81333 304.389 7.98C304.389 9.31333 304.603 10.4533 305.029 11.4C305.463 12.34 306.059 13.06 306.819 13.56C307.579 14.0533 308.446 14.3 309.419 14.3ZM325.476 14.1L327.066 14.61V15H322.266V14.61L323.856 14.1V2.47L322.266 1.95V1.57H327.066V1.95L325.476 2.47V14.1ZM334.616 14.1L336.206 14.61V15H331.416V14.61L332.996 14.1V2.47L331.416 1.95V1.57H336.206V1.95L334.616 2.47V14.1ZM324.466 8.61V7.69H334.006V8.61H324.466ZM340.561 9.97V9.07H347.181V9.97H340.561ZM349.511 14.08L350.991 14.61V15H346.061V14.61L347.801 14.1L343.161 3.05H343.821L339.481 14.1L341.121 14.61V15H336.911V14.61L338.441 14.09L343.641 1.37H344.111L349.511 14.08ZM359.375 2.2L357.925 1.81L359.145 0.99H359.315L359.935 5.41L359.495 5.48L357.765 2.39L358.125 2.86C357.772 2.60667 357.415 2.42667 357.055 2.32C356.695 2.21333 356.302 2.16 355.875 2.16C355.015 2.16 354.349 2.36333 353.875 2.77C353.402 3.17667 353.165 3.71667 353.165 4.39C353.165 4.83667 353.255 5.21333 353.435 5.52C353.622 5.82667 353.875 6.08667 354.195 6.3C354.522 6.51333 354.889 6.7 355.295 6.86C355.702 7.02 356.129 7.18 356.575 7.34C357.022 7.5 357.465 7.67667 357.905 7.87C358.352 8.05667 358.755 8.29 359.115 8.57C359.482 8.85 359.775 9.20333 359.995 9.63C360.215 10.05 360.325 10.5667 360.325 11.18C360.325 12.04 360.122 12.77 359.715 13.37C359.309 13.9633 358.749 14.4167 358.035 14.73C357.329 15.0433 356.509 15.2 355.575 15.2C354.929 15.2 354.355 15.1533 353.855 15.06C353.355 14.9733 352.835 14.82 352.295 14.6L351.425 11.13H351.995L354.365 14.6L352.705 13.55C353.225 13.83 353.692 14.0367 354.105 14.17C354.519 14.3033 354.959 14.37 355.425 14.37C356.159 14.37 356.789 14.2733 357.315 14.08C357.842 13.8867 358.245 13.5967 358.525 13.21C358.805 12.8167 358.945 12.3267 358.945 11.74C358.945 11.22 358.829 10.79 358.595 10.45C358.369 10.11 358.062 9.82667 357.675 9.6C357.295 9.37333 356.879 9.18 356.425 9.02C355.979 8.85333 355.535 8.68667 355.095 8.52C354.655 8.35333 354.242 8.17333 353.855 7.98C353.475 7.78 353.139 7.54667 352.845 7.28C352.552 7.01333 352.322 6.69333 352.155 6.32C351.995 5.94 351.915 5.48667 351.915 4.96C351.915 4.22 352.085 3.58333 352.425 3.05C352.772 2.51667 353.265 2.10333 353.905 1.81C354.545 1.51667 355.299 1.37 356.165 1.37C356.759 1.37 357.309 1.43667 357.815 1.57C358.329 1.70333 358.849 1.91333 359.375 2.2ZM369.792 14.1L371.382 14.61V15H366.582V14.61L368.172 14.1V2.47L366.582 1.95V1.57H371.382V1.95L369.792 2.47V14.1ZM378.932 14.1L380.522 14.61V15H375.732V14.61L377.312 14.1V2.47L375.732 1.95V1.57H380.522V1.95L378.932 2.47V14.1ZM368.782 8.61V7.69H378.322V8.61H368.782ZM390.227 5.32L390.207 7.95L390.227 10.58H389.497L389.247 8.42L384.397 8.41V7.5L389.247 7.49L389.497 5.32H390.227ZM392.777 5.35L392.307 5.44L390.647 2.28L391.237 2.49H384.397V1.57H390.837L391.967 1.07H392.127L392.777 5.35ZM390.827 14.33L392.657 11.18L393.067 11.29L392.327 15.59H392.177L391.017 15H384.397V14.07H391.317L390.827 14.33ZM382.207 15V14.61L383.797 14.1V2.47L382.207 1.95V1.57H385.417V15H382.207ZM404.3 15.59H404.1L402.9 15H396.8V14.07H404.14L402.72 14.36L404.71 10.98L405.12 11.08L404.3 15.59ZM397.82 2.47V15H394.61V14.61L396.2 14.1V2.47L394.61 1.95V1.57H399.41V1.95L397.82 2.47ZM415.099 5.35C415.099 4.74333 414.965 4.22667 414.699 3.8C414.432 3.37333 413.995 3.05 413.389 2.83C412.782 2.60333 411.959 2.49 410.919 2.49H408.029L408.159 1.57H411.819C413.012 1.57 413.972 1.73333 414.699 2.06C415.432 2.38 415.965 2.81667 416.299 3.37C416.639 3.92333 416.809 4.54333 416.809 5.23C416.809 5.93667 416.635 6.59 416.289 7.19C415.942 7.78333 415.402 8.26 414.669 8.62C413.935 8.97333 412.985 9.15 411.819 9.15H408.159L408.029 8.22H412.039C412.619 8.22 413.139 8.11333 413.599 7.9C414.059 7.68 414.422 7.35667 414.689 6.93C414.962 6.50333 415.099 5.97667 415.099 5.35ZM409.519 1.57V14.1L411.109 14.61V15H406.309V14.61L407.899 14.1V2.47L406.309 1.95V1.57H409.519ZM426.008 5.32L425.988 7.95L426.008 10.58H425.278L425.028 8.42L420.178 8.41V7.5L425.028 7.49L425.278 5.32H426.008ZM428.558 5.35L428.088 5.44L426.428 2.28L427.018 2.49H420.178V1.57H426.618L427.748 1.07H427.908L428.558 5.35ZM426.608 14.33L428.438 11.18L428.848 11.29L428.108 15.59H427.958L426.798 15H420.178V14.07H427.098L426.608 14.33ZM417.988 15V14.61L419.578 14.1V2.47L417.988 1.95V1.57H421.198V15H417.988ZM441.811 8.11C441.811 6.20333 441.227 4.79 440.061 3.87C438.894 2.95 437.291 2.49 435.251 2.49H432.591V1.57H435.751C437.497 1.57 438.947 1.8 440.101 2.26C441.261 2.72 442.127 3.42 442.701 4.36C443.281 5.29333 443.571 6.47 443.571 7.89C443.571 9.39 443.231 10.67 442.551 11.73C441.871 12.79 440.941 13.6 439.761 14.16C438.581 14.72 437.251 15 435.771 15H432.591V14.07H435.481C436.747 14.07 437.854 13.8667 438.801 13.46C439.754 13.0533 440.494 12.4133 441.021 11.54C441.547 10.66 441.811 9.51667 441.811 8.11ZM430.391 15V14.61L431.981 14.1V2.47L430.391 1.95V1.57H433.601V15H430.391ZM452.355 15.2C451.802 15.2 451.352 15.14 451.005 15.02C450.665 14.9067 450.418 14.76 450.265 14.58C450.112 14.3933 450.035 14.2 450.035 14C450.035 13.7267 450.122 13.5133 450.295 13.36C450.475 13.2067 450.672 13.13 450.885 13.13C451.038 13.13 451.188 13.17 451.335 13.25C451.482 13.33 451.632 13.4267 451.785 13.54C451.938 13.6533 452.105 13.77 452.285 13.89C452.472 14.0033 452.672 14.1 452.885 14.18C453.105 14.26 453.355 14.3 453.635 14.3C454.202 14.3 454.735 14.1667 455.235 13.9C455.742 13.6333 456.148 13.2433 456.455 12.73C456.768 12.2167 456.925 11.5867 456.925 10.84C456.925 10.3933 456.845 9.96667 456.685 9.56C456.525 9.14667 456.235 8.78 455.815 8.46C455.395 8.13333 454.802 7.87 454.035 7.67C453.268 7.47 452.272 7.35 451.045 7.31L452.625 1.57H456.305L458.865 1.19L458.295 3.04H452.565L453.115 2.73L451.915 6.82L451.865 5.75C452.872 5.81 453.735 5.93667 454.455 6.13C455.182 6.31667 455.788 6.55333 456.275 6.84C456.762 7.12 457.145 7.44667 457.425 7.82C457.712 8.18667 457.915 8.58333 458.035 9.01C458.162 9.43 458.225 9.87667 458.225 10.35C458.225 11.0567 458.075 11.7067 457.775 12.3C457.482 12.8867 457.068 13.4 456.535 13.84C456.008 14.2733 455.388 14.61 454.675 14.85C453.962 15.0833 453.188 15.2 452.355 15.2ZM460.58 18C461.18 17.5067 461.62 17.0433 461.9 16.61C462.187 16.1833 462.33 15.7933 462.33 15.44C462.33 15.2467 462.263 15.09 462.13 14.97C461.997 14.8433 461.843 14.7367 461.67 14.65C461.497 14.5633 461.343 14.4733 461.21 14.38C461.077 14.2867 461.01 14.17 461.01 14.03C461.01 13.6633 461.12 13.36 461.34 13.12C461.56 12.88 461.863 12.76 462.25 12.76C462.623 12.76 462.94 12.9 463.2 13.18C463.46 13.4533 463.59 13.8467 463.59 14.36C463.59 14.7 463.543 15.03 463.45 15.35C463.357 15.6767 463.21 16.0067 463.01 16.34C462.817 16.6733 462.56 17.0167 462.24 17.37C461.92 17.7233 461.527 18.1 461.06 18.5L460.58 18ZM470.159 14.38C470.806 14.38 471.359 14.1533 471.819 13.7C472.286 13.24 472.643 12.5767 472.889 11.71C473.143 10.8367 473.269 9.79333 473.269 8.58C473.269 7.58 473.196 6.68333 473.049 5.89C472.909 5.09667 472.699 4.42667 472.419 3.88C472.146 3.32667 471.813 2.90667 471.419 2.62C471.033 2.32667 470.593 2.18 470.099 2.18C469.453 2.18 468.896 2.41 468.429 2.87C467.963 3.33 467.603 3.99333 467.349 4.86C467.103 5.72 466.979 6.76 466.979 7.98C466.979 8.98667 467.053 9.88667 467.199 10.68C467.346 11.4733 467.556 12.1467 467.829 12.7C468.103 13.2467 468.436 13.6633 468.829 13.95C469.223 14.2367 469.666 14.38 470.159 14.38ZM470.129 1.37C471.096 1.37 471.939 1.66 472.659 2.24C473.386 2.81333 473.949 3.61667 474.349 4.65C474.749 5.68333 474.949 6.88667 474.949 8.26C474.949 9.64 474.749 10.8533 474.349 11.9C473.949 12.94 473.386 13.75 472.659 14.33C471.939 14.91 471.096 15.2 470.129 15.2C469.169 15.2 468.326 14.9133 467.599 14.34C466.879 13.76 466.316 12.9533 465.909 11.92C465.503 10.88 465.299 9.67333 465.299 8.3C465.299 6.92667 465.503 5.72 465.909 4.68C466.316 3.63333 466.879 2.82 467.599 2.24C468.326 1.66 469.169 1.37 470.129 1.37ZM481.195 14.38C481.841 14.38 482.395 14.1533 482.855 13.7C483.321 13.24 483.678 12.5767 483.925 11.71C484.178 10.8367 484.305 9.79333 484.305 8.58C484.305 7.58 484.231 6.68333 484.085 5.89C483.945 5.09667 483.735 4.42667 483.455 3.88C483.181 3.32667 482.848 2.90667 482.455 2.62C482.068 2.32667 481.628 2.18 481.135 2.18C480.488 2.18 479.931 2.41 479.465 2.87C478.998 3.33 478.638 3.99333 478.385 4.86C478.138 5.72 478.015 6.76 478.015 7.98C478.015 8.98667 478.088 9.88667 478.235 10.68C478.381 11.4733 478.591 12.1467 478.865 12.7C479.138 13.2467 479.471 13.6633 479.865 13.95C480.258 14.2367 480.701 14.38 481.195 14.38ZM481.165 1.37C482.131 1.37 482.975 1.66 483.695 2.24C484.421 2.81333 484.985 3.61667 485.385 4.65C485.785 5.68333 485.985 6.88667 485.985 8.26C485.985 9.64 485.785 10.8533 485.385 11.9C484.985 12.94 484.421 13.75 483.695 14.33C482.975 14.91 482.131 15.2 481.165 15.2C480.205 15.2 479.361 14.9133 478.635 14.34C477.915 13.76 477.351 12.9533 476.945 11.92C476.538 10.88 476.335 9.67333 476.335 8.3C476.335 6.92667 476.538 5.72 476.945 4.68C477.351 3.63333 477.915 2.82 478.635 2.24C479.361 1.66 480.205 1.37 481.165 1.37ZM492.23 14.38C492.876 14.38 493.43 14.1533 493.89 13.7C494.356 13.24 494.713 12.5767 494.96 11.71C495.213 10.8367 495.34 9.79333 495.34 8.58C495.34 7.58 495.266 6.68333 495.12 5.89C494.98 5.09667 494.77 4.42667 494.49 3.88C494.216 3.32667 493.883 2.90667 493.49 2.62C493.103 2.32667 492.663 2.18 492.17 2.18C491.523 2.18 490.966 2.41 490.5 2.87C490.033 3.33 489.673 3.99333 489.42 4.86C489.173 5.72 489.05 6.76 489.05 7.98C489.05 8.98667 489.123 9.88667 489.27 10.68C489.416 11.4733 489.626 12.1467 489.9 12.7C490.173 13.2467 490.506 13.6633 490.9 13.95C491.293 14.2367 491.736 14.38 492.23 14.38ZM492.2 1.37C493.166 1.37 494.01 1.66 494.73 2.24C495.456 2.81333 496.02 3.61667 496.42 4.65C496.82 5.68333 497.02 6.88667 497.02 8.26C497.02 9.64 496.82 10.8533 496.42 11.9C496.02 12.94 495.456 13.75 494.73 14.33C494.01 14.91 493.166 15.2 492.2 15.2C491.24 15.2 490.396 14.9133 489.67 14.34C488.95 13.76 488.386 12.9533 487.98 11.92C487.573 10.88 487.37 9.67333 487.37 8.3C487.37 6.92667 487.573 5.72 487.98 4.68C488.386 3.63333 488.95 2.82 489.67 2.24C490.396 1.66 491.24 1.37 492.2 1.37ZM514.088 10.08V2.47L512.488 1.95V1.57H516.628V1.95L515.038 2.47V9.9C515.038 11.02 514.831 11.9767 514.418 12.77C514.011 13.5633 513.415 14.1667 512.628 14.58C511.841 14.9933 510.885 15.2 509.758 15.2C508.591 15.2 507.598 14.99 506.778 14.57C505.965 14.1433 505.345 13.51 504.918 12.67C504.498 11.83 504.288 10.7933 504.288 9.56V2.47L502.698 1.95V1.57H507.488V1.95L505.908 2.47V9.65C505.908 10.6167 506.058 11.4233 506.358 12.07C506.665 12.71 507.121 13.19 507.728 13.51C508.335 13.8233 509.095 13.98 510.008 13.98C510.888 13.98 511.631 13.83 512.238 13.53C512.845 13.2233 513.305 12.78 513.618 12.2C513.931 11.62 514.088 10.9133 514.088 10.08ZM525.958 2.2L524.508 1.81L525.728 0.99H525.898L526.518 5.41L526.078 5.48L524.348 2.39L524.708 2.86C524.354 2.60667 523.998 2.42667 523.638 2.32C523.278 2.21333 522.884 2.16 522.458 2.16C521.598 2.16 520.931 2.36333 520.458 2.77C519.984 3.17667 519.748 3.71667 519.748 4.39C519.748 4.83667 519.838 5.21333 520.018 5.52C520.204 5.82667 520.458 6.08667 520.778 6.3C521.104 6.51333 521.471 6.7 521.878 6.86C522.284 7.02 522.711 7.18 523.158 7.34C523.604 7.5 524.048 7.67667 524.488 7.87C524.934 8.05667 525.338 8.29 525.698 8.57C526.064 8.85 526.358 9.20333 526.578 9.63C526.798 10.05 526.908 10.5667 526.908 11.18C526.908 12.04 526.704 12.77 526.298 13.37C525.891 13.9633 525.331 14.4167 524.618 14.73C523.911 15.0433 523.091 15.2 522.158 15.2C521.511 15.2 520.938 15.1533 520.438 15.06C519.938 14.9733 519.418 14.82 518.878 14.6L518.008 11.13H518.578L520.948 14.6L519.288 13.55C519.808 13.83 520.274 14.0367 520.688 14.17C521.101 14.3033 521.541 14.37 522.008 14.37C522.741 14.37 523.371 14.2733 523.898 14.08C524.424 13.8867 524.828 13.5967 525.108 13.21C525.388 12.8167 525.528 12.3267 525.528 11.74C525.528 11.22 525.411 10.79 525.178 10.45C524.951 10.11 524.644 9.82667 524.258 9.6C523.878 9.37333 523.461 9.18 523.008 9.02C522.561 8.85333 522.118 8.68667 521.678 8.52C521.238 8.35333 520.824 8.17333 520.438 7.98C520.058 7.78 519.721 7.54667 519.428 7.28C519.134 7.01333 518.904 6.69333 518.738 6.32C518.578 5.94 518.498 5.48667 518.498 4.96C518.498 4.22 518.668 3.58333 519.008 3.05C519.354 2.51667 519.848 2.10333 520.488 1.81C521.128 1.51667 521.881 1.37 522.748 1.37C523.341 1.37 523.891 1.43667 524.398 1.57C524.911 1.70333 525.431 1.91333 525.958 2.2ZM536.731 5.32L536.711 7.95L536.731 10.58H536.001L535.751 8.42L530.901 8.41V7.5L535.751 7.49L536.001 5.32H536.731ZM539.281 5.35L538.811 5.44L537.151 2.28L537.741 2.49H530.901V1.57H537.341L538.471 1.07H538.631L539.281 5.35ZM537.331 14.33L539.161 11.18L539.571 11.29L538.831 15.59H538.681L537.521 15H530.901V14.07H537.821L537.331 14.33ZM528.711 15V14.61L530.301 14.1V2.47L528.711 1.95V1.57H531.921V15H528.711ZM546.443 7.73C547.277 7.73 547.97 7.50667 548.523 7.06C549.077 6.61333 549.353 5.96 549.353 5.1C549.353 4.55333 549.227 4.08667 548.973 3.7C548.727 3.30667 548.313 3.00667 547.733 2.8C547.16 2.59333 546.387 2.49 545.413 2.49H542.923L542.953 1.57H546.403C547.517 1.57 548.413 1.72333 549.093 2.03C549.78 2.33 550.28 2.73667 550.593 3.25C550.907 3.75667 551.063 4.32 551.063 4.94C551.063 5.52 550.933 6.04 550.673 6.5C550.413 6.96 550.033 7.34333 549.533 7.65C549.033 7.95 548.413 8.15667 547.673 8.27V8.2C548.12 8.22667 548.487 8.31 548.773 8.45C549.06 8.59 549.303 8.81333 549.503 9.12C549.71 9.42 549.91 9.83 550.103 10.35L551.093 13.02C551.26 13.4733 551.417 13.8033 551.563 14.01C551.717 14.21 551.89 14.3333 552.083 14.38C552.277 14.4267 552.513 14.45 552.793 14.45V15C552.193 15.0467 551.707 15.0633 551.333 15.05C550.967 15.0367 550.673 14.9733 550.453 14.86C550.24 14.7467 550.06 14.5733 549.913 14.34C549.773 14.1 549.627 13.7767 549.473 13.37L548.503 10.71C548.317 10.1767 548.143 9.76333 547.983 9.47C547.823 9.17667 547.63 8.97 547.403 8.85C547.183 8.72333 546.88 8.66 546.493 8.66H542.953L542.923 7.73H546.443ZM544.323 1.57V14.1L545.913 14.61V15H541.113V14.61L542.703 14.1V2.47L541.113 1.95V1.57H544.323ZM561.504 2.2L560.054 1.81L561.274 0.99H561.444L562.064 5.41L561.624 5.48L559.894 2.39L560.254 2.86C559.901 2.60667 559.544 2.42667 559.184 2.32C558.824 2.21333 558.431 2.16 558.004 2.16C557.144 2.16 556.478 2.36333 556.004 2.77C555.531 3.17667 555.294 3.71667 555.294 4.39C555.294 4.83667 555.384 5.21333 555.564 5.52C555.751 5.82667 556.004 6.08667 556.324 6.3C556.651 6.51333 557.018 6.7 557.424 6.86C557.831 7.02 558.258 7.18 558.704 7.34C559.151 7.5 559.594 7.67667 560.034 7.87C560.481 8.05667 560.884 8.29 561.244 8.57C561.611 8.85 561.904 9.20333 562.124 9.63C562.344 10.05 562.454 10.5667 562.454 11.18C562.454 12.04 562.251 12.77 561.844 13.37C561.438 13.9633 560.878 14.4167 560.164 14.73C559.458 15.0433 558.638 15.2 557.704 15.2C557.058 15.2 556.484 15.1533 555.984 15.06C555.484 14.9733 554.964 14.82 554.424 14.6L553.554 11.13H554.124L556.494 14.6L554.834 13.55C555.354 13.83 555.821 14.0367 556.234 14.17C556.648 14.3033 557.088 14.37 557.554 14.37C558.288 14.37 558.918 14.2733 559.444 14.08C559.971 13.8867 560.374 13.5967 560.654 13.21C560.934 12.8167 561.074 12.3267 561.074 11.74C561.074 11.22 560.958 10.79 560.724 10.45C560.498 10.11 560.191 9.82667 559.804 9.6C559.424 9.37333 559.008 9.18 558.554 9.02C558.108 8.85333 557.664 8.68667 557.224 8.52C556.784 8.35333 556.371 8.17333 555.984 7.98C555.604 7.78 555.268 7.54667 554.974 7.28C554.681 7.01333 554.451 6.69333 554.284 6.32C554.124 5.94 554.044 5.48667 554.044 4.96C554.044 4.22 554.214 3.58333 554.554 3.05C554.901 2.51667 555.394 2.10333 556.034 1.81C556.674 1.51667 557.428 1.37 558.294 1.37C558.888 1.37 559.438 1.43667 559.944 1.57C560.458 1.70333 560.978 1.91333 561.504 2.2ZM577.501 5.35C577.501 4.74333 577.368 4.22667 577.101 3.8C576.834 3.37333 576.398 3.05 575.791 2.83C575.184 2.60333 574.361 2.49 573.321 2.49H570.431L570.561 1.57H574.221C575.414 1.57 576.374 1.73333 577.101 2.06C577.834 2.38 578.368 2.81667 578.701 3.37C579.041 3.92333 579.211 4.54333 579.211 5.23C579.211 5.93667 579.038 6.59 578.691 7.19C578.344 7.78333 577.804 8.26 577.071 8.62C576.338 8.97333 575.388 9.15 574.221 9.15H570.561L570.431 8.22H574.441C575.021 8.22 575.541 8.11333 576.001 7.9C576.461 7.68 576.824 7.35667 577.091 6.93C577.364 6.50333 577.501 5.97667 577.501 5.35ZM571.921 1.57V14.1L573.511 14.61V15H568.711V14.61L570.301 14.1V2.47L568.711 1.95V1.57H571.921ZM588.411 5.32L588.391 7.95L588.411 10.58H587.681L587.431 8.42L582.581 8.41V7.5L587.431 7.49L587.681 5.32H588.411ZM590.961 5.35L590.491 5.44L588.831 2.28L589.421 2.49H582.581V1.57H589.021L590.151 1.07H590.311L590.961 5.35ZM589.011 14.33L590.841 11.18L591.251 11.29L590.511 15.59H590.361L589.201 15H582.581V14.07H589.501L589.011 14.33ZM580.391 15V14.61L581.981 14.1V2.47L580.391 1.95V1.57H583.601V15H580.391ZM598.123 7.73C598.956 7.73 599.65 7.50667 600.203 7.06C600.756 6.61333 601.033 5.96 601.033 5.1C601.033 4.55333 600.906 4.08667 600.653 3.7C600.406 3.30667 599.993 3.00667 599.413 2.8C598.84 2.59333 598.066 2.49 597.093 2.49H594.603L594.633 1.57H598.083C599.196 1.57 600.093 1.72333 600.773 2.03C601.46 2.33 601.96 2.73667 602.273 3.25C602.586 3.75667 602.743 4.32 602.743 4.94C602.743 5.52 602.613 6.04 602.353 6.5C602.093 6.96 601.713 7.34333 601.213 7.65C600.713 7.95 600.093 8.15667 599.353 8.27V8.2C599.8 8.22667 600.166 8.31 600.453 8.45C600.74 8.59 600.983 8.81333 601.183 9.12C601.39 9.42 601.59 9.83 601.783 10.35L602.773 13.02C602.94 13.4733 603.096 13.8033 603.243 14.01C603.396 14.21 603.57 14.3333 603.763 14.38C603.956 14.4267 604.193 14.45 604.473 14.45V15C603.873 15.0467 603.386 15.0633 603.013 15.05C602.646 15.0367 602.353 14.9733 602.133 14.86C601.92 14.7467 601.74 14.5733 601.593 14.34C601.453 14.1 601.306 13.7767 601.153 13.37L600.183 10.71C599.996 10.1767 599.823 9.76333 599.663 9.47C599.503 9.17667 599.31 8.97 599.083 8.85C598.863 8.72333 598.56 8.66 598.173 8.66H594.633L594.603 7.73H598.123ZM596.003 1.57V14.1L597.593 14.61V15H592.793V14.61L594.383 14.1V2.47L592.793 1.95V1.57H596.003ZM625.908 14.1L627.488 14.61V15H622.718V14.61L624.298 14.1L623.528 2.98L623.668 3.01L618.298 15.19H617.878L612.428 3.14L612.568 3.11L611.898 14.1L613.488 14.61V15H609.358V14.61L610.948 14.1L611.808 2.53L610.168 1.95V1.57H613.508L618.588 12.94H618.348L623.428 1.57H626.618V1.95L625.028 2.47L625.908 14.1ZM635.335 1.37C636.315 1.37 637.212 1.54 638.025 1.88C638.845 2.21333 639.555 2.68667 640.155 3.3C640.762 3.90667 641.228 4.63333 641.555 5.48C641.888 6.32 642.055 7.24667 642.055 8.26C642.055 9.28 641.892 10.2133 641.565 11.06C641.238 11.9 640.772 12.6333 640.165 13.26C639.565 13.88 638.858 14.36 638.045 14.7C637.238 15.0333 636.345 15.2 635.365 15.2C634.392 15.2 633.495 15.0333 632.675 14.7C631.862 14.36 631.152 13.8833 630.545 13.27C629.945 12.6567 629.478 11.93 629.145 11.09C628.818 10.2433 628.655 9.31333 628.655 8.3C628.655 7.28667 628.818 6.35667 629.145 5.51C629.472 4.66333 629.935 3.93 630.535 3.31C631.142 2.69 631.852 2.21333 632.665 1.88C633.478 1.54 634.368 1.37 635.335 1.37ZM635.435 14.3C636.435 14.3 637.298 14.0667 638.025 13.6C638.752 13.1333 639.312 12.4733 639.705 11.62C640.098 10.76 640.295 9.74667 640.295 8.58C640.295 7.24 640.078 6.10333 639.645 5.17C639.218 4.23 638.625 3.51333 637.865 3.02C637.112 2.52 636.245 2.27 635.265 2.27C634.265 2.27 633.402 2.50333 632.675 2.97C631.948 3.43667 631.388 4.09667 630.995 4.95C630.602 5.80333 630.405 6.81333 630.405 7.98C630.405 9.31333 630.618 10.4533 631.045 11.4C631.478 12.34 632.075 13.06 632.835 13.56C633.595 14.0533 634.462 14.3 635.435 14.3ZM645.223 14.1V2.63L643.583 1.95V1.57H646.753L655.023 12.5L654.553 13.46V2.47L652.833 1.95V1.57H657.093V1.95L655.503 2.47V15.19H655.073L645.843 3.01L646.173 2.65V14.1L647.893 14.61V15H643.643V14.61L645.223 14.1ZM663.503 2.17H665.123V14.1L666.703 14.61V15H661.913V14.61L663.503 14.1V2.17ZM669.493 2.49H659.123L660.053 2.3L658.673 5.21L658.223 5.12L658.633 0.879999H658.813L660.223 1.73L659.353 1.57H669.263L668.393 1.73L669.813 0.879999H669.993L670.393 5.12L669.943 5.21L668.573 2.3L669.493 2.49ZM674.87 14.1L676.46 14.61V15H671.66V14.61L673.25 14.1V2.47L671.66 1.95V1.57H676.46V1.95L674.87 2.47V14.1ZM684.01 14.1L685.6 14.61V15H680.81V14.61L682.39 14.1V2.47L680.81 1.95V1.57H685.6V1.95L684.01 2.47V14.1ZM673.86 8.61V7.69H683.4V8.61H673.86ZM696.538 14.61V15H691.738V14.61L693.328 14.1V2.47L691.738 1.95V1.57H696.538V1.95L694.948 2.47V14.1L696.538 14.61ZM714.443 14.1L716.023 14.61V15H711.253V14.61L712.833 14.1L712.063 2.98L712.203 3.01L706.833 15.19H706.413L700.963 3.14L701.103 3.11L700.433 14.1L702.023 14.61V15H697.893V14.61L699.483 14.1L700.343 2.53L698.703 1.95V1.57H702.043L707.123 12.94H706.883L711.963 1.57H715.153V1.95L713.563 2.47L714.443 14.1ZM726.153 5.35C726.153 4.74333 726.02 4.22667 725.753 3.8C725.487 3.37333 725.05 3.05 724.443 2.83C723.837 2.60333 723.013 2.49 721.973 2.49H719.083L719.213 1.57H722.873C724.067 1.57 725.027 1.73333 725.753 2.06C726.487 2.38 727.02 2.81667 727.353 3.37C727.693 3.92333 727.863 4.54333 727.863 5.23C727.863 5.93667 727.69 6.59 727.343 7.19C726.997 7.78333 726.457 8.26 725.723 8.62C724.99 8.97333 724.04 9.15 722.873 9.15H719.213L719.083 8.22H723.093C723.673 8.22 724.193 8.11333 724.653 7.9C725.113 7.68 725.477 7.35667 725.743 6.93C726.017 6.50333 726.153 5.97667 726.153 5.35ZM720.573 1.57V14.1L722.163 14.61V15H717.363V14.61L718.953 14.1V2.47L717.363 1.95V1.57H720.573ZM734.373 7.73C735.206 7.73 735.9 7.50667 736.453 7.06C737.006 6.61333 737.283 5.96 737.283 5.1C737.283 4.55333 737.156 4.08667 736.903 3.7C736.656 3.30667 736.243 3.00667 735.663 2.8C735.09 2.59333 734.316 2.49 733.343 2.49H730.853L730.883 1.57H734.333C735.446 1.57 736.343 1.72333 737.023 2.03C737.71 2.33 738.21 2.73667 738.523 3.25C738.836 3.75667 738.993 4.32 738.993 4.94C738.993 5.52 738.863 6.04 738.603 6.5C738.343 6.96 737.963 7.34333 737.463 7.65C736.963 7.95 736.343 8.15667 735.603 8.27V8.2C736.05 8.22667 736.416 8.31 736.703 8.45C736.99 8.59 737.233 8.81333 737.433 9.12C737.64 9.42 737.84 9.83 738.033 10.35L739.023 13.02C739.19 13.4733 739.346 13.8033 739.493 14.01C739.646 14.21 739.82 14.3333 740.013 14.38C740.206 14.4267 740.443 14.45 740.723 14.45V15C740.123 15.0467 739.636 15.0633 739.263 15.05C738.896 15.0367 738.603 14.9733 738.383 14.86C738.17 14.7467 737.99 14.5733 737.843 14.34C737.703 14.1 737.556 13.7767 737.403 13.37L736.433 10.71C736.246 10.1767 736.073 9.76333 735.913 9.47C735.753 9.17667 735.56 8.97 735.333 8.85C735.113 8.72333 734.81 8.66 734.423 8.66H730.883L730.853 7.73H734.373ZM732.253 1.57V14.1L733.843 14.61V15H729.043V14.61L730.633 14.1V2.47L729.043 1.95V1.57H732.253ZM748.108 1.37C749.088 1.37 749.985 1.54 750.798 1.88C751.618 2.21333 752.328 2.68667 752.928 3.3C753.535 3.90667 754.002 4.63333 754.328 5.48C754.662 6.32 754.828 7.24667 754.828 8.26C754.828 9.28 754.665 10.2133 754.338 11.06C754.012 11.9 753.545 12.6333 752.938 13.26C752.338 13.88 751.632 14.36 750.818 14.7C750.012 15.0333 749.118 15.2 748.138 15.2C747.165 15.2 746.268 15.0333 745.448 14.7C744.635 14.36 743.925 13.8833 743.318 13.27C742.718 12.6567 742.252 11.93 741.918 11.09C741.592 10.2433 741.428 9.31333 741.428 8.3C741.428 7.28667 741.592 6.35667 741.918 5.51C742.245 4.66333 742.708 3.93 743.308 3.31C743.915 2.69 744.625 2.21333 745.438 1.88C746.252 1.54 747.142 1.37 748.108 1.37ZM748.208 14.3C749.208 14.3 750.072 14.0667 750.798 13.6C751.525 13.1333 752.085 12.4733 752.478 11.62C752.872 10.76 753.068 9.74667 753.068 8.58C753.068 7.24 752.852 6.10333 752.418 5.17C751.992 4.23 751.398 3.51333 750.638 3.02C749.885 2.52 749.018 2.27 748.038 2.27C747.038 2.27 746.175 2.50333 745.448 2.97C744.722 3.43667 744.162 4.09667 743.768 4.95C743.375 5.80333 743.178 6.81333 743.178 7.98C743.178 9.31333 743.392 10.4533 743.818 11.4C744.252 12.34 744.848 13.06 745.608 13.56C746.368 14.0533 747.235 14.3 748.208 14.3ZM756.397 2.49L754.917 1.95V1.57H759.847V1.95L758.107 2.47L762.697 13.52H762.037L766.097 2.47L764.457 1.95V1.57H768.597V1.95L767.067 2.47L762.217 15.2H761.747L756.397 2.49ZM777.356 5.32L777.336 7.95L777.356 10.58H776.626L776.376 8.42L771.526 8.41V7.5L776.376 7.49L776.626 5.32H777.356ZM779.906 5.35L779.436 5.44L777.776 2.28L778.366 2.49H771.526V1.57H777.966L779.096 1.07H779.256L779.906 5.35ZM777.956 14.33L779.786 11.18L780.196 11.29L779.456 15.59H779.306L778.146 15H771.526V14.07H778.446L777.956 14.33ZM769.336 15V14.61L770.926 14.1V2.47L769.336 1.95V1.57H772.546V15H769.336ZM790.495 2.17H792.115V14.1L793.695 14.61V15H788.905V14.61L790.495 14.1V2.17ZM796.485 2.49H786.115L787.045 2.3L785.665 5.21L785.215 5.12L785.625 0.879999H785.805L787.215 1.73L786.345 1.57H796.255L795.385 1.73L796.805 0.879999H796.985L797.385 5.12L796.935 5.21L795.565 2.3L796.485 2.49ZM801.863 14.1L803.453 14.61V15H798.653V14.61L800.243 14.1V2.47L798.653 1.95V1.57H803.453V1.95L801.863 2.47V14.1ZM811.003 14.1L812.593 14.61V15H807.803V14.61L809.383 14.1V2.47L807.803 1.95V1.57H812.593V1.95L811.003 2.47V14.1ZM800.853 8.61V7.69H810.393V8.61H800.853ZM822.298 5.32L822.278 7.95L822.298 10.58H821.568L821.318 8.42L816.468 8.41V7.5L821.318 7.49L821.568 5.32H822.298ZM824.848 5.35L824.378 5.44L822.718 2.28L823.308 2.49H816.468V1.57H822.908L824.038 1.07H824.198L824.848 5.35ZM822.898 14.33L824.728 11.18L825.138 11.29L824.398 15.59H824.248L823.088 15H816.468V14.07H823.388L822.898 14.33ZM814.278 15V14.61L815.868 14.1V2.47L814.278 1.95V1.57H817.488V15H814.278ZM831.48 14.61V15H826.68V14.61L828.27 14.1V2.47L826.68 1.95V1.57H831.48V1.95L829.89 2.47V14.1L831.48 14.61ZM838.494 7.73C839.328 7.73 840.021 7.50667 840.574 7.06C841.128 6.61333 841.404 5.96 841.404 5.1C841.404 4.55333 841.278 4.08667 841.024 3.7C840.778 3.30667 840.364 3.00667 839.784 2.8C839.211 2.59333 838.438 2.49 837.464 2.49H834.974L835.004 1.57H838.454C839.568 1.57 840.464 1.72333 841.144 2.03C841.831 2.33 842.331 2.73667 842.644 3.25C842.958 3.75667 843.114 4.32 843.114 4.94C843.114 5.52 842.984 6.04 842.724 6.5C842.464 6.96 842.084 7.34333 841.584 7.65C841.084 7.95 840.464 8.15667 839.724 8.27V8.2C840.171 8.22667 840.538 8.31 840.824 8.45C841.111 8.59 841.354 8.81333 841.554 9.12C841.761 9.42 841.961 9.83 842.154 10.35L843.144 13.02C843.311 13.4733 843.468 13.8033 843.614 14.01C843.768 14.21 843.941 14.3333 844.134 14.38C844.328 14.4267 844.564 14.45 844.844 14.45V15C844.244 15.0467 843.758 15.0633 843.384 15.05C843.018 15.0367 842.724 14.9733 842.504 14.86C842.291 14.7467 842.111 14.5733 841.964 14.34C841.824 14.1 841.678 13.7767 841.524 13.37L840.554 10.71C840.368 10.1767 840.194 9.76333 840.034 9.47C839.874 9.17667 839.681 8.97 839.454 8.85C839.234 8.72333 838.931 8.66 838.544 8.66H835.004L834.974 7.73H838.494ZM836.374 1.57V14.1L837.964 14.61V15H833.164V14.61L834.754 14.1V2.47L833.164 1.95V1.57H836.374ZM852.539 2.49L852.579 1.57H855.909C856.889 1.57 857.682 1.71 858.289 1.99C858.902 2.26333 859.349 2.64 859.629 3.12C859.915 3.59333 860.059 4.13 860.059 4.73C860.059 5.56333 859.785 6.26333 859.239 6.83C858.699 7.39667 857.962 7.72333 857.029 7.81L857.069 7.66C858.242 7.72667 859.169 8.06333 859.849 8.67C860.529 9.27667 860.869 10.04 860.869 10.96C860.869 11.7333 860.695 12.4267 860.349 13.04C860.009 13.6467 859.475 14.1267 858.749 14.48C858.029 14.8267 857.085 15 855.919 15H852.589L852.559 14.08H855.819C856.512 14.08 857.105 13.9767 857.599 13.77C858.099 13.5567 858.482 13.23 858.749 12.79C859.015 12.35 859.149 11.79 859.149 11.11C859.149 10.5633 859.035 10.0833 858.809 9.67C858.582 9.25 858.229 8.92333 857.749 8.69C857.275 8.45 856.665 8.33 855.919 8.33H852.549L852.539 7.41H855.769C856.595 7.41 857.249 7.2 857.729 6.78C858.209 6.35333 858.449 5.71333 858.449 4.86C858.449 4.39333 858.342 3.98333 858.129 3.63C857.915 3.27667 857.589 3 857.149 2.8C856.715 2.59333 856.165 2.49 855.499 2.49H852.539ZM850.059 15V14.61L851.649 14.1V2.47L850.059 1.95V1.57H853.269V15H850.059ZM869.358 1.37C870.338 1.37 871.235 1.54 872.048 1.88C872.868 2.21333 873.578 2.68667 874.178 3.3C874.785 3.90667 875.252 4.63333 875.578 5.48C875.912 6.32 876.078 7.24667 876.078 8.26C876.078 9.28 875.915 10.2133 875.588 11.06C875.262 11.9 874.795 12.6333 874.188 13.26C873.588 13.88 872.882 14.36 872.068 14.7C871.262 15.0333 870.368 15.2 869.388 15.2C868.415 15.2 867.518 15.0333 866.698 14.7C865.885 14.36 865.175 13.8833 864.568 13.27C863.968 12.6567 863.502 11.93 863.168 11.09C862.842 10.2433 862.678 9.31333 862.678 8.3C862.678 7.28667 862.842 6.35667 863.168 5.51C863.495 4.66333 863.958 3.93 864.558 3.31C865.165 2.69 865.875 2.21333 866.688 1.88C867.502 1.54 868.392 1.37 869.358 1.37ZM869.458 14.3C870.458 14.3 871.322 14.0667 872.048 13.6C872.775 13.1333 873.335 12.4733 873.728 11.62C874.122 10.76 874.318 9.74667 874.318 8.58C874.318 7.24 874.102 6.10333 873.668 5.17C873.242 4.23 872.648 3.51333 871.888 3.02C871.135 2.52 870.268 2.27 869.288 2.27C868.288 2.27 867.425 2.50333 866.698 2.97C865.972 3.43667 865.412 4.09667 865.018 4.95C864.625 5.80333 864.428 6.81333 864.428 7.98C864.428 9.31333 864.642 10.4533 865.068 11.4C865.502 12.34 866.098 13.06 866.858 13.56C867.618 14.0533 868.485 14.3 869.458 14.3ZM889.057 8.11C889.057 6.20333 888.474 4.79 887.307 3.87C886.14 2.95 884.537 2.49 882.497 2.49H879.837V1.57H882.997C884.744 1.57 886.194 1.8 887.347 2.26C888.507 2.72 889.374 3.42 889.947 4.36C890.527 5.29333 890.817 6.47 890.817 7.89C890.817 9.39 890.477 10.67 889.797 11.73C889.117 12.79 888.187 13.6 887.007 14.16C885.827 14.72 884.497 15 883.017 15H879.837V14.07H882.727C883.994 14.07 885.1 13.8667 886.047 13.46C887 13.0533 887.74 12.4133 888.267 11.54C888.794 10.66 889.057 9.51667 889.057 8.11ZM877.637 15V14.61L879.227 14.1V2.47L877.637 1.95V1.57H880.847V15H877.637ZM892.132 2.49L890.642 1.95V1.57H895.792V1.95L894.132 2.47L898.472 8.74L897.852 8.72L901.332 2.47L899.692 1.95V1.57H903.962V1.95L902.432 2.47L898.442 9.1V14.1L900.032 14.61V15H895.232V14.61L896.822 14.1V9.16L892.132 2.49ZM918.343 15.59H918.142L916.943 15H910.843V14.07H918.183L916.763 14.36L918.753 10.98L919.163 11.08L918.343 15.59ZM911.863 2.47V15H908.653V14.61L910.243 14.1V2.47L908.653 1.95V1.57H913.453V1.95L911.863 2.47ZM923.022 9.97V9.07H929.642V9.97H923.022ZM931.972 14.08L933.452 14.61V15H928.522V14.61L930.262 14.1L925.622 3.05H926.282L921.942 14.1L923.582 14.61V15H919.372V14.61L920.902 14.09L926.102 1.37H926.572L931.972 14.08ZM935.751 14.1V2.63L934.111 1.95V1.57H937.281L945.551 12.5L945.081 13.46V2.47L943.361 1.95V1.57H947.621V1.95L946.031 2.47V15.19H945.601L936.371 3.01L936.701 2.65V14.1L938.421 14.61V15H934.171V14.61L935.751 14.1ZM961.065 13.26L961.275 14.17V14.18C960.855 14.3867 960.391 14.5667 959.885 14.72C959.385 14.8733 958.858 14.99 958.305 15.07C957.751 15.1567 957.181 15.2 956.595 15.2C955.495 15.2 954.485 15.0467 953.565 14.74C952.645 14.4333 951.851 13.9867 951.185 13.4C950.518 12.8133 950.001 12.1 949.635 11.26C949.268 10.4133 949.085 9.45667 949.085 8.39C949.085 6.97 949.388 5.73333 949.995 4.68C950.608 3.62667 951.491 2.81333 952.645 2.24C953.798 1.66 955.181 1.37 956.795 1.37C957.281 1.37 957.741 1.4 958.175 1.46C958.608 1.51333 959.085 1.61 959.605 1.75L958.925 1.84L960.215 0.99H960.385L960.985 5.58L960.525 5.67L958.755 2.42L959.785 3.4C959.251 3.01333 958.711 2.73 958.165 2.55C957.618 2.36333 957.005 2.27 956.325 2.27C955.418 2.27 954.621 2.39333 953.935 2.64C953.248 2.88667 952.671 3.24667 952.205 3.72C951.745 4.19333 951.398 4.76667 951.165 5.44C950.931 6.11333 950.815 6.87667 950.815 7.73C950.815 9.13667 951.061 10.3333 951.555 11.32C952.048 12.3 952.725 13.0467 953.585 13.56C954.451 14.0667 955.431 14.32 956.525 14.32C956.985 14.32 957.438 14.28 957.885 14.2C958.331 14.1133 958.738 13.9933 959.105 13.84C959.478 13.6867 959.768 13.5067 959.975 13.3L959.455 14.44V9.96L957.565 9.38V8.99H962.355V9.38L961.065 9.9V13.26ZM974.733 10.08V2.47L973.133 1.95V1.57H977.273V1.95L975.683 2.47V9.9C975.683 11.02 975.476 11.9767 975.063 12.77C974.656 13.5633 974.059 14.1667 973.273 14.58C972.486 14.9933 971.529 15.2 970.403 15.2C969.236 15.2 968.243 14.99 967.423 14.57C966.609 14.1433 965.989 13.51 965.563 12.67C965.143 11.83 964.933 10.7933 964.933 9.56V2.47L963.343 1.95V1.57H968.133V1.95L966.553 2.47V9.65C966.553 10.6167 966.703 11.4233 967.003 12.07C967.309 12.71 967.766 13.19 968.373 13.51C968.979 13.8233 969.739 13.98 970.653 13.98C971.533 13.98 972.276 13.83 972.883 13.53C973.489 13.2233 973.949 12.78 974.263 12.2C974.576 11.62 974.733 10.9133 974.733 10.08ZM980.365 9.97V9.07H986.985V9.97H980.365ZM989.315 14.08L990.795 14.61V15H985.865V14.61L987.605 14.1L982.965 3.05H983.625L979.285 14.1L980.925 14.61V15H976.715V14.61L978.245 14.09L983.445 1.37H983.915L989.315 14.08ZM1002.9 13.26L1003.11 14.17V14.18C1002.69 14.3867 1002.23 14.5667 1001.72 14.72C1001.22 14.8733 1000.69 14.99 1000.14 15.07C999.587 15.1567 999.017 15.2 998.43 15.2C997.33 15.2 996.32 15.0467 995.4 14.74C994.48 14.4333 993.687 13.9867 993.02 13.4C992.354 12.8133 991.837 12.1 991.47 11.26C991.104 10.4133 990.92 9.45667 990.92 8.39C990.92 6.97 991.224 5.73333 991.83 4.68C992.444 3.62667 993.327 2.81333 994.48 2.24C995.634 1.66 997.017 1.37 998.63 1.37C999.117 1.37 999.577 1.4 1000.01 1.46C1000.44 1.51333 1000.92 1.61 1001.44 1.75L1000.76 1.84L1002.05 0.99H1002.22L1002.82 5.58L1002.36 5.67L1000.59 2.42L1001.62 3.4C1001.09 3.01333 1000.55 2.73 1000 2.55C999.454 2.36333 998.84 2.27 998.16 2.27C997.254 2.27 996.457 2.39333 995.77 2.64C995.084 2.88667 994.507 3.24667 994.04 3.72C993.58 4.19333 993.234 4.76667 993 5.44C992.767 6.11333 992.65 6.87667 992.65 7.73C992.65 9.13667 992.897 10.3333 993.39 11.32C993.884 12.3 994.56 13.0467 995.42 13.56C996.287 14.0667 997.267 14.32 998.36 14.32C998.82 14.32 999.274 14.28 999.72 14.2C1000.17 14.1133 1000.57 13.9933 1000.94 13.84C1001.31 13.6867 1001.6 13.5067 1001.81 13.3L1001.29 14.44V9.96L999.4 9.38V8.99H1004.19V9.38L1002.9 9.9V13.26ZM1013.51 5.32L1013.49 7.95L1013.51 10.58H1012.78L1012.53 8.42L1007.68 8.41V7.5L1012.53 7.49L1012.78 5.32H1013.51ZM1016.06 5.35L1015.59 5.44L1013.93 2.28L1014.52 2.49H1007.68V1.57H1014.12L1015.25 1.07H1015.41L1016.06 5.35ZM1014.11 14.33L1015.94 11.18L1016.35 11.29L1015.61 15.59H1015.46L1014.3 15H1007.68V14.07H1014.6L1014.11 14.33ZM1005.49 15V14.61L1007.08 14.1V2.47L1005.49 1.95V1.57H1008.7V15H1005.49ZM1024.31 9.97V9.07H1030.93V9.97H1024.31ZM1033.26 14.08L1034.74 14.61V15H1029.81V14.61L1031.55 14.1L1026.91 3.05H1027.57L1023.23 14.1L1024.87 14.61V15H1020.66V14.61L1022.19 14.09L1027.39 1.37H1027.86L1033.26 14.08ZM1037.91 2.49L1037.95 1.57H1041.28C1042.26 1.57 1043.05 1.71 1043.66 1.99C1044.27 2.26333 1044.72 2.64 1045 3.12C1045.29 3.59333 1045.43 4.13 1045.43 4.73C1045.43 5.56333 1045.16 6.26333 1044.61 6.83C1044.07 7.39667 1043.33 7.72333 1042.4 7.81L1042.44 7.66C1043.61 7.72667 1044.54 8.06333 1045.22 8.67C1045.9 9.27667 1046.24 10.04 1046.24 10.96C1046.24 11.7333 1046.07 12.4267 1045.72 13.04C1045.38 13.6467 1044.85 14.1267 1044.12 14.48C1043.4 14.8267 1042.46 15 1041.29 15H1037.96L1037.93 14.08H1041.19C1041.88 14.08 1042.48 13.9767 1042.97 13.77C1043.47 13.5567 1043.85 13.23 1044.12 12.79C1044.39 12.35 1044.52 11.79 1044.52 11.11C1044.52 10.5633 1044.41 10.0833 1044.18 9.67C1043.95 9.25 1043.6 8.92333 1043.12 8.69C1042.65 8.45 1042.04 8.33 1041.29 8.33H1037.92L1037.91 7.41H1041.14C1041.97 7.41 1042.62 7.2 1043.1 6.78C1043.58 6.35333 1043.82 5.71333 1043.82 4.86C1043.82 4.39333 1043.71 3.98333 1043.5 3.63C1043.29 3.27667 1042.96 3 1042.52 2.8C1042.09 2.59333 1041.54 2.49 1040.87 2.49H1037.91ZM1035.43 15V14.61L1037.02 14.1V2.47L1035.43 1.95V1.57H1038.64V15H1035.43ZM1052.63 14.61V15H1047.83V14.61L1049.42 14.1V2.47L1047.83 1.95V1.57H1052.63V1.95L1051.04 2.47V14.1L1052.63 14.61ZM1064.01 15.59H1063.81L1062.61 15H1056.51V14.07H1063.85L1062.43 14.36L1064.42 10.98L1064.83 11.08L1064.01 15.59ZM1057.53 2.47V15H1054.32V14.61L1055.91 14.1V2.47L1054.32 1.95V1.57H1059.12V1.95L1057.53 2.47ZM1070.82 14.61V15H1066.02V14.61L1067.61 14.1V2.47L1066.02 1.95V1.57H1070.82V1.95L1069.23 2.47V14.1L1070.82 14.61ZM1077.37 2.17H1078.99V14.1L1080.57 14.61V15H1075.78V14.61L1077.37 14.1V2.17ZM1083.36 2.49H1072.99L1073.92 2.3L1072.54 5.21L1072.09 5.12L1072.5 0.879999H1072.68L1074.09 1.73L1073.22 1.57H1083.13L1082.26 1.73L1083.68 0.879999H1083.86L1084.26 5.12L1083.81 5.21L1082.44 2.3L1083.36 2.49ZM1086.06 2.49L1084.57 1.95V1.57H1089.72V1.95L1088.06 2.47L1092.4 8.74L1091.78 8.72L1095.26 2.47L1093.62 1.95V1.57H1097.89V1.95L1096.36 2.47L1092.37 9.1V14.1L1093.96 14.61V15H1089.16V14.61L1090.75 14.1V9.16L1086.06 2.49ZM1098.63 12.75C1098.99 12.75 1099.28 12.8667 1099.51 13.1C1099.73 13.3267 1099.85 13.6067 1099.85 13.94C1099.85 14.2733 1099.73 14.5567 1099.51 14.79C1099.28 15.0233 1098.99 15.14 1098.63 15.14C1098.28 15.14 1097.99 15.0233 1097.76 14.79C1097.53 14.5567 1097.42 14.2733 1097.42 13.94C1097.42 13.6067 1097.53 13.3267 1097.76 13.1C1097.99 12.8667 1098.28 12.75 1098.63 12.75ZM1110.12 2.21H1113.24V13.99L1114.7 14.57V15H1108.66V14.57L1110.12 13.99V2.21ZM1116.88 2.78H1106.23L1107.5 2.44L1105.73 5.63L1105.11 5.5L1105.54 0.84H1105.9L1107.62 1.81L1106.46 1.57H1116.65L1115.84 1.81L1117.56 0.84H1117.92L1118.35 5.5L1117.74 5.63L1115.97 2.44L1116.88 2.78ZM1126.37 1.3C1127.4 1.3 1128.34 1.46667 1129.19 1.8C1130.04 2.12667 1130.77 2.59667 1131.38 3.21C1131.99 3.82333 1132.46 4.55667 1132.8 5.41C1133.13 6.26333 1133.3 7.21333 1133.3 8.26C1133.3 9.29333 1133.12 10.24 1132.77 11.1C1132.41 11.9533 1131.91 12.6933 1131.27 13.32C1130.63 13.94 1129.87 14.42 1128.99 14.76C1128.11 15.0933 1127.15 15.26 1126.09 15.26C1125.05 15.26 1124.11 15.0967 1123.27 14.77C1122.42 14.4367 1121.69 13.9667 1121.08 13.36C1120.46 12.7467 1119.99 12.0133 1119.66 11.16C1119.33 10.3 1119.17 9.35 1119.17 8.31C1119.17 7.27 1119.34 6.32333 1119.69 5.47C1120.04 4.61 1120.54 3.87 1121.18 3.25C1121.82 2.63 1122.58 2.15 1123.46 1.81C1124.34 1.47 1125.31 1.3 1126.37 1.3ZM1126.33 13.96C1127.05 13.96 1127.69 13.7733 1128.25 13.4C1128.81 13.0267 1129.24 12.4633 1129.56 11.71C1129.88 10.9567 1130.04 10.01 1130.04 8.87C1130.04 7.48333 1129.87 6.32667 1129.54 5.4C1129.2 4.47333 1128.74 3.77667 1128.16 3.31C1127.57 2.83667 1126.89 2.6 1126.13 2.6C1125.41 2.6 1124.77 2.78667 1124.21 3.16C1123.65 3.53333 1123.22 4.09667 1122.9 4.85C1122.58 5.60333 1122.43 6.55333 1122.43 7.7C1122.43 9.08 1122.59 10.2367 1122.92 11.17C1123.25 12.0967 1123.71 12.7933 1124.3 13.26C1124.89 13.7267 1125.57 13.96 1126.33 13.96ZM1152.39 13.95L1153.9 14.57V15H1147.63V14.57L1149.2 14.05L1148.42 3.61L1148.54 3.63L1144.02 15.07H1142.09L1137.41 3.64L1137.55 3.61L1136.93 13.95L1138.51 14.57V15H1134.09V14.57L1135.67 13.95L1136.44 2.68L1134.81 2V1.57H1139.98L1144.15 11.98H1143.93L1148.04 1.57H1152.93V2L1151.44 2.58L1152.39 13.95ZM1161.86 1.3C1162.89 1.3 1163.83 1.46667 1164.68 1.8C1165.53 2.12667 1166.26 2.59667 1166.87 3.21C1167.48 3.82333 1167.95 4.55667 1168.29 5.41C1168.62 6.26333 1168.79 7.21333 1168.79 8.26C1168.79 9.29333 1168.61 10.24 1168.26 11.1C1167.9 11.9533 1167.4 12.6933 1166.76 13.32C1166.12 13.94 1165.36 14.42 1164.48 14.76C1163.6 15.0933 1162.64 15.26 1161.58 15.26C1160.54 15.26 1159.6 15.0967 1158.76 14.77C1157.91 14.4367 1157.18 13.9667 1156.57 13.36C1155.95 12.7467 1155.48 12.0133 1155.15 11.16C1154.82 10.3 1154.66 9.35 1154.66 8.31C1154.66 7.27 1154.83 6.32333 1155.18 5.47C1155.53 4.61 1156.03 3.87 1156.67 3.25C1157.31 2.63 1158.07 2.15 1158.95 1.81C1159.83 1.47 1160.8 1.3 1161.86 1.3ZM1161.82 13.96C1162.54 13.96 1163.18 13.7733 1163.74 13.4C1164.3 13.0267 1164.73 12.4633 1165.05 11.71C1165.37 10.9567 1165.53 10.01 1165.53 8.87C1165.53 7.48333 1165.36 6.32667 1165.03 5.4C1164.69 4.47333 1164.23 3.77667 1163.65 3.31C1163.06 2.83667 1162.38 2.6 1161.62 2.6C1160.9 2.6 1160.26 2.78667 1159.7 3.16C1159.14 3.53333 1158.71 4.09667 1158.39 4.85C1158.07 5.60333 1157.92 6.55333 1157.92 7.7C1157.92 9.08 1158.08 10.2367 1158.41 11.17C1158.74 12.0967 1159.2 12.7933 1159.79 13.26C1160.38 13.7267 1161.06 13.96 1161.82 13.96ZM1176.29 7.64C1177.03 7.64 1177.63 7.43333 1178.09 7.02C1178.55 6.60667 1178.79 6.00667 1178.79 5.22C1178.79 4.7 1178.69 4.26 1178.49 3.9C1178.29 3.53333 1177.97 3.25667 1177.53 3.07C1177.09 2.87667 1176.51 2.78 1175.8 2.78H1172.06L1172.63 1.57H1177.22C1178.34 1.57 1179.24 1.72333 1179.92 2.03C1180.6 2.33 1181.1 2.73333 1181.41 3.24C1181.72 3.74667 1181.88 4.31 1181.88 4.93C1181.88 5.53 1181.73 6.07 1181.45 6.55C1181.17 7.03 1180.75 7.42333 1180.19 7.73C1179.63 8.03667 1178.94 8.23 1178.1 8.31V8.26C1178.74 8.28667 1179.24 8.37667 1179.61 8.53C1179.97 8.67667 1180.26 8.9 1180.46 9.2C1180.66 9.49333 1180.84 9.87667 1181 10.35L1181.8 12.83C1181.94 13.27 1182.08 13.59 1182.22 13.79C1182.36 13.9833 1182.52 14.1067 1182.71 14.16C1182.9 14.2067 1183.14 14.23 1183.42 14.23V15.03C1182.5 15.0967 1181.75 15.1167 1181.17 15.09C1180.59 15.07 1180.13 14.99 1179.8 14.85C1179.46 14.7033 1179.21 14.49 1179.03 14.21C1178.85 13.93 1178.7 13.57 1178.58 13.13L1177.9 10.66C1177.76 10.18 1177.63 9.81 1177.49 9.55C1177.35 9.29 1177.17 9.11 1176.96 9.01C1176.74 8.90333 1176.46 8.85 1176.1 8.85H1172.53L1171.95 7.64H1176.29ZM1174.6 1.57V13.99L1176.05 14.57V15H1170.01V14.57L1171.47 13.99V2.58L1170.01 2V1.57H1174.6ZM1190.35 7.64C1191.09 7.64 1191.69 7.43333 1192.15 7.02C1192.62 6.60667 1192.85 6.00667 1192.85 5.22C1192.85 4.7 1192.75 4.26 1192.55 3.9C1192.35 3.53333 1192.03 3.25667 1191.59 3.07C1191.15 2.87667 1190.57 2.78 1189.86 2.78H1186.12L1186.69 1.57H1191.28C1192.4 1.57 1193.3 1.72333 1193.98 2.03C1194.67 2.33 1195.16 2.73333 1195.47 3.24C1195.78 3.74667 1195.94 4.31 1195.94 4.93C1195.94 5.53 1195.8 6.07 1195.51 6.55C1195.23 7.03 1194.81 7.42333 1194.25 7.73C1193.7 8.03667 1193 8.23 1192.16 8.31V8.26C1192.8 8.28667 1193.3 8.37667 1193.67 8.53C1194.04 8.67667 1194.32 8.9 1194.52 9.2C1194.73 9.49333 1194.91 9.87667 1195.06 10.35L1195.86 12.83C1196 13.27 1196.14 13.59 1196.28 13.79C1196.42 13.9833 1196.58 14.1067 1196.77 14.16C1196.96 14.2067 1197.2 14.23 1197.48 14.23V15.03C1196.56 15.0967 1195.81 15.1167 1195.23 15.09C1194.65 15.07 1194.19 14.99 1193.86 14.85C1193.53 14.7033 1193.27 14.49 1193.09 14.21C1192.91 13.93 1192.76 13.57 1192.64 13.13L1191.96 10.66C1191.83 10.18 1191.69 9.81 1191.55 9.55C1191.41 9.29 1191.23 9.11 1191.02 9.01C1190.81 8.90333 1190.52 8.85 1190.16 8.85H1186.59L1186.01 7.64H1190.35ZM1188.66 1.57V13.99L1190.11 14.57V15H1184.07V14.57L1185.53 13.99V2.58L1184.07 2V1.57H1188.66ZM1205.16 1.3C1206.19 1.3 1207.13 1.46667 1207.98 1.8C1208.83 2.12667 1209.56 2.59667 1210.17 3.21C1210.78 3.82333 1211.25 4.55667 1211.59 5.41C1211.92 6.26333 1212.09 7.21333 1212.09 8.26C1212.09 9.29333 1211.91 10.24 1211.56 11.1C1211.2 11.9533 1210.7 12.6933 1210.06 13.32C1209.42 13.94 1208.66 14.42 1207.78 14.76C1206.9 15.0933 1205.94 15.26 1204.88 15.26C1203.84 15.26 1202.9 15.0967 1202.06 14.77C1201.21 14.4367 1200.48 13.9667 1199.87 13.36C1199.25 12.7467 1198.78 12.0133 1198.45 11.16C1198.12 10.3 1197.96 9.35 1197.96 8.31C1197.96 7.27 1198.13 6.32333 1198.48 5.47C1198.83 4.61 1199.33 3.87 1199.97 3.25C1200.61 2.63 1201.37 2.15 1202.25 1.81C1203.13 1.47 1204.1 1.3 1205.16 1.3ZM1205.12 13.96C1205.84 13.96 1206.48 13.7733 1207.04 13.4C1207.6 13.0267 1208.03 12.4633 1208.35 11.71C1208.67 10.9567 1208.83 10.01 1208.83 8.87C1208.83 7.48333 1208.66 6.32667 1208.33 5.4C1207.99 4.47333 1207.53 3.77667 1206.95 3.31C1206.36 2.83667 1205.68 2.6 1204.92 2.6C1204.2 2.6 1203.56 2.78667 1203 3.16C1202.44 3.53333 1202.01 4.09667 1201.69 4.85C1201.37 5.60333 1201.22 6.55333 1201.22 7.7C1201.22 9.08 1201.38 10.2367 1201.71 11.17C1202.04 12.0967 1202.5 12.7933 1203.09 13.26C1203.68 13.7267 1204.36 13.96 1205.12 13.96ZM1223.03 4.23L1219.11 15.07H1217.14L1213.59 2.61L1212.11 2V1.57H1218.57V2L1216.91 2.59L1219.58 12.34L1218.88 12.37L1222.66 1.5H1224.66L1228.74 12.48L1227.9 12.61L1230.25 2.59L1228.63 2V1.57H1233.01V2L1231.57 2.59L1228.33 15.07H1226.36L1222.26 4.35L1223.03 4.23ZM1242.05 2.1L1240.47 1.84L1241.74 0.86H1242.09L1242.88 5.56L1242.27 5.7L1240.11 2.48L1240.81 3.28C1240.46 3.02 1240.08 2.82333 1239.69 2.69C1239.3 2.55667 1238.91 2.49 1238.5 2.49C1237.67 2.49 1237.07 2.65 1236.69 2.97C1236.32 3.28333 1236.13 3.70667 1236.13 4.24C1236.13 4.60667 1236.23 4.91667 1236.42 5.17C1236.61 5.41667 1236.87 5.63 1237.2 5.81C1237.53 5.99 1237.91 6.15333 1238.32 6.3C1238.73 6.44 1239.16 6.58667 1239.61 6.74C1240.06 6.9 1240.5 7.08333 1240.95 7.29C1241.4 7.49667 1241.8 7.75333 1242.17 8.06C1242.54 8.36 1242.84 8.74 1243.06 9.2C1243.29 9.65333 1243.4 10.2033 1243.4 10.85C1243.4 11.8167 1243.16 12.6267 1242.67 13.28C1242.19 13.9333 1241.54 14.4267 1240.71 14.76C1239.88 15.0933 1238.95 15.26 1237.9 15.26C1237.19 15.26 1236.54 15.2167 1235.97 15.13C1235.4 15.0433 1234.81 14.8867 1234.18 14.66L1233.31 10.79H1233.93L1236.92 14.66L1234.64 13.23C1235.17 13.51 1235.65 13.71 1236.07 13.83C1236.5 13.95 1236.95 14.01 1237.42 14.01C1238.15 14.01 1238.74 13.93 1239.2 13.77C1239.67 13.61 1240.01 13.3733 1240.24 13.06C1240.47 12.74 1240.58 12.35 1240.58 11.89C1240.58 11.45 1240.46 11.0867 1240.23 10.8C1240 10.5067 1239.69 10.2633 1239.31 10.07C1238.94 9.87667 1238.52 9.71 1238.07 9.57C1237.62 9.42333 1237.19 9.27 1236.76 9.11C1236.33 8.95 1235.92 8.77 1235.53 8.57C1235.14 8.36333 1234.8 8.11667 1234.49 7.83C1234.19 7.53667 1233.95 7.18 1233.78 6.76C1233.61 6.34 1233.52 5.83333 1233.52 5.24C1233.52 4.44 1233.73 3.74667 1234.14 3.16C1234.55 2.57333 1235.14 2.11667 1235.9 1.79C1236.66 1.46333 1237.56 1.3 1238.59 1.3C1239.23 1.3 1239.82 1.36333 1240.37 1.49C1240.92 1.61 1241.48 1.81333 1242.05 2.1ZM1253.52 13.99L1254.97 14.57V15H1248.94V14.57L1250.39 13.99V2.58L1248.94 2V1.57H1254.97V2L1253.52 2.58V13.99ZM1262.73 13.99L1264.19 14.57V15H1258.15V14.57L1259.61 13.99V2.58L1258.15 2V1.57H1264.19V2L1262.73 2.58V13.99ZM1251.79 8.74V7.53H1261.33V8.74H1251.79ZM1274.46 5.31L1274.44 7.95L1274.46 10.59H1273.5L1273.24 8.56L1268.54 8.55V7.35L1273.24 7.34L1273.5 5.31H1274.46ZM1277.23 5.47L1276.66 5.61L1274.48 2.32L1275.33 2.78H1268.5V1.57H1274.88L1276.12 0.899999H1276.42L1277.23 5.47ZM1274.82 14.24L1277.16 10.68L1277.66 10.81L1276.8 15.73H1276.47L1275.13 15H1268.5V13.79H1275.48L1274.82 14.24ZM1265.54 15V14.57L1266.99 13.99V2.58L1265.54 2V1.57H1270.12V15H1265.54ZM1281.34 10.54V9.37H1288.13V10.54H1281.34ZM1291.76 13.96L1293.24 14.57V15H1286.75V14.57L1288.41 13.98L1284.16 3.93L1284.59 3.92L1280.58 13.98L1282.14 14.57V15H1277.69V14.57L1279.22 13.98L1284.38 1.5H1286.35L1291.76 13.96ZM1304.52 8.11C1304.52 6.27 1304.07 4.92333 1303.17 4.07C1302.28 3.21 1301.05 2.78 1299.49 2.78H1296.74L1296.48 1.57H1299.97C1301.72 1.57 1303.17 1.8 1304.32 2.26C1305.48 2.72 1306.35 3.42 1306.92 4.36C1307.5 5.29333 1307.79 6.47 1307.79 7.89C1307.79 9.39 1307.45 10.67 1306.77 11.73C1306.09 12.79 1305.16 13.6 1303.98 14.16C1302.8 14.72 1301.47 15 1299.99 15H1296.48L1296.74 13.79H1299.67C1300.64 13.79 1301.49 13.5967 1302.22 13.21C1302.95 12.8233 1303.51 12.2133 1303.91 11.38C1304.32 10.54 1304.52 9.45 1304.52 8.11ZM1293.65 15V14.57L1295.1 13.99V2.58L1293.65 2V1.57H1298.23V15H1293.65ZM1319.84 15.8H1319.44L1318 15H1311.98V13.79H1318.61L1317.69 14.21L1320.27 10.4L1320.83 10.54L1319.84 15.8ZM1313.6 2.58V15H1309.02V14.57L1310.47 13.99V2.58L1309.02 2V1.57H1315.05V2L1313.6 2.58ZM1327.75 14.57V15H1321.72V14.57L1323.17 13.99V2.58L1321.72 2V1.57H1327.75V2L1326.3 2.58V13.99L1327.75 14.57ZM1330.59 13.99V2.77L1328.94 1.95V1.57H1333.97L1341.23 11.77L1340.43 12.27V2.58L1338.82 2V1.57H1343.05V2L1341.6 2.58V15.07H1339.69L1331.27 3.01L1331.75 2.66V13.99L1333.36 14.57V15H1329.13V14.57L1330.59 13.99ZM1353.19 5.31L1353.17 7.95L1353.19 10.59H1352.23L1351.97 8.56L1347.27 8.55V7.35L1351.97 7.34L1352.23 5.31H1353.19ZM1355.96 5.47L1355.39 5.61L1353.21 2.32L1354.06 2.78H1347.23V1.57H1353.61L1354.85 0.899999H1355.15L1355.96 5.47ZM1353.55 14.24L1355.89 10.68L1356.39 10.81L1355.53 15.73H1355.2L1353.86 15H1347.23V13.79H1354.21L1353.55 14.24ZM1344.27 15V14.57L1345.72 13.99V2.58L1344.27 2V1.57H1348.85V15H1344.27ZM1359.5 11.93C1359.98 11.93 1360.38 12.09 1360.7 12.41C1361.01 12.73 1361.17 13.1167 1361.17 13.57C1361.17 14.0233 1361.01 14.41 1360.7 14.73C1360.38 15.05 1359.98 15.21 1359.5 15.21C1359.01 15.21 1358.61 15.05 1358.29 14.73C1357.97 14.41 1357.82 14.0233 1357.82 13.57C1357.82 13.1167 1357.97 12.73 1358.29 12.41C1358.61 12.09 1359.01 11.93 1359.5 11.93ZM1359.5 6.1C1359.98 6.1 1360.38 6.26 1360.7 6.58C1361.01 6.89333 1361.17 7.27667 1361.17 7.73C1361.17 8.18333 1361.01 8.57 1360.7 8.89C1360.38 9.21 1359.98 9.37 1359.5 9.37C1359.01 9.37 1358.61 9.21 1358.29 8.89C1357.97 8.57 1357.82 8.18333 1357.82 7.73C1357.82 7.27667 1357.97 6.89333 1358.29 6.58C1358.61 6.26 1359.01 6.1 1359.5 6.1ZM1375.12 14.32C1375.65 14.32 1376.15 14.2767 1376.63 14.19C1377.11 14.1033 1377.6 13.9633 1378.09 13.77L1377.63 14.14L1379.03 11.45H1379.55L1379.2 14.43C1378.75 14.65 1378.15 14.8333 1377.41 14.98C1376.67 15.1267 1375.88 15.2 1375.04 15.2C1373.93 15.2 1372.91 15.0467 1371.99 14.74C1371.08 14.4333 1370.29 13.9867 1369.62 13.4C1368.95 12.8133 1368.44 12.1 1368.08 11.26C1367.72 10.4133 1367.54 9.45667 1367.54 8.39C1367.54 6.97 1367.85 5.73333 1368.47 4.68C1369.1 3.62667 1370 2.81333 1371.17 2.24C1372.34 1.66 1373.75 1.37 1375.39 1.37C1375.8 1.37 1376.22 1.39667 1376.63 1.45C1377.04 1.49667 1377.53 1.58667 1378.1 1.72L1377.56 1.82L1378.8 0.99H1378.98L1379.57 5.58L1379.12 5.67L1377.49 2.66L1377.89 3.06C1377.32 2.76 1376.81 2.55333 1376.36 2.44C1375.91 2.32667 1375.43 2.27 1374.92 2.27C1373.99 2.27 1373.17 2.39667 1372.46 2.65C1371.76 2.89667 1371.17 3.25667 1370.7 3.73C1370.23 4.19667 1369.87 4.77 1369.63 5.45C1369.39 6.12333 1369.27 6.88667 1369.27 7.74C1369.27 8.79333 1369.42 9.73 1369.71 10.55C1370 11.3633 1370.41 12.05 1370.94 12.61C1371.47 13.17 1372.08 13.5967 1372.79 13.89C1373.5 14.1767 1374.28 14.32 1375.12 14.32ZM1388.05 1.37C1389.03 1.37 1389.93 1.54 1390.74 1.88C1391.56 2.21333 1392.27 2.68667 1392.87 3.3C1393.48 3.90667 1393.94 4.63333 1394.27 5.48C1394.6 6.32 1394.77 7.24667 1394.77 8.26C1394.77 9.28 1394.61 10.2133 1394.28 11.06C1393.95 11.9 1393.49 12.6333 1392.88 13.26C1392.28 13.88 1391.57 14.36 1390.76 14.7C1389.95 15.0333 1389.06 15.2 1388.08 15.2C1387.11 15.2 1386.21 15.0333 1385.39 14.7C1384.58 14.36 1383.87 13.8833 1383.26 13.27C1382.66 12.6567 1382.19 11.93 1381.86 11.09C1381.53 10.2433 1381.37 9.31333 1381.37 8.3C1381.37 7.28667 1381.53 6.35667 1381.86 5.51C1382.19 4.66333 1382.65 3.93 1383.25 3.31C1383.86 2.69 1384.57 2.21333 1385.38 1.88C1386.19 1.54 1387.08 1.37 1388.05 1.37ZM1388.15 14.3C1389.15 14.3 1390.01 14.0667 1390.74 13.6C1391.47 13.1333 1392.03 12.4733 1392.42 11.62C1392.81 10.76 1393.01 9.74667 1393.01 8.58C1393.01 7.24 1392.79 6.10333 1392.36 5.17C1391.93 4.23 1391.34 3.51333 1390.58 3.02C1389.83 2.52 1388.96 2.27 1387.98 2.27C1386.98 2.27 1386.12 2.50333 1385.39 2.97C1384.66 3.43667 1384.1 4.09667 1383.71 4.95C1383.32 5.80333 1383.12 6.81333 1383.12 7.98C1383.12 9.31333 1383.33 10.4533 1383.76 11.4C1384.19 12.34 1384.79 13.06 1385.55 13.56C1386.31 14.0533 1387.18 14.3 1388.15 14.3ZM1397.94 14.1V2.63L1396.3 1.95V1.57H1399.47L1407.74 12.5L1407.27 13.46V2.47L1405.55 1.95V1.57H1409.81V1.95L1408.22 2.47V15.19H1407.79L1398.56 3.01L1398.89 2.65V14.1L1400.61 14.61V15H1396.36V14.61L1397.94 14.1ZM1411.79 2.49L1410.31 1.95V1.57H1415.24V1.95L1413.5 2.47L1418.09 13.52H1417.43L1421.49 2.47L1419.85 1.95V1.57H1423.99V1.95L1422.46 2.47L1417.61 15.2H1417.14L1411.79 2.49ZM1432.75 5.32L1432.73 7.95L1432.75 10.58H1432.02L1431.77 8.42L1426.92 8.41V7.5L1431.77 7.49L1432.02 5.32H1432.75ZM1435.3 5.35L1434.83 5.44L1433.17 2.28L1433.76 2.49H1426.92V1.57H1433.36L1434.49 1.07H1434.65L1435.3 5.35ZM1433.35 14.33L1435.18 11.18L1435.59 11.29L1434.85 15.59H1434.7L1433.54 15H1426.92V14.07H1433.84L1433.35 14.33ZM1424.73 15V14.61L1426.32 14.1V2.47L1424.73 1.95V1.57H1427.94V15H1424.73ZM1438.74 14.1V2.63L1437.1 1.95V1.57H1440.27L1448.54 12.5L1448.07 13.46V2.47L1446.35 1.95V1.57H1450.61V1.95L1449.02 2.47V15.19H1448.59L1439.36 3.01L1439.69 2.65V14.1L1441.41 14.61V15H1437.16V14.61L1438.74 14.1ZM1457.02 2.17H1458.64V14.1L1460.22 14.61V15H1455.43V14.61L1457.02 14.1V2.17ZM1463.01 2.49H1452.64L1453.57 2.3L1452.19 5.21L1451.74 5.12L1452.15 0.879999H1452.33L1453.74 1.73L1452.87 1.57H1462.78L1461.91 1.73L1463.33 0.879999H1463.51L1463.91 5.12L1463.46 5.21L1462.09 2.3L1463.01 2.49ZM1471.66 1.37C1472.64 1.37 1473.54 1.54 1474.35 1.88C1475.17 2.21333 1475.88 2.68667 1476.48 3.3C1477.09 3.90667 1477.56 4.63333 1477.88 5.48C1478.22 6.32 1478.38 7.24667 1478.38 8.26C1478.38 9.28 1478.22 10.2133 1477.89 11.06C1477.57 11.9 1477.1 12.6333 1476.49 13.26C1475.89 13.88 1475.19 14.36 1474.37 14.7C1473.57 15.0333 1472.67 15.2 1471.69 15.2C1470.72 15.2 1469.82 15.0333 1469 14.7C1468.19 14.36 1467.48 13.8833 1466.87 13.27C1466.27 12.6567 1465.81 11.93 1465.47 11.09C1465.15 10.2433 1464.98 9.31333 1464.98 8.3C1464.98 7.28667 1465.15 6.35667 1465.47 5.51C1465.8 4.66333 1466.26 3.93 1466.86 3.31C1467.47 2.69 1468.18 2.21333 1468.99 1.88C1469.81 1.54 1470.7 1.37 1471.66 1.37ZM1471.76 14.3C1472.76 14.3 1473.63 14.0667 1474.35 13.6C1475.08 13.1333 1475.64 12.4733 1476.03 11.62C1476.43 10.76 1476.62 9.74667 1476.62 8.58C1476.62 7.24 1476.41 6.10333 1475.97 5.17C1475.55 4.23 1474.95 3.51333 1474.19 3.02C1473.44 2.52 1472.57 2.27 1471.59 2.27C1470.59 2.27 1469.73 2.50333 1469 2.97C1468.28 3.43667 1467.72 4.09667 1467.32 4.95C1466.93 5.80333 1466.73 6.81333 1466.73 7.98C1466.73 9.31333 1466.95 10.4533 1467.37 11.4C1467.81 12.34 1468.4 13.06 1469.16 13.56C1469.92 14.0533 1470.79 14.3 1471.76 14.3ZM1492.54 2.2L1491.09 1.81L1492.31 0.99H1492.48L1493.1 5.41L1492.66 5.48L1490.93 2.39L1491.29 2.86C1490.94 2.60667 1490.58 2.42667 1490.22 2.32C1489.86 2.21333 1489.47 2.16 1489.04 2.16C1488.18 2.16 1487.51 2.36333 1487.04 2.77C1486.57 3.17667 1486.33 3.71667 1486.33 4.39C1486.33 4.83667 1486.42 5.21333 1486.6 5.52C1486.79 5.82667 1487.04 6.08667 1487.36 6.3C1487.69 6.51333 1488.05 6.7 1488.46 6.86C1488.87 7.02 1489.29 7.18 1489.74 7.34C1490.19 7.5 1490.63 7.67667 1491.07 7.87C1491.52 8.05667 1491.92 8.29 1492.28 8.57C1492.65 8.85 1492.94 9.20333 1493.16 9.63C1493.38 10.05 1493.49 10.5667 1493.49 11.18C1493.49 12.04 1493.29 12.77 1492.88 13.37C1492.47 13.9633 1491.91 14.4167 1491.2 14.73C1490.49 15.0433 1489.67 15.2 1488.74 15.2C1488.09 15.2 1487.52 15.1533 1487.02 15.06C1486.52 14.9733 1486 14.82 1485.46 14.6L1484.59 11.13H1485.16L1487.53 14.6L1485.87 13.55C1486.39 13.83 1486.86 14.0367 1487.27 14.17C1487.68 14.3033 1488.12 14.37 1488.59 14.37C1489.32 14.37 1489.95 14.2733 1490.48 14.08C1491.01 13.8867 1491.41 13.5967 1491.69 13.21C1491.97 12.8167 1492.11 12.3267 1492.11 11.74C1492.11 11.22 1491.99 10.79 1491.76 10.45C1491.53 10.11 1491.23 9.82667 1490.84 9.6C1490.46 9.37333 1490.04 9.18 1489.59 9.02C1489.14 8.85333 1488.7 8.68667 1488.26 8.52C1487.82 8.35333 1487.41 8.17333 1487.02 7.98C1486.64 7.78 1486.3 7.54667 1486.01 7.28C1485.72 7.01333 1485.49 6.69333 1485.32 6.32C1485.16 5.94 1485.08 5.48667 1485.08 4.96C1485.08 4.22 1485.25 3.58333 1485.59 3.05C1485.94 2.51667 1486.43 2.10333 1487.07 1.81C1487.71 1.51667 1488.46 1.37 1489.33 1.37C1489.92 1.37 1490.47 1.43667 1490.98 1.57C1491.49 1.70333 1492.01 1.91333 1492.54 2.2ZM1500.16 2.17H1501.78V14.1L1503.36 14.61V15H1498.57V14.61L1500.16 14.1V2.17ZM1506.15 2.49H1495.78L1496.71 2.3L1495.33 5.21L1494.88 5.12L1495.29 0.879999H1495.47L1496.88 1.73L1496.01 1.57H1505.92L1505.05 1.73L1506.47 0.879999H1506.65L1507.05 5.12L1506.6 5.21L1505.23 2.3L1506.15 2.49ZM1514.81 1.37C1515.79 1.37 1516.68 1.54 1517.5 1.88C1518.32 2.21333 1519.03 2.68667 1519.63 3.3C1520.23 3.90667 1520.7 4.63333 1521.03 5.48C1521.36 6.32 1521.53 7.24667 1521.53 8.26C1521.53 9.28 1521.36 10.2133 1521.04 11.06C1520.71 11.9 1520.24 12.6333 1519.64 13.26C1519.04 13.88 1518.33 14.36 1517.52 14.7C1516.71 15.0333 1515.82 15.2 1514.84 15.2C1513.86 15.2 1512.97 15.0333 1512.15 14.7C1511.33 14.36 1510.62 13.8833 1510.02 13.27C1509.42 12.6567 1508.95 11.93 1508.62 11.09C1508.29 10.2433 1508.13 9.31333 1508.13 8.3C1508.13 7.28667 1508.29 6.35667 1508.62 5.51C1508.94 4.66333 1509.41 3.93 1510.01 3.31C1510.61 2.69 1511.32 2.21333 1512.14 1.88C1512.95 1.54 1513.84 1.37 1514.81 1.37ZM1514.91 14.3C1515.91 14.3 1516.77 14.0667 1517.5 13.6C1518.22 13.1333 1518.78 12.4733 1519.18 11.62C1519.57 10.76 1519.77 9.74667 1519.77 8.58C1519.77 7.24 1519.55 6.10333 1519.12 5.17C1518.69 4.23 1518.1 3.51333 1517.34 3.02C1516.58 2.52 1515.72 2.27 1514.74 2.27C1513.74 2.27 1512.87 2.50333 1512.15 2.97C1511.42 3.43667 1510.86 4.09667 1510.47 4.95C1510.07 5.80333 1509.88 6.81333 1509.88 7.98C1509.88 9.31333 1510.09 10.4533 1510.52 11.4C1510.95 12.34 1511.55 13.06 1512.31 13.56C1513.07 14.0533 1513.93 14.3 1514.91 14.3ZM1530.98 14.32C1531.51 14.32 1532.01 14.2767 1532.49 14.19C1532.97 14.1033 1533.46 13.9633 1533.95 13.77L1533.49 14.14L1534.89 11.45H1535.41L1535.06 14.43C1534.61 14.65 1534.01 14.8333 1533.27 14.98C1532.53 15.1267 1531.74 15.2 1530.9 15.2C1529.79 15.2 1528.77 15.0467 1527.85 14.74C1526.94 14.4333 1526.15 13.9867 1525.48 13.4C1524.81 12.8133 1524.3 12.1 1523.94 11.26C1523.58 10.4133 1523.4 9.45667 1523.4 8.39C1523.4 6.97 1523.71 5.73333 1524.33 4.68C1524.96 3.62667 1525.86 2.81333 1527.03 2.24C1528.2 1.66 1529.61 1.37 1531.25 1.37C1531.66 1.37 1532.08 1.39667 1532.49 1.45C1532.9 1.49667 1533.39 1.58667 1533.96 1.72L1533.42 1.82L1534.66 0.99H1534.84L1535.43 5.58L1534.98 5.67L1533.35 2.66L1533.75 3.06C1533.18 2.76 1532.67 2.55333 1532.22 2.44C1531.77 2.32667 1531.29 2.27 1530.78 2.27C1529.85 2.27 1529.03 2.39667 1528.32 2.65C1527.62 2.89667 1527.03 3.25667 1526.56 3.73C1526.09 4.19667 1525.73 4.77 1525.49 5.45C1525.25 6.12333 1525.13 6.88667 1525.13 7.74C1525.13 8.79333 1525.28 9.73 1525.57 10.55C1525.86 11.3633 1526.27 12.05 1526.8 12.61C1527.33 13.17 1527.94 13.5967 1528.65 13.89C1529.36 14.1767 1530.14 14.32 1530.98 14.32ZM1549.09 14.06L1550.63 14.61V15H1545.41V14.61L1546.94 14.09L1541.67 8.5H1539.77V7.6H1541.77L1546.76 2.42L1545.19 1.95V1.57H1549.54V1.95L1548 2.47L1542.36 8.04L1542.72 7.44L1549.09 14.06ZM1540.34 2.47V14.1L1541.93 14.61V15H1537.13V14.61L1538.72 14.1V2.47L1537.13 1.95V1.57H1541.93V1.95L1540.34 2.47ZM1558.54 14.1L1560.13 14.61V15H1555.33V14.61L1556.92 14.1V2.47L1555.33 1.95V1.57H1560.13V1.95L1558.54 2.47V14.1ZM1567.68 14.1L1569.27 14.61V15H1564.48V14.61L1566.06 14.1V2.47L1564.48 1.95V1.57H1569.27V1.95L1567.68 2.47V14.1ZM1557.53 8.61V7.69H1567.07V8.61H1557.53ZM1575.76 14.61V15H1570.96V14.61L1572.55 14.1V2.47L1570.96 1.95V1.57H1575.76V1.95L1574.17 2.47V14.1L1575.76 14.61ZM1582.31 2.17H1583.93V14.1L1585.51 14.61V15H1580.72V14.61L1582.31 14.1V2.17ZM1588.3 2.49H1577.93L1578.86 2.3L1577.48 5.21L1577.03 5.12L1577.44 0.879999H1577.62L1579.03 1.73L1578.16 1.57H1588.07L1587.2 1.73L1588.62 0.879999H1588.8L1589.2 5.12L1588.75 5.21L1587.38 2.3L1588.3 2.49ZM1598.28 2.2L1596.83 1.81L1598.05 0.99H1598.22L1598.84 5.41L1598.4 5.48L1596.67 2.39L1597.03 2.86C1596.68 2.60667 1596.32 2.42667 1595.96 2.32C1595.6 2.21333 1595.21 2.16 1594.78 2.16C1593.92 2.16 1593.26 2.36333 1592.78 2.77C1592.31 3.17667 1592.07 3.71667 1592.07 4.39C1592.07 4.83667 1592.16 5.21333 1592.34 5.52C1592.53 5.82667 1592.78 6.08667 1593.1 6.3C1593.43 6.51333 1593.8 6.7 1594.2 6.86C1594.61 7.02 1595.04 7.18 1595.48 7.34C1595.93 7.5 1596.37 7.67667 1596.81 7.87C1597.26 8.05667 1597.66 8.29 1598.02 8.57C1598.39 8.85 1598.68 9.20333 1598.9 9.63C1599.12 10.05 1599.23 10.5667 1599.23 11.18C1599.23 12.04 1599.03 12.77 1598.62 13.37C1598.22 13.9633 1597.66 14.4167 1596.94 14.73C1596.24 15.0433 1595.42 15.2 1594.48 15.2C1593.84 15.2 1593.26 15.1533 1592.76 15.06C1592.26 14.9733 1591.74 14.82 1591.2 14.6L1590.33 11.13H1590.9L1593.27 14.6L1591.61 13.55C1592.13 13.83 1592.6 14.0367 1593.01 14.17C1593.43 14.3033 1593.87 14.37 1594.33 14.37C1595.07 14.37 1595.7 14.2733 1596.22 14.08C1596.75 13.8867 1597.15 13.5967 1597.43 13.21C1597.71 12.8167 1597.85 12.3267 1597.85 11.74C1597.85 11.22 1597.74 10.79 1597.5 10.45C1597.28 10.11 1596.97 9.82667 1596.58 9.6C1596.2 9.37333 1595.79 9.18 1595.33 9.02C1594.89 8.85333 1594.44 8.68667 1594 8.52C1593.56 8.35333 1593.15 8.17333 1592.76 7.98C1592.38 7.78 1592.05 7.54667 1591.75 7.28C1591.46 7.01333 1591.23 6.69333 1591.06 6.32C1590.9 5.94 1590.82 5.48667 1590.82 4.96C1590.82 4.22 1590.99 3.58333 1591.33 3.05C1591.68 2.51667 1592.17 2.10333 1592.81 1.81C1593.45 1.51667 1594.21 1.37 1595.07 1.37C1595.67 1.37 1596.22 1.43667 1596.72 1.57C1597.24 1.70333 1597.76 1.91333 1598.28 2.2ZM1621.71 14.1L1623.29 14.61V15H1618.52V14.61L1620.1 14.1L1619.33 2.98L1619.47 3.01L1614.1 15.19H1613.68L1608.23 3.14L1608.37 3.11L1607.7 14.1L1609.29 14.61V15H1605.16V14.61L1606.75 14.1L1607.61 2.53L1605.97 1.95V1.57H1609.31L1614.39 12.94H1614.15L1619.23 1.57H1622.42V1.95L1620.83 2.47L1621.71 14.1ZM1631.14 1.37C1632.12 1.37 1633.01 1.54 1633.83 1.88C1634.65 2.21333 1635.36 2.68667 1635.96 3.3C1636.56 3.90667 1637.03 4.63333 1637.36 5.48C1637.69 6.32 1637.86 7.24667 1637.86 8.26C1637.86 9.28 1637.69 10.2133 1637.37 11.06C1637.04 11.9 1636.57 12.6333 1635.97 13.26C1635.37 13.88 1634.66 14.36 1633.85 14.7C1633.04 15.0333 1632.15 15.2 1631.17 15.2C1630.19 15.2 1629.3 15.0333 1628.48 14.7C1627.66 14.36 1626.95 13.8833 1626.35 13.27C1625.75 12.6567 1625.28 11.93 1624.95 11.09C1624.62 10.2433 1624.46 9.31333 1624.46 8.3C1624.46 7.28667 1624.62 6.35667 1624.95 5.51C1625.27 4.66333 1625.74 3.93 1626.34 3.31C1626.94 2.69 1627.65 2.21333 1628.47 1.88C1629.28 1.54 1630.17 1.37 1631.14 1.37ZM1631.24 14.3C1632.24 14.3 1633.1 14.0667 1633.83 13.6C1634.55 13.1333 1635.11 12.4733 1635.51 11.62C1635.9 10.76 1636.1 9.74667 1636.1 8.58C1636.1 7.24 1635.88 6.10333 1635.45 5.17C1635.02 4.23 1634.43 3.51333 1633.67 3.02C1632.91 2.52 1632.05 2.27 1631.07 2.27C1630.07 2.27 1629.2 2.50333 1628.48 2.97C1627.75 3.43667 1627.19 4.09667 1626.8 4.95C1626.4 5.80333 1626.21 6.81333 1626.21 7.98C1626.21 9.31333 1626.42 10.4533 1626.85 11.4C1627.28 12.34 1627.88 13.06 1628.64 13.56C1629.4 14.0533 1630.26 14.3 1631.24 14.3ZM1646.41 1.37C1647.39 1.37 1648.29 1.54 1649.1 1.88C1649.92 2.21333 1650.63 2.68667 1651.23 3.3C1651.84 3.90667 1652.3 4.63333 1652.63 5.48C1652.96 6.32 1653.13 7.24667 1653.13 8.26C1653.13 9.28 1652.97 10.2133 1652.64 11.06C1652.31 11.9 1651.85 12.6333 1651.24 13.26C1650.64 13.88 1649.93 14.36 1649.12 14.7C1648.31 15.0333 1647.42 15.2 1646.44 15.2C1645.47 15.2 1644.57 15.0333 1643.75 14.7C1642.94 14.36 1642.23 13.8833 1641.62 13.27C1641.02 12.6567 1640.55 11.93 1640.22 11.09C1639.89 10.2433 1639.73 9.31333 1639.73 8.3C1639.73 7.28667 1639.89 6.35667 1640.22 5.51C1640.55 4.66333 1641.01 3.93 1641.61 3.31C1642.22 2.69 1642.93 2.21333 1643.74 1.88C1644.55 1.54 1645.44 1.37 1646.41 1.37ZM1646.51 14.3C1647.51 14.3 1648.37 14.0667 1649.1 13.6C1649.83 13.1333 1650.39 12.4733 1650.78 11.62C1651.17 10.76 1651.37 9.74667 1651.37 8.58C1651.37 7.24 1651.15 6.10333 1650.72 5.17C1650.29 4.23 1649.7 3.51333 1648.94 3.02C1648.19 2.52 1647.32 2.27 1646.34 2.27C1645.34 2.27 1644.48 2.50333 1643.75 2.97C1643.02 3.43667 1642.46 4.09667 1642.07 4.95C1641.68 5.80333 1641.48 6.81333 1641.48 7.98C1641.48 9.31333 1641.69 10.4533 1642.12 11.4C1642.55 12.34 1643.15 13.06 1643.91 13.56C1644.67 14.0533 1645.54 14.3 1646.51 14.3ZM1656.3 14.1V2.63L1654.66 1.95V1.57H1657.83L1666.1 12.5L1665.63 13.46V2.47L1663.91 1.95V1.57H1668.17V1.95L1666.58 2.47V15.19H1666.15L1656.92 3.01L1657.25 2.65V14.1L1658.97 14.61V15H1654.72V14.61L1656.3 14.1ZM1670.54 12.75C1670.9 12.75 1671.19 12.8667 1671.42 13.1C1671.65 13.3267 1671.76 13.6067 1671.76 13.94C1671.76 14.2733 1671.65 14.5567 1671.42 14.79C1671.19 15.0233 1670.9 15.14 1670.54 15.14C1670.19 15.14 1669.9 15.0233 1669.67 14.79C1669.44 14.5567 1669.33 14.2733 1669.33 13.94C1669.33 13.6067 1669.44 13.3267 1669.67 13.1C1669.9 12.8667 1670.19 12.75 1670.54 12.75Z" fill="black"/>
</svg>
