<svg width="131" height="131" viewBox="0 0 131 131" fill="none" xmlns="http://www.w3.org/2000/svg">
<path d="M0.5 120.5V87L87 0.5H120.5L0.5 120.5Z" fill="#FFF6E9"/>
<g filter="url(#filter0_d_417_9234)">
<path d="M0.5 87L87 0.5M0.5 120.5L120.5 0.5" stroke="black"/>
</g>
<path d="M27.0152 85.3712C26.5683 85.8181 26.0818 86.1575 25.5557 86.3894C25.0296 86.6101 24.4922 86.7232 23.9435 86.7288C23.3891 86.7288 22.8489 86.6185 22.3228 86.3979C21.7967 86.166 21.3074 85.8238 20.8548 85.3712C20.4136 84.93 20.0855 84.4435 19.8706 83.9117C19.6556 83.38 19.5509 82.8398 19.5566 82.291C19.5623 81.731 19.6782 81.1851 19.9045 80.6534C20.1364 80.116 20.4787 79.621 20.9312 79.1685C21.2141 78.8856 21.528 78.6452 21.8731 78.4472C22.2181 78.2492 22.5802 78.1078 22.9592 78.0229C23.3382 77.9268 23.7116 77.8928 24.0793 77.9211L24.2065 79.8133C23.9633 79.8077 23.7285 79.8275 23.5023 79.8727C23.276 79.9067 23.0582 79.9774 22.8489 80.0849C22.6396 80.1924 22.4444 80.3366 22.2634 80.5176C22.0371 80.7439 21.8646 81.0013 21.7458 81.2898C21.627 81.567 21.5676 81.8583 21.5676 82.1638C21.5676 82.4579 21.6327 82.7549 21.7628 83.0547C21.8929 83.3545 22.0909 83.6374 22.3567 83.9032C22.617 84.1635 22.897 84.3586 23.1968 84.4887C23.4909 84.6132 23.7908 84.6754 24.0962 84.6754C24.4017 84.6754 24.7015 84.6075 24.9957 84.4718C25.2955 84.3303 25.5783 84.1267 25.8442 83.8608C26.0252 83.6798 26.1723 83.4818 26.2854 83.2669C26.3986 83.0519 26.4806 82.8341 26.5315 82.6135C26.5824 82.3816 26.605 82.1553 26.5994 81.9347L28.3983 82.342C28.4152 82.6418 28.3671 82.9727 28.254 83.3347C28.1465 83.6911 27.9853 84.0503 27.7703 84.4124C27.5554 84.7631 27.3037 85.0827 27.0152 85.3712ZM32.1855 80.2008C31.716 80.6703 31.1956 80.9871 30.6243 81.1512C30.0586 81.3096 29.4929 81.3209 28.9272 81.1851C28.3672 81.0437 27.8609 80.7467 27.4083 80.2942C26.9558 79.8416 26.6588 79.3353 26.5174 78.7753C26.3816 78.2096 26.3929 77.6439 26.5513 77.0782C26.7154 76.5069 27.0322 75.9865 27.5017 75.5169C27.9712 75.0474 28.4888 74.7335 29.0545 74.5751C29.6258 74.411 30.1915 74.3997 30.7515 74.5411C31.3116 74.6826 31.8178 74.9795 32.2704 75.4321C32.7229 75.8846 33.0199 76.3909 33.1614 76.951C33.3028 77.511 33.2915 78.0767 33.1274 78.648C32.969 79.2137 32.6551 79.7313 32.1855 80.2008ZM31.0146 79.0298C31.2182 78.8262 31.3483 78.5943 31.4049 78.3341C31.4615 78.0738 31.4473 77.8108 31.3625 77.5449C31.2776 77.2791 31.1192 77.0358 30.8873 76.8152C30.6667 76.5833 30.4234 76.4249 30.1576 76.34C29.886 76.2495 29.6202 76.2325 29.3599 76.2891C29.0997 76.3457 28.8678 76.4758 28.6642 76.6794C28.4605 76.8831 28.3276 77.1178 28.2653 77.3837C28.2088 77.6439 28.2257 77.9098 28.3163 78.1813C28.4011 78.4472 28.5595 78.6904 28.7914 78.9111C29.012 79.143 29.2553 79.3014 29.5212 79.3862C29.787 79.4711 30.0501 79.4852 30.3103 79.4287C30.5762 79.3664 30.8109 79.2335 31.0146 79.0298ZM35.4068 76.8099L30.9011 72.3042L32.1908 71.0144L33.0479 71.7866L32.8782 71.9733C32.799 71.7583 32.7537 71.5434 32.7424 71.3284C32.7367 71.1078 32.7622 70.8956 32.8188 70.692C32.8753 70.477 32.9545 70.279 33.0563 70.098C33.1638 69.9114 33.2911 69.7445 33.4382 69.5974C33.6588 69.3768 33.8936 69.2099 34.1425 69.0968C34.3914 68.9836 34.6601 68.9355 34.9486 68.9525C35.2314 68.9638 35.5397 69.0572 35.8735 69.2325L35.6444 69.4277L35.5765 69.224C35.5143 69.0147 35.486 68.7998 35.4916 68.5792C35.4973 68.3472 35.534 68.1238 35.6019 67.9088C35.6642 67.6882 35.7518 67.4817 35.865 67.2894C35.9781 67.0971 36.1054 66.9302 36.2468 66.7888C36.6032 66.4324 36.9709 66.2061 37.3499 66.1099C37.7233 66.0081 38.1079 66.0364 38.5039 66.1948C38.9055 66.3475 39.3043 66.6219 39.7003 67.0179L42.4496 69.7671L41.0834 71.1332L38.4445 68.4943C38.2635 68.3133 38.0881 68.1888 37.9184 68.121C37.7487 68.0531 37.5847 68.0418 37.4263 68.087C37.2679 68.121 37.1151 68.2115 36.9681 68.3585C36.8493 68.4773 36.7588 68.6074 36.6965 68.7489C36.64 68.8846 36.6089 69.0232 36.6032 69.1646C36.6032 69.3004 36.6287 69.4333 36.6796 69.5635C36.7305 69.6936 36.8125 69.8152 36.9256 69.9283L39.607 72.6097L38.2409 73.9758L35.5934 71.3284C35.4237 71.1587 35.254 71.0399 35.0843 70.972C34.9146 70.9041 34.7477 70.89 34.5837 70.9296C34.4196 70.9692 34.2697 71.0569 34.134 71.1926C34.0152 71.3114 33.9247 71.4415 33.8624 71.583C33.8059 71.7187 33.7748 71.8573 33.7691 71.9987C33.7691 72.1345 33.7946 72.2674 33.8455 72.3975C33.8964 72.5276 33.9756 72.6464 34.0831 72.7539L36.7729 75.4438L35.4068 76.8099ZM43.6537 68.5629L39.148 64.0572L40.5057 62.6996L45.0114 67.2053L43.6537 68.5629ZM38.9359 62.4875C38.6814 62.742 38.4211 62.8834 38.1553 62.9117C37.8894 62.9287 37.6433 62.824 37.4171 62.5978C37.2134 62.3941 37.1201 62.1537 37.137 61.8765C37.154 61.5993 37.2869 61.3363 37.5358 61.0874C37.7904 60.8328 38.0506 60.6971 38.3165 60.6801C38.5767 60.6575 38.8171 60.7565 39.0377 60.9771C39.247 61.1864 39.3432 61.4296 39.3262 61.7068C39.3149 61.9783 39.1848 62.2386 38.9359 62.4875ZM46.287 65.9296L41.7813 61.4239L43.0711 60.1342L44.0299 61.0082L43.8602 61.3815C43.7188 61.1157 43.6453 60.8215 43.6396 60.4991C43.634 60.1653 43.6934 59.8344 43.8178 59.5063C43.9423 59.1782 44.1289 58.8897 44.3778 58.6408C44.7172 58.3014 45.0736 58.0864 45.447 57.9959C45.8147 57.8997 46.1965 57.9308 46.5925 58.0892C46.9828 58.242 47.376 58.5163 47.7719 58.9123L50.5381 61.6785L49.172 63.0446L46.5161 60.3887C46.3351 60.2077 46.1597 60.0833 45.99 60.0154C45.8203 59.9475 45.6535 59.939 45.4894 59.9899C45.3254 60.0295 45.1698 60.1285 45.0227 60.2869C44.9039 60.4057 44.8134 60.5358 44.7512 60.6772C44.6833 60.813 44.6494 60.9544 44.6494 61.1015C44.6437 61.2429 44.6635 61.3815 44.7088 61.5173C44.7597 61.6474 44.8389 61.7662 44.9463 61.8737L47.6447 64.572L46.9743 65.2423C46.8159 65.4007 46.6802 65.5365 46.567 65.6496C46.4539 65.7628 46.3606 65.8561 46.287 65.9296ZM55.6867 60.4332C55.319 60.8009 54.8976 61.1148 54.4224 61.375C53.9529 61.6296 53.5201 61.7851 53.1242 61.8417L52.649 60.4162C52.847 60.3766 53.045 60.3144 53.243 60.2295C53.4523 60.1447 53.6531 60.04 53.8454 59.9156C54.0378 59.7911 54.2159 59.6469 54.38 59.4828C54.6685 59.1943 54.8608 58.9171 54.957 58.6513C55.0532 58.3854 55.0588 58.1195 54.974 57.8536C54.8948 57.5934 54.7251 57.3332 54.4648 57.073L53.7097 56.3178L54.0151 56.0972C54.1622 56.3235 54.2329 56.5922 54.2273 56.9033C54.2273 57.2088 54.1622 57.5227 54.0321 57.8452C53.8963 58.1619 53.7012 58.4476 53.4466 58.7022C53.0393 59.1095 52.5811 59.381 52.072 59.5168C51.5629 59.6412 51.0481 59.6299 50.5277 59.4828C50.0072 59.3244 49.5264 59.0246 49.0852 58.5834C48.6326 58.1308 48.3243 57.6415 48.1603 57.1154C47.9906 56.5837 47.9651 56.0604 48.0839 55.5456C48.197 55.0252 48.4516 54.567 48.8476 54.171C49.0173 54.0013 49.1983 53.8599 49.3906 53.7468C49.5886 53.628 49.7866 53.5375 49.9846 53.4752C50.1826 53.4017 50.3778 53.3593 50.5701 53.348C50.7624 53.3253 50.9406 53.3338 51.1047 53.3734C51.2744 53.4073 51.4243 53.4667 51.5544 53.5516L51.3423 53.8995L50.3749 52.8303L51.6647 51.5406L55.8055 55.6814C56.1732 56.0491 56.4419 56.4309 56.6116 56.8269C56.7926 57.2229 56.8747 57.6274 56.8577 58.0403C56.852 58.4533 56.7502 58.8606 56.5522 59.2622C56.3542 59.6638 56.0657 60.0542 55.6867 60.4332ZM52.6829 57.3615C52.9036 57.1409 53.045 56.9033 53.1072 56.6487C53.1694 56.3829 53.1553 56.1198 53.0648 55.8596C52.9799 55.5937 52.8187 55.342 52.5811 55.1044C52.3435 54.8668 52.0918 54.7056 51.8259 54.6207C51.56 54.5246 51.297 54.5104 51.0368 54.5783C50.7766 54.6349 50.5362 54.7735 50.3155 54.9941C50.1006 55.2091 49.9648 55.4466 49.9082 55.7069C49.846 55.9614 49.8602 56.2245 49.9507 56.496C50.0412 56.7562 50.2052 57.0051 50.4428 57.2427C50.6804 57.4803 50.9293 57.6443 51.1895 57.7348C51.4554 57.8197 51.7184 57.8338 51.9787 57.7773C52.2332 57.715 52.468 57.5764 52.6829 57.3615ZM62.265 50.1214C61.8747 50.5117 61.4759 50.82 61.0686 51.0463C60.6613 51.2612 60.2483 51.4026 59.8297 51.4705C59.4055 51.5327 58.9755 51.5384 58.54 51.4875L58.4212 49.6207C59.083 49.7169 59.6204 49.6886 60.0334 49.5359C60.452 49.3775 60.814 49.1455 61.1195 48.8401C61.2722 48.6873 61.391 48.529 61.4759 48.3649C61.5607 48.2009 61.6003 48.0481 61.5947 47.9067C61.5834 47.7596 61.5211 47.6295 61.408 47.5164C61.3231 47.4315 61.2241 47.3778 61.111 47.3552C61.0035 47.3269 60.8876 47.324 60.7631 47.3467C60.6387 47.3693 60.5057 47.4117 60.3643 47.4739C60.2172 47.5305 60.073 47.6012 59.9316 47.6861C59.7845 47.7653 59.6402 47.853 59.4988 47.9491C59.0972 48.2037 58.721 48.3988 58.3703 48.5346C58.0195 48.6704 57.6858 48.7439 57.369 48.7552C57.0522 48.7552 56.7552 48.6958 56.478 48.577C56.1952 48.4526 55.9293 48.2659 55.6804 48.017C55.4146 47.7511 55.2307 47.4485 55.1289 47.1091C55.0271 46.7584 54.9988 46.402 55.044 46.0399C55.0893 45.6666 55.2053 45.3017 55.3919 44.9453C55.5729 44.5833 55.8105 44.2552 56.1047 43.961C56.495 43.5707 56.8712 43.2794 57.2332 43.0871C57.5953 42.8834 57.9517 42.759 58.3024 42.7137C58.6588 42.6628 59.0151 42.6741 59.3715 42.7476L59.3376 44.4956C59.0717 44.4673 58.82 44.4758 58.5824 44.5211C58.3505 44.5607 58.1298 44.6342 57.9205 44.7417C57.7169 44.8435 57.533 44.9764 57.369 45.1405C57.1993 45.3102 57.0748 45.4799 56.9956 45.6496C56.9164 45.808 56.8825 45.9607 56.8938 46.1078C56.8995 46.2492 56.956 46.3737 57.0635 46.4812C57.1597 46.5773 57.27 46.6311 57.3945 46.6424C57.5189 46.6537 57.6575 46.6396 57.8102 46.6C57.9573 46.5547 58.1129 46.4897 58.2769 46.4048C58.4353 46.3143 58.5937 46.2125 58.7521 46.0993C59.1255 45.8504 59.4875 45.6524 59.8382 45.5054C60.1946 45.3526 60.5368 45.2593 60.8649 45.2253C61.1987 45.1858 61.5155 45.2197 61.8153 45.3272C62.1151 45.4233 62.3979 45.6044 62.6638 45.8702C63.0768 46.2832 63.3257 46.7357 63.4105 47.2279C63.4954 47.7087 63.4388 48.2009 63.2408 48.7043C63.0428 49.1965 62.7176 49.6688 62.265 50.1214ZM67.6514 44.735C67.1819 45.2045 66.6614 45.5213 66.0901 45.6853C65.5244 45.8437 64.9587 45.855 64.393 45.7193C63.833 45.5779 63.3267 45.2809 62.8742 44.8283C62.4216 44.3758 62.1246 43.8695 61.9832 43.3095C61.8474 42.7438 61.8588 42.1781 62.0171 41.6124C62.1812 41.0411 62.498 40.5206 62.9675 40.0511C63.437 39.5816 63.9546 39.2676 64.5203 39.1093C65.0916 38.9452 65.6573 38.9339 66.2174 39.0753C66.7774 39.2167 67.2837 39.5137 67.7362 39.9663C68.1888 40.4188 68.4858 40.9251 68.6272 41.4851C68.7686 42.0452 68.7573 42.6108 68.5932 43.1822C68.4348 43.7479 68.1209 44.2655 67.6514 44.735ZM66.4804 43.564C66.684 43.3604 66.8142 43.1284 66.8707 42.8682C66.9273 42.608 66.9131 42.345 66.8283 42.0791C66.7434 41.8132 66.5851 41.57 66.3531 41.3494C66.1325 41.1174 65.8893 40.959 65.6234 40.8742C65.3519 40.7837 65.086 40.7667 64.8258 40.8233C64.5656 40.8798 64.3336 41.01 64.13 41.2136C63.9263 41.4172 63.7934 41.652 63.7312 41.9179C63.6746 42.1781 63.6916 42.444 63.7821 42.7155C63.8669 42.9814 64.0253 43.2246 64.2573 43.4452C64.4779 43.6772 64.7211 43.8356 64.987 43.9204C65.2529 44.0053 65.5159 44.0194 65.7761 43.9628C66.042 43.9006 66.2768 43.7677 66.4804 43.564ZM73.0873 39.2991C72.6177 39.7686 72.0973 40.0854 71.526 40.2495C70.9603 40.4079 70.3946 40.4192 69.8289 40.2834C69.2689 40.142 68.7626 39.845 68.31 39.3924C67.8575 38.9399 67.5605 38.4336 67.4191 37.8736C67.2833 37.3079 67.2946 36.7422 67.453 36.1765C67.6171 35.6052 67.9339 35.0848 68.4034 34.6152C68.8729 34.1457 69.3905 33.8318 69.9562 33.6734C70.5275 33.5093 71.0932 33.498 71.6532 33.6394C72.2133 33.7808 72.7196 34.0778 73.1721 34.5304C73.6247 34.9829 73.9216 35.4892 74.0631 36.0492C74.2045 36.6093 74.1932 37.175 74.0291 37.7463C73.8707 38.312 73.5568 38.8296 73.0873 39.2991ZM71.9163 38.1281C72.1199 37.9245 72.25 37.6926 72.3066 37.4323C72.3632 37.1721 72.349 36.9091 72.2642 36.6432C72.1793 36.3773 72.0209 36.1341 71.789 35.9135C71.5684 35.6816 71.3251 35.5232 71.0593 35.4383C70.7877 35.3478 70.5219 35.3308 70.2617 35.3874C70.0014 35.444 69.7695 35.5741 69.5659 35.7777C69.3622 35.9814 69.2293 36.2161 69.1671 36.482C69.1105 36.7422 69.1275 37.0081 69.218 37.2796C69.3028 37.5455 69.4612 37.7887 69.6931 38.0093C69.9138 38.2413 70.157 38.3997 70.4229 38.4845C70.6887 38.5694 70.9518 38.5835 71.212 38.5269C71.4779 38.4647 71.7126 38.3318 71.9163 38.1281ZM76.317 35.8997L71.8113 31.394L73.101 30.1042L74.0599 30.9782L73.8902 31.3516C73.7488 31.0857 73.6752 30.7916 73.6696 30.4691C73.6639 30.1354 73.7233 29.8044 73.8477 29.4763C73.9722 29.1482 74.1589 28.8597 74.4078 28.6108C74.7472 28.2714 75.1036 28.0565 75.4769 27.966C75.8446 27.8698 76.2265 27.9009 76.6224 28.0593C77.0128 28.212 77.4059 28.4864 77.8019 28.8824L80.5681 31.6486L79.202 33.0147L76.5461 30.3588C76.365 30.1778 76.1897 30.0533 76.02 29.9855C75.8503 29.9176 75.6834 29.9091 75.5193 29.96C75.3553 29.9996 75.1997 30.0986 75.0527 30.257C74.9339 30.3758 74.8434 30.5059 74.7811 30.6473C74.7132 30.7831 74.6793 30.9245 74.6793 31.0716C74.6736 31.213 74.6934 31.3516 74.7387 31.4873C74.7896 31.6175 74.8688 31.7362 74.9763 31.8437L77.6746 34.542L77.0043 35.2124C76.8459 35.3708 76.7101 35.5065 76.597 35.6197C76.4838 35.7328 76.3905 35.8262 76.317 35.8997ZM82.2801 30.1232C82.0482 30.3551 81.8021 30.4711 81.5419 30.4711C81.2873 30.4654 81.0384 30.341 80.7952 30.0978C80.5689 29.8715 80.453 29.6197 80.4473 29.3426C80.4416 29.0654 80.5463 28.8193 80.7613 28.6043C80.9932 28.3724 81.2421 28.2593 81.508 28.2649C81.7682 28.2649 82.0199 28.3866 82.2632 28.6298C82.4838 28.8504 82.5969 29.0993 82.6026 29.3765C82.6082 29.6537 82.5007 29.9026 82.2801 30.1232ZM84.4595 27.9439C84.2275 28.1758 83.9814 28.2918 83.7212 28.2918C83.4667 28.2861 83.2178 28.1617 82.9745 27.9184C82.7483 27.6922 82.6323 27.4404 82.6266 27.1632C82.621 26.886 82.7256 26.64 82.9406 26.425C83.1725 26.1931 83.4214 26.0799 83.6873 26.0856C83.9475 26.0856 84.1992 26.2072 84.4425 26.4505C84.6631 26.6711 84.7762 26.92 84.7819 27.1972C84.7875 27.4744 84.6801 27.7233 84.4595 27.9439ZM86.6388 25.7646C86.4068 25.9965 86.1608 26.1125 85.9006 26.1125C85.646 26.1068 85.3971 25.9823 85.1539 25.7391C84.9276 25.5128 84.8116 25.2611 84.806 24.9839C84.8003 24.7067 84.905 24.4607 85.1199 24.2457C85.3518 24.0138 85.6007 23.9006 85.8666 23.9063C86.1268 23.9063 86.3786 24.0279 86.6218 24.2711C86.8424 24.4918 86.9556 24.7407 86.9612 25.0179C86.9669 25.295 86.8594 25.5439 86.6388 25.7646Z" fill="black"/>
<defs>
<filter id="filter0_d_417_9234" x="0.146484" y="0.146484" width="130.707" height="130.707" filterUnits="userSpaceOnUse" color-interpolation-filters="sRGB">
<feFlood flood-opacity="0" result="BackgroundImageFix"/>
<feColorMatrix in="SourceAlpha" type="matrix" values="0 0 0 0 0 0 0 0 0 0 0 0 0 0 0 0 0 0 127 0" result="hardAlpha"/>
<feOffset dx="5" dy="5"/>
<feGaussianBlur stdDeviation="2.5"/>
<feComposite in2="hardAlpha" operator="out"/>
<feColorMatrix type="matrix" values="0 0 0 0 0 0 0 0 0 0 0 0 0 0 0 0 0 0 0.25 0"/>
<feBlend mode="normal" in2="BackgroundImageFix" result="effect1_dropShadow_417_9234"/>
<feBlend mode="normal" in="SourceGraphic" in2="effect1_dropShadow_417_9234" result="shape"/>
</filter>
</defs>
</svg>
