<svg width="600" height="600" viewBox="0 0 600 600" fill="none" xmlns="http://www.w3.org/2000/svg">
<g clip-path="url(#clip0_469_10339)">
<path d="M2.32446 560.187V404.45L404.45 2.32422H560.187L2.32446 560.187Z" fill="#F5FFE9"/>
<g filter="url(#filter0_d_469_10339)">
<path d="M2.32446 404.45L404.45 2.32422M2.32446 560.187L560.187 2.32422" stroke="black" stroke-width="2"/>
</g>
<path d="M162.007 361.957L129.833 329.784L152.263 307.355L158.927 314.019L144.081 328.865L162.926 347.709L178.231 332.404L184.896 339.068L162.007 361.957ZM152.492 345.089L146.15 338.747L162.834 322.062L169.177 328.405L152.492 345.089ZM190.849 333.115L166.443 308.709L173.43 301.723L178.623 306.457L177.704 308.479C176.938 307.039 176.54 305.446 176.509 303.699C176.478 301.891 176.8 300.099 177.474 298.322C178.148 296.544 179.159 294.982 180.508 293.633C182.346 291.795 184.277 290.631 186.299 290.14C188.291 289.619 190.359 289.788 192.504 290.646C194.618 291.473 196.748 292.959 198.892 295.104L213.876 310.088L206.476 317.488L192.09 303.102C191.11 302.121 190.16 301.447 189.24 301.079C188.321 300.712 187.417 300.666 186.529 300.941C185.64 301.156 184.797 301.692 184.001 302.55C183.357 303.194 182.867 303.898 182.53 304.664C182.162 305.4 181.978 306.166 181.978 306.962C181.948 307.728 182.055 308.479 182.3 309.215C182.576 309.919 183.005 310.563 183.587 311.145L198.203 325.761L194.572 329.392C193.714 330.25 192.979 330.985 192.366 331.598C191.753 332.211 191.247 332.716 190.849 333.115ZM220.024 303.94L195.618 279.534L202.605 272.548L210.878 280.177L207.982 280.04C207.032 278.354 206.45 276.577 206.236 274.708C206.052 272.808 206.22 270.985 206.741 269.238C207.262 267.492 208.166 265.975 209.453 264.688C210.004 264.137 210.556 263.677 211.108 263.309C211.69 262.911 212.241 262.574 212.762 262.298L218.875 272.456C218.324 272.578 217.695 272.869 216.991 273.329C216.286 273.727 215.627 274.233 215.014 274.846C214.34 275.52 213.835 276.271 213.498 277.098C213.13 277.895 212.961 278.707 212.992 279.534C213.023 280.361 213.207 281.189 213.544 282.016C213.911 282.813 214.463 283.579 215.198 284.314L227.424 296.54L220.024 303.94ZM251.858 273.025C249.315 275.568 246.496 277.284 243.401 278.173C240.337 279.031 237.273 279.092 234.209 278.357C231.175 277.59 228.433 275.982 225.982 273.531C223.53 271.079 221.922 268.337 221.156 265.303C220.42 262.239 220.482 259.175 221.34 256.111C222.228 253.016 223.944 250.197 226.487 247.654C229.03 245.111 231.834 243.41 234.898 242.552C237.993 241.664 241.057 241.602 244.091 242.368C247.124 243.134 249.867 244.743 252.318 247.194C254.769 249.646 256.378 252.388 257.144 255.421C257.91 258.455 257.849 261.519 256.96 264.614C256.102 267.678 254.401 270.482 251.858 273.025ZM245.515 266.682C246.619 265.579 247.323 264.323 247.63 262.913C247.936 261.504 247.86 260.079 247.4 258.639C246.94 257.199 246.082 255.881 244.826 254.686C243.631 253.43 242.313 252.572 240.873 252.112C239.403 251.622 237.962 251.53 236.553 251.836C235.143 252.143 233.887 252.848 232.784 253.951C231.681 255.054 230.961 256.325 230.624 257.766C230.317 259.175 230.409 260.615 230.9 262.086C231.359 263.526 232.217 264.844 233.473 266.039C234.668 267.295 235.986 268.153 237.426 268.613C238.866 269.072 240.291 269.149 241.701 268.842C243.141 268.505 244.412 267.785 245.515 266.682ZM269.398 254.565L235.387 220.554L242.741 213.2L276.752 247.212L269.398 254.565ZM283.358 240.606L249.346 206.594L256.7 199.241L290.712 233.252L283.358 240.606ZM308.91 215.973C306.213 218.67 303.333 220.477 300.269 221.397C297.174 222.285 294.141 222.347 291.169 221.581C288.166 220.784 285.454 219.175 283.033 216.755C281.164 214.885 279.755 212.863 278.805 210.688C277.855 208.512 277.365 206.306 277.334 204.069C277.273 201.802 277.686 199.611 278.575 197.497C279.464 195.321 280.812 193.329 282.62 191.521C284.336 189.806 286.205 188.549 288.227 187.753C290.28 186.925 292.379 186.542 294.524 186.604C296.669 186.665 298.768 187.17 300.821 188.12C302.874 189.07 304.758 190.464 306.474 192.303L308.404 194.325L288.962 213.767L283.769 210.688L298.293 196.164L298.385 197.818L297.465 196.899C296.638 196.194 295.719 195.765 294.708 195.612C293.697 195.398 292.685 195.459 291.674 195.796C290.663 196.133 289.728 196.73 288.871 197.588C287.676 198.783 286.894 200.055 286.526 201.403C286.159 202.69 286.22 204.008 286.71 205.356C287.17 206.674 288.059 207.991 289.376 209.309C290.724 210.657 292.18 211.561 293.742 212.021C295.305 212.419 296.899 212.358 298.523 211.837C300.177 211.285 301.755 210.259 303.257 208.757C304.298 207.715 305.064 206.643 305.555 205.54C306.076 204.406 306.443 202.997 306.658 201.311L314.977 202.736C314.854 204.513 314.517 206.199 313.966 207.792C313.414 209.385 312.694 210.871 311.806 212.25C310.978 213.629 310.013 214.87 308.91 215.973ZM333.497 191.478C331.382 193.593 328.962 194.941 326.235 195.523C323.508 196.044 320.719 195.829 317.87 194.88C314.989 193.899 312.324 192.183 309.872 189.732C307.421 187.281 305.72 184.63 304.77 181.78C303.79 178.9 303.575 176.081 304.127 173.323C304.679 170.566 306.027 168.114 308.172 165.97C309.275 164.866 310.5 163.978 311.849 163.304C313.197 162.63 314.576 162.17 315.985 161.925C317.395 161.68 318.743 161.68 320.03 161.925C321.286 162.139 322.359 162.599 323.247 163.304L321.914 165.464L306.195 149.745L313.595 142.345L347.607 176.357L340.759 183.205L334.784 178.058L336.484 176.817C337.158 177.674 337.587 178.716 337.771 179.942C337.986 181.137 337.97 182.409 337.725 183.757C337.449 185.074 336.944 186.407 336.208 187.755C335.534 189.104 334.63 190.345 333.497 191.478ZM329.268 183.481C330.402 182.347 331.107 181.091 331.382 179.712C331.658 178.333 331.52 176.939 330.969 175.53C330.448 174.089 329.529 172.711 328.211 171.393C326.863 170.045 325.469 169.11 324.029 168.589C322.619 168.038 321.225 167.9 319.846 168.176C318.467 168.451 317.211 169.156 316.077 170.29C314.943 171.424 314.239 172.68 313.963 174.059C313.718 175.407 313.856 176.801 314.377 178.241C314.897 179.681 315.832 181.076 317.18 182.424C318.498 183.741 319.877 184.661 321.317 185.182C322.757 185.703 324.151 185.84 325.499 185.595C326.878 185.319 328.134 184.615 329.268 183.481Z" fill="black"/>
</g>
<defs>
<filter id="filter0_d_469_10339" x="1.61731" y="1.61719" width="569.277" height="569.276" filterUnits="userSpaceOnUse" color-interpolation-filters="sRGB">
<feFlood flood-opacity="0" result="BackgroundImageFix"/>
<feColorMatrix in="SourceAlpha" type="matrix" values="0 0 0 0 0 0 0 0 0 0 0 0 0 0 0 0 0 0 127 0" result="hardAlpha"/>
<feOffset dx="5" dy="5"/>
<feGaussianBlur stdDeviation="2.5"/>
<feComposite in2="hardAlpha" operator="out"/>
<feColorMatrix type="matrix" values="0 0 0 0 0 0 0 0 0 0 0 0 0 0 0 0 0 0 0.25 0"/>
<feBlend mode="normal" in2="BackgroundImageFix" result="effect1_dropShadow_469_10339"/>
<feBlend mode="normal" in="SourceGraphic" in2="effect1_dropShadow_469_10339" result="shape"/>
</filter>
<clipPath id="clip0_469_10339">
<rect width="600" height="600" fill="white"/>
</clipPath>
</defs>
</svg>
