<svg width="131" height="131" viewBox="0 0 131 131" fill="none" xmlns="http://www.w3.org/2000/svg">
<path d="M0.5 120.5V87L87 0.5H120.5L0.5 120.5Z" fill="#F0FFE9"/>
<g filter="url(#filter0_d_417_9234)">
<path d="M0.5 87L87 0.5M0.5 120.5L120.5 0.5" stroke="black"/>
</g>
<path d="M39.0152 73.1373C38.5683 73.5842 38.0818 73.9236 37.5557 74.1556C37.0296 74.3762 36.4922 74.4893 35.9435 74.495C35.3891 74.495 34.8489 74.3847 34.3228 74.164C33.7967 73.9321 33.3074 73.5899 32.8548 73.1373C32.4136 72.6961 32.0855 72.2096 31.8706 71.6778C31.6556 71.1461 31.5509 70.6059 31.5566 70.0572C31.5623 69.4971 31.6782 68.9512 31.9045 68.4195C32.1364 67.8821 32.4787 67.3871 32.9312 66.9346C33.2141 66.6517 33.528 66.4113 33.8731 66.2133C34.2181 66.0153 34.5802 65.8739 34.9592 65.7891C35.3382 65.6929 35.7116 65.659 36.0793 65.6872L36.2065 67.5795C35.9633 67.5738 35.7285 67.5936 35.5023 67.6389C35.276 67.6728 35.0582 67.7435 34.8489 67.851C34.6396 67.9585 34.4444 68.1027 34.2634 68.2837C34.0371 68.51 33.8646 68.7674 33.7458 69.0559C33.627 69.3331 33.5676 69.6244 33.5676 69.9299C33.5676 70.224 33.6327 70.521 33.7628 70.8208C33.8929 71.1206 34.0909 71.4035 34.3567 71.6694C34.617 71.9296 34.897 72.1247 35.1968 72.2548C35.4909 72.3793 35.7908 72.4415 36.0962 72.4415C36.4017 72.4415 36.7015 72.3736 36.9957 72.2379C37.2955 72.0965 37.5783 71.8928 37.8442 71.6269C38.0252 71.4459 38.1723 71.2479 38.2854 71.033C38.3986 70.818 38.4806 70.6002 38.5315 70.3796C38.5824 70.1477 38.605 69.9214 38.5994 69.7008L40.3983 70.1081C40.4152 70.4079 40.3671 70.7388 40.254 71.1008C40.1465 71.4572 39.9853 71.8164 39.7703 72.1785C39.5554 72.5292 39.3037 72.8488 39.0152 73.1373ZM44.1855 67.9669C43.716 68.4364 43.1956 68.7532 42.6243 68.9173C42.0586 69.0757 41.4929 69.087 40.9272 68.9512C40.3672 68.8098 39.8609 68.5128 39.4083 68.0603C38.9558 67.6077 38.6588 67.1014 38.5174 66.5414C38.3816 65.9757 38.3929 65.41 38.5513 64.8443C38.7154 64.273 39.0322 63.7526 39.5017 63.2831C39.9712 62.8135 40.4888 62.4996 41.0545 62.3412C41.6258 62.1771 42.1915 62.1658 42.7515 62.3072C43.3116 62.4487 43.8178 62.7457 44.2704 63.1982C44.7229 63.6507 45.0199 64.157 45.1614 64.7171C45.3028 65.2771 45.2915 65.8428 45.1274 66.4141C44.969 66.9798 44.6551 67.4974 44.1855 67.9669ZM43.0146 66.796C43.2182 66.5923 43.3483 66.3604 43.4049 66.1002C43.4615 65.84 43.4473 65.5769 43.3625 65.311C43.2776 65.0452 43.1192 64.8019 42.8873 64.5813C42.6667 64.3494 42.4234 64.191 42.1576 64.1061C41.886 64.0156 41.6202 63.9986 41.3599 64.0552C41.0997 64.1118 40.8678 64.2419 40.6642 64.4455C40.4605 64.6492 40.3276 64.8839 40.2653 65.1498C40.2088 65.41 40.2257 65.6759 40.3163 65.9474C40.4011 66.2133 40.5595 66.4565 40.7914 66.6772C41.012 66.9091 41.2553 67.0675 41.5212 67.1523C41.787 67.2372 42.0501 67.2513 42.3103 67.1948C42.5762 67.1325 42.8109 66.9996 43.0146 66.796ZM47.4068 64.576L42.9011 60.0703L44.1908 58.7806L45.0479 59.5527L44.8782 59.7394C44.799 59.5244 44.7537 59.3095 44.7424 59.0945C44.7367 58.8739 44.7622 58.6618 44.8188 58.4581C44.8753 58.2432 44.9545 58.0452 45.0563 57.8641C45.1638 57.6775 45.2911 57.5106 45.4382 57.3635C45.6588 57.1429 45.8936 56.976 46.1425 56.8629C46.3914 56.7497 46.6601 56.7017 46.9486 56.7186C47.2314 56.7299 47.5397 56.8233 47.8735 56.9986L47.6444 57.1938L47.5765 56.9902C47.5143 56.7809 47.486 56.5659 47.4916 56.3453C47.4973 56.1133 47.534 55.8899 47.6019 55.6749C47.6642 55.4543 47.7518 55.2478 47.865 55.0555C47.9781 54.8632 48.1054 54.6963 48.2468 54.5549C48.6032 54.1985 48.9709 53.9722 49.3499 53.8761C49.7233 53.7742 50.1079 53.8025 50.5039 53.9609C50.9055 54.1136 51.3043 54.388 51.7003 54.784L54.4496 57.5332L53.0834 58.8993L50.4445 56.2604C50.2635 56.0794 50.0881 55.955 49.9184 55.8871C49.7487 55.8192 49.5847 55.8079 49.4263 55.8531C49.2679 55.8871 49.1151 55.9776 48.9681 56.1247C48.8493 56.2435 48.7588 56.3736 48.6965 56.515C48.64 56.6507 48.6089 56.7893 48.6032 56.9308C48.6032 57.0665 48.6287 57.1995 48.6796 57.3296C48.7305 57.4597 48.8125 57.5813 48.9256 57.6944L51.607 60.3758L50.2409 61.7419L47.5934 59.0945C47.4237 58.9248 47.254 58.806 47.0843 58.7381C46.9146 58.6702 46.7477 58.6561 46.5837 58.6957C46.4196 58.7353 46.2697 58.823 46.134 58.9587C46.0152 59.0775 45.9247 59.2076 45.8624 59.3491C45.8059 59.4848 45.7748 59.6234 45.7691 59.7648C45.7691 59.9006 45.7946 60.0335 45.8455 60.1637C45.8964 60.2938 45.9756 60.4126 46.0831 60.52L48.7729 63.2099L47.4068 64.576ZM57.4441 58.2722L51.0717 51.8997L52.3614 50.61L53.4221 51.5688L53.0912 51.747C52.9441 51.5207 52.8706 51.2548 52.8706 50.9494C52.8706 50.6439 52.9413 50.3299 53.0827 50.0075C53.2241 49.6737 53.4249 49.3768 53.6851 49.1165C54.0698 48.7319 54.5139 48.4915 55.0173 48.3953C55.5151 48.2935 56.0243 48.3331 56.5447 48.5141C57.0651 48.6838 57.5544 48.9978 58.0126 49.456C58.4652 49.9085 58.7791 50.3978 58.9545 50.9239C59.1355 51.4443 59.1751 51.9591 59.0733 52.4682C58.9715 52.966 58.7254 53.4101 58.3351 53.8004C58.0805 54.055 57.7892 54.2501 57.4611 54.3859C57.133 54.5217 56.8077 54.5867 56.4853 54.5811C56.1629 54.5754 55.88 54.5019 55.6368 54.3605L55.8319 53.9277L58.8103 56.906L57.4441 58.2722ZM56.8586 52.9858C57.0623 52.7822 57.1924 52.5559 57.249 52.307C57.2999 52.0525 57.2801 51.7951 57.1896 51.5349C57.0991 51.2746 56.9322 51.0229 56.6889 50.7797C56.4514 50.5421 56.2024 50.378 55.9422 50.2875C55.6764 50.1913 55.419 50.1715 55.1701 50.2281C54.9212 50.2734 54.6921 50.4007 54.4828 50.61C54.2735 50.8193 54.1405 51.0484 54.084 51.2973C54.0274 51.5462 54.0472 51.8036 54.1434 52.0694C54.2395 52.3353 54.4064 52.587 54.644 52.8246C54.8872 53.0679 55.139 53.2347 55.3992 53.3252C55.6594 53.4158 55.9168 53.4356 56.1713 53.3846C56.4202 53.3281 56.6493 53.1951 56.8586 52.9858ZM61.1792 50.8036L54.9001 44.5245L56.2577 43.1668L62.5368 49.4459L61.1792 50.8036ZM65.8965 46.2559C65.3987 46.7537 64.867 47.0875 64.3013 47.2572C63.73 47.4213 63.1699 47.4326 62.6212 47.2912C62.0668 47.1441 61.5662 46.8471 61.1193 46.4002C60.7742 46.0551 60.514 45.6818 60.3387 45.2801C60.1633 44.8785 60.0728 44.4712 60.0671 44.0583C60.0558 43.6397 60.1322 43.2352 60.2962 42.8449C60.4603 42.4432 60.7092 42.0755 61.0429 41.7418C61.3597 41.425 61.7048 41.1931 62.0782 41.046C62.4572 40.8932 62.8447 40.8225 63.2406 40.8339C63.6366 40.8452 64.0241 40.9385 64.4031 41.1139C64.7821 41.2892 65.13 41.5466 65.4468 41.886L65.8032 42.2594L62.2139 45.8487L61.2551 45.2801L63.9364 42.5988L63.9534 42.9043L63.7837 42.7346C63.631 42.6044 63.4613 42.5253 63.2746 42.497C63.0879 42.4574 62.9012 42.4687 62.7145 42.5309C62.5279 42.5931 62.3553 42.7034 62.1969 42.8618C61.9763 43.0825 61.8321 43.3172 61.7642 43.5661C61.6963 43.8037 61.7076 44.0469 61.7981 44.2958C61.883 44.5391 62.047 44.7823 62.2903 45.0256C62.5392 45.2745 62.8079 45.4414 63.0964 45.5262C63.3849 45.5998 63.679 45.5884 63.9789 45.4923C64.2843 45.3904 64.5757 45.2009 64.8528 44.9238C65.0452 44.7314 65.1866 44.5334 65.2771 44.3298C65.3733 44.1205 65.4412 43.8603 65.4808 43.5491L67.0166 43.8122C66.994 44.1403 66.9317 44.4514 66.8299 44.7456C66.7281 45.0397 66.5952 45.3141 66.4311 45.5686C66.2784 45.8232 66.1002 46.0523 65.8965 46.2559ZM69.0101 42.9727L63.3674 37.33L64.725 35.9723L70.3677 41.615L69.0101 42.9727ZM64.8947 40.4525L63.7068 39.2646L66.736 36.2354L67.924 37.4233L64.8947 40.4525ZM74.2078 37.9447C73.71 38.4425 73.1782 38.7762 72.6126 38.9459C72.0412 39.11 71.4812 39.1213 70.9325 38.9799C70.3781 38.8328 69.8775 38.5358 69.4306 38.0889C69.0855 37.7439 68.8253 37.3705 68.6499 36.9689C68.4746 36.5672 68.3841 36.1599 68.3784 35.747C68.3671 35.3284 68.4435 34.9239 68.6075 34.5336C68.7716 34.132 69.0205 33.7643 69.3542 33.4305C69.671 33.1137 70.0161 32.8818 70.3894 32.7347C70.7684 32.582 71.1559 32.5113 71.5519 32.5226C71.9479 32.5339 72.3354 32.6272 72.7144 32.8026C73.0934 32.978 73.4413 33.2353 73.7581 33.5748L74.1145 33.9481L70.5252 37.5374L69.5663 36.9689L72.2477 34.2875L72.2647 34.593L72.095 34.4233C71.9422 34.2932 71.7725 34.214 71.5858 34.1857C71.3992 34.1461 71.2125 34.1574 71.0258 34.2196C70.8391 34.2819 70.6666 34.3922 70.5082 34.5506C70.2876 34.7712 70.1433 35.0059 70.0755 35.2548C70.0076 35.4924 70.0189 35.7357 70.1094 35.9846C70.1943 36.2278 70.3583 36.4711 70.6016 36.7143C70.8505 36.9632 71.1192 37.1301 71.4077 37.2149C71.6962 37.2885 71.9903 37.2772 72.2901 37.181C72.5956 37.0792 72.8869 36.8897 73.1641 36.6125C73.3564 36.4202 73.4979 36.2222 73.5884 36.0185C73.6845 35.8092 73.7524 35.549 73.792 35.2379L75.3279 35.5009C75.3052 35.829 75.243 36.1401 75.1412 36.4343C75.0394 36.7285 74.9064 37.0028 74.7424 37.2574C74.5896 37.5119 74.4114 37.741 74.2078 37.9447Z" fill="black"/>
<defs>
<filter id="filter0_d_417_9234" x="0.146484" y="0.146484" width="130.707" height="130.707" filterUnits="userSpaceOnUse" color-interpolation-filters="sRGB">
<feFlood flood-opacity="0" result="BackgroundImageFix"/>
<feColorMatrix in="SourceAlpha" type="matrix" values="0 0 0 0 0 0 0 0 0 0 0 0 0 0 0 0 0 0 127 0" result="hardAlpha"/>
<feOffset dx="5" dy="5"/>
<feGaussianBlur stdDeviation="2.5"/>
<feComposite in2="hardAlpha" operator="out"/>
<feColorMatrix type="matrix" values="0 0 0 0 0 0 0 0 0 0 0 0 0 0 0 0 0 0 0.25 0"/>
<feBlend mode="normal" in2="BackgroundImageFix" result="effect1_dropShadow_417_9234"/>
<feBlend mode="normal" in="SourceGraphic" in2="effect1_dropShadow_417_9234" result="shape"/>
</filter>
</defs>
</svg>
