<svg width="31" height="31" viewBox="0 0 31 31" fill="none" xmlns="http://www.w3.org/2000/svg">
<circle cx="15.5" cy="15.5" r="15" stroke="black"/>
<path d="M25.5 15.5C25.5 19.6936 24.3476 23.468 22.5107 26.1797C20.6718 28.8943 18.184 30.5 15.5 30.5C12.816 30.5 10.3282 28.8943 8.48934 26.1797C6.65236 23.468 5.5 19.6936 5.5 15.5C5.5 11.3064 6.65236 7.532 8.48934 4.82027C10.3282 2.10574 12.816 0.5 15.5 0.5C18.184 0.5 20.6718 2.10574 22.5107 4.82027C24.3476 7.532 25.5 11.3064 25.5 15.5Z" stroke="black"/>
<path d="M15.5 5.5C19.6936 5.5 23.468 6.65236 26.1797 8.48934C28.8943 10.3282 30.5 12.816 30.5 15.5C30.5 18.184 28.8943 20.6718 26.1797 22.5107C23.468 24.3476 19.6936 25.5 15.5 25.5C11.3064 25.5 7.532 24.3476 4.82027 22.5107C2.10574 20.6718 0.5 18.184 0.5 15.5C0.5 12.816 2.10574 10.3282 4.82027 8.48934C7.532 6.65236 11.3064 5.5 15.5 5.5Z" stroke="black"/>
<path d="M20.5 15.5C20.5 19.7387 19.8896 23.5546 18.9179 26.2929C18.4312 27.6644 17.8634 28.7387 17.2578 29.4606C16.65 30.185 16.0538 30.5 15.5 30.5C14.9462 30.5 14.35 30.185 13.7422 29.4606C13.1366 28.7387 12.5688 27.6644 12.0821 26.2929C11.1104 23.5546 10.5 19.7387 10.5 15.5C10.5 11.2613 11.1104 7.44545 12.0821 4.70705C12.5688 3.33563 13.1366 2.26129 13.7422 1.53942C14.35 0.814973 14.9462 0.5 15.5 0.5C16.0538 0.5 16.65 0.814973 17.2578 1.53942C17.8634 2.26129 18.4312 3.33563 18.9179 4.70705C19.8896 7.44545 20.5 11.2613 20.5 15.5Z" stroke="black"/>
<path d="M15.5 10.5C19.7387 10.5 23.5546 11.1104 26.2929 12.0821C27.6644 12.5688 28.7387 13.1366 29.4606 13.7422C30.185 14.35 30.5 14.9462 30.5 15.5C30.5 16.0538 30.185 16.65 29.4606 17.2578C28.7387 17.8634 27.6644 18.4312 26.2929 18.9179C23.5546 19.8896 19.7387 20.5 15.5 20.5C11.2613 20.5 7.44545 19.8896 4.70705 18.9179C3.33563 18.4312 2.26129 17.8634 1.53942 17.2578C0.814973 16.65 0.5 16.0538 0.5 15.5C0.5 14.9462 0.814973 14.35 1.53942 13.7422C2.26129 13.1366 3.33563 12.5688 4.70705 12.0821C7.44545 11.1104 11.2613 10.5 15.5 10.5Z" stroke="black"/>
</svg>
