<svg width="131" height="131" viewBox="0 0 131 131" fill="none" xmlns="http://www.w3.org/2000/svg">
<path d="M0.5 120.5V87L87 0.5H120.5L0.5 120.5Z" fill="#E9FFFB"/>
<g filter="url(#filter0_d_417_9234)">
<path d="M0.5 87L87 0.5M0.5 120.5L120.5 0.5" stroke="black"/>
</g>
<path d="M25.3011 86.9155L17.5795 82.7577L19.0475 81.2898L23.061 83.5214C23.242 83.6232 23.4202 83.7335 23.5956 83.8523C23.771 83.9598 23.9322 84.0701 24.0793 84.1833C24.232 84.2907 24.3706 84.3954 24.495 84.4972C24.6138 84.5934 24.7156 84.6726 24.8005 84.7348L24.6138 84.9215C24.4385 84.6782 24.2801 84.4633 24.1386 84.2766C24.0029 84.0843 23.8813 83.9004 23.7738 83.7251C23.6606 83.544 23.5503 83.3489 23.4429 83.1396L21.9749 79.9067L23.1289 78.7527L26.3448 80.2376C26.5994 80.3564 26.8313 80.4752 27.0406 80.594C27.2499 80.7128 27.4423 80.8372 27.6176 80.9673C27.793 81.0861 27.9627 81.2106 28.1267 81.3407L27.9825 81.5359C27.892 81.4227 27.8071 81.3209 27.7279 81.2304C27.6431 81.1342 27.5639 81.0437 27.4903 80.9589C27.4168 80.8627 27.3404 80.7637 27.2612 80.6619C27.182 80.56 27.1 80.4441 27.0152 80.314C26.9246 80.1782 26.8285 80.0198 26.7267 79.8388L24.495 75.8422L25.929 74.4082L30.0868 82.1298L28.9837 83.2329L24.1556 81.2219L24.3338 81.0777L26.4382 85.7785L25.3011 86.9155ZM34.5057 77.8806C34.0362 78.3501 33.5158 78.6669 32.9444 78.831C32.3788 78.9894 31.8131 79.0007 31.2474 78.8649C30.6874 78.7235 30.1811 78.4265 29.7285 77.974C29.276 77.5214 28.979 77.0151 28.8376 76.4551C28.7018 75.8894 28.7131 75.3237 28.8715 74.758C29.0356 74.1867 29.3523 73.6663 29.8219 73.1967C30.2914 72.7272 30.809 72.4133 31.3747 72.2549C31.946 72.0908 32.5117 72.0795 33.0717 72.2209C33.6318 72.3624 34.138 72.6593 34.5906 73.1119C35.0431 73.5644 35.3401 74.0707 35.4815 74.6308C35.623 75.1908 35.6117 75.7565 35.4476 76.3278C35.2892 76.8935 34.9753 77.4111 34.5057 77.8806ZM33.3348 76.7097C33.5384 76.506 33.6685 76.2741 33.7251 76.0139C33.7817 75.7536 33.7675 75.4906 33.6827 75.2247C33.5978 74.9589 33.4394 74.7156 33.2075 74.495C32.9869 74.2631 32.7436 74.1047 32.4778 74.0198C32.2062 73.9293 31.9404 73.9123 31.6801 73.9689C31.4199 74.0255 31.188 74.1556 30.9843 74.3592C30.7807 74.5629 30.6478 74.7976 30.5855 75.0635C30.529 75.3237 30.5459 75.5896 30.6365 75.8611C30.7213 76.127 30.8797 76.3702 31.1116 76.5909C31.3322 76.8228 31.5755 76.9812 31.8414 77.066C32.1072 77.1509 32.3703 77.165 32.6305 77.1085C32.8964 77.0462 33.1311 76.9133 33.3348 76.7097ZM37.7354 74.4812L33.2298 69.9755L34.5195 68.6858L36.0469 70.0943L35.5123 70.0689C35.3369 69.7577 35.2295 69.4296 35.1899 69.0846C35.1559 68.7338 35.187 68.3973 35.2832 68.0748C35.3794 67.7524 35.5462 67.4724 35.7838 67.2348C35.8857 67.133 35.9875 67.0481 36.0893 66.9802C36.1968 66.9067 36.2986 66.8445 36.3948 66.7935L37.5233 68.6688C37.4215 68.6914 37.3055 68.7452 37.1754 68.83C37.0453 68.9035 36.9237 68.9969 36.8106 69.11C36.6861 69.2345 36.5928 69.3731 36.5305 69.5258C36.4627 69.6729 36.4315 69.8228 36.4372 69.9755C36.4429 70.1283 36.4768 70.281 36.539 70.4337C36.6069 70.5808 36.7087 70.7222 36.8445 70.858L39.1016 73.1151L37.7354 74.4812ZM41.5799 67.9893L40.0611 67.4717L40.0017 63.2036L41.7921 61.4132L41.5799 67.9893ZM41.5969 70.6197L35.3178 64.3406L36.6755 62.983L42.9546 69.2621L41.5969 70.6197ZM44.6516 67.565L41.0114 67.0983L41.2236 65.3928L46.2553 65.9613L44.6516 67.565ZM49.7028 62.5138L45.1971 58.0082L46.5548 56.6505L51.0605 61.1562L49.7028 62.5138ZM44.985 56.4384C44.7304 56.6929 44.4702 56.8344 44.2043 56.8626C43.9385 56.8796 43.6924 56.775 43.4661 56.5487C43.2625 56.345 43.1691 56.1046 43.1861 55.8274C43.2031 55.5503 43.336 55.2872 43.5849 55.0383C43.8395 54.7838 44.0997 54.648 44.3656 54.631C44.6258 54.6084 44.8662 54.7074 45.0868 54.928C45.2961 55.1373 45.3923 55.3806 45.3753 55.6577C45.364 55.9293 45.2339 56.1895 44.985 56.4384ZM52.3361 59.8806L47.8304 55.3749L49.1202 54.0851L50.079 54.9591L49.9093 55.3324C49.7679 55.0666 49.6943 54.7724 49.6887 54.45C49.683 54.1162 49.7424 53.7853 49.8669 53.4572C49.9913 53.1291 50.178 52.8406 50.4269 52.5917C50.7663 52.2523 51.1227 52.0373 51.4961 51.9468C51.8638 51.8507 52.2456 51.8818 52.6416 52.0402C53.0319 52.1929 53.425 52.4672 53.821 52.8632L56.5872 55.6294L55.2211 56.9956L52.5652 54.3397C52.3842 54.1586 52.2088 54.0342 52.0391 53.9663C51.8694 53.8984 51.7025 53.8899 51.5385 53.9409C51.3744 53.9805 51.2189 54.0795 51.0718 54.2378C50.953 54.3566 50.8625 54.4867 50.8003 54.6282C50.7324 54.7639 50.6984 54.9054 50.6984 55.0524C50.6928 55.1939 50.7126 55.3324 50.7578 55.4682C50.8087 55.5983 50.8879 55.7171 50.9954 55.8246L53.6937 58.5229L53.0234 59.1932C52.865 59.3516 52.7293 59.4874 52.6161 59.6005C52.503 59.7137 52.4096 59.807 52.3361 59.8806ZM60.5845 51.6322L54.6448 45.6925L57.2073 43.1299C57.5807 42.7566 57.9964 42.5105 58.4546 42.3917C58.9185 42.2673 59.3824 42.2673 59.8462 42.3917C60.3158 42.5105 60.7344 42.7538 61.1021 43.1215C61.4867 43.5061 61.7441 43.9389 61.8742 44.4197C62.0043 44.8892 62.01 45.3587 61.8912 45.8283C61.7781 46.2921 61.5348 46.7107 61.1615 47.0841L60.0414 48.2041L62.027 50.1897L60.5845 51.6322ZM58.7516 46.9653L59.6935 46.0234C59.818 45.899 59.9 45.7547 59.9396 45.5907C59.9792 45.4266 59.9763 45.2598 59.9311 45.09C59.8858 44.9203 59.7925 44.7648 59.6511 44.6234C59.504 44.4763 59.3484 44.3829 59.1844 44.3433C59.0203 44.3037 58.8591 44.3066 58.7007 44.3518C58.5423 44.3971 58.4009 44.4819 58.2765 44.6064L57.3346 45.5483L58.7516 46.9653ZM66.0584 46.1583L61.5527 41.6526L62.8425 40.3628L64.3698 41.7714L63.8352 41.7459C63.6599 41.4348 63.5524 41.1067 63.5128 40.7616C63.4789 40.4109 63.51 40.0743 63.6061 39.7519C63.7023 39.4294 63.8692 39.1494 64.1068 38.9118C64.2086 38.81 64.3104 38.7252 64.4122 38.6573C64.5197 38.5837 64.6215 38.5215 64.7177 38.4706L65.8463 40.3458C65.7444 40.3685 65.6285 40.4222 65.4984 40.5071C65.3683 40.5806 65.2466 40.6739 65.1335 40.7871C65.009 40.9115 64.9157 41.0501 64.8535 41.2029C64.7856 41.3499 64.7545 41.4998 64.7601 41.6526C64.7658 41.8053 64.7997 41.9581 64.862 42.1108C64.9298 42.2579 65.0317 42.3993 65.1674 42.5351L67.4245 44.7921L66.0584 46.1583ZM71.9354 40.4509C71.4659 40.9204 70.9455 41.2372 70.3741 41.4013C69.8085 41.5597 69.2428 41.571 68.6771 41.4352C68.1171 41.2938 67.6108 40.9968 67.1582 40.5443C66.7057 40.0917 66.4087 39.5854 66.2673 39.0254C66.1315 38.4597 66.1428 37.894 66.3012 37.3283C66.4653 36.757 66.782 36.2366 67.2516 35.767C67.7211 35.2975 68.2387 34.9836 68.8044 34.8252C69.3757 34.6611 69.9414 34.6498 70.5014 34.7912C71.0615 34.9327 71.5677 35.2296 72.0203 35.6822C72.4728 36.1347 72.7698 36.641 72.9112 37.2011C73.0527 37.7611 73.0414 38.3268 72.8773 38.8981C72.7189 39.4638 72.405 39.9814 71.9354 40.4509ZM70.7645 39.28C70.9681 39.0763 71.0982 38.8444 71.1548 38.5842C71.2114 38.3239 71.1972 38.0609 71.1124 37.795C71.0275 37.5292 70.8691 37.2859 70.6372 37.0653C70.4166 36.8334 70.1733 36.675 69.9075 36.5901C69.6359 36.4996 69.3701 36.4826 69.1098 36.5392C68.8496 36.5958 68.6177 36.7259 68.414 36.9295C68.2104 37.1332 68.0775 37.3679 68.0152 37.6338C67.9587 37.894 67.9756 38.1599 68.0662 38.4314C68.151 38.6973 68.3094 38.9405 68.5413 39.1612C68.7619 39.3931 69.0052 39.5515 69.2711 39.6363C69.5369 39.7212 69.8 39.7353 70.0602 39.6788C70.3261 39.6165 70.5608 39.4836 70.7645 39.28ZM79.1787 36.9412C78.811 37.3089 78.3896 37.6228 77.9144 37.8831C77.4449 38.1376 77.0121 38.2932 76.6161 38.3498L76.141 36.9242C76.3389 36.8846 76.5369 36.8224 76.7349 36.7375C76.9442 36.6527 77.1451 36.548 77.3374 36.4236C77.5297 36.2991 77.7079 36.1549 77.872 35.9908C78.1605 35.7023 78.3528 35.4252 78.449 35.1593C78.5451 34.8934 78.5508 34.6275 78.4659 34.3617C78.3867 34.1015 78.217 33.8412 77.9568 33.581L77.2016 32.8258L77.5071 32.6052C77.6542 32.8315 77.7249 33.1002 77.7192 33.4113C77.7192 33.7168 77.6542 34.0307 77.5241 34.3532C77.3883 34.67 77.1931 34.9556 76.9386 35.2102C76.5313 35.6175 76.0731 35.889 75.564 36.0248C75.0548 36.1492 74.5401 36.1379 74.0196 35.9908C73.4992 35.8325 73.0184 35.5326 72.5771 35.0914C72.1246 34.6389 71.8163 34.1495 71.6522 33.6235C71.4825 33.0917 71.4571 32.5684 71.5759 32.0537C71.689 31.5332 71.9436 31.075 72.3396 30.6791C72.5093 30.5094 72.6903 30.3679 72.8826 30.2548C73.0806 30.136 73.2786 30.0455 73.4766 29.9833C73.6746 29.9097 73.8697 29.8673 74.0621 29.856C74.2544 29.8334 74.4326 29.8418 74.5966 29.8814C74.7663 29.9154 74.9163 29.9748 75.0464 30.0596L74.8342 30.4075L73.8669 29.3384L75.1567 28.0486L79.2975 32.1894C79.6652 32.5571 79.9339 32.939 80.1036 33.335C80.2846 33.7309 80.3666 34.1354 80.3497 34.5483C80.344 34.9613 80.2422 35.3686 80.0442 35.7702C79.8462 36.1719 79.5577 36.5622 79.1787 36.9412ZM76.1749 33.8695C76.3955 33.6489 76.5369 33.4113 76.5992 33.1568C76.6614 32.8909 76.6472 32.6278 76.5567 32.3676C76.4719 32.1018 76.3107 31.85 76.0731 31.6124C75.8355 31.3749 75.5838 31.2136 75.3179 31.1288C75.052 31.0326 74.789 31.0185 74.5288 31.0864C74.2685 31.1429 74.0281 31.2815 73.8075 31.5021C73.5925 31.7171 73.4568 31.9547 73.4002 32.2149C73.338 32.4695 73.3521 32.7325 73.4426 33.004C73.5331 33.2642 73.6972 33.5131 73.9348 33.7507C74.1724 33.9883 74.4213 34.1524 74.6815 34.2429C74.9474 34.3277 75.2104 34.3419 75.4706 34.2853C75.7252 34.2231 75.9599 34.0845 76.1749 33.8695ZM80.8413 31.3753L76.3357 26.8696L77.6254 25.5799L79.1528 26.9884L78.6182 26.963C78.4428 26.6518 78.3354 26.3237 78.2958 25.9787C78.2618 25.628 78.2929 25.2914 78.3891 24.9689C78.4853 24.6465 78.6521 24.3665 78.8897 24.1289C78.9915 24.0271 79.0934 23.9422 79.1952 23.8743C79.3027 23.8008 79.4045 23.7386 79.5007 23.6877L80.6292 25.5629C80.5274 25.5855 80.4114 25.6393 80.2813 25.7241C80.1512 25.7977 80.0296 25.891 79.9164 26.0041C79.792 26.1286 79.6987 26.2672 79.6364 26.4199C79.5685 26.567 79.5374 26.7169 79.5431 26.8696C79.5487 27.0224 79.5827 27.1751 79.6449 27.3278C79.7128 27.4749 79.8146 27.6163 79.9504 27.7521L82.2075 30.0092L80.8413 31.3753ZM86.7438 25.6425C86.246 26.1403 85.7143 26.4741 85.1486 26.6438C84.5773 26.8078 84.0172 26.8191 83.4685 26.6777C82.9142 26.5306 82.4135 26.2337 81.9666 25.7868C81.6216 25.4417 81.3614 25.0683 81.186 24.6667C81.0106 24.2651 80.9201 23.8578 80.9145 23.4448C80.9031 23.0262 80.9795 22.6218 81.1436 22.2314C81.3076 21.8298 81.5565 21.4621 81.8903 21.1283C82.2071 20.8116 82.5521 20.5796 82.9255 20.4326C83.3045 20.2798 83.692 20.2091 84.088 20.2204C84.4839 20.2317 84.8714 20.3251 85.2504 20.5004C85.6294 20.6758 85.9773 20.9332 86.2941 21.2726L86.6505 21.6459L83.0612 25.2352L82.1024 24.6667L84.7837 21.9854L84.8007 22.2908L84.631 22.1211C84.4783 21.991 84.3086 21.9118 84.1219 21.8835C83.9352 21.8439 83.7485 21.8552 83.5619 21.9175C83.3752 21.9797 83.2027 22.09 83.0443 22.2484C82.8236 22.469 82.6794 22.7038 82.6115 22.9527C82.5436 23.1903 82.5549 23.4335 82.6455 23.6824C82.7303 23.9257 82.8944 24.1689 83.1376 24.4121C83.3865 24.661 83.6552 24.8279 83.9437 24.9128C84.2322 24.9863 84.5264 24.975 84.8262 24.8788C85.1316 24.777 85.423 24.5875 85.7002 24.3103C85.8925 24.118 86.0339 23.92 86.1244 23.7164C86.2206 23.5071 86.2885 23.2468 86.3281 22.9357L87.8639 23.1988C87.8413 23.5268 87.7791 23.838 87.6772 24.1321C87.5754 24.4263 87.4425 24.7006 87.2784 24.9552C87.1257 25.2098 86.9475 25.4389 86.7438 25.6425ZM91.0878 21.2986C90.6465 21.7398 90.1855 22.0594 89.7047 22.2574C89.2295 22.4497 88.7741 22.5261 88.3386 22.4865L88.4489 20.9507C88.7996 20.9507 89.1277 20.8828 89.4332 20.747C89.733 20.6056 89.9819 20.4359 90.1799 20.2379C90.2591 20.1587 90.3213 20.0795 90.3665 20.0003C90.4118 19.9211 90.4401 19.8476 90.4514 19.7797C90.4627 19.7005 90.4599 19.6298 90.4429 19.5676C90.4203 19.4997 90.3807 19.4375 90.3241 19.3809C90.211 19.2678 90.0724 19.231 89.9083 19.2706C89.8291 19.2932 89.7103 19.3441 89.5519 19.4233C89.3936 19.5025 89.1956 19.61 88.958 19.7458C88.6242 19.9438 88.3131 20.0965 88.0246 20.204C87.7361 20.3001 87.4674 20.3482 87.2185 20.3482C86.9866 20.3426 86.7688 20.3001 86.5651 20.2209C86.3558 20.1361 86.1607 20.0032 85.9796 19.8221C85.7703 19.6128 85.6289 19.3752 85.5554 19.1094C85.4875 18.8378 85.4734 18.5578 85.513 18.2693C85.5582 17.9752 85.6572 17.6895 85.8099 17.4123C85.9627 17.1238 86.155 16.8636 86.3869 16.6317C86.6358 16.3828 86.9017 16.1735 87.1846 16.0038C87.4674 15.8341 87.7559 15.704 88.0501 15.6134C88.3499 15.5173 88.6468 15.4635 88.941 15.4522L89.0259 16.9626C88.8279 16.9683 88.6271 16.9994 88.4234 17.0559C88.2198 17.1012 88.0274 17.1691 87.8464 17.2596C87.6654 17.3501 87.5183 17.4519 87.4052 17.5651C87.3203 17.6499 87.2524 17.7348 87.2015 17.8196C87.1506 17.8932 87.1195 17.9695 87.1082 18.0487C87.0912 18.1223 87.094 18.193 87.1167 18.2608C87.1336 18.3231 87.1704 18.3825 87.227 18.439C87.2835 18.4956 87.3514 18.5352 87.4306 18.5578C87.5155 18.5748 87.6032 18.572 87.6937 18.5493C87.7842 18.5267 87.9143 18.4758 88.084 18.3966C88.248 18.3118 88.4687 18.193 88.7458 18.0402C89.0853 17.8479 89.3964 17.7008 89.6792 17.599C89.9621 17.4972 90.2223 17.4519 90.4599 17.4632C90.6465 17.4689 90.8276 17.5141 91.0029 17.599C91.1726 17.6782 91.331 17.7913 91.4781 17.9384C91.7666 18.2269 91.942 18.5663 92.0042 18.9566C92.0664 19.3357 92.0212 19.7316 91.8684 20.1446C91.71 20.5519 91.4498 20.9365 91.0878 21.2986ZM95.289 17.0974C94.8478 17.5386 94.3867 17.8582 93.9059 18.0562C93.4307 18.2485 92.9753 18.3249 92.5398 18.2853L92.6501 16.7495C93.0008 16.7495 93.3289 16.6816 93.6344 16.5458C93.9342 16.4044 94.1831 16.2347 94.3811 16.0367C94.4603 15.9575 94.5225 15.8783 94.5677 15.7991C94.613 15.7199 94.6413 15.6464 94.6526 15.5785C94.6639 15.4993 94.6611 15.4286 94.6441 15.3664C94.6215 15.2985 94.5819 15.2363 94.5253 15.1797C94.4122 15.0666 94.2736 15.0298 94.1095 15.0694C94.0303 15.092 93.9115 15.1429 93.7532 15.2221C93.5948 15.3013 93.3968 15.4088 93.1592 15.5446C92.8254 15.7426 92.5143 15.8953 92.2258 16.0028C91.9373 16.0989 91.6686 16.147 91.4197 16.147C91.1878 16.1414 90.97 16.0989 90.7663 16.0197C90.557 15.9349 90.3619 15.802 90.1809 15.6209C89.9715 15.4116 89.8301 15.174 89.7566 14.9082C89.6887 14.6366 89.6746 14.3566 89.7142 14.0681C89.7594 13.774 89.8584 13.4883 90.0111 13.2111C90.1639 12.9226 90.3562 12.6624 90.5881 12.4305C90.837 12.1816 91.1029 11.9723 91.3858 11.8026C91.6686 11.6329 91.9571 11.5027 92.2513 11.4122C92.5511 11.3161 92.8481 11.2623 93.1422 11.251L93.2271 12.7614C93.0291 12.767 92.8283 12.7982 92.6246 12.8547C92.421 12.9 92.2286 12.9679 92.0476 13.0584C91.8666 13.1489 91.7195 13.2507 91.6064 13.3638C91.5215 13.4487 91.4536 13.5336 91.4027 13.6184C91.3518 13.6919 91.3207 13.7683 91.3094 13.8475C91.2924 13.921 91.2953 13.9918 91.3179 14.0596C91.3348 14.1219 91.3716 14.1813 91.4282 14.2378C91.4848 14.2944 91.5526 14.334 91.6318 14.3566C91.7167 14.3736 91.8044 14.3708 91.8949 14.3481C91.9854 14.3255 92.1155 14.2746 92.2852 14.1954C92.4492 14.1106 92.6699 13.9918 92.9471 13.839C93.2865 13.6467 93.5976 13.4996 93.8804 13.3978C94.1633 13.296 94.4235 13.2507 94.6611 13.262C94.8478 13.2677 95.0288 13.3129 95.2041 13.3978C95.3738 13.477 95.5322 13.5901 95.6793 13.7372C95.9678 14.0257 96.1432 14.3651 96.2054 14.7554C96.2676 15.1344 96.2224 15.5304 96.0696 15.9434C95.9112 16.3507 95.651 16.7353 95.289 17.0974Z" fill="black"/>
<defs>
<filter id="filter0_d_417_9234" x="0.146484" y="0.146484" width="130.707" height="130.707" filterUnits="userSpaceOnUse" color-interpolation-filters="sRGB">
<feFlood flood-opacity="0" result="BackgroundImageFix"/>
<feColorMatrix in="SourceAlpha" type="matrix" values="0 0 0 0 0 0 0 0 0 0 0 0 0 0 0 0 0 0 127 0" result="hardAlpha"/>
<feOffset dx="5" dy="5"/>
<feGaussianBlur stdDeviation="2.5"/>
<feComposite in2="hardAlpha" operator="out"/>
<feColorMatrix type="matrix" values="0 0 0 0 0 0 0 0 0 0 0 0 0 0 0 0 0 0 0.25 0"/>
<feBlend mode="normal" in2="BackgroundImageFix" result="effect1_dropShadow_417_9234"/>
<feBlend mode="normal" in="SourceGraphic" in2="effect1_dropShadow_417_9234" result="shape"/>
</filter>
</defs>
</svg>
