<svg width="1274" height="401" viewBox="0 0 1274 401" fill="none" xmlns="http://www.w3.org/2000/svg">
<g clip-path="url(#clip0_306_3452)">
<rect width="1274" height="401" fill="url(#paint0_linear_306_3452)"/>
<circle cx="27" cy="106" r="4" fill="#505266"/>
<circle cx="171" cy="300" r="4" fill="#505266"/>
<circle cx="319" cy="106" r="4" fill="#505266"/>
<circle cx="269.5" cy="234.5" r="1.5" fill="#505266"/>
<circle cx="176.5" cy="157.5" r="1.5" fill="#505266"/>
<circle cx="259.5" cy="359.5" r="1.5" fill="#505266"/>
<circle cx="41.5" cy="219.5" r="1.5" fill="#505266"/>
<circle cx="485.5" cy="209.5" r="1.5" fill="#505266"/>
<circle cx="189.5" cy="72.4999" r="1.5" fill="#505266"/>
<circle cx="378.5" cy="294.5" r="1.5" fill="#505266"/>
<circle cx="346.5" cy="206.5" r="1.5" fill="#505266"/>
<circle cx="346.5" cy="206.5" r="1.5" fill="#505266"/>
<circle cx="385.635" cy="145.613" r="4" transform="rotate(-40 385.635 145.613)" fill="#505266"/>
<circle cx="677.635" cy="145.613" r="4" transform="rotate(-40 677.635 145.613)" fill="#505266"/>
<circle cx="535.135" cy="197.113" r="1.5" transform="rotate(-40 535.135 197.113)" fill="#505266"/>
<circle cx="618.135" cy="399.113" r="1.5" transform="rotate(-40 618.135 399.113)" fill="#505266"/>
<circle cx="844.135" cy="249.113" r="1.5" transform="rotate(-40 844.135 249.113)" fill="#505266"/>
<circle cx="548.135" cy="112.113" r="1.5" transform="rotate(-40 548.135 112.113)" fill="#505266"/>
<circle cx="705.135" cy="246.113" r="1.5" transform="rotate(-40 705.135 246.113)" fill="#505266"/>
<circle cx="705.135" cy="246.113" r="1.5" transform="rotate(-40 705.135 246.113)" fill="#505266"/>
<circle cx="821.635" cy="41.613" r="4" transform="rotate(-40 821.635 41.613)" fill="#505266"/>
<circle cx="965.635" cy="235.613" r="4" transform="rotate(-40 965.635 235.613)" fill="#505266"/>
<circle cx="1113.64" cy="41.613" r="4" transform="rotate(-40 1113.64 41.613)" fill="#505266"/>
<circle cx="1209.64" cy="321.613" r="4" transform="rotate(-40 1209.64 321.613)" fill="#505266"/>
<circle cx="1064.14" cy="170.113" r="1.5" transform="rotate(-40 1064.14 170.113)" fill="#505266"/>
<circle cx="971.135" cy="93.113" r="1.5" transform="rotate(-40 971.135 93.113)" fill="#505266"/>
<circle cx="1054.14" cy="295.113" r="1.5" transform="rotate(-40 1054.14 295.113)" fill="#505266"/>
<circle cx="836.135" cy="155.113" r="1.5" transform="rotate(-40 836.135 155.113)" fill="#505266"/>
<circle cx="984.135" cy="8.11323" r="1.5" transform="rotate(-40 984.135 8.11323)" fill="#505266"/>
<circle cx="1173.14" cy="230.113" r="1.5" transform="rotate(-40 1173.14 230.113)" fill="#505266"/>
<circle cx="1141.14" cy="142.113" r="1.5" transform="rotate(-40 1141.14 142.113)" fill="#505266"/>
<circle cx="1141.14" cy="142.113" r="1.5" transform="rotate(-40 1141.14 142.113)" fill="#505266"/>
<circle cx="851.135" cy="392.113" r="1.5" transform="rotate(-40 851.135 392.113)" fill="#505266"/>
<path d="M202.4 308C197.267 308 192.667 306.8 188.6 304.4C184.533 302 181.3 298.733 178.9 294.6C176.567 290.4 175.4 285.667 175.4 280.4C175.4 275.133 176.567 270.433 178.9 266.3C181.3 262.1 184.533 258.8 188.6 256.4C192.667 254 197.267 252.8 202.4 252.8C207.133 252.8 211.467 253.633 215.4 255.3C219.4 256.967 222.567 259.3 224.9 262.3L216.2 272.7C215.267 271.633 214.167 270.633 212.9 269.7C211.633 268.767 210.233 268.033 208.7 267.5C207.167 266.967 205.567 266.7 203.9 266.7C201.367 266.7 199.133 267.3 197.2 268.5C195.267 269.633 193.767 271.233 192.7 273.3C191.633 275.367 191.1 277.733 191.1 280.4C191.1 282.933 191.633 285.233 192.7 287.3C193.833 289.367 195.367 291 197.3 292.2C199.233 293.4 201.433 294 203.9 294C205.633 294 207.233 293.8 208.7 293.4C210.167 292.933 211.5 292.267 212.7 291.4C213.967 290.533 215.133 289.467 216.2 288.2L224.8 298.7C222.533 301.567 219.367 303.833 215.3 305.5C211.3 307.167 207 308 202.4 308ZM258.592 308C253.059 308 248.126 306.8 243.792 304.4C239.526 302 236.126 298.733 233.592 294.6C231.126 290.467 229.892 285.733 229.892 280.4C229.892 275.067 231.126 270.333 233.592 266.2C236.126 262.067 239.526 258.8 243.792 256.4C248.126 254 253.059 252.8 258.592 252.8C264.126 252.8 269.026 254 273.292 256.4C277.626 258.8 281.026 262.067 283.492 266.2C285.959 270.333 287.192 275.067 287.192 280.4C287.192 285.733 285.959 290.467 283.492 294.6C281.026 298.733 277.626 302 273.292 304.4C269.026 306.8 264.126 308 258.592 308ZM258.592 294.2C260.992 294.2 263.126 293.6 264.992 292.4C266.859 291.2 268.326 289.567 269.392 287.5C270.459 285.433 270.959 283.067 270.892 280.4C270.959 277.733 270.459 275.367 269.392 273.3C268.326 271.167 266.859 269.5 264.992 268.3C263.126 267.1 260.992 266.5 258.592 266.5C256.192 266.5 254.026 267.1 252.092 268.3C250.226 269.5 248.759 271.167 247.692 273.3C246.626 275.367 246.126 277.733 246.192 280.4C246.126 283.067 246.626 285.433 247.692 287.5C248.759 289.567 250.226 291.2 252.092 292.4C254.026 293.6 256.192 294.2 258.592 294.2ZM297.655 307V253.9H312.855L313.355 264.7L310.155 265.9C310.888 263.5 312.188 261.333 314.055 259.4C315.988 257.4 318.288 255.8 320.955 254.6C323.621 253.4 326.421 252.8 329.355 252.8C333.355 252.8 336.721 253.633 339.455 255.3C342.188 256.9 344.255 259.333 345.655 262.6C347.055 265.8 347.755 269.733 347.755 274.4V307H331.655V275.7C331.655 273.567 331.355 271.8 330.755 270.4C330.155 269 329.221 267.967 327.955 267.3C326.755 266.567 325.255 266.233 323.455 266.3C322.055 266.3 320.755 266.533 319.555 267C318.355 267.4 317.321 268.033 316.455 268.9C315.588 269.7 314.888 270.633 314.355 271.7C313.888 272.767 313.655 273.933 313.655 275.2V307H305.755C303.888 307 302.288 307 300.955 307C299.621 307 298.521 307 297.655 307ZM377.431 307L355.231 253.9H372.931L386.131 293.6L382.231 294L395.831 253.9H413.331L390.031 307H377.431ZM445.513 308C439.647 308 434.547 306.833 430.213 304.5C425.88 302.1 422.513 298.867 420.113 294.8C417.713 290.667 416.513 285.967 416.513 280.7C416.513 276.633 417.18 272.9 418.513 269.5C419.847 266.1 421.713 263.167 424.113 260.7C426.513 258.167 429.347 256.233 432.613 254.9C435.947 253.5 439.58 252.8 443.513 252.8C447.247 252.8 450.647 253.467 453.713 254.8C456.847 256.133 459.547 258 461.813 260.4C464.08 262.8 465.813 265.633 467.013 268.9C468.213 272.167 468.747 275.733 468.613 279.6L468.513 283.9H426.213L423.913 274.9H455.513L453.813 276.8V274.8C453.68 273.133 453.147 271.667 452.213 270.4C451.347 269.067 450.18 268.033 448.713 267.3C447.247 266.567 445.58 266.2 443.713 266.2C441.113 266.2 438.88 266.733 437.013 267.8C435.213 268.8 433.847 270.3 432.913 272.3C431.98 274.233 431.513 276.633 431.513 279.5C431.513 282.433 432.113 285 433.313 287.2C434.58 289.333 436.38 291 438.713 292.2C441.113 293.4 443.947 294 447.213 294C449.48 294 451.48 293.667 453.213 293C455.013 292.333 456.947 291.2 459.013 289.6L466.513 300.2C464.447 302 462.247 303.467 459.913 304.6C457.58 305.733 455.18 306.567 452.713 307.1C450.313 307.7 447.913 308 445.513 308ZM478.807 307V253.9H494.007L494.507 264.7L491.307 265.9C492.04 263.5 493.34 261.333 495.207 259.4C497.14 257.4 499.44 255.8 502.107 254.6C504.774 253.4 507.574 252.8 510.507 252.8C514.507 252.8 517.874 253.633 520.607 255.3C523.34 256.9 525.407 259.333 526.807 262.6C528.207 265.8 528.907 269.733 528.907 274.4V307H512.807V275.7C512.807 273.567 512.507 271.8 511.907 270.4C511.307 269 510.374 267.967 509.107 267.3C507.907 266.567 506.407 266.233 504.607 266.3C503.207 266.3 501.907 266.533 500.707 267C499.507 267.4 498.474 268.033 497.607 268.9C496.74 269.7 496.04 270.633 495.507 271.7C495.04 272.767 494.807 273.933 494.807 275.2V307H486.907C485.04 307 483.44 307 482.107 307C480.774 307 479.674 307 478.807 307ZM546.684 307V240.5H562.684V307H546.684ZM537.284 267.9V253.9H572.984V267.9H537.284ZM601.239 307.9C596.772 307.9 592.772 306.733 589.239 304.4C585.772 302 583.006 298.733 580.939 294.6C578.872 290.4 577.839 285.667 577.839 280.4C577.839 275 578.872 270.233 580.939 266.1C583.006 261.967 585.839 258.733 589.439 256.4C593.039 254 597.139 252.8 601.739 252.8C604.272 252.8 606.572 253.167 608.639 253.9C610.772 254.633 612.639 255.667 614.239 257C615.839 258.267 617.206 259.767 618.339 261.5C619.472 263.167 620.306 264.967 620.839 266.9L617.539 266.5V253.9H633.439V307H617.239V294.2L620.839 294.1C620.306 295.967 619.439 297.733 618.239 299.4C617.039 301.067 615.572 302.533 613.839 303.8C612.106 305.067 610.172 306.067 608.039 306.8C605.906 307.533 603.639 307.9 601.239 307.9ZM605.639 294.4C608.106 294.4 610.239 293.833 612.039 292.7C613.839 291.567 615.239 289.967 616.239 287.9C617.239 285.767 617.739 283.267 617.739 280.4C617.739 277.533 617.239 275.067 616.239 273C615.239 270.867 613.839 269.233 612.039 268.1C610.239 266.9 608.106 266.3 605.639 266.3C603.239 266.3 601.139 266.9 599.339 268.1C597.606 269.233 596.239 270.867 595.239 273C594.239 275.067 593.739 277.533 593.739 280.4C593.739 283.267 594.239 285.767 595.239 287.9C596.239 289.967 597.606 291.567 599.339 292.7C601.139 293.833 603.239 294.4 605.639 294.4Z" fill="white"/>
<circle cx="100.5" cy="277.5" r="33" stroke="white" stroke-width="3"/>
<path d="M122.371 277.5C122.371 286.767 119.824 295.09 115.784 301.054C111.738 307.026 106.307 310.5 100.5 310.5C94.6925 310.5 89.2615 307.026 85.216 301.054C81.1761 295.09 78.6289 286.767 78.6289 277.5C78.6289 268.233 81.1761 259.91 85.216 253.946C89.2615 247.974 94.6925 244.5 100.5 244.5C106.307 244.5 111.738 247.974 115.784 253.946C119.824 259.91 122.371 268.233 122.371 277.5Z" stroke="white" stroke-width="3"/>
<path d="M100.5 255.629C109.767 255.629 118.09 258.176 124.054 262.216C130.026 266.262 133.5 271.693 133.5 277.5C133.5 283.307 130.026 288.738 124.054 292.784C118.09 296.824 109.767 299.371 100.5 299.371C91.2328 299.371 82.9097 296.824 76.9461 292.784C70.9741 288.738 67.5 283.307 67.5 277.5C67.5 271.693 70.9741 266.262 76.9461 262.216C82.9097 258.176 91.2328 255.629 100.5 255.629Z" stroke="white" stroke-width="3"/>
<path d="M111.242 277.5C111.242 286.902 109.887 295.35 107.743 301.394C106.668 304.422 105.423 306.766 104.116 308.325C102.802 309.891 101.573 310.5 100.5 310.5C99.4265 310.5 98.1979 309.891 96.884 308.325C95.5767 306.766 94.3319 304.422 93.2573 301.394C91.1128 295.35 89.7581 286.902 89.7581 277.5C89.7581 268.098 91.1128 259.65 93.2573 253.606C94.3319 250.578 95.5767 248.234 96.884 246.675C98.1979 245.109 99.4265 244.5 100.5 244.5C101.573 244.5 102.802 245.109 104.116 246.675C105.423 248.234 106.668 250.578 107.743 253.606C109.887 259.65 111.242 268.098 111.242 277.5Z" stroke="white" stroke-width="3"/>
<path d="M100.5 266.758C109.902 266.758 118.35 268.113 124.394 270.257C127.422 271.332 129.766 272.577 131.325 273.884C132.891 275.198 133.5 276.427 133.5 277.5C133.5 278.573 132.891 279.802 131.325 281.116C129.766 282.423 127.422 283.668 124.394 284.743C118.35 286.887 109.902 288.242 100.5 288.242C91.0976 288.242 82.6501 286.887 76.6064 284.743C73.578 283.668 71.2336 282.423 69.6753 281.116C68.1091 279.802 67.5 278.573 67.5 277.5C67.5 276.427 68.1091 275.198 69.6753 273.884C71.2336 272.577 73.578 271.332 76.6064 270.257C82.6501 268.113 91.0976 266.758 100.5 266.758Z" stroke="white" stroke-width="3"/>
</g>
<defs>
<linearGradient id="paint0_linear_306_3452" x1="637" y1="0" x2="637" y2="401" gradientUnits="userSpaceOnUse">
<stop/>
<stop offset="1" stop-color="#020F07"/>
</linearGradient>
<clipPath id="clip0_306_3452">
<rect width="1274" height="401" fill="white"/>
</clipPath>
</defs>
</svg>
