<svg width="600" height="600" viewBox="0 0 600 600" fill="none" xmlns="http://www.w3.org/2000/svg">
<g clip-path="url(#clip0_469_10339)">
<rect width="600" height="600" fill="white"/>
<path d="M2.32446 560.187V404.45L404.45 2.32422H560.187L2.32446 560.187Z" fill="#F5FFE9"/>
<g filter="url(#filter0_d_469_10339)">
<path d="M2.32446 404.45L404.45 2.32422M2.32446 560.187L560.187 2.32422" stroke="black"/>
</g>
<path d="M180.121 328.689L173.418 295.794L177.632 291.58L184.194 324.616L180.121 328.689ZM172.088 318.111C171.126 319.072 170.033 319.694 168.807 319.977C167.563 320.241 166.309 320.175 165.045 319.779C163.801 319.364 162.651 318.629 161.595 317.573C160.52 316.498 159.775 315.339 159.36 314.094C158.945 312.812 158.879 311.558 159.162 310.332C159.445 309.107 160.067 308.013 161.029 307.051C162.01 306.071 163.103 305.449 164.31 305.185C165.536 304.902 166.78 304.977 168.043 305.411C169.288 305.826 170.448 306.571 171.522 307.645C172.578 308.701 173.304 309.861 173.7 311.124C174.096 312.388 174.162 313.642 173.898 314.886C173.634 316.093 173.031 317.168 172.088 318.111ZM169.175 315.197C169.495 314.877 169.656 314.509 169.656 314.094C169.675 313.66 169.543 313.189 169.26 312.68C168.977 312.171 168.571 311.652 168.043 311.124C167.516 310.596 166.997 310.191 166.488 309.908C165.979 309.625 165.507 309.493 165.074 309.512C164.64 309.493 164.263 309.644 163.942 309.965C163.641 310.266 163.49 310.644 163.49 311.096C163.471 311.53 163.593 312.011 163.857 312.539C164.14 313.048 164.546 313.566 165.074 314.094C165.602 314.622 166.12 315.028 166.629 315.31C167.138 315.593 167.61 315.725 168.043 315.706C168.496 315.669 168.873 315.499 169.175 315.197ZM196.752 312.623C195.79 313.585 194.687 314.198 193.443 314.462C192.198 314.726 190.954 314.669 189.709 314.292C188.465 313.877 187.315 313.142 186.259 312.086C185.184 311.011 184.439 309.852 184.024 308.607C183.59 307.344 183.515 306.099 183.798 304.874C184.081 303.648 184.712 302.545 185.693 301.564C186.673 300.584 187.767 299.961 188.974 299.697C190.2 299.415 191.444 299.49 192.707 299.924C193.952 300.339 195.112 301.083 196.186 302.158C197.223 303.195 197.94 304.346 198.336 305.609C198.732 306.872 198.798 308.126 198.534 309.371C198.289 310.596 197.695 311.681 196.752 312.623ZM193.839 309.71C194.159 309.39 194.32 309.022 194.32 308.607C194.32 308.154 194.188 307.683 193.924 307.193C193.641 306.684 193.235 306.165 192.707 305.637C192.179 305.109 191.661 304.704 191.152 304.421C190.643 304.138 190.171 304.006 189.738 304.025C189.304 304.006 188.927 304.157 188.606 304.478C188.286 304.798 188.116 305.175 188.097 305.609C188.078 306.043 188.21 306.533 188.493 307.08C188.776 307.589 189.181 308.107 189.709 308.635C190.237 309.163 190.756 309.569 191.265 309.852C191.774 310.097 192.255 310.219 192.707 310.219C193.141 310.2 193.518 310.031 193.839 309.71ZM223.483 285.892C221.993 287.382 220.372 288.513 218.618 289.286C216.865 290.022 215.073 290.399 213.244 290.418C211.396 290.418 209.596 290.05 207.842 289.315C206.088 288.542 204.457 287.401 202.949 285.892C201.478 284.422 200.384 282.8 199.668 281.027C198.951 279.255 198.602 277.454 198.621 275.625C198.64 273.758 199.027 271.939 199.781 270.166C200.554 268.375 201.695 266.725 203.203 265.217C204.146 264.274 205.193 263.472 206.343 262.812C207.493 262.152 208.7 261.681 209.963 261.398C211.227 261.078 212.471 260.964 213.697 261.059L214.121 267.366C213.31 267.347 212.528 267.413 211.773 267.564C211.019 267.677 210.293 267.913 209.596 268.271C208.898 268.63 208.247 269.11 207.644 269.714C206.89 270.468 206.315 271.326 205.919 272.288C205.523 273.212 205.325 274.183 205.325 275.201C205.325 276.181 205.541 277.171 205.975 278.171C206.409 279.17 207.069 280.113 207.955 280.999C208.822 281.867 209.756 282.517 210.755 282.951C211.736 283.366 212.735 283.573 213.753 283.573C214.772 283.573 215.771 283.347 216.751 282.894C217.751 282.423 218.694 281.744 219.58 280.858C220.183 280.254 220.674 279.594 221.051 278.878C221.428 278.161 221.701 277.435 221.871 276.7C222.041 275.927 222.116 275.173 222.097 274.437L228.093 275.795C228.15 276.794 227.99 277.897 227.613 279.104C227.254 280.292 226.717 281.489 226 282.696C225.284 283.865 224.445 284.931 223.483 285.892ZM240.718 268.658C239.153 270.223 237.418 271.279 235.513 271.826C233.628 272.354 231.742 272.391 229.857 271.939C227.99 271.467 226.302 270.477 224.794 268.969C223.285 267.46 222.295 265.773 221.824 263.906C221.371 262.02 221.409 260.135 221.937 258.249C222.484 256.345 223.54 254.61 225.105 253.045C226.67 251.48 228.395 250.433 230.281 249.905C232.185 249.358 234.071 249.321 235.938 249.792C237.804 250.264 239.492 251.253 241.001 252.762C242.509 254.27 243.499 255.958 243.97 257.825C244.442 259.692 244.404 261.577 243.857 263.482C243.329 265.367 242.283 267.093 240.718 268.658ZM236.814 264.754C237.493 264.076 237.927 263.303 238.116 262.435C238.304 261.568 238.257 260.691 237.974 259.805C237.691 258.918 237.163 258.108 236.39 257.372C235.655 256.599 234.844 256.071 233.958 255.788C233.053 255.487 232.166 255.43 231.299 255.619C230.432 255.807 229.659 256.241 228.98 256.92C228.301 257.599 227.858 258.381 227.65 259.267C227.462 260.135 227.518 261.021 227.82 261.926C228.103 262.812 228.631 263.623 229.404 264.359C230.139 265.132 230.95 265.66 231.836 265.942C232.723 266.225 233.6 266.272 234.467 266.084C235.353 265.876 236.136 265.433 236.814 264.754ZM251.455 257.355L236.436 242.336L240.735 238.036L243.592 240.61L243.026 241.233C242.762 240.516 242.612 239.8 242.574 239.083C242.555 238.348 242.64 237.64 242.828 236.962C243.017 236.245 243.281 235.585 243.62 234.982C243.979 234.36 244.403 233.803 244.893 233.313C245.629 232.578 246.411 232.021 247.241 231.644C248.07 231.267 248.966 231.107 249.928 231.163C250.871 231.201 251.898 231.512 253.011 232.097L252.247 232.747L252.021 232.068C251.813 231.371 251.719 230.654 251.738 229.919C251.757 229.146 251.879 228.401 252.106 227.684C252.313 226.949 252.605 226.261 252.982 225.62C253.36 224.979 253.784 224.422 254.255 223.951C255.443 222.763 256.669 222.009 257.932 221.688C259.177 221.349 260.459 221.443 261.779 221.971C263.118 222.48 264.447 223.395 265.767 224.715L274.931 233.879L270.377 238.432L261.581 229.636C260.978 229.033 260.393 228.618 259.827 228.392C259.262 228.165 258.715 228.128 258.187 228.278C257.659 228.392 257.15 228.693 256.659 229.183C256.263 229.579 255.962 230.013 255.754 230.485C255.566 230.937 255.462 231.399 255.443 231.87C255.443 232.323 255.528 232.766 255.698 233.2C255.867 233.634 256.141 234.039 256.518 234.416L265.456 243.354L260.902 247.908L252.077 239.083C251.512 238.517 250.946 238.121 250.38 237.895C249.815 237.669 249.258 237.622 248.712 237.754C248.165 237.886 247.665 238.178 247.212 238.63C246.817 239.026 246.515 239.46 246.307 239.932C246.119 240.384 246.015 240.846 245.996 241.317C245.996 241.77 246.081 242.213 246.251 242.647C246.421 243.08 246.685 243.476 247.043 243.835L256.009 252.801L251.455 257.355ZM284.913 236.342L263.672 215.1L267.971 210.801L271.506 213.997L270.403 214.591C269.913 213.837 269.668 212.951 269.668 211.933C269.668 210.914 269.903 209.868 270.375 208.793C270.846 207.68 271.516 206.69 272.383 205.823C273.665 204.541 275.145 203.739 276.824 203.419C278.483 203.08 280.18 203.212 281.915 203.815C283.65 204.381 285.281 205.427 286.808 206.954C288.317 208.463 289.363 210.094 289.948 211.848C290.551 213.582 290.683 215.298 290.344 216.995C290.004 218.655 289.184 220.135 287.883 221.436C287.034 222.285 286.063 222.935 284.97 223.388C283.876 223.84 282.792 224.057 281.717 224.038C280.642 224.019 279.699 223.774 278.888 223.303L279.539 221.86L289.467 231.788L284.913 236.342ZM282.961 218.721C283.64 218.042 284.074 217.288 284.262 216.458C284.432 215.609 284.366 214.752 284.064 213.884C283.763 213.017 283.207 212.178 282.396 211.367C281.604 210.575 280.774 210.028 279.907 209.726C279.02 209.406 278.162 209.34 277.333 209.528C276.503 209.679 275.739 210.103 275.042 210.801C274.344 211.499 273.901 212.262 273.712 213.092C273.524 213.922 273.59 214.78 273.91 215.666C274.231 216.552 274.787 217.391 275.579 218.183C276.39 218.994 277.229 219.55 278.096 219.852C278.964 220.154 279.822 220.22 280.67 220.05C281.5 219.862 282.264 219.418 282.961 218.721ZM297.363 211.447L276.433 190.516L280.958 185.991L301.889 206.921L297.363 211.447ZM313.088 196.288C311.428 197.947 309.656 199.06 307.77 199.625C305.866 200.172 303.999 200.21 302.17 199.738C300.322 199.248 298.653 198.258 297.164 196.769C296.013 195.618 295.146 194.374 294.561 193.035C293.977 191.696 293.675 190.339 293.656 188.962C293.619 187.567 293.873 186.219 294.42 184.917C294.967 183.579 295.797 182.353 296.909 181.241C297.965 180.185 299.115 179.411 300.36 178.921C301.623 178.412 302.915 178.176 304.235 178.214C305.555 178.252 306.846 178.563 308.11 179.147C309.373 179.732 310.533 180.59 311.589 181.721L312.777 182.966L300.812 194.93L297.616 193.035L306.554 184.097L306.611 185.115L306.045 184.55C305.536 184.116 304.97 183.852 304.348 183.758C303.726 183.626 303.103 183.664 302.481 183.871C301.859 184.078 301.284 184.446 300.756 184.974C300.02 185.709 299.54 186.492 299.313 187.322C299.087 188.114 299.125 188.924 299.426 189.754C299.709 190.565 300.256 191.376 301.067 192.187C301.897 193.016 302.792 193.572 303.754 193.855C304.716 194.1 305.696 194.063 306.695 193.742C307.714 193.403 308.685 192.771 309.609 191.847C310.25 191.206 310.721 190.546 311.023 189.867C311.343 189.17 311.57 188.302 311.702 187.265L316.821 188.142C316.746 189.236 316.538 190.273 316.199 191.253C315.86 192.234 315.416 193.148 314.87 193.997C314.36 194.845 313.766 195.609 313.088 196.288ZM323.466 185.344L304.657 166.534L309.183 162.009L327.992 180.818L323.466 185.344ZM309.748 176.943L305.789 172.983L315.886 162.886L319.846 166.846L309.748 176.943ZM340.792 168.584C339.133 170.243 337.36 171.355 335.474 171.921C333.57 172.468 331.703 172.506 329.874 172.034C328.026 171.544 326.357 170.554 324.868 169.064C323.718 167.914 322.85 166.67 322.266 165.331C321.681 163.992 321.379 162.634 321.361 161.258C321.323 159.863 321.577 158.514 322.124 157.213C322.671 155.874 323.501 154.649 324.613 153.536C325.669 152.48 326.819 151.707 328.064 151.217C329.327 150.708 330.619 150.472 331.939 150.51C333.259 150.548 334.55 150.859 335.814 151.443C337.077 152.028 338.237 152.886 339.293 154.017L340.481 155.262L328.517 167.226L325.32 165.331L334.258 156.393L334.315 157.411L333.749 156.846C333.24 156.412 332.674 156.148 332.052 156.054C331.43 155.922 330.808 155.959 330.185 156.167C329.563 156.374 328.988 156.742 328.46 157.27C327.725 158.005 327.244 158.788 327.017 159.617C326.791 160.409 326.829 161.22 327.131 162.05C327.413 162.861 327.96 163.672 328.771 164.482C329.601 165.312 330.496 165.868 331.458 166.151C332.42 166.396 333.4 166.359 334.4 166.038C335.418 165.699 336.389 165.067 337.313 164.143C337.954 163.502 338.425 162.842 338.727 162.163C339.048 161.465 339.274 160.598 339.406 159.561L344.525 160.438C344.45 161.531 344.243 162.568 343.903 163.549C343.564 164.529 343.121 165.444 342.574 166.293C342.065 167.141 341.471 167.905 340.792 168.584Z" fill="black"/>
</g>
<defs>
<filter id="filter0_d_469_10339" x="1.97095" y="1.9707" width="568.57" height="568.569" filterUnits="userSpaceOnUse" color-interpolation-filters="sRGB">
<feFlood flood-opacity="0" result="BackgroundImageFix"/>
<feColorMatrix in="SourceAlpha" type="matrix" values="0 0 0 0 0 0 0 0 0 0 0 0 0 0 0 0 0 0 127 0" result="hardAlpha"/>
<feOffset dx="5" dy="5"/>
<feGaussianBlur stdDeviation="2.5"/>
<feComposite in2="hardAlpha" operator="out"/>
<feColorMatrix type="matrix" values="0 0 0 0 0 0 0 0 0 0 0 0 0 0 0 0 0 0 0.25 0"/>
<feBlend mode="normal" in2="BackgroundImageFix" result="effect1_dropShadow_469_10339"/>
<feBlend mode="normal" in="SourceGraphic" in2="effect1_dropShadow_469_10339" result="shape"/>
</filter>
<clipPath id="clip0_469_10339">
<rect width="600" height="600" fill="white"/>
</clipPath>
</defs>
</svg>
