<svg width="725" height="634" viewBox="0 0 725 634" fill="none" xmlns="http://www.w3.org/2000/svg">
<g filter="url(#filter0_d_317_3679)">
<path d="M320.751 437.531C320.751 452.499 309.596 464.633 295.837 464.633H36.2517C22.4922 464.633 11.3379 452.499 11.3379 437.531V51.7279H320.751V437.531Z" fill="white"/>
<path d="M319.428 437.531C319.325 449.841 311.29 460.379 300.188 462.765C298.048 463.133 295.88 463.278 293.715 463.196H42.2616C40.4826 463.196 38.7036 463.196 36.9246 463.196C30.4982 463.394 24.2759 460.731 19.6955 455.824C15.115 450.916 12.5728 444.189 12.6562 437.196C12.6525 435.883 12.6562 434.571 12.6562 433.259V51.7279L11.336 53.1644H316.071C317.458 53.2523 318.848 53.2523 320.235 53.1644C320.406 53.1536 320.578 53.1536 320.749 53.1644L319.428 51.7279V421.89C319.428 426.883 319.337 431.888 319.428 436.881C319.432 437.098 319.428 437.314 319.428 437.531C319.456 438.303 320.039 438.913 320.749 438.913C321.459 438.913 322.042 438.303 322.069 437.531V67.3696C322.069 62.3761 322.16 57.3711 322.069 52.3783C322.065 52.1615 322.069 51.9446 322.069 51.7278C322.059 50.9391 321.474 50.3025 320.749 50.2912H23.9137C19.8967 50.2912 15.8661 50.1855 11.8497 50.2912C11.6787 50.2957 11.5071 50.2912 11.3361 50.2912C10.6111 50.3025 10.0258 50.9391 10.0155 51.7278V427.417C10.0155 430.772 9.98939 434.129 10.0155 437.484C10.0638 447.462 14.8409 456.708 22.652 461.94C27.0351 464.749 32.0493 466.179 37.1355 466.069H288.235C294.503 466.069 300.623 466.442 306.546 463.58C315.941 458.925 321.998 448.761 322.069 437.531C322.087 435.682 319.446 435.68 319.428 437.531Z" fill="black"/>
<path d="M36.2517 1.46817H295.837C309.596 1.46817 320.751 13.6021 320.751 28.57V51.8122H11.3379V28.57C11.3379 13.6021 22.4922 1.46817 36.2517 1.46817V1.46817Z" fill="black"/>
<path d="M36.252 2.90478H288.668C293.428 2.90478 298.376 2.52593 302.968 4.09698C312.51 7.45377 319.091 16.9603 319.421 27.8634C319.562 33.8469 319.43 39.8505 319.43 45.8355V51.8122L320.751 50.3757H23.8981C19.9307 50.3757 15.823 50.0407 11.8642 50.3757C11.6911 50.3903 11.5121 50.3757 11.3381 50.3757L12.6587 51.8122V32.9837C12.5398 30.0948 12.6447 27.2 12.9723 24.3302C14.8859 11.9654 24.7254 2.90961 36.252 2.90478C37.9507 2.88872 37.9547 0.0159203 36.252 0.031662C25.1121 0.130991 15.2142 7.78558 11.4681 19.1984C10.3887 22.8855 9.8981 26.7465 10.0176 30.6139V51.8123C10.0279 52.6009 10.6131 53.2375 11.3381 53.2488H308.191C312.2 53.2488 316.216 53.3309 320.225 53.2488C320.4 53.2452 320.575 53.2488 320.751 53.2488C321.476 53.2376 322.061 52.6009 322.071 51.8122V33.8172C322.071 31.5282 322.151 29.2152 322.025 26.9279C321.746 21.6367 320.117 16.5347 317.32 12.1949C312.364 4.60544 304.351 0.0776525 295.793 0.0313408C294.779 0.0238715 293.765 0.0313408 292.752 0.0313408H50.3512C45.85 0.0313408 41.3437 -0.039176 36.8426 0.0313408C36.6459 0.0344731 36.4488 0.0313408 36.252 0.0313408C35.541 0.0590786 34.9778 0.694124 34.9778 1.46806C34.9778 2.242 35.541 2.87704 36.252 2.90478Z" fill="black"/>
<path d="M82.9631 283.872H233.546C236.245 283.916 238.932 283.467 241.495 282.545C250.393 279.232 256.49 270.293 256.826 260.07C257.163 249.847 251.669 240.457 243.012 236.46C240.066 235.128 236.902 234.458 233.711 234.491H84.8413C84.2199 234.491 83.5984 234.487 82.9771 234.491C74.8586 234.472 67.3492 239.172 63.2835 246.817C59.2179 254.461 59.2152 263.886 63.2765 271.533C67.3378 279.18 74.8445 283.885 82.9631 283.872C84.6629 283.883 84.6648 281.01 82.9631 280.999C75.767 280.999 69.1225 276.805 65.551 270.009C61.9795 263.213 62.0285 254.857 65.6793 248.111C69.3301 241.365 76.0232 237.264 83.2187 237.364C85.9204 237.36 88.6222 237.36 91.3239 237.364H225.302C228.127 237.364 230.953 237.364 233.779 237.364C236.998 237.319 240.182 238.097 243.074 239.636C251.19 244.022 255.594 253.783 253.821 263.45C252.048 273.117 244.537 280.291 235.496 280.953C233.251 281.105 230.974 280.998 228.727 280.998H82.9631C82.2504 281.024 81.6846 281.659 81.6846 282.435C81.6846 283.211 82.2504 283.847 82.9631 283.872Z" fill="black"/>
<path d="M82.9618 354.833H233.544C236.244 354.877 238.931 354.429 241.494 353.506C250.391 350.193 256.489 341.254 256.825 331.031C257.162 320.808 251.668 311.418 243.011 307.421C240.065 306.089 236.901 305.419 233.71 305.452H84.84C84.2187 305.452 83.5972 305.448 82.9759 305.452C70.4405 305.447 60.2754 316.498 60.2715 330.135C60.2676 343.771 70.4264 354.829 82.9618 354.833C84.6617 354.844 84.6635 351.971 82.9618 351.96C75.7658 351.96 69.1212 347.766 65.5497 340.97C61.9782 334.174 62.0272 325.818 65.678 319.072C69.3288 312.326 76.022 308.225 83.2174 308.325C85.9192 308.321 88.6209 308.321 91.3226 308.325H225.301C228.126 308.325 230.952 308.325 233.777 308.325C236.997 308.28 240.181 309.058 243.073 310.597C251.188 314.984 255.593 324.744 253.82 334.411C252.047 344.078 244.536 351.252 235.494 351.914C233.249 352.066 230.973 351.959 228.726 351.959H82.9618C82.2491 351.985 81.6833 352.621 81.6833 353.396C81.6833 354.172 82.2491 354.808 82.9618 354.833Z" fill="black"/>
<path d="M243.179 401.825H79.546C77.3292 401.825 75.1068 401.774 72.8904 401.825C72.7954 401.827 72.7003 401.825 72.6053 401.825C71.8963 401.855 71.3359 402.489 71.3359 403.261C71.3359 404.033 71.8963 404.667 72.6053 404.698H236.238C238.455 404.698 240.677 404.748 242.894 404.698C242.989 404.696 243.084 404.698 243.179 404.698C243.888 404.667 244.448 404.033 244.448 403.261C244.448 402.489 243.888 401.855 243.179 401.825V401.825Z" fill="black"/>
<path d="M209.241 423.88H132.758C129.222 423.88 125.653 423.729 122.118 423.88C122.069 423.882 122.02 423.88 121.97 423.88C121.261 423.911 120.701 424.545 120.701 425.317C120.701 426.088 121.261 426.723 121.97 426.753H198.453C201.989 426.753 205.558 426.905 209.093 426.753C209.142 426.751 209.192 426.753 209.241 426.753C209.95 426.723 210.51 426.088 210.51 425.317C210.51 424.545 209.95 423.911 209.241 423.88Z" fill="black"/>
<ellipse cx="40.3538" cy="30.2534" rx="6.5413" ry="7.11577" fill="#EA2F2F"/>
<ellipse cx="65.7269" cy="30.2534" rx="6.5413" ry="7.11577" fill="#C42B0A"/>
<ellipse cx="91.0999" cy="30.2534" rx="6.5413" ry="7.11577" fill="#9B3838"/>
<path d="M515.835 266.391L517.378 275.425C519.468 287.661 516.699 300.287 509.756 310.178L502.173 320.979L474.441 263.039" fill="black"/>
<path d="M514.561 266.773L515.917 274.712C516.768 279.398 516.939 284.2 516.424 288.943C515.71 294.88 513.856 300.587 510.981 305.693C509.417 308.317 507.729 310.851 505.924 313.285L501.032 320.254H503.313L493.926 300.641L478.983 269.423L475.581 262.314C474.796 260.674 472.516 262.125 473.301 263.764L482.688 283.377L497.63 314.596L501.032 321.704C501.276 322.135 501.708 322.398 502.173 322.398C502.638 322.398 503.069 322.135 503.313 321.704L507.605 315.591C509.263 313.229 511.01 310.904 512.516 308.422C518.454 298.494 520.638 286.455 518.613 274.817C518.114 271.88 517.612 268.945 517.108 266.009C516.798 264.194 514.252 264.963 514.561 266.773H514.561Z" fill="black"/>
<path d="M567.834 486.605L619.867 517.641L579.715 598.02C579.715 598.02 560.006 584.793 572.314 554.541C574.647 548.852 572.54 542.169 567.488 539.236C561.118 535.554 554.939 532.023 554.939 532.023" fill="#9B3838"/>
<path d="M567.167 487.846L584.834 498.383L612.782 515.053L619.201 518.882L618.727 516.916L614.736 524.907L605.149 544.097L593.55 567.316L583.521 587.393L580.205 594.031C579.629 595.038 579.108 596.082 578.644 597.156C578.624 597.203 578.601 597.25 578.575 597.294L580.382 596.779C580.283 596.716 580.187 596.647 580.095 596.572C580 596.491 579.895 596.42 579.797 596.343C579.646 596.224 579.235 595.875 579.554 596.149C578.648 595.371 577.79 594.529 576.985 593.627C574.465 590.813 572.516 587.455 571.264 583.769C569.469 578.186 569.102 572.176 570.202 566.383C571.031 562.317 572.216 558.347 573.74 554.526C574.98 551.027 574.817 547.122 573.291 543.759C571.297 539.306 567.245 537.466 563.432 535.272C560.825 533.772 558.216 532.275 555.606 530.782C554.102 529.923 552.766 532.402 554.273 533.263C556.445 534.504 558.616 535.749 560.785 536.997C562.797 538.153 564.824 539.287 566.822 540.475C571.249 543.006 573.143 548.814 571.173 553.815C569.639 557.611 568.461 561.566 567.656 565.62C566.488 571.66 566.773 577.927 568.484 583.812C569.777 587.972 571.852 591.793 574.576 595.033C575.884 596.656 577.389 598.078 579.049 599.26C579.68 599.651 580.483 599.422 580.856 598.744L584.847 590.754L594.434 571.563L606.033 548.344L616.062 528.267C617.685 525.018 619.406 521.805 620.939 518.504C620.96 518.458 620.985 518.412 621.008 518.366C621.364 517.679 621.154 516.809 620.534 516.401L602.867 505.863L574.919 489.193L568.5 485.365C567.009 484.476 565.675 486.956 567.167 487.846V487.846Z" fill="black"/>
<path d="M592.218 571.875L570.501 559.594C563.043 583.604 576.474 595.52 579.232 597.662L579.209 597.709L588.589 604.35C590.463 603.16 595.019 601.363 596.43 598.563C598.292 594.871 594.769 592.77 596.63 589.078C598.491 585.386 602.013 587.488 603.874 583.796C605.735 580.105 602.213 578.003 604.074 574.311C605.935 570.619 609.458 572.721 611.319 569.029C613.18 565.337 609.658 563.235 611.519 559.543C613.38 555.85 616.902 557.953 618.763 554.261C620.625 550.569 617.102 548.467 618.963 544.775C620.824 541.082 624.348 543.183 626.209 539.49C628.071 535.798 624.548 533.696 626.41 530.002C627.547 527.748 629.302 527.653 630.921 527.08C631.631 526.832 632.132 526.139 632.184 525.329C632.237 524.52 631.831 523.757 631.16 523.403L626.897 521.158L619.513 517.672L592.218 571.875Z" fill="white"/>
<path d="M592.884 570.634L573.883 559.89L571.167 558.354C570.812 558.138 570.385 558.11 570.008 558.277C569.631 558.444 569.343 558.788 569.227 559.213C566.911 566.753 566.074 574.987 568.167 582.708C569.513 587.653 571.956 592.163 575.281 595.839C576.294 596.96 577.392 597.985 578.566 598.903L578.092 596.937L578.068 596.985C577.717 597.672 577.926 598.538 578.542 598.95L587.923 605.59C588.334 605.853 588.844 605.853 589.256 605.59C592.708 603.441 598.076 601.706 598.308 596.514C598.397 594.501 596.984 592.492 597.495 590.523C598.129 588.083 600.351 588.085 602.156 587.27C604.382 586.278 605.812 583.892 605.749 581.276C605.653 579.321 604.3 577.234 605.084 575.31C605.986 573.097 608.294 573.221 610.046 572.291C612.168 571.109 613.402 568.628 613.151 566.049C612.918 563.934 611.592 561.886 612.876 559.879C613.982 558.149 616.308 558.319 617.867 557.305C619.929 555.907 620.983 553.268 620.515 550.674C620.167 548.581 619.006 546.63 620.584 544.75C621.244 544.102 622.061 543.674 622.937 543.518C623.947 543.275 624.906 542.828 625.764 542.199C627.654 540.622 628.486 537.962 627.873 535.457C627.42 533.41 626.456 531.194 628.401 529.605C630.086 528.229 632.701 528.841 633.393 526.114C633.892 524.145 632.779 522.664 631.25 521.859C630.039 521.221 628.836 520.559 627.615 519.945C625.428 518.846 623.19 517.853 620.98 516.81L620.179 516.431C619.547 516.05 618.751 516.277 618.372 516.947L609.129 535.303L594.421 564.511L591.078 571.15C590.261 572.772 592.541 574.224 593.358 572.6L602.602 554.244L617.31 525.036L620.653 518.397L618.846 518.912L625.483 522.046C626.16 522.365 626.82 522.709 627.484 523.058L629.531 524.136C629.954 524.285 630.353 524.505 630.714 524.788C631.133 525.287 630.681 525.655 630.251 525.801C629.235 526.057 628.25 526.442 627.317 526.949C625.277 528.321 624.216 530.91 624.641 533.477C624.958 535.504 626.099 537.366 624.778 539.277C623.659 540.896 621.372 540.746 619.86 541.73C617.827 543.103 616.771 545.687 617.195 548.249C617.513 550.277 618.654 552.135 617.332 554.048C616.214 555.664 613.925 555.516 612.415 556.498C610.413 557.847 609.355 560.375 609.733 562.904C610.025 564.917 611.189 566.768 609.962 568.692C608.878 570.391 606.608 570.257 605.063 571.207C603.003 572.535 601.902 575.101 602.289 577.672C602.582 579.682 603.746 581.54 602.518 583.46C601.432 585.158 599.166 585.023 597.619 585.974C595.611 587.262 594.508 589.735 594.821 592.248C595.072 594.21 596.275 596.13 595.187 598.032C594.129 599.881 591.92 600.925 590.196 601.853C589.435 602.263 588.661 602.65 587.923 603.11H589.256L579.875 596.469L580.348 598.435L580.372 598.387C580.719 597.699 580.511 596.836 579.899 596.422C579.742 596.3 579.589 596.175 579.435 596.049C579.373 595.998 579.646 596.238 579.363 595.986C579.259 595.893 579.153 595.802 579.05 595.708C578.537 595.247 578.042 594.763 577.565 594.257C576.282 592.913 575.134 591.425 574.138 589.819C571.199 585.033 569.62 579.412 569.595 573.656C569.617 568.996 570.353 564.373 571.774 559.977L569.834 560.835L588.836 571.58L591.551 573.115C593.058 573.967 594.395 571.488 592.884 570.634Z" fill="black"/>
<path d="M579.161 564.422L583.767 554.549C584.359 553.281 584.961 552.018 585.542 550.744C586.922 547.784 587.289 544.386 586.576 541.159C585.778 537.706 583.782 534.722 581.008 532.833C580.225 532.301 579.383 531.857 578.57 531.385L567.785 525.126L559.284 520.193C557.786 519.323 556.449 521.803 557.951 522.674L575.77 533.015C578.605 534.66 581.477 536.06 583.105 539.301C584.527 542.168 584.695 545.577 583.562 548.593C583.117 549.766 582.518 550.888 581.991 552.017L576.88 562.972C576.113 564.617 578.391 566.073 579.161 564.422L579.161 564.422Z" fill="black"/>
<path d="M610.917 534.394C609.466 533.58 608.129 532.546 606.944 531.324C603.983 527.987 602.87 523.192 604.018 518.726C604.425 517.327 604.995 515.991 605.713 514.749L607.738 510.938C608.076 510.256 607.856 509.406 607.241 509.015C606.626 508.624 605.837 508.833 605.457 509.488C604.056 512.125 602.357 514.758 601.542 517.698C600.157 522.859 601.233 528.432 604.41 532.551C605.883 534.317 607.635 535.782 609.584 536.875C611.059 537.8 612.391 535.318 610.917 534.394V534.394Z" fill="black"/>
<path d="M573.869 547.321C576.159 546.711 578.57 546.955 580.717 548.012Z" fill="#A8542A"/>
<path d="M574.219 548.706C574.389 548.65 574.562 548.605 574.737 548.571C574.82 548.553 574.903 548.537 574.987 548.522C575.044 548.515 575.102 548.506 575.158 548.493C575.1 548.511 574.799 548.54 575.026 548.513C575.297 548.481 575.568 548.455 575.84 548.443C576.151 548.43 576.463 548.431 576.775 548.448C576.957 548.457 577.138 548.471 577.319 548.491C577.406 548.494 577.492 548.504 577.578 548.521C577.255 548.434 577.594 548.525 577.653 548.535C578.074 548.609 578.491 548.709 578.902 548.834C579.103 548.895 579.302 548.962 579.5 549.035C579.623 549.081 579.746 549.129 579.867 549.179C579.905 549.194 580.246 549.344 580.049 549.253C580.361 549.434 580.723 549.485 581.067 549.397C581.579 549.244 581.957 548.771 582.025 548.198C582.094 547.625 581.841 547.063 581.382 546.772C579.665 545.943 577.802 545.531 575.923 545.567C575.109 545.571 574.3 545.695 573.517 545.936C572.814 546.147 572.401 546.938 572.595 547.703C572.789 548.468 573.516 548.917 574.219 548.706L574.219 548.706Z" fill="black"/>
<path d="M571.773 542.318C573.255 540.324 575.308 538.927 577.605 538.353Z" fill="#A8542A"/>
<path d="M572.912 543.043C573.062 542.812 572.724 543.296 572.801 543.198C572.888 543.084 572.973 542.969 573.064 542.859C573.386 542.47 573.735 542.108 574.107 541.776C574.171 541.719 574.237 541.665 574.299 541.607C573.983 541.898 574.157 541.726 574.237 541.661C574.384 541.542 574.533 541.427 574.685 541.316C575.001 541.085 575.328 540.872 575.664 540.678C575.834 540.579 576.008 540.485 576.183 540.396C576.28 540.327 576.386 540.275 576.498 540.242C576.317 540.324 576.293 540.336 576.427 540.276C576.482 540.252 576.538 540.228 576.594 540.204C577.039 540.02 577.493 539.864 577.955 539.738C578.656 539.526 579.068 538.736 578.874 537.972C578.681 537.208 577.955 536.759 577.252 536.968C575.433 537.473 573.738 538.407 572.287 539.703C571.658 540.248 571.101 540.884 570.632 541.593C570.267 542.279 570.479 543.155 571.105 543.558C571.738 543.938 572.532 543.711 572.912 543.043L572.912 543.043Z" fill="black"/>
<path d="M566.475 538.398C567.025 535.905 568.328 533.684 570.175 532.092Z" fill="#A8542A"/>
<path d="M567.748 538.78C567.782 538.585 567.825 538.392 567.879 538.202C567.935 537.991 567.999 537.782 568.069 537.576C568.112 537.449 568.16 537.323 568.205 537.197C568.284 536.978 568.053 537.577 568.188 537.247C568.217 537.175 568.248 537.103 568.279 537.031C568.581 536.335 568.945 535.672 569.364 535.052C569.398 535.002 569.432 534.953 569.466 534.904C569.356 535.057 569.332 535.092 569.393 535.008C569.458 534.921 569.522 534.832 569.588 534.746C569.727 534.566 569.869 534.391 570.017 534.22C570.359 533.825 570.724 533.453 571.109 533.108C571.622 532.546 571.622 531.638 571.109 531.076C570.585 530.536 569.765 530.536 569.241 531.076C567.872 532.304 566.765 533.841 565.998 535.581C565.634 536.35 565.366 537.169 565.201 538.016C565.025 538.778 565.431 539.556 566.123 539.783C566.826 539.984 567.547 539.538 567.748 538.779L567.748 538.78Z" fill="black"/>
<path d="M560.211 534.714C560.761 532.221 562.064 530 563.911 528.408Z" fill="#A8542A"/>
<path d="M561.487 535.096C561.52 534.901 561.564 534.708 561.617 534.518C561.674 534.307 561.738 534.098 561.808 533.892C561.851 533.765 561.898 533.639 561.943 533.513C562.023 533.294 561.791 533.893 561.926 533.563C561.956 533.491 561.986 533.419 562.017 533.347C562.319 532.651 562.683 531.988 563.103 531.368C563.136 531.318 563.17 531.269 563.205 531.22C563.095 531.373 563.07 531.408 563.131 531.324C563.196 531.237 563.26 531.148 563.327 531.062C563.465 530.882 563.608 530.707 563.755 530.536C564.097 530.141 564.462 529.769 564.847 529.424C565.36 528.862 565.36 527.955 564.847 527.392C564.324 526.852 563.503 526.852 562.979 527.392C561.611 528.62 560.504 530.158 559.736 531.897C559.372 532.667 559.104 533.486 558.939 534.332C558.764 535.095 559.17 535.873 559.862 536.099C560.564 536.3 561.285 535.855 561.486 535.096H561.487Z" fill="black"/>
<path d="M399.473 536.048L382.398 597.872L301.77 571.882C301.77 571.882 309.559 548.158 339.322 554.956C344.923 556.254 350.493 552.621 352.079 546.636C354.063 539.092 355.952 531.782 355.952 531.782" fill="#9B3838"/>
<path d="M398.199 535.666L392.402 556.657L383.231 589.864L381.125 597.49L382.749 596.486L374.734 593.903L355.483 587.697L332.192 580.189L312.052 573.698L305.394 571.551C304.367 571.15 303.321 570.813 302.259 570.541C302.212 570.529 302.166 570.514 302.12 570.496L303.043 572.263C303.063 572.201 303.117 571.951 303.162 571.933C303.281 571.883 303.035 572.243 303.109 572.069C303.139 572.001 303.164 571.931 303.193 571.862C303.267 571.685 303.341 571.508 303.419 571.332C303.899 570.255 304.445 569.215 305.053 568.217C306.961 565.105 309.407 562.426 312.255 560.329C316.631 557.243 321.686 555.484 326.897 555.236C330.448 555.04 334.007 555.305 337.501 556.026C339.341 556.519 341.241 556.689 343.131 556.531C346.932 556.022 350.293 553.597 352.202 549.985C353.403 547.702 353.88 545.009 354.535 542.503C355.436 539.058 356.333 535.612 357.225 532.164C357.685 530.381 355.138 529.62 354.678 531.4C353.955 534.197 353.229 536.993 352.498 539.788C351.415 543.94 350.839 548.756 347.51 551.575C346.224 552.654 344.711 553.368 343.108 553.653C341.228 553.992 339.465 553.489 337.625 553.143C334.087 552.441 330.488 552.179 326.896 552.362C317.478 552.944 308.714 557.556 303.235 566.027C302.103 567.711 301.182 569.551 300.495 571.499C300.311 572.263 300.72 573.047 301.418 573.266L309.433 575.85L328.683 582.055L351.975 589.563L372.114 596.055C375.366 597.103 378.614 598.33 381.908 599.212C381.954 599.224 382 599.242 382.046 599.257C382.748 599.454 383.467 599.01 383.671 598.253L389.468 577.263L398.639 544.056L400.745 536.43C401.235 534.655 398.687 533.897 398.198 535.666L398.199 535.666Z" fill="black"/>
<path d="M412.7 269.826L349.285 528.853L412.266 546.086C412.266 546.086 456.165 356.658 460.9 327.714C465.634 298.77 468.824 259.343 468.824 259.343" fill="#C94D45"/>
<path d="M411.425 269.445L409.729 276.372L405.114 295.224L398.287 323.107L389.959 357.127L380.836 394.389L371.628 432L363.043 467.066L355.791 496.692L350.578 517.984C349.759 521.332 348.876 524.67 348.117 528.035C348.084 528.181 348.046 528.326 348.01 528.471C347.827 529.235 348.236 530.018 348.933 530.238L370.248 536.07L404.18 545.355L411.914 547.471C412.616 547.669 413.335 547.225 413.538 546.467C414.104 544.025 414.669 541.583 415.233 539.141C416.741 532.614 418.246 526.086 419.749 519.557C421.941 510.034 424.128 500.51 426.309 490.984C428.898 479.681 431.478 468.375 434.051 457.067C436.787 445.033 439.511 432.995 442.223 420.954C444.817 409.427 447.392 397.894 449.949 386.356C452.155 376.382 454.332 366.401 456.479 356.412C458.018 349.215 459.546 342.012 460.95 334.782C463.079 323.818 464.51 312.702 465.849 301.597C467.454 288.283 468.824 274.937 469.957 261.56C470.02 260.821 470.082 260.082 470.143 259.343C470.292 257.502 467.65 257.512 467.502 259.343C466.703 269.206 465.724 279.056 464.659 288.889C463.153 302.794 461.592 316.774 459.068 330.512C457.885 336.947 456.536 343.348 455.187 349.744C453.191 359.201 451.149 368.646 449.059 378.079C446.581 389.35 444.076 400.614 441.545 411.871C438.856 423.858 436.151 435.842 433.43 447.821C430.804 459.394 428.168 470.964 425.522 482.531C423.229 492.557 420.93 502.581 418.626 512.603C416.937 519.95 415.244 527.295 413.549 534.639C412.74 538.144 411.695 541.681 411.099 545.239C411.073 545.395 411.027 545.55 410.991 545.704L412.615 544.701L391.3 538.868L357.368 529.584L349.634 527.468L350.557 529.235L352.253 522.308L356.868 503.455L363.694 475.572L372.023 441.553L381.145 404.29L390.353 366.679L398.938 331.614L406.191 301.988L411.404 280.696C412.223 277.348 413.105 274.009 413.864 270.644C413.897 270.498 413.935 270.354 413.971 270.208C414.409 268.42 411.862 267.657 411.424 269.444L411.425 269.445Z" fill="black"/>
<path d="M448.908 273.095L435.776 396.804C432.005 433.841 446.289 470.541 473.803 492.738C477.069 495.384 480.502 497.778 484.076 499.902L549.99 538.868L581.752 477.247C581.752 477.247 527.307 439.847 502.864 427.306L512.156 328.294C513.159 317.604 512.228 306.803 509.415 296.503L496.008 256.335H454.631" fill="#C94D45"/>
<path d="M447.591 273.095L446.175 286.43L442.848 317.774L438.887 355.08L435.668 385.409C435.095 390.803 434.393 396.211 434.068 401.632C432.936 420.937 436.601 440.217 444.677 457.45C453.153 475.569 466.328 490.585 482.572 500.639C487.678 503.746 492.855 506.725 497.996 509.764L527.559 527.241L548.242 539.467L549.327 540.109C549.958 540.496 550.758 540.268 551.134 539.593L561.902 518.702L578.979 485.571L582.895 477.973C583.248 477.286 583.039 476.418 582.422 476.008C575.851 471.495 569.246 467.041 562.607 462.648C549.582 453.985 536.483 445.439 523.166 437.316C516.717 433.383 510.22 429.504 503.533 426.066L504.187 427.307L506.223 405.613L510.249 362.716L513.241 330.83C513.879 324.84 513.994 318.799 513.584 312.786C512.973 305.507 511.481 298.347 509.147 291.493L497.579 256.835L497.285 255.954C497.114 255.341 496.601 254.915 496.012 254.899H454.634C453.925 254.93 453.364 255.564 453.364 256.336C453.364 257.108 453.925 257.742 454.634 257.772H496.011L494.738 256.718L505.256 288.231C506.907 293.177 508.593 297.956 509.606 303.12C511.241 311.741 511.623 320.587 510.74 329.337L508.078 357.696L504.018 400.969L502.401 418.201C502.129 421.095 501.737 424.008 501.583 426.912C501.576 427.044 501.559 427.175 501.546 427.306C501.537 427.819 501.788 428.296 502.2 428.546C515.005 435.129 527.269 443.034 539.457 450.855C551.077 458.312 562.611 465.928 574.057 473.703C576.404 475.291 578.748 476.886 581.089 478.488L580.615 476.522L569.847 497.414L552.769 530.545L548.853 538.143L550.66 537.627L535.689 528.778L506.405 511.467L485.799 499.285C472.877 491.691 461.781 480.892 453.412 467.762C443.341 451.828 437.53 433.168 436.625 413.856C436.254 405.813 436.981 397.919 437.826 389.961L440.7 362.889L444.586 326.285L448.169 292.529L450.14 273.96L450.232 273.095C450.427 271.261 447.784 271.276 447.591 273.095L447.591 273.095Z" fill="black"/>
<path d="M416.62 527.275L410.387 525.551L395.321 521.382L377.17 516.36L361.395 511.996C358.854 511.293 356.315 510.479 353.75 509.881C353.713 509.872 353.675 509.86 353.638 509.85C351.99 509.394 351.287 512.164 352.936 512.62L359.169 514.345L374.235 518.513L392.386 523.535L408.161 527.899C410.703 528.603 413.241 529.417 415.806 530.015C415.844 530.023 415.881 530.035 415.918 530.046C417.566 530.502 418.269 527.731 416.62 527.275V527.275Z" fill="black"/>
<path d="M567.645 468.281L564.493 474.4L556.922 489.099L547.76 506.888L539.832 522.279C538.547 524.774 537.167 527.238 535.967 529.783C535.949 529.821 535.929 529.857 535.91 529.893C535.078 531.508 537.359 532.959 538.191 531.344L541.342 525.225L548.913 510.526L558.076 492.737L566.003 477.346C567.289 474.851 568.669 472.387 569.869 469.842C569.886 469.804 569.907 469.768 569.925 469.731C570.757 468.116 568.477 466.666 567.645 468.281L567.645 468.281Z" fill="black"/>
<path d="M327.881 579.742L334.401 554.079C311.261 551.141 303.343 567.912 301.991 571.293L301.944 571.277L297.926 582.641C299.386 584.386 301.95 588.86 304.761 589.779C308.468 590.991 309.624 586.805 313.331 588.017C317.038 589.229 315.881 593.414 319.588 594.626C323.294 595.837 324.451 591.652 328.158 592.863C331.865 594.075 330.708 598.261 334.415 599.473C338.122 600.684 339.279 596.499 342.986 597.711C346.694 598.923 345.536 603.108 349.243 604.319C352.95 605.531 354.107 601.346 357.815 602.558C361.523 603.77 360.366 607.955 364.074 609.168C367.782 610.38 368.939 606.194 372.647 607.406C374.911 608.146 375.362 609.994 376.213 611.598C376.584 612.302 377.311 612.69 378.05 612.577C378.789 612.464 379.391 611.874 379.569 611.086L380.7 606.083L382.298 597.5L327.881 579.742Z" fill="white"/>
<path d="M329.153 580.124L334.858 557.67L335.673 554.461C335.774 554.029 335.688 553.571 335.44 553.217C335.192 552.863 334.809 552.651 334.4 552.642C327.144 551.746 319.616 552.602 313.115 556.417C308.988 558.86 305.471 562.359 302.867 566.613C302.089 567.864 301.413 569.187 300.85 570.568L302.341 569.907L302.293 569.892C301.593 569.701 300.878 570.143 300.669 570.895L296.651 582.259C296.524 582.757 296.654 583.291 296.991 583.656C299.722 586.983 302.888 593.035 307.86 591.103C309.618 590.42 311.119 588.702 313.102 589.445C314.947 590.137 315.326 592.519 316.449 594.024C317.946 595.968 320.372 596.741 322.596 595.983C324.29 595.367 325.782 593.645 327.681 594.211C329.654 594.799 330.012 597.059 331.114 598.643C332.546 600.679 334.968 601.569 337.24 600.893C338.961 600.347 340.486 598.529 342.385 599.021C344.414 599.547 344.753 601.73 345.839 603.345C347.237 605.441 349.666 606.402 351.975 605.77C353.644 605.281 355.153 603.485 356.972 603.81C359.117 604.193 359.489 606.346 360.557 608.024C361.897 610.161 364.291 611.206 366.617 610.669C368.344 610.252 369.852 608.387 371.694 608.637C374.308 608.993 374.174 611.942 375.948 613.369C376.809 614.029 377.914 614.182 378.899 613.778C379.885 613.374 380.622 612.465 380.868 611.352C381.255 609.863 381.551 608.339 381.889 606.836C382.474 604.232 382.884 601.571 383.373 598.943L383.57 597.882C383.746 597.119 383.34 596.341 382.648 596.115L364.22 590.101L334.895 580.532L328.23 578.356C326.598 577.824 325.901 580.596 327.528 581.127L345.956 587.141L375.28 596.711L381.945 598.886L381.023 597.119L379.515 605.218C379.335 606.188 379.099 607.146 378.882 608.107C378.767 608.615 378.536 611.396 377.673 611.156C377.078 610.991 376.691 609.474 376.391 608.938C375.824 607.862 374.979 606.991 373.96 606.433C371.754 605.296 369.727 605.811 367.692 607.047C366.151 607.983 364.312 608.478 362.985 606.779C362.497 606.033 362.076 605.239 361.728 604.406C361.239 603.399 360.528 602.538 359.659 601.901C357.755 600.635 355.365 600.615 353.444 601.849C351.871 602.747 350.248 603.819 348.577 602.384C347.965 601.741 347.484 600.965 347.166 600.106C346.75 599.137 346.163 598.267 345.437 597.545C343.661 595.956 341.197 595.637 339.127 596.728C337.469 597.55 336.063 598.908 334.183 597.833C332.62 596.939 332.232 594.602 331.11 593.221C329.545 591.394 327.133 590.748 324.966 591.576C323.278 592.248 321.849 593.866 319.937 593.241C318.105 592.642 317.742 590.498 316.732 588.991C315.355 586.927 312.975 585.962 310.692 586.541C309.038 586.983 307.588 588.722 305.821 588.555C303.638 588.349 301.959 585.82 300.706 584.117C300.093 583.285 299.512 582.421 298.858 581.625L299.198 583.023L303.215 571.659L301.591 572.663L301.639 572.678C302.216 572.848 302.826 572.578 303.13 572.018C306.395 563.883 313.482 558.042 321.534 556.05C325.765 555.086 330.114 554.906 334.4 555.515L333.127 553.697L327.421 576.151L326.606 579.36C326.438 580.114 326.851 580.877 327.539 581.083C328.227 581.29 328.941 580.865 329.153 580.124V580.124Z" fill="black"/>
<path d="M331.928 564.319L341.765 567.165C343.026 567.53 344.284 567.907 345.547 568.259C348.54 569.107 351.714 568.751 354.485 567.257C357.406 565.643 359.638 562.861 360.712 559.495C361.011 558.57 361.232 557.609 361.481 556.667L364.874 543.85L367.515 533.874C367.986 532.094 365.438 531.334 364.968 533.11L359.417 554.077C359.094 555.3 358.77 556.524 358.446 557.748C357.896 559.942 356.75 561.904 355.158 563.377C352.899 565.413 349.929 566.258 347.043 565.687C345.865 565.437 344.704 565.042 343.545 564.706L332.631 561.549C330.987 561.073 330.285 563.843 331.929 564.319H331.928Z" fill="black"/>
<path d="M365.49 591.764C365.919 590.082 366.558 588.474 367.392 586.983C369.783 583.111 373.889 580.919 378.168 581.231C379.545 581.383 380.898 581.728 382.195 582.256L385.963 583.589C387.584 584.162 388.278 581.388 386.666 580.818C383.978 579.867 381.262 578.625 378.422 578.377C373.542 578.005 368.81 580.299 365.802 584.496C364.504 586.463 363.536 588.665 362.944 591C362.419 592.763 364.969 593.518 365.49 591.763V591.764Z" fill="black"/>
<path d="M346.139 555.106C347.163 557.415 347.446 560.031 346.942 562.536Z" fill="#A8542A"/>
<path d="M344.997 555.831C345.082 555.993 345.143 556.167 345.219 556.334C344.99 555.833 345.164 556.194 345.212 556.331C345.254 556.449 345.293 556.567 345.33 556.687C345.417 556.962 345.492 557.241 345.558 557.523C345.637 557.862 345.702 558.204 345.753 558.549C345.768 558.655 345.86 558.924 345.758 558.565C345.778 558.667 345.789 558.772 345.79 558.876C345.809 559.076 345.822 559.275 345.832 559.475C345.852 559.929 345.85 560.384 345.824 560.837C345.81 561.093 345.788 561.348 345.759 561.602C345.783 561.387 345.763 561.569 345.746 561.682C345.722 561.84 345.696 561.997 345.668 562.155C345.542 562.65 345.669 563.18 346 563.545C346.332 563.911 346.817 564.056 347.274 563.927C347.73 563.798 348.089 563.413 348.214 562.918C348.591 560.91 348.56 558.836 348.123 556.842C347.945 555.984 347.66 555.157 347.278 554.382C346.91 553.697 346.101 553.466 345.471 553.866C344.841 554.267 344.629 555.147 344.997 555.832V555.831Z" fill="black"/>
<path d="M350.197 551.835C352.299 552.996 353.982 554.89 354.976 557.214Z" fill="#A8542A"/>
<path d="M349.532 553.075C349.915 553.265 350.281 553.494 350.623 553.76C350.702 553.819 350.781 553.879 350.858 553.94C350.896 553.97 350.934 554 350.972 554.031C350.998 554.052 351.024 554.073 351.049 554.094C351.184 554.203 350.899 553.967 350.901 553.969C351.078 554.161 351.296 554.319 351.482 554.503C351.92 554.935 352.325 555.404 352.694 555.906C352.871 556.146 352.536 555.674 352.708 555.924C352.767 556.01 352.825 556.096 352.881 556.183C352.992 556.353 353.098 556.525 353.201 556.7C353.434 557.1 353.646 557.514 353.838 557.94C354.208 558.621 355.014 558.851 355.644 558.455C356.259 558.042 356.467 557.177 356.118 556.49C355.061 554.114 353.374 552.139 351.273 550.819C351.141 550.737 351.005 550.662 350.865 550.595C350.554 550.413 350.192 550.362 349.848 550.45C349.517 550.553 349.234 550.789 349.058 551.11C348.88 551.445 348.832 551.844 348.926 552.217C349.012 552.581 349.231 552.891 349.532 553.076L349.532 553.075Z" fill="black"/>
<path d="M352.621 545.38C354.977 545.446 357.245 546.371 359.061 548.005Z" fill="#A8542A"/>
<path d="M352.623 546.817C352.798 546.812 352.973 546.817 353.147 546.833C353.241 546.841 353.335 546.85 353.429 546.861C353.474 546.866 353.518 546.872 353.562 546.877C353.792 546.903 353.219 546.82 353.442 546.859C353.714 546.907 353.985 546.958 354.253 547.026C354.563 547.104 354.869 547.196 355.171 547.304C355.331 547.361 355.49 547.422 355.648 547.486C355.74 547.517 355.83 547.555 355.917 547.601C355.637 547.424 355.894 547.592 355.969 547.628C356.362 547.821 356.744 548.038 357.115 548.279C357.315 548.409 357.511 548.545 357.704 548.688C357.787 548.75 357.869 548.813 357.951 548.877C357.989 548.907 358.317 549.181 358.129 549.02C358.384 549.279 358.715 549.428 359.063 549.441C359.597 549.441 360.079 549.091 360.283 548.554C360.487 548.018 360.375 547.4 359.997 546.989C358.543 545.702 356.848 544.776 355.03 544.275C354.245 544.047 353.436 543.936 352.623 543.943C351.898 543.949 351.312 544.591 351.312 545.38C351.312 546.169 351.898 546.811 352.623 546.816V546.817Z" fill="black"/>
<path d="M354.633 537.95C356.989 538.017 359.257 538.941 361.073 540.575Z" fill="#A8542A"/>
<path d="M354.629 539.387C354.804 539.382 354.979 539.387 355.153 539.404C355.247 539.411 355.341 539.42 355.435 539.431C355.48 539.436 355.524 539.442 355.568 539.447C355.798 539.473 355.225 539.39 355.448 539.429C355.72 539.478 355.991 539.529 356.259 539.596C356.569 539.674 356.874 539.766 357.177 539.874C357.337 539.931 357.496 539.992 357.654 540.057C357.746 540.087 357.836 540.126 357.923 540.172C357.642 539.994 357.9 540.162 357.975 540.198C358.368 540.391 358.75 540.608 359.12 540.849C359.321 540.979 359.517 541.115 359.71 541.258C359.793 541.32 359.875 541.383 359.957 541.447C359.995 541.478 360.322 541.751 360.135 541.591C360.389 541.849 360.721 541.999 361.069 542.011C361.603 542.011 362.085 541.661 362.289 541.125C362.493 540.588 362.38 539.97 362.003 539.559C360.549 538.272 358.853 537.346 357.036 536.845C356.251 536.617 355.441 536.506 354.629 536.514C353.9 536.514 353.309 537.157 353.309 537.95C353.309 538.744 353.9 539.387 354.629 539.387V539.387Z" fill="black"/>
<path d="M490.494 177.37C493.894 176.514 495.236 167.344 495.02 156.724L479.268 163.944C481.722 172.694 486.892 178.277 490.494 177.37Z" fill="black"/>
<path d="M490.845 178.755C493.664 177.959 494.737 174.188 495.307 171.48C496.203 166.626 496.55 161.67 496.341 156.724C496.325 155.895 495.493 154.961 494.669 155.339L480.918 161.642L478.917 162.559C478.224 162.785 477.818 163.563 477.994 164.326C479.067 168.471 481.012 172.288 483.675 175.474C485.521 177.55 488.078 179.384 490.846 178.755C492.508 178.377 491.805 175.607 490.144 175.984C489.844 176.027 489.54 176.029 489.24 175.99C488.805 175.9 488.385 175.74 487.994 175.515C486.946 174.888 486.009 174.062 485.227 173.077C483.049 170.313 481.45 167.066 480.541 163.562L479.619 165.329L493.37 159.026L495.371 158.109L493.7 156.723C493.879 161.142 493.616 165.569 492.916 169.927C492.693 171.394 492.288 172.823 491.712 174.172C491.51 174.64 491.246 175.073 490.928 175.457C490.723 175.717 490.449 175.901 490.143 175.984C488.5 176.449 489.196 179.221 490.845 178.755Z" fill="black"/>
<ellipse cx="162.959" cy="140.034" rx="58.1802" ry="63.2896" fill="white"/>
<path d="M103.459 140.034C103.459 174.793 128.698 203.344 160.626 204.706C192.554 206.067 219.769 179.752 222.271 145.1C224.773 110.449 201.667 79.8345 169.935 75.7575C138.203 71.6805 109.177 95.5965 104.189 129.929C103.712 133.272 103.468 136.65 103.459 140.034C103.487 140.806 104.07 141.416 104.78 141.416C105.489 141.416 106.073 140.806 106.1 140.034C106.171 106.996 130.227 79.9235 160.578 78.7236C190.928 77.5237 216.727 102.625 219.003 135.57C221.278 168.515 199.218 197.529 169.043 201.277C138.869 205.024 111.364 182.166 106.755 149.511C106.315 146.375 106.096 143.207 106.1 140.034C106.073 139.262 105.489 138.652 104.78 138.652C104.07 138.652 103.487 139.262 103.459 140.034Z" fill="black"/>
<path d="M162.961 203.324C147.527 203.346 132.722 196.675 121.822 184.788L127.283 165.586C130.382 154.566 139.733 147.04 150.326 147.04H172.152C182.132 147.04 191.079 153.732 194.652 163.868L203.132 185.816C192.32 197.072 177.927 203.346 162.961 203.324V203.324Z" fill="#A0A0A0"/>
<path d="M162.96 201.887C147.876 201.907 133.407 195.388 122.755 183.772L123.094 185.169C124.896 178.834 126.698 172.499 128.5 166.164C130.037 160.636 133.285 155.857 137.691 152.635C141.632 149.845 146.248 148.397 150.949 148.476H171.558C176.393 148.401 181.133 149.943 185.136 152.894C189.148 155.894 191.771 160.096 193.632 164.913L201.627 185.602L201.857 186.197L202.197 184.8C191.637 195.795 177.577 201.918 162.96 201.887C162.251 201.918 161.69 202.552 161.69 203.324C161.69 204.096 162.251 204.73 162.96 204.76C174.901 204.746 186.564 200.839 196.443 193.542C199.143 191.529 201.692 189.285 204.064 186.831C204.407 186.47 204.538 185.932 204.404 185.434L196.647 165.36C196.223 164.263 195.822 163.151 195.383 162.061C194.103 158.892 192.282 156.016 190.016 153.585C185.379 148.633 179.185 145.782 172.689 145.61C165.935 145.45 159.165 145.604 152.41 145.604C148.249 145.604 144.245 146.033 140.361 147.828C134.567 150.514 129.896 155.444 127.254 161.664C125.893 164.919 125.076 168.482 124.107 171.89L120.762 183.652L120.548 184.405C120.421 184.904 120.551 185.438 120.887 185.803C129.44 195.089 140.381 201.333 152.265 203.711C155.795 204.399 159.373 204.75 162.96 204.76C163.667 204.726 164.224 204.093 164.224 203.323C164.224 202.554 163.666 201.921 162.96 201.887V201.887Z" fill="black"/>
<path d="M169.161 96.8939H176.926C179.189 96.8939 181.359 97.8718 182.959 99.6127C184.56 101.353 185.459 103.715 185.459 106.176V106.176C185.459 110.563 183.857 114.769 181.006 117.87C178.155 120.972 174.288 122.714 170.256 122.714H164.113L169.161 96.8939Z" fill="black"/>
<path d="M169.163 98.3304H175.975C177.17 98.2631 178.366 98.4356 179.503 98.8395C181.294 99.5913 182.741 101.082 183.527 102.988C185.078 106.756 183.679 111.617 181.638 114.833C179.35 118.394 175.765 120.711 171.796 121.194C169.238 121.364 166.675 121.392 164.114 121.278L165.388 123.096L169.799 100.535L170.436 97.2761C170.789 95.4727 168.243 94.7019 167.889 96.5123L163.478 119.074L162.841 122.333C162.739 122.764 162.824 123.223 163.073 123.578C163.321 123.932 163.705 124.144 164.114 124.151C166.536 124.151 168.999 124.301 171.415 124.103C176.006 123.741 180.253 121.319 183.139 117.418C185.854 113.692 187.538 108.381 186.5 103.629C185.379 98.8438 181.43 95.4854 176.891 95.4577C174.316 95.4256 171.738 95.4577 169.163 95.4577C168.456 95.4908 167.898 96.1241 167.898 96.894C167.898 97.664 168.456 98.2973 169.163 98.3304Z" fill="black"/>
<ellipse cx="162.336" cy="123.594" rx="12.775" ry="13.8969" fill="#424242"/>
<path d="M148.238 123.594C148.237 130.071 151.977 135.851 157.583 138.035C163.189 140.219 169.452 138.336 173.231 133.331C177.01 128.325 177.49 121.276 174.431 115.718C171.371 110.161 165.432 107.294 159.591 108.555C153.032 110.05 148.311 116.304 148.238 123.594C148.222 125.443 150.863 125.445 150.879 123.594C150.882 118.339 153.915 113.651 158.462 111.875C163.008 110.099 168.09 111.616 171.165 115.668C174.241 119.721 174.649 125.436 172.185 129.956C169.721 134.476 164.915 136.828 160.171 135.836C154.798 134.667 150.917 129.555 150.879 123.594C150.863 121.746 148.222 121.741 148.238 123.594Z" fill="black"/>
<path d="M179.314 102.047C179.314 99.2558 177.251 96.9835 174.685 96.9488C167.427 96.8482 159.851 96.866 154.011 96.9103V96.9103C149.4 96.9103 145.101 99.4463 142.586 103.651C140.07 107.855 139.679 113.157 141.546 117.744L142.874 121.007L146.24 129.056C147.095 131.102 149.049 132.332 151.105 132.119C153.162 131.906 154.867 130.297 155.352 128.113C155.559 127.15 155.677 126.166 155.705 125.177C151.5 123.418 153.441 116.733 156.352 117.789C159.262 118.844 158.939 126.232 158.939 126.232C158.939 126.232 159.97 125.784 160.386 121.125C160.611 118.756 162.4 116.925 164.587 116.823H165.732C173.233 116.823 179.315 110.208 179.315 102.047L179.314 102.047Z" fill="#4E4D55"/>
<path d="M180.636 102.047C180.62 100.149 179.86 98.3484 178.546 97.099C177.099 95.7628 175.466 95.521 173.631 95.4984C169.133 95.4433 164.635 95.4245 160.137 95.4422C156.73 95.4511 153.065 95.0687 149.757 96.1329C146.778 97.0991 144.152 99.0535 142.245 101.723C140.325 104.4 139.213 107.657 139.06 111.047C139.028 114.002 139.643 116.922 140.855 119.566C142.22 122.922 143.611 126.266 145.025 129.599C146.17 132.372 148.884 133.964 151.643 133.481C153.121 133.238 154.463 132.407 155.411 131.149C156.665 129.456 156.936 127.288 157.028 125.177C157.015 124.535 156.624 123.975 156.058 123.791C154.916 123.242 154.33 121.853 154.69 120.552C154.751 120.231 154.871 119.927 155.044 119.659C155.261 119.303 154.937 119.757 155.192 119.451C155.2 119.441 155.504 119.151 155.342 119.286C155.654 119.028 155.829 118.996 156.204 119.3C157.089 120.018 157.378 121.933 157.512 123.174C157.624 124.188 157.66 125.211 157.621 126.232C157.631 126.742 157.886 127.209 158.292 127.463C158.699 127.716 159.198 127.72 159.608 127.472C160.734 126.936 161.151 124.895 161.361 123.774C161.625 122.369 161.483 120.693 162.351 119.518C163.005 118.676 163.98 118.211 164.992 118.259C167.47 118.321 169.929 117.774 172.186 116.659C177.351 113.959 180.636 108.279 180.637 102.047C180.61 101.275 180.026 100.665 179.317 100.665C178.607 100.665 178.024 101.275 177.996 102.047C177.969 107.347 175.087 112.138 170.633 114.288C168.656 115.233 166.724 115.286 164.622 115.386C161.978 115.489 159.734 117.527 159.168 120.338C158.924 121.731 158.885 123.397 158.407 124.612C158.406 124.615 158.266 124.892 158.219 125.001C158.092 125.291 158.27 124.995 158.211 125.032C157.902 125.221 158.458 124.904 158.275 124.991L160.262 126.232C160.377 123.463 160.145 119.964 158.474 117.742C157.454 116.278 155.603 115.847 154.122 116.727C152.754 117.738 151.943 119.425 151.959 121.223C151.917 123.613 153.286 125.763 155.356 126.562L154.387 125.176C154.281 127.605 153.715 130.318 151.108 130.682C149.308 130.933 147.996 129.778 147.28 128.085C146.085 125.261 144.893 122.434 143.736 119.591C142.799 117.63 142.137 115.528 141.77 113.355C141.465 110.584 141.966 107.778 143.201 105.332C144.426 102.904 146.302 100.939 148.578 99.6999C151.15 98.2997 153.858 98.3445 156.66 98.329C160.963 98.3053 165.266 98.3064 169.569 98.3325C170.688 98.3402 171.807 98.3503 172.926 98.3627C173.85 98.2789 174.781 98.3486 175.686 98.5695C177.058 99.0763 177.984 100.471 177.996 102.047C178.041 103.892 180.682 103.9 180.636 102.047Z" fill="black"/>
<path d="M426.902 201.268L376.984 248.534L366.156 258.166C351.41 270.923 340.098 270.239 314.745 252.345L245.631 188.097L262.212 159.541L343.204 217.216L347.072 212.519L400.306 145.823C405.456 139.371 412.925 135.666 420.78 135.666H434.937" fill="#A8542A"/>
<path d="M425.966 200.252L415.422 210.235L394.169 230.36L377.798 245.861C373.863 249.587 369.765 253.107 365.727 256.699C362.29 259.757 358.466 262.56 354.231 264.113C349.51 265.754 344.449 265.838 339.685 264.353C332.82 262.388 326.47 258.537 320.445 254.552C318.263 253.217 316.185 251.69 314.232 249.986L300.664 237.373L279.323 217.535L258.769 198.428L247.119 187.598L246.563 187.082L246.77 188.822L261.32 163.764L263.351 160.266L261.544 160.781L269.606 166.522L288.964 180.307L312.378 196.98L332.605 211.385C335.854 213.699 339.044 216.222 342.397 218.358C342.445 218.388 342.49 218.424 342.536 218.457C343.055 218.783 343.71 218.691 344.136 218.232C347.23 214.475 350.28 210.684 353.32 206.875L371.527 184.063L391.483 159.061C394.733 154.99 397.966 150.903 401.232 146.848C406.189 140.67 413.355 137.118 420.893 137.103C425.145 137.094 429.397 137.103 433.649 137.103H434.934C435.643 137.072 436.203 136.438 436.203 135.666C436.203 134.895 435.643 134.26 434.934 134.23H422.682C420.331 134.172 417.981 134.343 415.659 134.741C411.451 135.567 407.472 137.427 404.024 140.178C401.75 142.099 399.68 144.289 397.853 146.71L391.963 154.089L372.505 178.467L353.278 202.556C350.182 206.435 347.102 210.331 343.951 214.158L342.269 216.2L343.869 215.975L335.807 210.234L316.448 196.449L293.035 179.777L272.808 165.373C269.558 163.059 266.368 160.535 263.015 158.4C262.968 158.369 262.922 158.334 262.876 158.301C262.245 157.913 261.445 158.141 261.069 158.816L246.52 183.875L244.489 187.372C244.189 187.937 244.274 188.65 244.695 189.113L253.1 196.926L272.462 214.925L294.513 235.423L310.526 250.309C311.582 251.291 312.626 252.291 313.696 253.256C314.019 253.535 314.356 253.794 314.708 254.03C316.639 255.383 318.589 256.707 320.564 257.983C323.925 260.191 327.401 262.186 330.974 263.956C336.217 266.501 341.876 268.505 347.685 268.302C352.772 268.008 357.696 266.246 361.95 263.196C365.352 260.715 368.609 258.004 371.7 255.079C373.826 253.188 375.994 251.341 378.079 249.395C382.322 245.436 386.514 241.408 390.731 237.415L412.356 216.939L427.087 202.991L427.834 202.284C429.118 201.068 427.243 199.043 425.966 200.252V200.252Z" fill="black"/>
<path d="M437.905 196.001L388.867 247.097L378.04 256.73C363.293 269.487 332.081 284.284 306.729 266.392L253.906 214.677L282.899 172.95L343.203 217.217L347.07 212.521L400.305 145.825C405.454 139.373 412.923 135.667 420.778 135.667H434.935" fill="#FC3A3A"/>
<path d="M436.972 194.985L428.182 204.144L409.527 223.581L392.582 241.238L388.381 245.616C387.117 246.933 385.694 248.075 384.341 249.278C381.761 251.573 379.224 253.939 376.588 256.157C372.005 259.965 367.046 263.206 361.804 265.822C349.686 271.96 335.663 275.196 322.425 272.004C318.847 271.151 315.378 269.829 312.094 268.067C310.458 267.288 308.903 266.319 307.459 265.175C306.217 264.055 305.05 262.817 303.852 261.643L287.371 245.508L267.611 226.163L255.43 214.237L254.841 213.66L255.048 215.401L264.891 201.234L280.449 178.842L284.04 173.674L282.233 174.19L288.224 178.587L302.613 189.15L320.027 201.932L335.09 212.99C337.52 214.774 339.903 216.759 342.43 218.378C342.467 218.402 342.502 218.43 342.537 218.456C343.056 218.783 343.712 218.691 344.137 218.232C347.202 214.51 350.224 210.756 353.235 206.983L371.483 184.12L391.521 159.016C394.758 154.96 397.98 150.888 401.234 146.847C406.194 140.666 413.366 137.114 420.909 137.103C425.14 137.094 429.371 137.103 433.602 137.103H434.936C435.645 137.072 436.206 136.438 436.206 135.666C436.206 134.894 435.645 134.26 434.936 134.229H422.723C420.399 134.173 418.075 134.337 415.777 134.718C411.573 135.522 407.592 137.359 404.139 140.087C401.812 142.033 399.698 144.262 397.837 146.73L391.942 154.116L372.512 178.459L353.221 202.628C350.147 206.479 347.091 210.346 343.962 214.145L342.27 216.201L343.87 215.976L337.879 211.578L323.49 201.016L306.077 188.233L291.013 177.176C288.583 175.392 286.2 173.407 283.673 171.788C283.636 171.764 283.602 171.735 283.566 171.709C282.934 171.328 282.138 171.555 281.759 172.225L271.916 186.392L256.358 208.782L252.767 213.951C252.463 214.514 252.548 215.23 252.973 215.691L261.799 224.333L280.892 243.025L299.172 260.921L304.545 266.182C306.699 268.182 309.116 269.822 311.714 271.048C324.754 277.692 339.632 277.225 353.148 272.56C363.23 269.042 372.606 263.471 380.775 256.143C384.466 252.86 388.266 249.714 391.71 246.125L406.387 230.831L425.829 210.574L438.224 197.657L438.839 197.017C440.069 195.735 438.2 193.705 436.972 194.985V194.985Z" fill="black"/>
<path d="M434.934 135.492L480.643 136.643C487.609 136.108 491.451 138.963 495.162 149.854C495.162 149.854 512.103 241.205 517.645 277.88C506.352 266.379 411.713 274.959 411.713 274.959L422.193 161.884" fill="#FC3A3A"/>
<path d="M434.934 136.928L445.103 137.184L465.311 137.693L479.744 138.057C481.616 138.104 483.474 137.881 485.31 138.428C488.916 139.501 490.996 143.102 492.504 146.597C493.206 148.094 493.738 149.678 494.089 151.315C494.349 152.725 494.61 154.136 494.87 155.546C495.882 161.039 496.89 166.532 497.893 172.026C499.341 179.957 500.78 187.889 502.211 195.824C503.856 204.947 505.485 214.075 507.1 223.205C508.699 232.261 510.273 241.321 511.824 250.387C513.14 258.112 514.434 265.842 515.65 273.587C515.895 275.144 516.135 276.703 516.371 278.262L518.578 276.864C516.949 275.224 514.724 274.372 512.627 273.722C509.511 272.822 506.334 272.189 503.127 271.829C494.523 270.827 485.872 270.366 477.219 270.451C467.489 270.406 457.758 270.689 448.036 271.131C439.86 271.503 431.689 271.987 423.524 272.584C420.889 272.775 418.255 272.977 415.622 273.19C414.37 273.219 413.122 273.324 411.882 273.507C411.826 273.515 411.769 273.52 411.713 273.522L413.034 274.959L414.077 263.705L416.581 236.683L419.61 203.998L422.228 175.758L423.089 166.463C423.224 165.008 423.444 163.531 423.496 162.069C423.499 162.008 423.508 161.945 423.514 161.884C423.684 160.046 421.042 160.059 420.872 161.884L419.829 173.138L417.325 200.16L414.296 232.845L411.678 261.085L410.817 270.38C410.682 271.835 410.462 273.312 410.41 274.774C410.407 274.835 410.398 274.897 410.393 274.958C410.395 275.751 410.985 276.393 411.713 276.395C414.872 276.109 418.035 275.865 421.198 275.628C428.854 275.055 436.516 274.575 444.183 274.188C453.781 273.707 463.387 273.375 472.995 273.326C481.903 273.28 490.846 273.413 499.722 274.309C503.037 274.595 506.331 275.112 509.585 275.858C510.885 276.156 512.168 276.539 513.426 277.006C513.683 277.103 513.938 277.207 514.192 277.315C514.26 277.343 514.626 277.509 514.435 277.421C514.247 277.334 514.67 277.536 514.734 277.568C515.159 277.779 515.572 278.02 515.969 278.289C516.142 278.407 516.307 278.534 516.473 278.663C516.156 278.416 516.571 278.754 516.711 278.895C517.141 279.334 517.784 279.414 518.294 279.092C518.803 278.769 519.057 278.121 518.919 277.498C517.815 270.2 516.613 262.92 515.39 255.644C513.886 246.696 512.346 237.755 510.77 228.822C509.13 219.476 507.47 210.134 505.791 200.796C504.288 192.432 502.775 184.07 501.251 175.71C500.134 169.58 499.012 163.451 497.885 157.324C497.41 154.742 497.073 152.067 496.445 149.523C495.897 147.606 495.167 145.755 494.269 144.002C493.351 141.936 492.11 140.06 490.601 138.458C489.321 137.159 487.777 136.209 486.095 135.683C484.31 135.229 482.472 135.069 480.643 135.206C477.185 135.275 473.697 135.031 470.239 134.944L449.918 134.432L435.672 134.074L434.934 134.055C433.234 134.012 433.235 136.885 434.934 136.928H434.934Z" fill="black"/>
<path d="M249.98 192.144L232.726 180.822C230.321 179.244 228.15 177.278 226.288 174.991V174.991C222.047 169.781 217.385 165.879 211.07 164.765L208.613 159.393C208.613 159.393 229.402 131.494 232.465 132.099L241.031 131.306C240.201 129.05 240.661 126.476 242.206 124.722V124.722C243.385 123.384 245.053 122.692 246.752 122.834C248.451 122.977 250.002 123.94 250.978 125.459L254.946 131.634C257.424 135.49 259.101 139.886 259.86 144.518L260.766 150.044C261.773 156.191 265.074 161.61 269.886 165.015L271.225 165.962" fill="#A8542A"/>
<path d="M250.65 190.903L239.228 183.409L233.728 179.8C232.552 179.046 231.428 178.2 230.366 177.268C228.442 175.547 226.895 173.457 225.132 171.559C221.334 167.47 216.752 164.359 211.425 163.379L212.214 164.04L209.757 158.668L209.55 160.409C212.917 155.892 216.365 151.447 219.893 147.073C222.459 143.888 225.06 140.725 227.817 137.733C228.848 136.613 229.905 135.523 231.028 134.513C231.114 134.436 231.335 134.251 231.124 134.426C231.225 134.342 231.326 134.26 231.429 134.179C231.63 134.022 231.835 133.868 232.049 133.732C232.146 133.67 232.575 133.449 232.36 133.542C232.11 133.649 232.379 133.534 232.43 133.524C232.749 133.467 232.145 133.524 232.32 133.527C232.344 133.527 232.373 133.528 232.397 133.526C231.758 133.579 232.349 133.542 232.474 133.534C232.513 133.532 232.553 133.524 232.593 133.523C232.867 133.519 233.147 133.472 233.42 133.447L236.385 133.172L241.034 132.742C241.444 132.736 241.829 132.525 242.078 132.17C242.326 131.815 242.411 131.355 242.308 130.923C241.422 128.602 242.308 125.928 244.352 124.756C246.119 123.805 248.251 124.244 249.575 125.833C250.24 126.722 250.852 127.654 251.411 128.626C252.162 129.795 252.914 130.965 253.666 132.135C256.189 136.06 257.89 140.539 258.649 145.257C259.223 148.742 259.637 152.257 260.923 155.539C262.006 158.302 263.558 160.819 265.496 162.958C267.038 164.568 268.737 165.991 270.562 167.202C271.991 168.213 273.316 165.727 271.895 164.721C270.262 163.64 268.743 162.367 267.363 160.927C265.534 158.92 264.097 156.531 263.14 153.904C262.025 150.792 261.686 147.404 261.138 144.136C260.223 139.025 258.296 134.192 255.49 129.974L252.802 125.792C252.012 124.327 250.893 123.104 249.55 122.238C246.974 120.787 243.843 121.212 241.673 123.307C239.503 125.401 238.743 128.733 239.761 131.688L241.034 129.87C238.194 130.132 235.352 130.374 232.514 130.658C232.36 130.673 233.441 130.624 232.433 130.657C232.382 130.658 232.331 130.656 232.279 130.658C232.04 130.67 231.804 130.721 231.579 130.809C231.128 130.986 230.702 131.229 230.312 131.533C229.213 132.383 228.177 133.328 227.216 134.359C221.616 140.127 216.64 146.67 211.696 153.094C210.348 154.845 209.01 156.607 207.683 158.377C207.28 158.851 207.197 159.549 207.476 160.118L209.259 164.016C209.456 164.521 209.68 165.011 209.931 165.486C210.361 166.191 211.035 166.196 211.727 166.355C212.424 166.514 213.113 166.713 213.792 166.948C216.329 167.862 218.688 169.28 220.75 171.129C222.941 173.06 224.693 175.401 226.695 177.538C229.039 179.883 231.63 181.919 234.413 183.604L243.107 189.309L249.317 193.384C250.776 194.342 252.105 191.858 250.65 190.903H250.65Z" fill="black"/>
<path d="M224.112 157.153C215.223 154.411 205.999 153.177 196.764 153.495C187.391 154.855 188.038 162.303 197.252 163.369C206.465 164.434 210.261 162.814 220.602 169.468" fill="#A8542A"/>
<path d="M224.463 155.768C221.7 154.865 218.887 154.155 216.042 153.642C213.061 153.06 210.054 152.625 207.037 152.346C205.242 152.18 203.444 152.073 201.642 152.025C199.801 151.898 197.954 151.941 196.12 152.155C193.874 152.523 191.322 153.357 189.804 155.322C188.584 156.802 188.392 158.974 189.33 160.681C190.467 162.725 192.705 163.813 194.755 164.356C197.459 165.072 200.342 165.104 203.109 165.26C205.624 165.321 208.128 165.648 210.584 166.236C213.882 167.232 217.031 168.738 219.935 170.708C220.562 171.076 221.344 170.837 221.703 170.168C222.063 169.499 221.87 168.641 221.268 168.227C216.691 165.301 211.951 163.189 206.639 162.64C204.403 162.409 202.155 162.358 199.915 162.186C197.555 162.005 194.997 161.871 192.913 160.516C192.302 160.168 191.802 159.628 191.476 158.967C191.341 158.609 191.324 158.213 191.426 157.843C192.073 156.154 194.379 155.432 195.984 155.084C197.632 154.828 199.299 154.761 200.96 154.884C202.619 154.911 204.276 154.991 205.931 155.124C208.795 155.35 211.645 155.725 214.48 156.249C217.618 156.781 220.719 157.546 223.761 158.538C225.386 159.095 226.081 156.322 224.463 155.767L224.463 155.768Z" fill="black"/>
<path d="M224.493 146.147C224.493 146.147 210.033 139.656 195.232 137.194C185.791 136.615 185.141 144.063 194.007 146.991C202.873 149.92 210.937 153.331 225.781 159.47" fill="#A8542A"/>
<path d="M224.846 144.762C221.284 143.166 217.613 141.822 213.938 140.576C210.386 139.371 206.794 138.296 203.166 137.395C199.547 136.496 195.687 135.315 191.959 135.911C189.798 136.256 187.359 137.353 186.611 139.796C185.924 142.042 187.17 144.287 188.735 145.673C190.957 147.643 193.728 148.377 196.403 149.307C198.902 150.176 201.384 151.099 203.856 152.056C211.092 154.857 218.254 157.886 225.433 160.855C227.023 161.513 227.711 158.737 226.135 158.084C219.946 155.524 213.767 152.931 207.548 150.459C205.162 149.51 202.768 148.583 200.361 147.7C198.019 146.841 195.605 146.153 193.291 145.212C191.637 144.54 189.358 143.186 189.063 141.3C189.097 141.521 189.059 141.015 189.066 140.914C189.083 140.676 189.041 141.123 189.073 140.889C189.085 140.798 189.107 140.709 189.139 140.625C189.17 140.52 189.217 140.422 189.277 140.335C189.346 140.202 189.436 140.084 189.543 139.986C190.244 139.359 191.089 138.952 191.987 138.806C193.454 138.52 194.957 138.535 196.419 138.849C198.279 139.192 200.129 139.59 201.97 140.043C205.44 140.889 208.877 141.896 212.278 143.024C216.279 144.351 220.275 145.798 224.145 147.532C224.847 147.737 225.571 147.29 225.769 146.529C225.945 145.766 225.539 144.988 224.847 144.762L224.846 144.762Z" fill="black"/>
<path d="M231.795 138.78C231.795 138.78 215.171 125.687 201.273 119.627C192.201 116.727 190.01 123.818 198.031 128.864C206.052 133.91 213.192 139.228 226.363 148.88" fill="#A8542A"/>
<path d="M232.462 137.539C229.563 135.258 226.569 133.112 223.554 131.021C217.538 126.742 211.242 122.948 204.716 119.67C201.763 118.232 198.344 116.76 195.072 117.864C192.759 118.645 191.329 120.882 191.902 123.523C192.603 126.758 195.451 128.89 197.919 130.454C200.341 131.989 202.733 133.577 205.096 135.217C212.057 140.026 218.858 145.109 225.696 150.12C227.11 151.156 228.433 148.668 227.029 147.639C221.109 143.3 215.211 138.921 209.224 134.69C206.957 133.088 204.674 131.513 202.363 129.987C199.992 128.421 197.149 127.102 195.378 124.707C194.804 124.013 194.461 123.129 194.404 122.197C194.441 121.55 194.835 120.992 195.4 120.787C197.847 119.521 201.093 121.035 203.383 122.151C209.576 125.257 215.56 128.836 221.29 132.861C224.625 135.147 227.933 137.505 231.129 140.02C232.508 141.105 233.827 138.614 232.462 137.539V137.539Z" fill="black"/>
<path d="M241.671 133.434C241.671 133.434 224.484 114.061 211.72 105.545C203.225 101.027 199.97 107.618 207.097 114.058C214.224 120.499 220.44 127.047 231.932 138.97" fill="#A8542A"/>
<path d="M242.604 132.419C235.371 124.178 227.583 116.535 219.307 109.552C216.63 107.323 213.803 104.787 210.627 103.476C208.071 102.422 204.1 101.846 202.445 104.902C200.807 107.926 202.876 111.535 204.807 113.712C205.969 115.023 207.334 116.131 208.603 117.316C209.747 118.385 210.882 119.467 212.005 120.562C218.482 126.862 224.712 133.463 230.998 139.986C232.228 141.262 234.099 139.233 232.866 137.954C227.391 132.274 221.952 126.549 216.371 120.99C214.221 118.849 212.044 116.739 209.824 114.683C207.846 112.852 204.697 110.585 204.513 107.498C204.392 106.754 204.766 106.02 205.41 105.738C206.639 105.162 208.18 105.599 209.379 106.034C210.912 106.678 212.355 107.552 213.665 108.63C214.992 109.613 216.29 110.641 217.569 111.697C222.795 116.092 227.804 120.784 232.576 125.753C235.348 128.59 238.092 131.471 240.736 134.45C241.919 135.782 243.786 133.749 242.604 132.418V132.419Z" fill="black"/>
<path d="M271.228 165.962L269.889 165.015C265.078 161.61 261.776 156.191 260.769 150.044L259.863 144.518C259.105 139.886 257.428 135.49 254.949 131.634L250.981 125.459C250.005 123.94 248.454 122.977 246.756 122.834C245.057 122.692 243.389 123.384 242.21 124.722V124.722C240.664 126.476 240.205 129.05 241.034 131.306L244.503 140.738C244.503 140.738 237.553 152.62 236.928 165.697" fill="#A8542A"/>
<path d="M271.894 164.722C269.621 163.231 267.593 161.339 265.892 159.123C263.921 156.354 262.599 153.106 262.041 149.657C261.747 147.92 261.472 146.18 261.186 144.442C260.629 141.005 259.598 137.68 258.129 134.577C257.097 132.538 255.943 130.576 254.672 128.704C253.713 127.211 252.81 125.644 251.764 124.219C249.74 121.49 246.265 120.615 243.345 122.101C240.425 123.586 238.815 127.048 239.443 130.488C239.765 132.379 240.706 134.261 241.358 136.031L243.229 141.12L243.362 140.013C241.953 142.508 240.732 145.124 239.712 147.835C237.405 153.486 236.015 159.529 235.606 165.697C235.51 167.544 238.151 167.538 238.247 165.697C238.668 157.619 241.335 149.618 245.007 142.625C245.412 142.075 245.691 141.428 245.822 140.738C245.706 139.985 245.471 139.259 245.127 138.593L242.471 131.371C241.883 130.063 241.811 128.55 242.272 127.184C242.921 125.507 244.387 124.373 246.056 124.258C248.837 124.091 250.087 126.568 251.461 128.705C253.103 131.083 254.593 133.58 255.92 136.18C257.424 139.626 258.444 143.299 258.946 147.075C259.564 150.846 260.214 154.476 261.968 157.871C264.04 161.881 267.066 164.729 270.561 167.203C271.99 168.214 273.315 165.727 271.894 164.722L271.894 164.722Z" fill="black"/>
<path d="M469.38 297.756C469.249 300.182 469.553 302.613 470.273 304.914C471.542 309.439 474.922 312.892 479.153 313.985L478.231 312.218C476.899 321.644 475.668 331.088 474.443 340.531C472.91 352.346 471.403 364.165 469.921 375.988C469.201 381.709 468.484 387.431 467.77 393.153C467.094 398.566 466.096 404.066 466.063 409.54C466.026 421.392 470.23 432.795 477.786 441.335C480.474 444.174 483.385 446.753 486.485 449.042L497.818 458.004L513.824 470.662L530.639 483.96L544.628 495.023L551.92 500.79L552.252 501.053C553.629 502.141 554.948 499.65 553.585 498.572L548.591 494.622L536.071 484.722L519.725 471.794L503.249 458.764L490.382 448.589C488.487 447.09 486.592 445.591 484.696 444.092C476.718 437.705 471.247 428.279 469.376 417.697C468.381 412.056 468.745 406.534 469.448 400.889C470.124 395.458 470.802 390.027 471.483 384.597C472.961 372.807 474.455 361.02 475.965 349.236C477.273 339.052 478.593 328.868 479.984 318.697C480.245 316.791 480.509 314.886 480.778 312.981C480.955 312.219 480.548 311.44 479.855 311.215C476.354 310.342 473.587 307.426 472.674 303.647C472.108 301.747 471.886 299.747 472.021 297.756C472.147 295.911 469.506 295.92 469.38 297.756L469.38 297.756Z" fill="black"/>
<path d="M435.31 301.923L433.98 307.765L430.358 323.664L425.001 347.178L418.466 375.866L411.308 407.287L404.084 438.998L397.372 468.468L391.679 493.456L387.587 511.42C386.943 514.248 386.26 517.069 385.654 519.907C385.627 520.03 385.598 520.153 385.57 520.276C385.161 522.071 387.707 522.837 388.116 521.04L389.447 515.198L393.069 499.299L398.425 475.785L404.96 447.096L412.118 415.676L419.342 383.964L426.055 354.495L431.748 329.506L435.84 311.543C436.484 308.715 437.167 305.894 437.773 303.056C437.799 302.932 437.829 302.81 437.857 302.686C438.266 300.891 435.72 300.126 435.31 301.922L435.31 301.923Z" fill="black"/>
<path d="M440.593 272.707L437.667 291.125L435.96 301.872C435.371 305.575 434.999 309.187 435.985 312.895C437.163 317.325 440.04 320.909 442.487 324.577C443.476 326.06 445.768 324.627 444.767 323.127C442.933 320.377 440.74 317.648 439.378 314.573C438.076 311.585 437.643 308.237 438.135 304.974C438.228 304.352 438.332 303.731 438.431 303.109L442.01 280.58L443.14 273.471C443.427 271.662 440.882 270.886 440.593 272.707H440.593Z" fill="black"/>
<path d="M339.821 223.715L344.408 218.047L345.057 217.245C345.572 216.684 345.572 215.775 345.057 215.213C344.541 214.652 343.705 214.652 343.189 215.213L338.602 220.881L337.953 221.683C337.62 222.046 337.489 222.575 337.611 223.071C337.734 223.566 338.09 223.954 338.545 224.087C339.001 224.219 339.488 224.078 339.821 223.715H339.821Z" fill="black"/>
<path d="M485.117 197.437L535.035 244.703L545.862 254.335C560.609 267.092 571.921 266.408 597.274 248.515L666.388 184.267L649.807 155.711L568.814 213.385L564.947 208.689L511.712 141.993C506.563 135.541 499.094 131.835 491.239 131.835H477.082" fill="#A8542A"/>
<path d="M484.184 198.453L494.906 208.606L516.256 228.822L532.573 244.271C536.517 248.006 540.625 251.542 544.681 255.131C548.455 258.47 552.611 261.451 557.262 263.117C562.249 264.798 567.573 264.9 572.612 263.411C579.466 261.542 585.861 257.792 591.885 253.872C594.539 252.279 597.065 250.444 599.436 248.389L612.8 235.966L634.131 216.137L654.947 196.787L666.766 185.8L667.322 185.283C667.744 184.82 667.829 184.107 667.529 183.542L652.979 158.484L650.948 154.986C650.574 154.31 649.772 154.081 649.141 154.471L641.079 160.211L621.72 173.997L598.307 190.669L578.08 205.073L571.457 209.789C570.363 210.477 569.305 211.231 568.287 212.046C568.243 212.082 568.196 212.115 568.148 212.145L569.749 212.37C566.628 208.581 563.553 204.757 560.487 200.915L542.111 177.893L522.01 152.709C518.889 148.799 515.784 144.873 512.647 140.978C507.201 134.265 499.371 130.414 491.141 130.399C486.883 130.39 482.625 130.399 478.367 130.399H477.083C476.373 130.429 475.812 131.064 475.812 131.836C475.812 132.608 476.373 133.242 477.083 133.272H489.201C491.458 133.196 493.718 133.352 495.949 133.739C500.111 134.586 504.019 136.527 507.334 139.393C509.204 141.138 510.927 143.062 512.481 145.142L518.546 152.74L537.892 176.978L557.046 200.975C560.084 204.782 563.106 208.603 566.199 212.358L567.881 214.401C568.307 214.859 568.962 214.952 569.481 214.626L577.543 208.885L596.901 195.1L620.315 178.427L640.542 164.023L647.164 159.308C648.258 158.618 649.316 157.865 650.335 157.05C650.379 157.014 650.426 156.981 650.474 156.951L648.667 156.436L663.217 181.494L665.248 184.992L665.454 183.251L657.197 190.928L637.97 208.8L616.161 229.074L599.926 244.166C598.797 245.215 597.696 246.324 596.53 247.323C594.801 248.67 592.999 249.902 591.133 251.012C587.755 253.266 584.268 255.319 580.686 257.162C575.615 259.722 570.085 261.776 564.427 261.602C559.506 261.45 554.956 259.395 550.868 256.515C547.598 254.057 544.456 251.404 541.456 248.569C539.549 246.872 537.6 245.219 535.736 243.466C531.403 239.391 527.094 235.284 522.773 231.192L501.33 210.888L486.798 197.129L486.051 196.422C484.774 195.213 482.899 197.237 484.184 198.454L484.184 198.453Z" fill="black"/>
<path d="M485.005 197.437L523.149 243.266L533.977 252.899C548.723 265.656 579.935 280.454 605.287 262.561L658.11 210.846L629.117 169.119L568.814 213.386L564.946 208.69L511.712 141.994C506.562 135.542 499.093 131.836 491.238 131.836L472.68 132.314" fill="#FC3A3A"/>
<path d="M484.069 198.453L492.624 208.731L509.44 228.935L521.476 243.396C522.368 244.403 523.33 245.336 524.352 246.185C527.154 248.677 529.956 251.17 532.758 253.663C541.154 260.972 550.824 266.354 561.185 269.485C574.057 273.438 588.009 273.478 600.282 267.227C602.816 266.048 605.176 264.466 607.284 262.534L612.07 257.848L628.785 241.484L647.342 223.316L658.51 212.382L659.042 211.861C659.466 211.399 659.55 210.684 659.249 210.12L649.428 195.986L633.842 173.555L630.256 168.393C629.88 167.721 629.081 167.493 628.449 167.878L622.451 172.282L608.044 182.857L590.618 195.649L575.556 206.705L570.628 210.323C569.803 210.848 569.01 211.431 568.253 212.066C568.219 212.095 568.183 212.121 568.145 212.145L569.746 212.37C566.454 208.373 563.214 204.335 559.979 200.283L540.354 175.696L520.091 150.308L514.018 142.7C511.815 139.768 509.221 137.21 506.322 135.113C502.553 132.56 498.29 130.994 493.87 130.539C492.062 130.397 490.249 130.374 488.439 130.472L473.791 130.849L472.677 130.878C470.981 130.922 470.974 133.795 472.677 133.751L484.774 133.439L490.787 133.284C493.926 133.217 497.049 133.778 500.002 134.938C504.484 136.788 508.444 139.879 511.491 143.905L516.675 150.399L536.117 174.759L556.343 200.099C559.593 204.171 562.822 208.261 566.129 212.277L567.878 214.401C568.303 214.86 568.959 214.952 569.478 214.626L575.477 210.222L589.883 199.648L607.309 186.855L622.371 175.799L627.299 172.182C628.123 171.654 628.916 171.072 629.674 170.438C629.708 170.409 629.744 170.383 629.782 170.359L627.975 169.844L637.796 183.978L653.381 206.409L656.968 211.57L657.174 209.829L649.305 217.534L631.934 234.54L613.961 252.137L607.578 258.385C606.559 259.383 605.574 260.498 604.488 261.411C602.918 262.602 601.246 263.624 599.495 264.463C596.407 266.077 593.16 267.303 589.817 268.118C583.464 269.619 576.911 269.829 570.489 268.736C558.706 266.706 547.515 261.737 537.792 254.217C535.153 252.199 532.7 249.918 530.205 247.699L525.615 243.615C525.098 243.155 524.532 242.72 524.051 242.214C523.052 241.163 522.164 239.948 521.232 238.828L514.885 231.201L498.122 211.062L486.531 197.136L485.937 196.421C484.793 195.048 482.93 197.085 484.069 198.453V198.453Z" fill="black"/>
<path d="M574.065 217.852L569.478 212.185L568.83 211.383C568.312 210.827 567.48 210.827 566.962 211.383C566.463 211.951 566.463 212.846 566.962 213.415L571.549 219.082L572.198 219.884C572.715 220.44 573.548 220.44 574.065 219.884C574.564 219.315 574.564 218.42 574.065 217.852V217.852Z" fill="black"/>
<path d="M475.608 132.101C476.216 141.32 472.252 150.191 465.213 155.366C458.174 160.542 449.13 161.236 441.493 157.186C433.856 153.136 428.787 144.959 428.199 135.738L475.608 132.101Z" fill="#A8542A"/>
<path d="M474.284 132.101C475.207 145.549 465.934 157.265 453.572 158.27C441.209 159.274 430.439 149.186 429.516 135.738L428.196 137.175L444.216 135.946L469.748 133.987L475.605 133.538C477.29 133.409 477.304 130.535 475.605 130.665L459.584 131.894L434.052 133.852L428.196 134.302C427.47 134.312 426.884 134.949 426.875 135.738C427.574 147.227 434.83 157 445.006 160.163C455.183 163.326 466.09 159.197 472.263 149.844C475.663 144.698 477.311 138.425 476.925 132.101C476.815 130.266 474.173 130.252 474.284 132.101Z" fill="black"/>
<path d="M465.16 137.664L462.872 105.155L438.043 117.338L438.357 138.754" fill="#A8542A"/>
<path d="M466.481 137.664L464.479 109.227L464.192 105.155C464.18 104.646 463.925 104.181 463.519 103.928C463.113 103.675 462.615 103.67 462.205 103.914L440.472 114.579L437.377 116.098C436.967 116.351 436.717 116.826 436.723 117.338L436.997 136.089L437.036 138.754C437.063 140.601 439.705 140.607 439.677 138.754L439.403 120.003L439.364 117.338L438.71 118.579L460.444 107.914L463.538 106.395L461.551 105.155L463.553 133.592L463.84 137.664C463.969 139.496 466.611 139.511 466.481 137.664V137.664Z" fill="black"/>
<path d="M463.67 116.378C477.65 103.196 472.529 91.069 472.865 82.0249C473.06 76.7733 466.145 65.8195 466.145 65.8195L426.272 56.1852L417.527 70.6998C417.527 70.6998 400.803 131.12 447.356 119.593" fill="#A8542A"/>
<path d="M464.605 117.394C468.789 113.415 472.321 108.517 473.87 102.633C474.998 98.3504 474.943 93.9063 474.588 89.5105C474.435 87.6298 474.241 85.7498 474.185 83.8617C474.237 82.0057 474.052 80.1509 473.636 78.35C472.496 74.3054 470.47 70.5149 468.404 66.9556C467.945 66.1665 467.363 64.7624 466.497 64.4342C466.205 64.3444 465.909 64.2727 465.609 64.2196L459.719 62.7963L440.092 58.0539C435.679 56.9878 431.276 55.8344 426.846 54.8535C426.773 54.8375 426.699 54.8178 426.625 54.7999C426.049 54.6455 425.447 54.912 425.134 55.4601L420.157 63.7195L417.113 68.7725C416.761 69.2669 416.468 69.807 416.238 70.3802C415.33 73.5972 414.672 76.8916 414.272 80.2286C413.226 86.5776 413.022 93.0569 413.665 99.469C414.445 106.016 416.544 112.738 421.312 117.13C427.514 122.842 436.059 123.137 443.725 121.818C445.062 121.588 446.389 121.302 447.709 120.978C449.367 120.571 448.665 117.8 447.007 118.207C442.506 119.434 437.849 119.847 433.224 119.429C430.022 119.117 426.943 117.937 424.267 115.999C423.154 115.143 422.143 114.142 421.255 113.018C420.83 112.496 420.443 111.939 420.097 111.351C419.713 110.723 419.358 110.074 419.035 109.406C418.393 108.105 417.876 106.736 417.491 105.321C417.057 103.801 416.719 102.25 416.478 100.68C416.329 99.7209 416.29 99.4038 416.199 98.4919C416.118 97.6759 416.056 96.8579 416.013 96.0379C415.927 94.4326 415.908 92.8233 415.942 91.2157C415.976 89.6576 416.06 88.1004 416.186 86.5478C416.247 85.7942 416.318 85.0416 416.399 84.29C416.437 83.936 416.477 83.5822 416.519 83.2287C416.529 83.1362 416.587 82.6726 416.546 82.9985C416.571 82.7975 416.597 82.5968 416.624 82.3961C417.123 78.7066 417.818 75.0515 418.705 71.4492C418.724 71.3698 418.804 71.2045 418.791 71.1229C418.793 71.139 418.532 71.5944 418.789 71.2252C419.576 70.0934 420.237 68.8226 420.951 67.6361L427.005 57.5892L427.414 56.9095L425.923 57.5697L439.389 60.8237L460.86 66.0116L465.795 67.2041L465.006 66.5439C466.169 68.39 467.236 70.3169 468.234 72.2732C469.649 75.0454 471.498 78.5177 471.549 81.7022C471.599 84.8522 471.856 87.9479 472.064 91.0905C472.401 94.7024 472.151 98.3508 471.323 101.868C469.896 107.29 466.584 111.703 462.737 115.362C461.455 116.581 463.329 118.606 464.605 117.393L464.605 117.394Z" fill="black"/>
<path d="M433.763 83.6162C433.992 83.4486 434.233 83.2987 434.482 83.1678C434.603 83.1017 434.725 83.0406 434.848 82.9787C435.026 82.8889 434.91 82.9509 434.8 82.9982C434.883 82.9625 434.966 82.925 435.05 82.8903C435.416 82.7386 435.79 82.6109 436.17 82.508C436.375 82.4526 436.581 82.4045 436.789 82.3634C436.814 82.3585 437.204 82.2928 436.918 82.3347C437.022 82.3195 437.126 82.3082 437.231 82.2977C437.744 82.2458 438.261 82.242 438.776 82.2863C438.974 82.2963 439.172 82.3253 439.366 82.3729C439.645 82.4303 439.921 82.5019 440.195 82.5878C440.798 82.7815 441.379 83.0473 441.928 83.3802C442.558 83.7807 443.367 83.5499 443.735 82.8648C444.103 82.1798 443.891 81.2998 443.261 80.8994C440.96 79.4956 438.264 79.0619 435.687 79.681C434.527 79.939 433.422 80.4323 432.429 81.1353C431.815 81.5485 431.607 82.4129 431.956 83.1007C432.328 83.7799 433.132 84.0092 433.763 83.616V83.6162Z" fill="black"/>
<path d="M416.863 83.6192C417.117 83.4851 416.562 83.7259 416.957 83.5761C417.28 83.4536 417.599 83.3307 417.93 83.2325C419.007 82.9149 420.121 82.7685 421.237 82.7979C423.148 82.7889 424.844 84.1265 425.431 86.1047C425.964 88.0167 425.28 90.2048 424.487 91.923C423.92 93.1481 423.224 94.2973 422.413 95.3474C421.922 95.8356 421.594 96.4872 421.48 97.2001C421.427 97.6754 421.454 98.1573 421.561 98.6217C422.218 101.261 425.099 101.1 427.061 100.804C427.761 100.589 428.172 99.801 427.983 99.0366C427.774 98.2851 427.06 97.844 426.359 98.0333C425.642 98.1949 424.9 98.1735 424.192 97.9707C424.117 97.9351 424.111 97.901 424.105 97.8813C424.109 97.8953 424.094 97.826 424.095 97.797C424.1 97.6782 424.091 97.4602 424.101 97.3955L423.761 98.0293C426.75 94.3734 430.065 88.1708 427.148 83.3904C424.642 79.2825 419.319 79.1361 415.53 81.1385C414.002 81.9464 415.34 84.4248 416.863 83.6193L416.863 83.6192Z" fill="black"/>
<ellipse cx="418.71" cy="90.6037" rx="1.70846" ry="1.85849" fill="black"/>
<path d="M417.663 90.6461C417.663 90.586 417.643 90.4417 417.674 90.3891L417.664 90.48C417.669 90.4471 417.675 90.4143 417.682 90.3817C417.689 90.3491 417.696 90.317 417.704 90.2853C417.717 90.2376 417.733 90.1916 417.747 90.1446C417.778 90.0429 417.727 90.1645 417.733 90.1806C417.718 90.14 417.844 89.9658 417.865 89.9268C417.938 89.7916 417.79 90.005 417.855 89.9363C417.881 89.9084 417.903 89.8743 417.928 89.8451C417.956 89.8114 418.052 89.6782 418.089 89.6791C418.066 89.6785 417.983 89.7584 418.062 89.7032C418.099 89.6768 418.136 89.6488 418.174 89.624C418.2 89.6073 418.226 89.5918 418.253 89.5764C418.279 89.561 418.306 89.5468 418.333 89.5333C418.252 89.5693 418.234 89.5777 418.28 89.5583C418.354 89.5413 418.425 89.5046 418.499 89.486C418.523 89.48 418.591 89.4514 418.613 89.462C418.539 89.4265 418.499 89.4748 418.601 89.4677C418.68 89.4622 418.759 89.4626 418.838 89.4689C418.929 89.4761 418.912 89.5218 418.825 89.4644C418.869 89.4796 418.914 89.4901 418.96 89.4957C419.035 89.5063 419.108 89.5324 419.175 89.5726L419.1 89.5393C419.127 89.5531 419.154 89.5676 419.18 89.5829C419.206 89.5981 419.232 89.6142 419.258 89.6311C419.288 89.6555 419.319 89.6776 419.351 89.6972C419.432 89.7333 419.237 89.5844 419.342 89.6876C419.408 89.7533 419.47 89.8204 419.532 89.8907C419.618 89.9871 419.517 89.8611 419.513 89.8586C419.539 89.8741 419.572 89.951 419.588 89.979C419.611 90.0184 419.706 90.1544 419.695 90.1937C419.695 90.1931 419.64 90.0238 419.68 90.1588C419.694 90.2062 419.71 90.2527 419.722 90.3007C419.73 90.3328 419.737 90.3654 419.744 90.398C419.751 90.4306 419.757 90.464 419.761 90.4973C419.75 90.3988 419.747 90.3774 419.752 90.433C419.755 90.511 419.761 90.5879 419.759 90.666C419.763 90.7171 419.76 90.7687 419.749 90.8186C419.786 90.753 419.77 90.695 419.751 90.777C419.731 90.8574 419.716 90.9377 419.692 91.0168L419.676 91.0631C419.65 91.1362 419.655 91.1242 419.691 91.0271C419.698 91.0457 419.636 91.1426 419.629 91.1571C419.611 91.1923 419.589 91.2255 419.571 91.2606C419.542 91.3157 419.535 91.3898 419.583 91.2526C419.542 91.3209 419.492 91.3814 419.433 91.4316C419.404 91.4568 419.377 91.4839 419.351 91.5128C419.297 91.5873 419.481 91.4211 419.361 91.5048C419.285 91.5577 419.209 91.6057 419.13 91.6537C419.061 91.6962 419.126 91.6885 419.164 91.6408C419.124 91.6651 419.081 91.6817 419.035 91.6898C418.969 91.7119 418.901 91.725 418.834 91.7421C418.739 91.7662 419.001 91.7352 418.846 91.739C418.806 91.74 418.767 91.744 418.727 91.7444C418.687 91.7448 418.648 91.744 418.608 91.7414C418.577 91.7394 418.546 91.7365 418.515 91.7325L418.598 91.744C418.57 91.7716 418.376 91.6863 418.333 91.6702C418.307 91.6607 418.206 91.5906 418.286 91.6525C418.371 91.7191 418.224 91.6144 418.204 91.602C418.178 91.586 418.152 91.5693 418.127 91.5519C418.102 91.5345 418.077 91.5164 418.053 91.4976C418.127 91.5619 418.136 91.5697 418.081 91.521C418.026 91.4666 417.971 91.4137 417.921 91.3541L417.891 91.318C417.846 91.2585 417.852 91.2692 417.911 91.3502C417.88 91.3142 417.855 91.2736 417.835 91.2297C417.811 91.1884 417.789 91.1462 417.768 91.103L417.748 91.0593C417.717 90.9883 417.721 91.0006 417.759 91.0961C417.714 91.0535 417.691 90.8694 417.68 90.8107C417.677 90.7771 417.671 90.7439 417.662 90.7114C417.674 90.8185 417.677 90.8314 417.669 90.7501C417.667 90.7156 417.665 90.6811 417.664 90.6464C417.664 90.2498 417.369 89.9282 417.004 89.9282C416.639 89.9282 416.344 90.2498 416.344 90.6464C416.374 91.7336 417.017 92.6882 417.961 93.0467C418.886 93.3834 419.907 93.0665 420.53 92.2491C421.201 91.3714 421.261 90.1179 420.677 89.1696C420.093 88.2213 419.004 87.8046 418.003 88.1459C417.002 88.4873 416.326 89.5051 416.344 90.6464C416.344 91.0431 416.64 91.3647 417.004 91.3647C417.369 91.3647 417.665 91.0431 417.665 90.6464L417.663 90.6461Z" fill="black"/>
<ellipse cx="434.798" cy="89.4983" rx="1.70846" ry="1.85849" fill="black"/>
<path d="M433.75 89.5408C433.749 89.4807 433.729 89.3363 433.761 89.2838L433.75 89.3746C433.755 89.3417 433.761 89.3089 433.768 89.2764C433.775 89.2442 433.782 89.2121 433.791 89.18C433.803 89.1324 433.819 89.0863 433.833 89.0393C433.864 88.9376 433.813 89.0592 433.819 89.0753C433.804 89.0351 433.93 88.8605 433.951 88.8215C434.024 88.6864 433.877 88.8997 433.941 88.831C433.967 88.8031 433.989 88.7689 434.014 88.7398C434.043 88.706 434.138 88.5729 434.175 88.5738C434.152 88.5732 434.069 88.6531 434.148 88.5979C434.186 88.5716 434.222 88.5436 434.261 88.5188C434.286 88.5021 434.312 88.4863 434.339 88.4712C434.365 88.4562 434.393 88.4418 434.42 88.428C434.338 88.4641 434.321 88.4725 434.367 88.4531C434.44 88.4361 434.512 88.3994 434.585 88.3809C434.61 88.3748 434.678 88.3462 434.699 88.3568C434.625 88.3213 434.586 88.3697 434.687 88.3626C434.767 88.3571 434.846 88.3575 434.925 88.3637C435.015 88.371 434.999 88.4167 434.911 88.3593C434.955 88.3744 435 88.3849 435.046 88.3906C435.122 88.4012 435.195 88.4273 435.262 88.4674L435.187 88.4342C435.214 88.4479 435.24 88.4625 435.267 88.4778C435.293 88.493 435.319 88.509 435.345 88.526C435.374 88.5503 435.406 88.5724 435.438 88.5921C435.518 88.6281 435.324 88.4792 435.428 88.5825C435.495 88.6481 435.556 88.7152 435.619 88.7855C435.705 88.8819 435.604 88.756 435.599 88.7534C435.626 88.7689 435.659 88.8458 435.675 88.8738C435.698 88.9132 435.792 89.0492 435.782 89.0885C435.782 89.0879 435.727 88.9186 435.767 89.0536C435.781 89.101 435.797 89.1475 435.809 89.1955C435.817 89.2276 435.824 89.2602 435.831 89.2928C435.837 89.3254 435.843 89.3589 435.848 89.3921C435.837 89.2936 435.834 89.2722 435.839 89.3278C435.841 89.4057 435.848 89.4827 435.846 89.5608C435.85 89.6119 435.847 89.6635 435.835 89.7134C435.872 89.6478 435.857 89.5898 435.837 89.6718C435.818 89.7522 435.803 89.8325 435.778 89.9115L435.763 89.9579C435.736 90.031 435.741 90.019 435.777 89.9219C435.784 89.9405 435.723 90.0374 435.715 90.0519C435.697 90.0871 435.675 90.1203 435.657 90.1554C435.628 90.2105 435.621 90.2846 435.669 90.1474C435.629 90.2157 435.578 90.2762 435.52 90.3264C435.491 90.3516 435.463 90.3787 435.437 90.4076C435.383 90.4821 435.567 90.3159 435.448 90.3996C435.372 90.4526 435.295 90.5006 435.217 90.5486C435.147 90.591 435.212 90.5833 435.251 90.5357C435.21 90.56 435.167 90.5765 435.122 90.5847C435.055 90.6067 434.987 90.6198 434.92 90.637C434.825 90.6611 435.087 90.6301 434.932 90.6339C434.893 90.6348 434.853 90.6389 434.813 90.6393C434.774 90.6397 434.734 90.6388 434.695 90.6363C434.663 90.6343 434.632 90.6313 434.601 90.6274L434.685 90.6388C434.656 90.6665 434.462 90.5812 434.419 90.5651C434.393 90.5555 434.293 90.4855 434.372 90.5474C434.457 90.614 434.31 90.5093 434.29 90.4969C434.264 90.4809 434.238 90.4642 434.213 90.4468C434.189 90.4294 434.164 90.4113 434.14 90.3925C434.213 90.4568 434.223 90.4645 434.168 90.4159C434.113 90.3615 434.057 90.3086 434.007 90.2489L433.978 90.2129C433.932 90.1534 433.939 90.1641 433.997 90.245C433.966 90.209 433.941 90.1685 433.921 90.1246C433.897 90.0833 433.875 90.041 433.854 89.9978L433.834 89.9541C433.804 89.883 433.808 89.8953 433.846 89.9909C433.801 89.9484 433.778 89.7643 433.766 89.7056C433.763 89.672 433.757 89.6387 433.749 89.6063C433.761 89.7134 433.763 89.7263 433.755 89.6449C433.753 89.6104 433.751 89.5759 433.751 89.5413C433.751 89.1446 433.455 88.8231 433.09 88.8231C432.726 88.8231 432.43 89.1446 432.43 89.5413C432.46 90.6285 433.103 91.583 434.047 91.9416C434.973 92.2781 435.993 91.9613 436.616 91.1439C437.287 90.2663 437.347 89.0128 436.763 88.0645C436.179 87.1161 435.09 86.6995 434.089 87.0408C433.087 87.3821 432.412 88.4 432.43 89.5413C432.43 89.938 432.726 90.2596 433.09 90.2596C433.455 90.2596 433.751 89.938 433.751 89.5413L433.75 89.5408Z" fill="black"/>
<path d="M430.598 104.584C431.042 105.532 431.918 106.15 432.895 106.205C433.872 106.26 434.801 105.744 435.334 104.852C435.866 103.959 435.92 102.825 435.476 101.877L430.598 104.584Z" fill="black"/>
<path d="M430.026 104.946C430.686 106.312 432.056 107.088 433.463 106.894C434.87 106.699 436.018 105.575 436.344 104.073C436.52 103.209 436.414 102.304 436.045 101.515C435.856 101.178 435.457 101.064 435.141 101.257L430.862 103.631L430.263 103.964C429.948 104.164 429.842 104.604 430.026 104.946C430.21 105.289 430.614 105.404 430.929 105.204L435.209 102.83L435.808 102.497L434.904 102.24C434.925 102.284 434.945 102.329 434.963 102.374C434.941 102.315 434.944 102.326 434.973 102.406C435.001 102.498 435.029 102.588 435.051 102.682C435.074 102.774 435.091 102.867 435.105 102.961C435.087 102.836 435.107 103.023 435.109 103.051C435.114 103.144 435.115 103.238 435.112 103.331C435.111 103.358 435.087 103.632 435.106 103.487C435.084 103.647 435.049 103.805 435.003 103.959C434.995 103.984 434.904 104.228 434.954 104.11C434.918 104.194 434.879 104.276 434.837 104.357C434.805 104.417 434.771 104.476 434.735 104.534C434.711 104.573 434.686 104.611 434.661 104.648C434.698 104.595 434.692 104.601 434.643 104.667C434.552 104.774 434.389 104.954 434.332 105.003C434.209 105.1 434.08 105.187 433.946 105.263C433.838 105.327 433.722 105.374 433.603 105.405C433.518 105.431 433.433 105.45 433.347 105.469C433.267 105.483 433.261 105.485 433.329 105.474C433.286 105.479 433.243 105.483 433.2 105.486C433.05 105.495 432.9 105.491 432.751 105.474C432.884 105.489 432.637 105.45 432.611 105.444C432.528 105.423 432.447 105.399 432.366 105.37C432.305 105.349 432.245 105.326 432.186 105.299C432.297 105.35 432.076 105.236 432.055 105.224C431.98 105.179 431.907 105.131 431.837 105.079C431.801 105.053 431.766 105.026 431.732 104.998C431.78 105.039 431.775 105.032 431.714 104.979C431.601 104.868 431.494 104.75 431.394 104.624C431.457 104.707 431.315 104.5 431.301 104.477C431.252 104.394 431.208 104.308 431.166 104.221C431.047 103.999 430.828 103.864 430.592 103.865C430.357 103.866 430.139 104.004 430.022 104.227C429.905 104.45 429.907 104.724 430.026 104.946L430.026 104.946Z" fill="black"/>
<path d="M462.426 81.4932C461.685 81.2681 460.901 81.2713 460.162 81.5026C458.506 82.0942 457.15 83.409 456.422 85.1317C455.698 86.7173 455.194 88.4107 454.927 90.1568C454.733 90.922 455.146 91.7133 455.849 91.9242C456.553 92.1351 457.28 91.6858 457.474 90.9206C457.607 90.1204 457.78 89.3286 457.993 88.5488C458.082 88.226 458.18 87.9058 458.288 87.5897C458.336 87.4515 458.39 87.3159 458.437 87.1775C458.503 86.9798 458.301 87.5036 458.422 87.2176C458.457 87.1353 458.49 87.0522 458.525 86.9701C458.722 86.5089 458.953 86.0663 459.218 85.647C459.242 85.608 459.268 85.5699 459.293 85.5308C459.373 85.4042 459.491 85.3635 459.239 85.6014C459.294 85.5374 459.346 85.4692 459.392 85.3972C459.514 85.2417 459.643 85.0933 459.778 84.9527C459.841 84.8878 459.906 84.8248 459.972 84.7637C459.997 84.7403 460.024 84.718 460.049 84.694C460.206 84.5442 459.789 84.8954 459.917 84.8044C460.045 84.7134 460.165 84.6132 460.298 84.5291C460.413 84.4561 460.533 84.3974 460.651 84.3316C460.81 84.2428 460.261 84.486 460.534 84.3878C460.599 84.3644 460.662 84.3377 460.727 84.3155C460.827 84.2821 460.928 84.2537 461.03 84.2305C461.083 84.2184 461.137 84.2114 461.189 84.1983C461.344 84.1609 460.754 84.2445 461.021 84.2241C461.187 84.2084 461.355 84.2048 461.522 84.2132C461.565 84.2161 461.609 84.2223 461.652 84.225C461.87 84.2384 461.336 84.1653 461.416 84.1895C461.469 84.2056 461.528 84.2093 461.583 84.2226C461.63 84.2334 461.678 84.247 461.724 84.2632C462.427 84.4684 463.15 84.0214 463.348 83.2599C463.524 82.4975 463.118 81.7193 462.426 81.493V81.4932Z" fill="black"/>
<path d="M483.189 81.6332L472.888 109.902C471.439 113.878 467.875 116.458 463.944 116.376L463.68 116.37L463.672 116.378L461.398 98.9661C463.581 96.8554 466.446 89.1677 466.197 84.8869C465.822 78.4199 462.542 77.1176 458.39 77.4029C456.878 77.5068 455.375 78.7495 454.09 80.5878C451.118 85.186 452.129 95.4018 452.129 95.4018L447.802 80.0342V80.0342C445.919 74.7575 441.298 71.2361 436.096 71.1142L417.402 70.6762C417.402 70.6762 390.805 67.6702 400.049 34.6299H444.949C456.717 34.6299 467.648 41.2486 473.849 52.1284L477.522 58.5721V58.5721C480.55 58.5721 483.39 60.1729 485.136 62.8646C486.882 65.5563 487.317 69.0031 486.303 72.1071L483.189 81.6332Z" fill="#C42B0A"/>
<path d="M481.914 81.2513L477.237 94.0857C475.402 99.1209 473.587 104.165 471.732 109.192C471.222 110.619 470.397 111.889 469.329 112.888C468.382 113.749 467.267 114.363 466.068 114.683C465.46 114.849 464.836 114.935 464.21 114.941C463.686 114.86 463.155 115.012 462.736 115.363L464.943 115.996L462.959 100.805L462.669 98.584L462.33 99.9815C463.436 98.7553 464.324 97.3167 464.949 95.7386C465.823 93.788 466.507 91.7436 466.991 89.6385C467.827 85.9334 467.894 81.2972 465.367 78.3019C463.297 75.8483 459.013 75.1441 456.299 76.5842C452.641 78.5245 451.341 82.8943 450.879 86.9599C450.561 89.7617 450.536 92.5937 450.807 95.4015L453.401 95.0196L451.023 86.5749C450.202 83.6579 449.613 80.4363 448.271 77.7295C445.782 72.8393 441.082 69.7676 435.944 69.6739C433.125 69.5975 430.305 69.5417 427.485 69.4757L417.945 69.2522C417.764 69.2479 417.581 69.2361 417.4 69.2394C417.13 69.2445 417.411 69.2369 417.523 69.2594C417.058 69.1666 416.591 69.0948 416.128 68.9876C411.787 68.1066 407.784 65.8422 404.628 62.482C402.445 60.0631 400.89 57.0585 400.122 53.7737C399.013 49.156 399.313 44.2478 400.219 39.6221C400.524 38.068 400.899 36.5327 401.321 35.0121L400.047 36.0667H444.247C448.134 36.0222 452 36.6881 455.684 38.0366C461.509 40.2542 466.644 44.2067 470.505 49.444C472.75 52.4766 474.325 55.9966 476.328 59.2067C477.018 60.3118 478.352 59.9652 479.424 60.2523C480.68 60.5808 481.842 61.2404 482.807 62.173C484.761 64.0655 485.757 66.867 485.481 69.6974C485.213 71.2527 484.787 72.7708 484.211 74.2235L482.311 80.0348L481.913 81.2515C481.343 82.9969 483.894 83.748 484.46 82.0153L487.277 73.3979C487.911 71.6787 488.206 69.834 488.144 67.9829C487.968 65.2451 486.919 62.66 485.179 60.6733C483.171 58.4152 480.408 57.1389 477.52 57.1358L478.661 57.8474C477.446 55.7167 476.238 53.5821 475.017 51.4553C468.433 39.8547 456.699 32.9083 444.169 33.1936H411.579C407.803 33.1936 404.002 33.054 400.227 33.1936C400.168 33.1958 400.107 33.1936 400.047 33.1936C399.457 33.2043 398.941 33.6315 398.774 34.2483C396.31 43.1352 395.38 53.6884 400.591 61.6826C403.706 66.4613 408.44 69.6282 413.561 71.2473C414.776 71.66 416.024 71.9451 417.289 72.0987C418.998 72.2648 420.753 72.1917 422.467 72.2318L433.577 72.4921C434.409 72.5116 435.241 72.5232 436.073 72.5506C438.582 72.6181 441.003 73.5644 442.978 75.2487C444.621 76.6288 445.871 78.4875 446.581 80.6091C446.956 81.8449 447.283 83.1002 447.633 84.3443L450.647 95.049L450.853 95.784C451.269 97.2581 453.611 97.0801 453.447 95.4021C453.071 91.5366 453.087 87.2662 454.218 83.5527C454.602 82.263 455.28 81.1 456.188 80.1719C457.094 79.1902 458.351 78.6907 459.626 78.8058C461.561 78.8435 463.334 79.5007 464.194 81.5208C465.287 84.0858 464.922 87.056 464.251 89.6785C463.647 92.3742 462.582 94.9222 461.112 97.1892C460.552 97.9777 459.998 98.3791 460.141 99.4899C460.197 99.9294 460.256 100.369 460.313 100.808L461.028 106.285L462.396 116.761C462.546 117.905 463.953 118.04 464.604 117.395L464.612 117.386L463.678 117.807C468.282 117.946 472.473 114.935 474.163 110.274C474.708 108.81 475.234 107.336 475.769 105.868L482.616 87.0764L484.46 82.0153C484.648 81.2512 484.238 80.4645 483.538 80.2484C482.837 80.0556 482.121 80.4978 481.914 81.2513V81.2513Z" fill="black"/>
<path d="M650.078 199.353L667.745 183.217C670.15 181.639 672.321 179.672 674.183 177.385V177.385C678.424 172.175 683.086 168.273 689.401 167.159L691.858 161.787C691.858 161.787 671.069 133.888 668.006 134.493L659.44 133.7C660.27 131.445 659.81 128.87 658.265 127.117V127.117C657.085 125.779 655.417 125.086 653.719 125.229C652.02 125.371 650.469 126.335 649.493 127.854L645.525 134.028C643.046 137.884 641.37 142.28 640.611 146.912L639.705 152.438C638.698 158.585 635.397 164.004 630.585 167.409L629.246 168.357" fill="#A8542A"/>
<path d="M651.011 200.368L664.305 188.226C665.964 186.619 667.699 185.109 669.504 183.701C672.236 181.716 674.338 179.194 676.603 176.652C678.623 174.303 680.973 172.317 683.565 170.769C684.984 169.957 686.488 169.337 688.044 168.923C688.885 168.697 690.018 168.737 690.541 167.884C690.636 167.703 690.722 167.517 690.796 167.325L692.998 162.512C693.277 161.943 693.194 161.244 692.791 160.771C689.326 156.122 685.775 151.549 682.138 147.051C679.555 143.853 676.935 140.674 674.145 137.686C673.121 136.561 672.036 135.503 670.896 134.518C670.153 133.743 669.211 133.231 668.195 133.052C668.081 133.047 667.981 133.076 667.865 133.076C667.34 133.081 668.17 133.196 667.925 133.049C667.679 132.984 667.425 132.96 667.172 132.979L664.272 132.711L659.44 132.263L660.713 134.082C661.576 131.452 661.061 128.52 659.368 126.422C657.676 124.323 655.07 123.387 652.561 123.975C649.154 124.801 647.444 128.541 645.603 131.406C643.059 135.364 640.92 139.454 639.805 144.18C639.021 147.508 638.823 150.983 637.957 154.288C637.17 157.303 635.773 160.088 633.869 162.44C632.309 164.253 630.53 165.826 628.579 167.116C627.16 168.12 628.482 170.609 629.912 169.597C633.565 167.012 636.705 163.994 638.769 159.737C640.47 156.229 641.033 152.485 641.663 148.641C642.362 143.725 644.038 139.033 646.575 134.894C647.89 132.819 649.192 130.722 650.562 128.689C651.847 126.676 654.328 126.054 656.294 127.251C658.261 128.448 659.071 131.073 658.166 133.318C658.063 133.75 658.148 134.209 658.396 134.564C658.645 134.919 659.03 135.13 659.44 135.136L663.356 135.499C664.856 135.638 666.396 135.903 667.903 135.92C667.936 135.92 667.969 135.928 668.003 135.929C669.056 135.961 667.9 135.893 668.134 135.92C668.369 135.947 667.738 135.865 667.997 135.904C668.074 135.918 668.149 135.944 668.218 135.983C667.768 135.717 668.309 136.052 668.425 136.126C668.626 136.254 668.819 136.397 669.008 136.544C669.11 136.624 669.211 136.706 669.311 136.788C669.304 136.782 669.219 136.706 669.404 136.871C669.668 137.106 669.929 137.343 670.186 137.587C670.72 138.095 671.238 138.622 671.749 139.157C677.223 144.893 682.133 151.309 687.005 157.643C688.321 159.354 689.627 161.074 690.923 162.803L690.716 161.062L688.259 166.433L689.049 165.773C683.87 166.726 679.383 169.692 675.648 173.626C673.685 175.694 671.999 178.017 669.857 179.884C668.763 180.838 667.519 181.553 666.448 182.531L653.641 194.229L649.144 198.337C647.841 199.527 649.717 201.55 651.011 200.368V200.368Z" fill="black"/>
<path d="M676.359 159.547C685.248 156.805 694.473 155.572 703.708 155.89C713.081 157.249 712.434 164.697 703.22 165.763C694.007 166.829 690.211 165.209 679.87 171.862" fill="#A8542A"/>
<path d="M676.709 160.932C679.129 160.14 681.588 159.501 684.076 159.019C689.96 157.781 695.945 157.198 701.938 157.277C704.108 157.311 706.845 157.598 708.486 159.375C708.716 159.593 708.897 159.865 709.014 160.171C709.048 160.254 709.073 160.342 709.087 160.431C709.126 160.619 709.121 160.404 709.119 160.731C709.122 160.924 709.089 161.116 709.023 161.295C708.907 161.597 708.735 161.871 708.518 162.098C707.05 163.74 704.658 164.175 702.662 164.388C700.282 164.642 697.895 164.727 695.51 164.893C693.036 165.017 690.583 165.439 688.194 166.151C685.04 167.235 682.019 168.736 679.202 170.622C678.6 171.036 678.408 171.893 678.767 172.562C679.127 173.23 679.908 173.469 680.535 173.102C683.153 171.34 685.962 169.936 688.897 168.922C691.09 168.263 693.344 167.872 695.617 167.759C698.2 167.583 700.79 167.506 703.363 167.182C705.802 166.874 708.455 166.178 710.273 164.253C711.655 162.917 712.1 160.772 711.378 158.921C710.505 156.82 708.386 155.663 706.453 155.044C703.18 153.996 699.525 154.333 696.157 154.533C692.903 154.732 689.66 155.111 686.441 155.668C682.911 156.217 679.424 157.05 676.007 158.162C674.392 158.716 675.082 161.49 676.709 160.933L676.709 160.932Z" fill="black"/>
<path d="M675.976 148.541C675.976 148.541 690.436 142.05 705.237 139.588C714.678 139.009 715.328 146.457 706.462 149.385C697.596 152.314 689.532 155.725 674.688 161.864" fill="#A8542A"/>
<path d="M676.33 149.927C679.466 148.521 682.691 147.322 685.92 146.194C689.159 145.063 692.43 144.038 695.733 143.149C697.537 142.663 699.351 142.221 701.175 141.822C702.969 141.33 704.807 141.053 706.657 140.998C707.787 140.985 708.908 141.217 709.954 141.683C710.289 141.848 710.601 142.064 710.879 142.326C710.968 142.412 711.05 142.507 711.125 142.608C711.171 142.678 711.384 143.158 711.316 142.954C711.508 143.524 711.416 144.163 711.072 144.642C710.518 145.518 709.773 146.232 708.905 146.721C706.759 148.067 704.189 148.63 701.848 149.466C699.495 150.306 697.157 151.191 694.827 152.103C687.962 154.789 681.158 157.658 674.339 160.479C672.765 161.129 673.448 163.908 675.041 163.249C681.603 160.535 688.153 157.779 694.754 155.177C697.239 154.198 699.734 153.247 702.244 152.346C704.837 151.416 707.633 150.763 710.036 149.325C711.959 148.173 713.969 146.221 714.052 143.654C714.131 141.206 712.326 139.556 710.377 138.787C707.106 137.497 703.589 138.371 700.304 139.088C696.464 139.927 692.665 140.983 688.909 142.187C684.405 143.591 679.972 145.25 675.626 147.156C674.939 147.388 674.536 148.161 674.704 148.923C674.901 149.685 675.626 150.132 676.328 149.926L676.33 149.927Z" fill="black"/>
<path d="M668.676 141.174C668.676 141.174 685.3 128.081 699.198 122.021C708.27 119.121 710.46 126.212 702.44 131.258C694.419 136.304 687.279 141.622 674.108 151.274" fill="#A8542A"/>
<path d="M669.343 142.414C677.352 136.036 685.868 130.445 694.787 125.707C697.56 124.259 700.659 122.386 703.849 122.827C704.244 122.878 704.631 122.985 705.001 123.143C705.129 123.205 705.502 123.45 705.489 123.44C705.617 123.545 705.73 123.67 705.826 123.81C705.977 124.027 705.927 123.95 705.978 124.109C706.014 124.223 706.042 124.34 706.062 124.458C706.103 124.698 706.05 124.267 706.064 124.516C706.101 124.965 706.02 125.416 705.832 125.818C704.778 128.506 701.925 129.903 699.753 131.307C697.476 132.779 695.224 134.295 692.998 135.856C686.403 140.454 679.939 145.273 673.443 150.033C672.041 151.061 673.361 153.551 674.776 152.514C680.986 147.962 687.17 143.362 693.462 138.944C695.857 137.262 698.273 135.614 700.72 134.024C703.337 132.325 706.256 130.752 707.857 127.785C709.064 125.547 709.044 122.702 706.978 121.086C704.627 119.246 700.861 119.736 698.347 120.857C691.634 123.971 685.172 127.689 679.027 131.972C675.285 134.501 671.58 137.124 668.01 139.934C666.646 141.008 667.963 143.501 669.343 142.415L669.343 142.414Z" fill="black"/>
<path d="M658.801 135.828C658.801 135.828 675.988 116.455 688.751 107.94C697.247 103.422 700.502 110.012 693.375 116.452C686.247 122.893 680.031 129.441 668.539 141.364" fill="#A8542A"/>
<path d="M659.733 136.844C666.369 129.317 673.452 122.272 680.937 115.753C683.467 113.536 686.107 111.471 688.845 109.567C690.238 108.582 691.84 108.005 693.498 107.89C694.029 107.847 694.561 107.93 695.059 108.133C695.335 108.265 695.571 108.477 695.744 108.746C696.144 109.441 695.946 110.555 695.513 111.512C694.663 113.163 693.504 114.602 692.111 115.734C689.961 117.686 687.849 119.683 685.773 121.728C679.595 127.79 673.624 134.102 667.604 140.348C666.371 141.627 668.241 143.657 669.471 142.38C675.221 136.414 680.929 130.394 686.809 124.579C689.052 122.361 691.333 120.189 693.651 118.064C696.003 115.919 698.906 112.896 698.576 109.206C698.286 105.969 695.386 104.738 692.729 105.087C689.062 105.569 686.08 108.002 683.182 110.303C677.468 114.933 672.015 119.932 666.853 125.274C663.794 128.378 660.772 131.538 657.865 134.813C656.684 136.144 658.55 138.178 659.733 136.845L659.733 136.844Z" fill="black"/>
<path d="M629.242 168.357L630.581 167.409C635.393 164.004 638.694 158.585 639.701 152.438L640.607 146.912C641.366 142.28 643.043 137.884 645.521 134.028L649.489 127.854C650.465 126.335 652.016 125.371 653.715 125.229C655.413 125.086 657.082 125.779 658.261 127.117V127.117C659.806 128.87 660.266 131.445 659.436 133.7L655.967 143.132C655.967 143.132 662.918 155.014 663.543 168.091" fill="#A8542A"/>
<path d="M629.909 169.597C632.948 167.603 635.576 164.949 637.632 161.802C639.465 158.698 640.675 155.207 641.181 151.559C641.598 148.316 642.267 145.117 643.181 141.997C644.366 138.736 645.947 135.662 647.88 132.856L650.104 129.395C650.603 128.479 651.306 127.713 652.149 127.171C655.647 125.208 659.512 129.028 658.264 133.022C657.617 135.093 656.768 137.111 656.021 139.142L654.859 142.303C654.615 142.896 654.661 143.582 654.981 144.129C658.813 151.487 661.778 159.561 662.222 168.091C662.318 169.93 664.96 169.942 664.863 168.091C664.454 161.924 663.065 155.88 660.758 150.229C659.737 147.519 658.517 144.903 657.108 142.407L657.241 143.514C658.385 140.403 659.559 137.302 660.674 134.178C661.785 131.088 660.932 127.572 658.564 125.481C656.196 123.39 652.857 123.205 650.306 125.024C648.748 126.15 647.78 128.013 646.728 129.65C645.705 131.241 644.638 132.81 643.678 134.447C641.693 137.837 640.283 141.587 639.514 145.518C639.136 147.467 638.856 149.443 638.534 151.404C638.05 154.698 636.91 157.836 635.195 160.601C633.406 163.228 631.156 165.443 628.575 167.116C627.156 168.121 628.478 170.609 629.908 169.597L629.909 169.597Z" fill="black"/>
<path d="M435.263 182.833L420.749 181.827L417.023 217.661L419.749 217C427.267 215.178 432.777 208.948 433.489 201.466L435.263 182.833Z" fill="#FF6D6D"/>
<path d="M435.264 181.396L420.751 180.391C420.028 180.408 419.446 181.041 419.43 181.828L418.168 193.965L416.167 213.207L415.704 217.661C415.602 218.643 416.626 219.228 417.376 219.046C420.606 218.263 423.752 217.443 426.588 215.48C430.164 213.063 432.845 209.355 434.163 205.005C434.679 202.844 434.994 200.632 435.103 198.403L435.979 189.2L436.585 182.832C436.58 182.041 435.992 181.402 435.264 181.396C434.541 181.412 433.959 182.046 433.944 182.832L432.619 196.753C432.461 198.411 432.345 200.082 432.142 201.736C431.566 205.864 429.525 209.582 426.457 212.092C423.544 214.532 420.179 215.426 416.675 216.275L418.346 217.661L419.608 205.523L421.609 186.281L422.072 181.827L420.752 183.264L435.265 184.269C436.962 184.387 436.955 181.513 435.264 181.396Z" fill="black"/>
</g>
<defs>
<filter id="filter0_d_317_3679" x="0" y="0" width="724.055" height="634" filterUnits="userSpaceOnUse" color-interpolation-filters="sRGB">
<feFlood flood-opacity="0" result="BackgroundImageFix"/>
<feColorMatrix in="SourceAlpha" type="matrix" values="0 0 0 0 0 0 0 0 0 0 0 0 0 0 0 0 0 0 127 0" result="hardAlpha"/>
<feOffset dy="10"/>
<feGaussianBlur stdDeviation="5"/>
<feComposite in2="hardAlpha" operator="out"/>
<feColorMatrix type="matrix" values="0 0 0 0 0 0 0 0 0 0 0 0 0 0 0 0 0 0 0.5 0"/>
<feBlend mode="normal" in2="BackgroundImageFix" result="effect1_dropShadow_317_3679"/>
<feBlend mode="normal" in="SourceGraphic" in2="effect1_dropShadow_317_3679" result="shape"/>
</filter>
</defs>
</svg>
