<svg width="673" height="703" viewBox="0 0 673 703" fill="none" xmlns="http://www.w3.org/2000/svg">
<path d="M424 658.5V699.5C424 700.605 424.895 701.5 426 701.5H669.5C670.605 701.5 671.5 700.605 671.5 699.5V435C671.5 433.895 670.605 433 669.5 433H621.5C620.395 433 619.5 433.895 619.5 435V493C619.5 494.105 618.605 495 617.5 495H570.5C569.395 495 568.5 495.895 568.5 497V544.5C568.5 545.605 567.605 546.5 566.5 546.5H526C524.895 546.5 524 547.395 524 548.5V601C524 602.105 523.105 603 522 603H478C476.895 603 476 603.895 476 605V654.5C476 655.605 475.105 656.5 474 656.5H426C424.895 656.5 424 657.395 424 658.5Z" fill="#C5CAFF" stroke="black" stroke-width="3" stroke-linecap="round"/>
<path d="M63 200H4C2.89543 200 2 199.105 2 198V4C2 2.89543 2.89543 2 4 2H198C199.105 2 200 2.89543 200 4V67C200 68.1046 199.105 69 198 69H131C129.895 69 129 69.8954 129 71V136C129 137.105 128.105 138 127 138H67C65.8954 138 65 138.895 65 140V198C65 199.105 64.1046 200 63 200Z" fill="#C5CAFF" stroke="black" stroke-width="3" stroke-linecap="round"/>
<path d="M532 67.6716V35.5C532 34.3954 531.105 33.5 530 33.5H497.828C496.047 33.5 495.154 35.6543 496.414 36.9142L528.586 69.0858C529.846 70.3457 532 69.4534 532 67.6716Z" fill="#005382" stroke="black" stroke-width="3" stroke-linecap="round"/>
<path d="M571 67.1716V35C571 33.8954 570.105 33 569 33H536.828C535.047 33 534.154 35.1543 535.414 36.4142L567.586 68.5858C568.846 69.8457 571 68.9534 571 67.1716Z" fill="#005382" stroke="black" stroke-width="3" stroke-linecap="round"/>
<path d="M610 67.1716V35C610 33.8954 609.105 33 608 33H575.828C574.047 33 573.154 35.1543 574.414 36.4142L606.586 68.5858C607.846 69.8457 610 68.9534 610 67.1716Z" fill="#005382" stroke="black" stroke-width="3" stroke-linecap="round"/>
<path d="M649 67.1716V35C649 33.8954 648.105 33 647 33H614.828C613.047 33 612.154 35.1543 613.414 36.4142L645.586 68.5858C646.846 69.8457 649 68.9534 649 67.1716Z" fill="#005382" stroke="black" stroke-width="3" stroke-linecap="round"/>
<path d="M532 110.172V78C532 76.8954 531.105 76 530 76H497.828C496.047 76 495.154 78.1543 496.414 79.4142L528.586 111.586C529.846 112.846 532 111.953 532 110.172Z" fill="#005382" stroke="black" stroke-width="3" stroke-linecap="round"/>
<path d="M571 109.672V77.5C571 76.3954 570.105 75.5 569 75.5H536.828C535.047 75.5 534.154 77.6543 535.414 78.9142L567.586 111.086C568.846 112.346 571 111.453 571 109.672Z" fill="#005382" stroke="black" stroke-width="3" stroke-linecap="round"/>
<path d="M610 109.672V77.5C610 76.3954 609.105 75.5 608 75.5H575.828C574.047 75.5 573.154 77.6543 574.414 78.9142L606.586 111.086C607.846 112.346 610 111.453 610 109.672Z" fill="#005382" stroke="black" stroke-width="3" stroke-linecap="round"/>
<path d="M649 109.672V77.5C649 76.3954 648.105 75.5 647 75.5H614.828C613.047 75.5 612.154 77.6543 613.414 78.9142L645.586 111.086C646.846 112.346 649 111.453 649 109.672Z" fill="#005382" stroke="black" stroke-width="3" stroke-linecap="round"/>
</svg>
